<svg width="24" height="24" viewBox="0 0 24 24" fill="none" xmlns="http://www.w3.org/2000/svg">
<path d="M6 2.5C4.067 2.5 2.5 4.067 2.5 6C2.5 7.933 4.067 9.5 6 9.5C7.933 9.5 9.5 7.933 9.5 6C9.5 4.067 7.933 2.5 6 2.5ZM1 6C1 3.23858 3.23858 1 6 1C8.76142 1 11 3.23858 11 6C11 8.76142 8.76142 11 6 11C3.23858 11 1 8.76142 1 6ZM12.5 2.75C12.5 2.33579 12.8358 2 13.25 2H18.1667C20.2838 2 22 3.71624 22 5.83333V14.75C22 14.9489 21.921 15.1397 21.7803 15.2803L15.2803 21.7803C15.1397 21.921 14.9489 22 14.75 22H5.83333C3.71624 22 2 20.2838 2 18.1667V13.25C2 12.8358 2.33579 12.5 2.75 12.5C3.16421 12.5 3.5 12.8358 3.5 13.25V18.1667C3.5 19.4553 4.54467 20.5 5.83333 20.5H14V16.75C14 15.2312 15.2312 14 16.75 14H20.5V5.83333C20.5 4.54467 19.4553 3.5 18.1667 3.5H13.25C12.8358 3.5 12.5 3.16421 12.5 2.75ZM19.4393 15.5H16.75C16.0596 15.5 15.5 16.0596 15.5 16.75V19.4393L19.4393 15.5ZM6 3.5C6.41421 3.5 6.75 3.83579 6.75 4.25V5.25H7.75C8.16421 5.25 8.5 5.58579 8.5 6C8.5 6.41421 8.16421 6.75 7.75 6.75L6.75 6.75V7.75C6.75 8.16421 6.41421 8.5 6 8.5C5.58579 8.5 5.25 8.16421 5.25 7.75V6.75L4.25 6.75C3.83579 6.75 3.5 6.41421 3.5 6C3.5 5.58579 3.83579 5.25 4.25 5.25H5.25V4.25C5.25 3.83579 5.58579 3.5 6 3.5Z" fill="black"/>
</svg>
