<svg width="24" height="24" viewBox="0 0 24 24" fill="none" xmlns="http://www.w3.org/2000/svg">
<path d="M14.4316 4.40574L14.4324 4.40718L21.6216 16.7822C22.6985 18.6535 21.3549 21 19.1913 21H4.80882C2.64519 21 1.30167 18.6535 2.37848 16.7822L2.38012 16.7793L9.57173 4.40718L9.57263 4.40561C10.6526 2.53142 13.3517 2.53146 14.4316 4.40574ZM13.1323 5.15532C12.6295 4.28156 11.3746 4.28156 10.8718 5.15532L10.8702 5.15816L3.67859 17.5303L3.67788 17.5316C3.17354 18.4101 3.80798 19.5 4.80882 19.5H19.1913C20.1921 19.5 20.8266 18.4101 20.3223 17.5316L20.3215 17.5303L13.1338 5.158L13.1323 5.15532ZM12.0001 8.5C12.4143 8.5 12.7501 8.83579 12.7501 9.25V13.75C12.7501 14.1642 12.4143 14.5 12.0001 14.5C11.5858 14.5 11.2501 14.1642 11.2501 13.75V9.25C11.2501 8.83579 11.5858 8.5 12.0001 8.5ZM11.0001 16.5C11.0001 15.9477 11.4478 15.5 12.0001 15.5C12.5523 15.5 13.0001 15.9477 13.0001 16.5C13.0001 17.0523 12.5523 17.5 12.0001 17.5C11.4478 17.5 11.0001 17.0523 11.0001 16.5Z" fill="black"/>
</svg>
