<svg width="24" height="24" viewBox="0 0 24 24" fill="none" xmlns="http://www.w3.org/2000/svg">
<path d="M2 6.86111C2 4.17639 4.17639 2 6.86111 2H17.1389C19.8236 2 22 4.17639 22 6.86111V17.1389C22 19.8236 19.8236 22 17.1389 22H6.86111C4.17639 22 2 19.8236 2 17.1389V6.86111ZM6.86111 3.5C5.00482 3.5 3.5 5.00482 3.5 6.86111V17.1389C3.5 18.9952 5.00482 20.5 6.86111 20.5H17.1389C18.9952 20.5 20.5 18.9952 20.5 17.1389V6.86111C20.5 5.00482 18.9952 3.5 17.1389 3.5H6.86111ZM12 6.5C12.4142 6.5 12.75 6.83579 12.75 7.25V13.75C12.75 14.1642 12.4142 14.5 12 14.5C11.5858 14.5 11.25 14.1642 11.25 13.75V7.25C11.25 6.83579 11.5858 6.5 12 6.5ZM11 16.5C11 15.9477 11.4477 15.5 12 15.5C12.5523 15.5 13 15.9477 13 16.5C13 17.0523 12.5523 17.5 12 17.5C11.4477 17.5 11 17.0523 11 16.5Z" fill="black"/>
</svg>
