<svg width="24" height="24" viewBox="0 0 24 24" fill="none" xmlns="http://www.w3.org/2000/svg">
<path d="M12 3.5C7.30558 3.5 3.5 7.30558 3.5 12C3.5 16.6944 7.30558 20.5 12 20.5C16.6944 20.5 20.5 16.6944 20.5 12C20.5 7.30558 16.6944 3.5 12 3.5ZM2 12C2 6.47715 6.47715 2 12 2C17.5228 2 22 6.47715 22 12C22 17.5228 17.5228 22 12 22C6.47715 22 2 17.5228 2 12ZM12 6.5C12.4142 6.5 12.75 6.83579 12.75 7.25V13.75C12.75 14.1642 12.4142 14.5 12 14.5C11.5858 14.5 11.25 14.1642 11.25 13.75V7.25C11.25 6.83579 11.5858 6.5 12 6.5ZM11 16.5C11 15.9477 11.4477 15.5 12 15.5C12.5523 15.5 13 15.9477 13 16.5C13 17.0523 12.5523 17.5 12 17.5C11.4477 17.5 11 17.0523 11 16.5Z" fill="black"/>
</svg>
