<svg width="24" height="24" viewBox="0 0 24 24" fill="none" xmlns="http://www.w3.org/2000/svg">
<path fill-rule="evenodd" clip-rule="evenodd" d="M15.0693 2.46972C15.3622 2.17689 15.837 2.17702 16.1299 2.46972C16.4228 2.76261 16.4228 3.23737 16.1299 3.53026L15.4502 4.20897C17.0789 5.31512 18.1479 7.18206 18.1484 9.29882L18.1494 9.29979V17.2998C18.1494 18.266 17.3656 19.0498 16.3994 19.0498H15.4502V21C15.4501 21.4141 15.1143 21.7499 14.7002 21.75C14.286 21.75 13.9503 21.4141 13.9502 21V19.0498H10.0498V21C10.0497 21.4141 9.71395 21.75 9.2998 21.75C8.88574 21.7499 8.54991 21.4141 8.5498 21V19.0498H7.59961C6.63356 19.0496 5.84961 18.2659 5.84961 17.2998V9.29784C5.85047 7.18182 6.92066 5.31502 8.54883 4.20897L7.87012 3.53026C7.57722 3.23737 7.57722 2.76261 7.87012 2.46972C8.16302 2.17698 8.63782 2.17687 8.93066 2.46972L9.95898 3.49804C10.5978 3.27324 11.2845 3.15042 12 3.15038C12.7151 3.15042 13.4016 3.27349 14.04 3.49804L15.0693 2.46972ZM7.34961 17.2998C7.34961 17.4375 7.46199 17.5496 7.59961 17.5498H16.3994C16.5372 17.5498 16.6494 17.4376 16.6494 17.2998V10.0498H7.34961V17.2998ZM12 4.65038C9.68796 4.65056 7.77018 6.33893 7.41113 8.54979H16.5889C16.2299 6.33891 14.312 4.65057 12 4.65038Z" fill="black"/>
<path d="M4 8.49999C4.41421 8.49999 4.75 8.83578 4.75 9.24999V14.75C4.75 15.1642 4.41421 15.5 4 15.5C3.58579 15.5 3.25 15.1642 3.25 14.75V9.24999C3.25 8.83578 3.58579 8.49999 4 8.49999Z" fill="black"/>
<path d="M20 8.49999C20.4142 8.49999 20.75 8.83578 20.75 9.24999V14.75C20.75 15.1642 20.4142 15.5 20 15.5C19.5858 15.5 19.25 15.1642 19.25 14.75V9.24999C19.25 8.83578 19.5858 8.49999 20 8.49999Z" fill="black"/>
</svg>
