<svg width="24" height="24" viewBox="0 0 24 24" fill="none" xmlns="http://www.w3.org/2000/svg">
<path d="M4.80556 3.5H19.1944C19.9155 3.5 20.5 4.08452 20.5 4.80556V7.32051C20.1098 7.11572 19.6655 7 19.1944 7H4.80556C4.33452 7 3.8902 7.11572 3.5 7.32051V4.80556C3.5 4.08452 4.08452 3.5 4.80556 3.5ZM22 4.80556C22 3.25609 20.7439 2 19.1944 2H4.80556C3.25609 2 2 3.25609 2 4.80556V19.1944C2 20.7439 3.25609 22 4.80556 22H19.1944C20.7439 22 22 20.7439 22 19.1944V4.80556ZM20.5 9.8V13H15.0833C14.6691 13 14.3333 13.3358 14.3333 13.75C14.3333 15.0408 13.2866 16.09 12 16.09C10.7134 16.09 9.66667 15.0408 9.66667 13.75C9.66667 13.3358 9.33088 13 8.91667 13H3.5V9.8C3.5 9.0816 4.08187 8.5 4.80556 8.5H19.1944C19.9181 8.5 20.5 9.0816 20.5 9.8ZM20.5 14.5V19.1944C20.5 19.9155 19.9155 20.5 19.1944 20.5H4.80556C4.08452 20.5 3.5 19.9155 3.5 19.1944V14.5H8.23999C8.58845 16.2581 10.1378 17.59 12 17.59C13.8622 17.59 15.4116 16.2581 15.76 14.5H20.5Z" fill="black"/>
</svg>
