<svg width="24" height="24" viewBox="0 0 24 24" fill="none" xmlns="http://www.w3.org/2000/svg">
<path d="M12 3.5C7.30558 3.5 3.5 7.30558 3.5 12C3.5 16.6944 7.30558 20.5 12 20.5C16.6944 20.5 20.5 16.6944 20.5 12C20.5 7.30558 16.6944 3.5 12 3.5ZM2 12C2 6.47715 6.47715 2 12 2C17.5228 2 22 6.47715 22 12C22 17.5228 17.5228 22 12 22C6.47715 22 2 17.5228 2 12ZM8.98959 8.25C8.98959 7.83579 9.32538 7.5 9.73959 7.5H15.75C16.1642 7.5 16.5 7.83579 16.5 8.25V14.2604C16.5 14.6746 16.1642 15.0104 15.75 15.0104C15.3358 15.0104 15 14.6746 15 14.2604V10.0606L8.78033 16.2803C8.48743 16.5732 8.01256 16.5732 7.71967 16.2803C7.42678 15.9874 7.42678 15.5125 7.71967 15.2196L13.9393 9H9.73959C9.32538 9 8.98959 8.66421 8.98959 8.25Z" fill="black"/>
</svg>
