<svg width="24" height="24" viewBox="0 0 24 24" fill="none" xmlns="http://www.w3.org/2000/svg">
<path d="M12.8786 3.33142C13.7311 2.47893 14.8874 2 16.093 2C17.2986 2 18.4548 2.47893 19.3073 3.33142C20.1598 4.18392 20.6387 5.34015 20.6387 6.54576C20.6387 7.75137 20.1598 8.9076 19.3073 9.7601L11.6387 17.4287C11.1422 17.9253 10.4687 18.2042 9.7664 18.2042C9.06413 18.2042 8.39063 17.9253 7.89406 17.4287C7.39749 16.9321 7.11851 16.2586 7.11851 15.5564C7.11851 14.8541 7.39749 14.1806 7.89406 13.684L14.7958 6.78229C15.0887 6.4894 15.5636 6.4894 15.8565 6.78229C16.1493 7.07518 16.1493 7.55006 15.8565 7.84295L8.95472 14.7447C8.73945 14.96 8.61851 15.2519 8.61851 15.5564C8.61851 15.8608 8.73945 16.1528 8.95472 16.368C9.16999 16.5833 9.46196 16.7042 9.76639 16.7042C10.0708 16.7042 10.3628 16.5833 10.5781 16.368L18.2467 8.69944C18.8179 8.12825 19.1387 7.35355 19.1387 6.54576C19.1387 5.73797 18.8179 4.96327 18.2467 4.39208C17.6755 3.82089 16.9008 3.5 16.093 3.5C15.2852 3.5 14.5105 3.82089 13.9393 4.39208L6.27071 12.0607C5.3436 12.9878 4.82275 14.2452 4.82275 15.5564C4.82275 16.8675 5.3436 18.1249 6.27071 19.052C7.19783 19.9792 8.45526 20.5 9.7664 20.5C11.0775 20.5 12.335 19.9792 13.2621 19.052L19.397 12.9172C19.6898 12.6243 20.1647 12.6243 20.4576 12.9172C20.7505 13.2101 20.7505 13.6849 20.4576 13.9778L14.3227 20.1127C13.1143 21.3211 11.4754 22 9.76639 22C8.05743 22 6.41847 21.3211 5.21005 20.1127C4.00164 18.9043 3.32275 17.2653 3.32275 15.5564C3.32275 13.8474 4.00164 12.2084 5.21005 11L12.8786 3.33142Z" fill="black"/>
</svg>
