<svg width="24" height="24" viewBox="0 0 24 24" fill="none" xmlns="http://www.w3.org/2000/svg">
<path d="M2 6.86111C2 4.17639 4.17639 2 6.86111 2H17.1389C19.8236 2 22 4.17639 22 6.86111V17.1389C22 19.8236 19.8236 22 17.1389 22H6.86111C4.17639 22 2 19.8236 2 17.1389V6.86111ZM6.86111 3.5C5.00482 3.5 3.5 5.00482 3.5 6.86111V17.1389C3.5 18.9952 5.00482 20.5 6.86111 20.5H17.1389C18.9952 20.5 20.5 18.9952 20.5 17.1389V6.86111C20.5 5.00482 18.9952 3.5 17.1389 3.5H6.86111ZM14.1745 7.5C14.0621 7.5 13.9507 7.52216 13.8467 7.5652C13.7428 7.60825 13.6484 7.67135 13.5688 7.75089L9.02468 12.295C8.56274 12.757 8.30322 13.3835 8.30322 14.0368C8.30322 14.6901 8.56274 15.3166 9.02468 15.7785C9.48662 16.2405 10.1131 16.5 10.7664 16.5C11.4197 16.5 12.0462 16.2405 12.5082 15.7785L15.9163 12.3704C16.2092 12.0775 16.6841 12.0775 16.977 12.3704C17.2698 12.6633 17.2698 13.1382 16.977 13.4311L13.5688 16.8392C12.8256 17.5824 11.8175 18 10.7664 18C9.71532 18 8.70726 17.5824 7.96402 16.8392C7.22077 16.096 6.80322 15.0879 6.80322 14.0368C6.80322 12.9857 7.22077 11.9776 7.96402 11.2344L12.5082 6.69023C12.727 6.4714 12.9868 6.29782 13.2727 6.17939C13.5586 6.06096 13.8651 6 14.1745 6C14.484 6 14.7905 6.06096 15.0764 6.17939C15.3623 6.29782 15.6221 6.4714 15.8409 6.69023C16.0597 6.90907 16.2333 7.16886 16.3518 7.45477C16.4702 7.74068 16.5311 8.04713 16.5311 8.3566C16.5311 8.66608 16.4702 8.97252 16.3518 9.25843C16.2333 9.54435 16.0597 9.80414 15.8409 10.023L11.8648 13.9991C11.5719 14.292 11.097 14.292 10.8041 13.9991C10.5112 13.7062 10.5112 13.2313 10.8041 12.9384L14.7803 8.96231C14.8598 8.88277 14.9229 8.78834 14.9659 8.68441C15.009 8.58048 15.0311 8.46909 15.0311 8.3566C15.0311 8.24411 15.009 8.13273 14.9659 8.02879C14.9229 7.92487 14.8598 7.83043 14.7803 7.75089C14.7007 7.67135 14.6063 7.60825 14.5024 7.56521C14.3984 7.52216 14.287 7.5 14.1745 7.5Z" fill="black"/>
</svg>
