<svg width="24" height="24" viewBox="0 0 24 24" fill="none" xmlns="http://www.w3.org/2000/svg">
<path d="M16.3959 5.23503C16.6803 4.93389 17.155 4.92033 17.4561 5.20474L20.765 8.32974C20.915 8.47142 21 8.66865 21 8.875C21 9.08135 20.915 9.27858 20.765 9.42026L17.4561 12.5453C17.155 12.8297 16.6803 12.8161 16.3959 12.515C16.1115 12.2138 16.1251 11.7391 16.4262 11.4547L18.3636 9.625H8.4375C6.26288 9.625 4.5 11.3879 4.5 13.5625C4.5 15.7371 6.26288 17.5 8.4375 17.5H17.1562C17.5705 17.5 17.9062 17.8358 17.9062 18.25C17.9062 18.6642 17.5705 19 17.1562 19H8.4375C5.43445 19 3 16.5655 3 13.5625C3 10.5595 5.43445 8.125 8.4375 8.125H18.3636L16.4262 6.29526C16.1251 6.01085 16.1115 5.53617 16.3959 5.23503Z" fill="black"/>
</svg>
