<svg width="24" height="24" viewBox="0 0 24 24" fill="none" xmlns="http://www.w3.org/2000/svg">
<path d="M3 3.75C3 3.33579 3.33579 3 3.75 3H20.25C20.6642 3 21 3.33579 21 3.75C21 4.16421 20.6642 4.5 20.25 4.5H3.75C3.33579 4.5 3 4.16421 3 3.75ZM11.4697 7.21967C11.7626 6.92678 12.2374 6.92678 12.5303 7.21967L17.7803 12.4697C18.0732 12.7626 18.0732 13.2374 17.7803 13.5303C17.4874 13.8232 17.0126 13.8232 16.7197 13.5303L12.75 9.56066V20.2499C12.75 20.6642 12.4142 20.9999 12 20.9999C11.5858 20.9999 11.25 20.6642 11.25 20.2499V9.56066L7.28033 13.5303C6.98744 13.8232 6.51256 13.8232 6.21967 13.5303C5.92678 13.2374 5.92678 12.7626 6.21967 12.4697L11.4697 7.21967Z" fill="black"/>
</svg>
