<svg width="24" height="24" viewBox="0 0 24 24" fill="none" xmlns="http://www.w3.org/2000/svg">
<path d="M12 2C8.40665 2 5.36955 4.84667 5.36955 8.42187V11.6697C5.36955 11.7384 5.34175 11.808 5.28624 11.8622L4.1542 12.9675C3.22497 13.8748 2.81721 15.1813 3.07688 16.449C3.26446 17.3648 4.0804 18.0031 5.00416 18.0031H8.00004C8.00005 18.5283 8.10352 19.0484 8.30452 19.5337C8.50554 20.019 8.80018 20.46 9.17161 20.8314C9.54305 21.2028 9.98401 21.4975 10.4693 21.6985C10.9546 21.8995 11.4748 22.003 12 22.003C12.5253 22.003 13.0455 21.8995 13.5308 21.6985C14.0161 21.4975 14.457 21.2028 14.8285 20.8314C15.1999 20.46 15.4945 20.019 15.6956 19.5337C15.8966 19.0484 16 18.5283 16 18.0031H18.9993C19.9231 18.0031 20.739 17.3648 20.9266 16.449C21.1863 15.1813 20.7785 13.8748 19.8493 12.9675L18.7172 11.8622C18.6617 11.808 18.6339 11.7384 18.6339 11.6697V8.42187C18.6339 4.84667 15.5968 2.00001 12.0034 2.00001L12 2ZM12.0034 3.49999C14.8266 3.49999 17.1339 5.7321 17.1339 8.42187V11.6697C17.1339 12.1479 17.3287 12.6029 17.6693 12.9355L18.8014 14.0408C19.3704 14.5964 19.613 15.3871 19.4571 16.148C19.4173 16.3423 19.235 16.5031 18.9993 16.5031H5.00416C4.76849 16.5031 4.58617 16.3423 4.54637 16.148C4.3905 15.3871 4.63307 14.5964 5.20211 14.0408L6.33415 12.9355C6.67479 12.6029 6.86955 12.1479 6.86955 11.6697V8.42187C6.86955 5.7321 9.17689 3.49999 12 3.49999L12.0017 3.5L12.0034 3.49999ZM9.50004 18.0031H14.5C14.5 18.3313 14.4354 18.6564 14.3097 18.9597C14.1841 19.263 14 19.5386 13.7678 19.7707C13.5357 20.0029 13.2601 20.187 12.9568 20.3127C12.6534 20.4383 12.3283 20.503 12 20.503C11.6717 20.503 11.3466 20.4383 11.0433 20.3127C10.74 20.187 10.4644 20.0029 10.2323 19.7707C10.0001 19.5386 9.81598 19.263 9.69034 18.9597C9.56472 18.6564 9.50005 18.3313 9.50004 18.0031Z" fill="black"/>
</svg>
