<svg width="24" height="24" viewBox="0 0 24 24" fill="none" xmlns="http://www.w3.org/2000/svg">
<path d="M2.21967 2.21967C2.51256 1.92678 2.98744 1.92678 3.28033 2.21967L21.7803 20.7197C22.0732 21.0126 22.0732 21.4874 21.7803 21.7803C21.4874 22.0732 21.0126 22.0732 20.7197 21.7803L16.9424 18.003L16 18.003C16 18.5283 15.8965 19.0483 15.6955 19.5336C15.4945 20.0189 15.1999 20.4598 14.8284 20.8313C14.457 21.2027 14.016 21.4974 13.5307 21.6984C13.0454 21.8994 12.5253 22.0029 12 22.0029C11.4747 22.0029 10.9546 21.8994 10.4693 21.6984C9.98396 21.4974 9.54301 21.2027 9.17157 20.8313C8.80014 20.4598 8.5055 20.0189 8.30448 19.5336C8.10349 19.0483 8.00003 18.5283 8 18.0031L5.00412 18.0031C4.08036 18.0031 3.26442 17.3648 3.07684 16.449C2.81717 15.1813 3.22493 13.8748 4.15416 12.9675L5.2862 11.8622C5.34171 11.808 5.36951 11.7384 5.36951 11.6697V8.42187C5.36951 7.81855 5.45674 7.23412 5.61932 6.67998L2.21967 3.28033C1.92678 2.98744 1.92678 2.51256 2.21967 2.21967ZM6.89277 7.95343C6.87738 8.10757 6.86951 8.26382 6.86951 8.42187V11.6697C6.86951 12.1479 6.67475 12.6029 6.33411 12.9355L5.20206 14.0408C4.63303 14.5964 4.39046 15.3871 4.54633 16.148C4.58613 16.3423 4.76844 16.5031 5.00412 16.5031L15.4424 16.503L6.89277 7.95343ZM9.5 18.003C9.50003 18.3313 9.56469 18.6563 9.6903 18.9596C9.81594 19.2629 10.0001 19.5385 10.2322 19.7706C10.4644 20.0028 10.74 20.1869 11.0433 20.3126C11.3466 20.4382 11.6717 20.5029 12 20.5029C12.3283 20.5029 12.6534 20.4382 12.9567 20.3126C13.26 20.1869 13.5356 20.0028 13.7678 19.7706C13.9999 19.5385 14.1841 19.2629 14.3097 18.9596C14.4353 18.6563 14.5 18.3313 14.5 18.003L9.5 18.003Z" fill="black"/>
<path d="M12 2C10.5142 2 9.12956 2.48453 8.01493 3.30112C7.68079 3.54591 7.60835 4.01523 7.85315 4.34937C8.09794 4.68351 8.56725 4.75594 8.9014 4.51115C9.76721 3.87685 10.8466 3.5 12.0034 3.5C14.8265 3.5 17.1339 5.7321 17.1339 8.42187V11.6697C17.1339 12.1479 17.3286 12.6029 17.6693 12.9355L18.8013 14.0408C19.2591 14.4878 19.5053 15.0868 19.5034 15.699C19.5021 16.1132 19.8368 16.45 20.251 16.4513C20.6652 16.4527 21.0021 16.118 21.0034 15.7037C21.0066 14.6845 20.5963 13.697 19.8492 12.9675L18.7172 11.8622C18.6617 11.808 18.6339 11.7384 18.6339 11.6697V8.42187C18.6339 4.84667 15.5934 2 12 2Z" fill="black"/>
</svg>
