<svg width="24" height="24" viewBox="0 0 24 24" fill="none" xmlns="http://www.w3.org/2000/svg">
<path d="M2 6.75C2 5.23122 3.23122 4 4.75 4H19.25C20.7688 4 22 5.23122 22 6.75V17.25C22 18.7688 20.7688 20 19.25 20H4.75C3.23122 20 2 18.7688 2 17.25V6.75ZM4.75 5.5C4.05964 5.5 3.5 6.05964 3.5 6.75V17.25C3.5 17.9404 4.05964 18.5 4.75 18.5H19.25C19.9404 18.5 20.5 17.9404 20.5 17.25V6.75C20.5 6.05964 19.9404 5.5 19.25 5.5H4.75ZM6.75 8C7.16421 8 7.5 8.33579 7.5 8.75V10.0921C7.9366 9.82554 8.44664 9.67111 9 9.67111C10.7058 9.67111 12 11.1386 12 12.8356C12 14.5325 10.7058 16 9 16C7.2942 16 6 14.5325 6 12.8356V8.75C6 8.33579 6.33579 8 6.75 8ZM7.5 12.8356C7.5 13.8055 8.22052 14.5 9 14.5C9.77948 14.5 10.5 13.8055 10.5 12.8356C10.5 11.8656 9.77948 11.1711 9 11.1711C8.22052 11.1711 7.5 11.8656 7.5 12.8356ZM13 10.25C13 9.83579 13.3358 9.5 13.75 9.5H17.25C17.6642 9.5 18 9.83579 18 10.25C18 10.6642 17.6642 11 17.25 11H13.75C13.3358 11 13 10.6642 13 10.25ZM14 13.75C14 13.3358 14.3358 13 14.75 13H17.25C17.6642 13 18 13.3358 18 13.75C18 14.1642 17.6642 14.5 17.25 14.5H14.75C14.3358 14.5 14 14.1642 14 13.75Z" fill="black"/>
</svg>
