<svg width="24" height="24" viewBox="0 0 24 24" fill="none" xmlns="http://www.w3.org/2000/svg">
<path d="M2 6.86111C2 4.17639 4.17639 2 6.86111 2H17.1389C19.8236 2 22 4.17639 22 6.86111V11.25C22 11.6642 21.6642 12 21.25 12C20.8358 12 20.5 11.6642 20.5 11.25V6.86111C20.5 5.00482 18.9952 3.5 17.1389 3.5H6.86111C5.00482 3.5 3.5 5.00482 3.5 6.86111V17.1389C3.5 18.9952 5.00482 20.5 6.86111 20.5H11.25C11.6642 20.5 12 20.8358 12 21.25C12 21.6642 11.6642 22 11.25 22H6.86111C4.17639 22 2 19.8236 2 17.1389V6.86111ZM8.25 6C8.66421 6 9 6.33579 9 6.75V9.88306C9.79217 9.14908 10.8401 8.69948 12 8.69948C13.5339 8.69948 14.8789 9.49185 15.6868 10.6826C15.9193 11.0253 15.83 11.4917 15.4872 11.7243C15.1444 11.9568 14.678 11.8675 14.4455 11.5247C13.8956 10.7142 13.0001 10.1995 12 10.1995C10.3706 10.1995 9 11.5819 9 13.3497C9 14.6837 9.78654 15.808 10.8746 16.2709C11.2557 16.4331 11.4332 16.8736 11.2711 17.2547C11.1089 17.6359 10.6684 17.8134 10.2873 17.6512C8.64032 16.9504 7.5 15.2792 7.5 13.3497V6.75C7.5 6.33579 7.83579 6 8.25 6ZM14.4645 14.4645C16.4171 12.5118 19.5829 12.5118 21.5355 14.4645C23.4882 16.4171 23.4882 19.5829 21.5355 21.5355C19.5829 23.4882 16.4171 23.4882 14.4645 21.5355C12.5118 19.5829 12.5118 16.4171 14.4645 14.4645ZM20.4749 15.5251C19.108 14.1583 16.892 14.1583 15.5251 15.5251C14.1583 16.892 14.1583 19.108 15.5251 20.4749C16.892 21.8417 19.108 21.8417 20.4749 20.4749C21.8417 19.108 21.8417 16.892 20.4749 15.5251ZM16.1225 16.6132C16.142 16.1995 16.4932 15.8798 16.907 15.8993L19.2747 16.0108C19.6611 16.029 19.9702 16.3381 19.9885 16.7245L20.1008 19.0929C20.1204 19.5066 19.8008 19.8579 19.3871 19.8775C18.9733 19.8971 18.622 19.5776 18.6024 19.1639L18.5705 18.4895L17.2903 19.7697C16.9974 20.0626 16.5225 20.0626 16.2296 19.7697C15.9367 19.4768 15.9367 19.0019 16.2296 18.7091L17.5093 17.4293L16.8364 17.3977C16.4227 17.3782 16.1031 17.027 16.1225 16.6132Z" fill="black"/>
</svg>
