<svg width="24" height="24" viewBox="0 0 24 24" fill="none" xmlns="http://www.w3.org/2000/svg">
<path d="M2 6.86111C2 4.17639 4.17639 2 6.86111 2H17.1389C19.8236 2 22 4.17639 22 6.86111V11.25C22 11.6642 21.6642 12 21.25 12C20.8358 12 20.5 11.6642 20.5 11.25V6.86111C20.5 5.00482 18.9952 3.5 17.1389 3.5H6.86111C5.00482 3.5 3.5 5.00482 3.5 6.86111V17.1389C3.5 18.9952 5.00482 20.5 6.86111 20.5H11.25C11.6642 20.5 12 20.8358 12 21.25C12 21.6642 11.6642 22 11.25 22H6.86111C4.17639 22 2 19.8236 2 17.1389V6.86111ZM8.25 6C8.66421 6 9 6.33579 9 6.75V9.88306C9.79217 9.14908 10.8401 8.69948 12 8.69948C13.5339 8.69948 14.8789 9.49185 15.6868 10.6826C15.9193 11.0253 15.83 11.4917 15.4872 11.7243C15.1444 11.9568 14.678 11.8675 14.4455 11.5247C13.8956 10.7142 13.0001 10.1995 12 10.1995C10.3706 10.1995 9 11.5819 9 13.3497C9 14.6837 9.78654 15.808 10.8746 16.2709C11.2557 16.4331 11.4332 16.8736 11.2711 17.2547C11.1089 17.6359 10.6684 17.8134 10.2873 17.6512C8.64032 16.9504 7.5 15.2792 7.5 13.3497V6.75C7.5 6.33579 7.83579 6 8.25 6ZM17.15 14.5C15.6865 14.5 14.5 15.6865 14.5 17.15C14.5 18.6136 15.6865 19.8 17.15 19.8C17.882 19.8 18.5435 19.5042 19.0239 19.0239C19.5042 18.5435 19.8 17.882 19.8 17.15C19.8 15.6865 18.6136 14.5 17.15 14.5ZM13 17.15C13 14.858 14.858 13 17.15 13C19.442 13 21.3 14.858 21.3 17.15C21.3 18.0247 21.0288 18.8369 20.5667 19.5061L22.7803 21.7197C23.0732 22.0126 23.0732 22.4874 22.7803 22.7803C22.4874 23.0732 22.0126 23.0732 21.7197 22.7803L19.5061 20.5667C18.8369 21.0288 18.0247 21.3 17.15 21.3C14.858 21.3 13 19.442 13 17.15Z" fill="black"/>
</svg>
