<svg width="24" height="24" viewBox="0 0 24 24" fill="none" xmlns="http://www.w3.org/2000/svg">
<path d="M4.92014 5.98091C5.20957 4.81859 6.25103 4 7.44936 4H14.5506C15.749 4 16.7904 4.81859 17.0799 5.98091C17.1799 6.38285 16.9352 6.78982 16.5333 6.88991C16.1314 6.98999 15.7244 6.74529 15.6243 6.34335C15.5004 5.84584 15.0564 5.5 14.5506 5.5H7.44936C6.94357 5.5 6.49958 5.84584 6.3757 6.34335L5.56654 9.59286H9.75C10.1642 9.59286 10.5 9.92864 10.5 10.3429C10.5 10.7571 10.1642 11.0929 9.75 11.0929H4.60689C3.99838 11.0929 3.5 11.5889 3.5 12.2071V18.3179C3.5 18.4213 3.5827 18.5 3.67844 18.5H5.53533C5.63107 18.5 5.71377 18.4213 5.71377 18.3179V16.8679C5.71377 16.4536 6.04956 16.1179 6.46377 16.1179H9.75C10.1642 16.1179 10.5 16.4536 10.5 16.8679C10.5 17.2821 10.1642 17.6179 9.75 17.6179H7.21377V18.3179C7.21377 19.2441 6.46512 20 5.53533 20H3.67844C2.74865 20 2 19.2441 2 18.3179V12.2071C2 11.281 2.48098 10.4654 3.20768 10.0008L2.21862 9.00785C1.92631 8.71437 1.92725 8.2395 2.22073 7.94719C2.5142 7.65488 2.98907 7.65582 3.28138 7.9493L4.20028 8.87185L4.92014 5.98091ZM16.6957 10.5337L13.8025 11.5459C13.7805 11.5536 13.7582 11.5602 13.7356 11.5658C13.5933 11.6012 13.5 11.7251 13.5 11.8611L13.5 13.9349C13.5 14.546 13.589 15.1269 13.8009 15.6447C14.1875 16.5895 14.5754 17.1216 14.982 17.4859C15.399 17.8597 15.8821 18.1014 16.5683 18.4082C16.7046 18.4692 16.8519 18.5 17 18.5C17.1481 18.5 17.2954 18.4692 17.4318 18.4082C18.1179 18.1013 18.601 17.8596 19.0181 17.4859C19.4247 17.1216 19.8125 16.5894 20.1991 15.6447C20.411 15.1269 20.5 14.546 20.5 13.9349V11.8611C20.5 11.7251 20.4067 11.6012 20.2644 11.5658C20.2418 11.5602 20.2195 11.5536 20.1975 11.5459L17.3043 10.5337C17.2041 10.5113 17.1021 10.5 17 10.5C16.8979 10.5 16.7959 10.5113 16.6957 10.5337ZM16.3038 9.08515C16.5324 9.02838 16.7662 9 17 9C17.2338 9 17.4676 9.02837 17.6962 9.08515C17.7188 9.09076 17.7411 9.09741 17.763 9.1051L20.6642 10.12C21.4477 10.3326 22 11.0416 22 11.8611V13.9349C22 14.6852 21.8915 15.4695 21.5873 16.2128C21.1399 17.3063 20.6378 18.0486 20.0191 18.603C19.4109 19.148 18.7334 19.4693 18.0442 19.7775C17.7121 19.926 17.3557 20 17 20C16.6443 20 16.288 19.9261 15.9559 19.7775C15.2667 19.4693 14.5892 19.1481 13.981 18.6031C13.3623 18.0487 12.8601 17.3063 12.4127 16.2128C12.1085 15.4695 12 14.6852 12 13.9348L12 11.8611C12 11.0416 12.5523 10.3326 13.3358 10.12L16.237 9.1051C16.2589 9.09742 16.2812 9.09076 16.3038 9.08515ZM4.78533 13.6054C4.78533 13.1911 5.12112 12.8554 5.53533 12.8554H8.32066C8.73487 12.8554 9.07066 13.1911 9.07066 13.6054C9.07066 14.0196 8.73487 14.3554 8.32066 14.3554H5.53533C5.12112 14.3554 4.78533 14.0196 4.78533 13.6054Z" fill="black"/>
</svg>
