<svg width="24" height="24" viewBox="0 0 24 24" fill="none" xmlns="http://www.w3.org/2000/svg">
<path d="M2 4.75C2 3.23122 3.23122 2 4.75 2H15.25C16.7688 2 18 3.23122 18 4.75V12.25C18 12.6642 17.6642 13 17.25 13C16.8358 13 16.5 12.6642 16.5 12.25V4.75C16.5 4.05964 15.9404 3.5 15.25 3.5H4.75C4.05964 3.5 3.5 4.05964 3.5 4.75V19.25C3.5 19.9404 4.05964 20.5 4.75 20.5H10.25C10.6642 20.5 11 20.8358 11 21.25C11 21.6642 10.6642 22 10.25 22H4.75C3.23122 22 2 20.7688 2 19.25V4.75Z" fill="black"/>
<path d="M7.5 8.5C7.5 7.11929 8.61929 6 10 6C11.3807 6 12.5 7.11929 12.5 8.5C12.5 9.88071 11.3807 11 10 11C8.61929 11 7.5 9.88071 7.5 8.5ZM10 7.5C9.44772 7.5 9 7.94772 9 8.5C9 9.05228 9.44772 9.5 10 9.5C10.5523 9.5 11 9.05228 11 8.5C11 7.94772 10.5523 7.5 10 7.5Z" fill="black"/>
<path d="M5.5 13.75C5.5 13.3358 5.83579 13 6.25 13H11.75C12.1642 13 12.5 13.3358 12.5 13.75C12.5 14.1642 12.1642 14.5 11.75 14.5H6.25C5.83579 14.5 5.5 14.1642 5.5 13.75Z" fill="black"/>
<path d="M6.25 16.5C5.83579 16.5 5.5 16.8358 5.5 17.25C5.5 17.6642 5.83579 18 6.25 18H9.75C10.1642 18 10.5 17.6642 10.5 17.25C10.5 16.8358 10.1642 16.5 9.75 16.5H6.25Z" fill="black"/>
<path d="M22.3055 13.6945C21.3794 12.7685 19.878 12.7685 18.9519 13.6945L13.932 18.7145C13.3352 19.3112 13 20.1206 13 20.9645V22.25C13 22.6642 13.3358 23 13.75 23H15.0355C15.8794 23 16.6888 22.6648 17.2855 22.068L22.3055 17.0481C23.2315 16.122 23.2315 14.6206 22.3055 13.6945ZM20.0126 14.7552C20.3528 14.4149 20.9045 14.4149 21.2448 14.7552C21.5851 15.0955 21.5851 15.6472 21.2448 15.9874L16.2249 21.0074C15.9094 21.3228 15.4816 21.5 15.0355 21.5H14.5V20.9645C14.5 20.5184 14.6772 20.0906 14.9926 19.7751L20.0126 14.7552Z" fill="black"/>
</svg>
