<svg width="24" height="24" viewBox="0 0 24 24" fill="none" xmlns="http://www.w3.org/2000/svg">
<path d="M2 4.75C2 3.23122 3.23122 2 4.75 2H15.25C16.7688 2 18 3.23122 18 4.75V10C18 10.4142 17.6642 10.75 17.25 10.75C16.8358 10.75 16.5 10.4142 16.5 10V4.75C16.5 4.05964 15.9404 3.5 15.25 3.5H4.75C4.05964 3.5 3.5 4.05964 3.5 4.75V19.25C3.5 19.9404 4.05964 20.5 4.75 20.5H11C11.4142 20.5 11.75 20.8358 11.75 21.25C11.75 21.6642 11.4142 22 11 22H4.75C3.23122 22 2 20.7688 2 19.25V4.75ZM10 7.5C9.44772 7.5 9 7.94772 9 8.5C9 9.05228 9.44772 9.5 10 9.5C10.5523 9.5 11 9.05228 11 8.5C11 7.94772 10.5523 7.5 10 7.5ZM7.5 8.5C7.5 7.11929 8.61929 6 10 6C11.3807 6 12.5 7.11929 12.5 8.5C12.5 9.88071 11.3807 11 10 11C8.61929 11 7.5 9.88071 7.5 8.5ZM5.5 13.75C5.5 13.3358 5.83579 13 6.25 13H11.75C12.1642 13 12.5 13.3358 12.5 13.75C12.5 14.1642 12.1642 14.5 11.75 14.5H6.25C5.83579 14.5 5.5 14.1642 5.5 13.75ZM18 14.5C16.067 14.5 14.5 16.067 14.5 18C14.5 19.933 16.067 21.5 18 21.5C19.933 21.5 21.5 19.933 21.5 18C21.5 16.067 19.933 14.5 18 14.5ZM13 18C13 15.2386 15.2386 13 18 13C20.7614 13 23 15.2386 23 18C23 20.7614 20.7614 23 18 23C15.2386 23 13 20.7614 13 18ZM17.4958 15.6919C17.782 15.4317 18.2192 15.4317 18.5053 15.6921L20.2583 17.2875C20.5646 17.5663 20.587 18.0406 20.3082 18.347C20.0294 18.6533 19.555 18.6756 19.2487 18.3968L18.7505 17.9434V19.7532C18.7505 20.1674 18.4147 20.5032 18.0005 20.5032C17.5863 20.5032 17.2505 20.1674 17.2505 19.7532V17.9427L16.751 18.397C16.4446 18.6757 15.9703 18.6532 15.6916 18.3468C15.4129 18.0404 15.4353 17.566 15.7418 17.2873L17.4958 15.6919ZM5.5 17.25C5.5 16.8358 5.83579 16.5 6.25 16.5H9.75C10.1642 16.5 10.5 16.8358 10.5 17.25C10.5 17.6642 10.1642 18 9.75 18H6.25C5.83579 18 5.5 17.6642 5.5 17.25Z" fill="black"/>
</svg>
