<svg width="24" height="24" viewBox="0 0 24 24" fill="none" xmlns="http://www.w3.org/2000/svg">
<path d="M2 4.75C2 3.23122 3.23122 2 4.75 2H15.25C16.7688 2 18 3.23122 18 4.75V10C18 10.4142 17.6642 10.75 17.25 10.75C16.8358 10.75 16.5 10.4142 16.5 10V4.75C16.5 4.05964 15.9404 3.5 15.25 3.5H4.75C4.05964 3.5 3.5 4.05964 3.5 4.75V19.25C3.5 19.9404 4.05964 20.5 4.75 20.5H12C12.4142 20.5 12.75 20.8358 12.75 21.25C12.75 21.6642 12.4142 22 12 22H4.75C3.23122 22 2 20.7688 2 19.25V4.75ZM10 7.5C9.44772 7.5 9 7.94772 9 8.5C9 9.05228 9.44772 9.5 10 9.5C10.5523 9.5 11 9.05228 11 8.5C11 7.94772 10.5523 7.5 10 7.5ZM7.5 8.5C7.5 7.11929 8.61929 6 10 6C11.3807 6 12.5 7.11929 12.5 8.5C12.5 9.88071 11.3807 11 10 11C8.61929 11 7.5 9.88071 7.5 8.5ZM5.5 13.75C5.5 13.3358 5.83579 13 6.25 13H11.75C12.1642 13 12.5 13.3358 12.5 13.75C12.5 14.1642 12.1642 14.5 11.75 14.5H6.25C5.83579 14.5 5.5 14.1642 5.5 13.75ZM17.15 14.5C15.6865 14.5 14.5 15.6865 14.5 17.15C14.5 18.6136 15.6865 19.8 17.15 19.8C17.882 19.8 18.5435 19.5042 19.0239 19.0239C19.5042 18.5435 19.8 17.882 19.8 17.15C19.8 15.6865 18.6136 14.5 17.15 14.5ZM13 17.15C13 14.858 14.858 13 17.15 13C19.442 13 21.3 14.858 21.3 17.15C21.3 18.0247 21.0288 18.8369 20.5667 19.5061L22.7803 21.7197C23.0732 22.0126 23.0732 22.4874 22.7803 22.7803C22.4874 23.0732 22.0126 23.0732 21.7197 22.7803L19.5061 20.5667C18.8369 21.0288 18.0247 21.3 17.15 21.3C14.858 21.3 13 19.442 13 17.15ZM5.5 17.25C5.5 16.8358 5.83579 16.5 6.25 16.5H9.75C10.1642 16.5 10.5 16.8358 10.5 17.25C10.5 17.6642 10.1642 18 9.75 18H6.25C5.83579 18 5.5 17.6642 5.5 17.25Z" fill="black"/>
</svg>
