<svg width="24" height="24" viewBox="0 0 24 24" fill="none" xmlns="http://www.w3.org/2000/svg">
<path d="M3 4.75C3 3.23122 4.23122 2 5.75 2H18.25C19.7688 2 21 3.23122 21 4.75V19.25C21 20.7688 19.7688 22 18.25 22H5.75C4.23122 22 3 20.7688 3 19.25V4.75ZM5.75 3.5C5.05964 3.5 4.5 4.05964 4.5 4.75V19.25C4.5 19.9404 5.05964 20.5 5.75 20.5H18.25C18.9404 20.5 19.5 19.9404 19.5 19.25V4.75C19.5 4.05964 18.9404 3.5 18.25 3.5H5.75ZM6 5.75C6 5.33579 6.33579 5 6.75 5H17.25C17.6642 5 18 5.33579 18 5.75V11.25C18 11.6642 17.6642 12 17.25 12H6.75C6.33579 12 6 11.6642 6 11.25V5.75ZM7.5 6.5V10.5H16.5V6.5H7.5ZM7 14.5C7 14.0858 7.33579 13.75 7.75 13.75H7.751C8.16521 13.75 8.501 14.0858 8.501 14.5C8.501 14.9142 8.16521 15.25 7.751 15.25H7.75C7.33579 15.25 7 14.9142 7 14.5ZM9.83337 14.5C9.83337 14.0858 10.1692 13.75 10.5834 13.75H10.5844C10.9986 13.75 11.3344 14.0858 11.3344 14.5C11.3344 14.9142 10.9986 15.25 10.5844 15.25H10.5834C10.1692 15.25 9.83337 14.9142 9.83337 14.5ZM12.6669 14.5C12.6669 14.0858 13.0027 13.75 13.4169 13.75H13.4179C13.8321 13.75 14.1679 14.0858 14.1679 14.5C14.1679 14.9142 13.8321 15.25 13.4179 15.25H13.4169C13.0027 15.25 12.6669 14.9142 12.6669 14.5ZM15.5004 14.5C15.5004 14.0858 15.8362 13.75 16.2504 13.75H16.2514C16.6656 13.75 17.0014 14.0858 17.0014 14.5C17.0014 14.9142 16.6656 15.25 16.2514 15.25H16.2504C15.8362 15.25 15.5004 14.9142 15.5004 14.5ZM7 17.5C7 17.0858 7.33579 16.75 7.75 16.75H7.751C8.16521 16.75 8.501 17.0858 8.501 17.5C8.501 17.9142 8.16521 18.25 7.751 18.25H7.75C7.33579 18.25 7 17.9142 7 17.5ZM9.8335 17.5C9.8335 17.0858 10.1693 16.75 10.5835 16.75H10.5845C10.9987 16.75 11.3345 17.0858 11.3345 17.5C11.3345 17.9142 10.9987 18.25 10.5845 18.25H10.5835C10.1693 18.25 9.8335 17.9142 9.8335 17.5ZM12.67 17.5C12.67 17.0858 13.0058 16.75 13.42 16.75H16.2513C16.6655 16.75 17.0013 17.0858 17.0013 17.5C17.0013 17.9142 16.6655 18.25 16.2513 18.25H13.42C13.0058 18.25 12.67 17.9142 12.67 17.5Z" fill="black"/>
</svg>
