<svg width="24" height="24" viewBox="0 0 24 24" fill="none" xmlns="http://www.w3.org/2000/svg">
<path d="M7.375 2C7.78921 2 8.125 2.33579 8.125 2.75V3.5H15.875V2.75C15.875 2.33579 16.2108 2 16.625 2C17.0392 2 17.375 2.33579 17.375 2.75V3.5H18.1667C20.2643 3.5 22 5.15969 22 7.25V11.25C22 11.6642 21.6642 12 21.25 12C20.8358 12 20.5 11.6642 20.5 11.25V10H3.5V18.25C3.5 19.4734 4.52517 20.5 5.83333 20.5H11.25C11.6642 20.5 12 20.8358 12 21.25C12 21.6642 11.6642 22 11.25 22H5.83333C3.73575 22 2 20.3403 2 18.25V7.25C2 5.15969 3.73575 3.5 5.83333 3.5H6.625V2.75C6.625 2.33579 6.96079 2 7.375 2ZM6.625 5H5.83333C4.52517 5 3.5 6.0266 3.5 7.25V8.5H20.5V7.25C20.5 6.0266 19.4748 5 18.1667 5H17.375V5.75C17.375 6.16421 17.0392 6.5 16.625 6.5C16.2108 6.5 15.875 6.16421 15.875 5.75V5H8.125V5.75C8.125 6.16421 7.78921 6.5 7.375 6.5C6.96079 6.5 6.625 6.16421 6.625 5.75V5ZM5.5 12.75C5.5 12.3358 5.83579 12 6.25 12H6.25103C6.66524 12 7.00103 12.3358 7.00103 12.75C7.00103 13.1642 6.66524 13.5 6.25103 13.5H6.25C5.83579 13.5 5.5 13.1642 5.5 12.75ZM15.4603 13.4686C15.7604 13.1686 16.1673 13 16.5917 13H19.4083C19.8327 13 20.2396 13.1686 20.5397 13.4686L22.5314 15.4603C22.8314 15.7604 23 16.1673 23 16.5917V19.4083C23 19.8327 22.8314 20.2396 22.5314 20.5397L20.5397 22.5314C20.2396 22.8314 19.8327 23 19.4083 23H16.5917C16.1673 23 15.7604 22.8314 15.4603 22.5314L13.4686 20.5397C13.1686 20.2396 13 19.8327 13 19.4083V16.5917C13 16.1673 13.1686 15.7604 13.4686 15.4603L15.4603 13.4686ZM16.5917 14.5C16.5652 14.5 16.5397 14.5105 16.521 14.5293L16.0555 14.9948L21.0052 19.9445L21.4707 19.479C21.4895 19.4603 21.5 19.4348 21.5 19.4083V16.5917C21.5 16.5651 21.4895 16.5397 21.4707 16.521L19.479 14.5293C19.4603 14.5105 19.4348 14.5 19.4083 14.5H16.5917ZM19.9445 21.0052L14.9948 16.0555L14.5293 16.521C14.5105 16.5397 14.5 16.5652 14.5 16.5917V19.4083C14.5 19.4348 14.5105 19.4603 14.5293 19.479L16.521 21.4707C16.5397 21.4895 16.5651 21.5 16.5917 21.5H19.4083C19.4349 21.5 19.4603 21.4895 19.479 21.4707L19.9445 21.0052Z" fill="black"/>
</svg>
