<svg width="24" height="24" viewBox="0 0 24 24" fill="none" xmlns="http://www.w3.org/2000/svg">
<path d="M7.375 2C7.78921 2 8.125 2.33579 8.125 2.75V3.5H15.875V2.75C15.875 2.33579 16.2108 2 16.625 2C17.0392 2 17.375 2.33579 17.375 2.75V3.5H18.1667C20.2643 3.5 22 5.15969 22 7.25V18.25C22 20.3403 20.2643 22 18.1667 22H5.83333C3.73575 22 2 20.3403 2 18.25V7.25C2 5.15969 3.73575 3.5 5.83333 3.5H6.625V2.75C6.625 2.33579 6.96079 2 7.375 2ZM6.625 5H5.83333C4.52517 5 3.5 6.0266 3.5 7.25V8.5H20.5V7.25C20.5 6.0266 19.4748 5 18.1667 5H17.375V5.75C17.375 6.16421 17.0392 6.5 16.625 6.5C16.2108 6.5 15.875 6.16421 15.875 5.75V5H8.125V5.75C8.125 6.16421 7.78921 6.5 7.375 6.5C6.96079 6.5 6.625 6.16421 6.625 5.75V5ZM20.5 10H3.5V18.25C3.5 19.4734 4.52517 20.5 5.83333 20.5H18.1667C19.4748 20.5 20.5 19.4734 20.5 18.25V10ZM8.25 13.25C7.42157 13.25 6.75 13.9216 6.75 14.75C6.75 15.5784 7.42157 16.25 8.25 16.25C9.07843 16.25 9.75 15.5784 9.75 14.75C9.75 13.9216 9.07843 13.25 8.25 13.25ZM5.25 14.75C5.25 13.0931 6.59315 11.75 8.25 11.75C9.90685 11.75 11.25 13.0931 11.25 14.75C11.25 16.4069 9.90685 17.75 8.25 17.75C6.59315 17.75 5.25 16.4069 5.25 14.75Z" fill="black"/>
</svg>
