<svg width="24" height="24" viewBox="0 0 24 24" fill="none" xmlns="http://www.w3.org/2000/svg">
<path d="M7.375 2C7.78921 2 8.125 2.33579 8.125 2.75V3.5H15.875V2.75C15.875 2.33579 16.2108 2 16.625 2C17.0392 2 17.375 2.33579 17.375 2.75V3.5H18.1667C20.2643 3.5 22 5.15969 22 7.25V18.25C22 20.3403 20.2643 22 18.1667 22H5.83333C3.73575 22 2 20.3403 2 18.25V7.25C2 5.15969 3.73575 3.5 5.83333 3.5H6.625V2.75C6.625 2.33579 6.96079 2 7.375 2ZM6.625 5H5.83333C4.52517 5 3.5 6.0266 3.5 7.25V8.5H20.5V7.25C20.5 6.0266 19.4748 5 18.1667 5H17.375V5.75C17.375 6.16421 17.0392 6.5 16.625 6.5C16.2108 6.5 15.875 6.16421 15.875 5.75V5H8.125V5.75C8.125 6.16421 7.78921 6.5 7.375 6.5C6.96079 6.5 6.625 6.16421 6.625 5.75V5ZM20.5 10H3.5V18.25C3.5 19.4734 4.52517 20.5 5.83333 20.5H18.1667C19.4748 20.5 20.5 19.4734 20.5 18.25V10ZM6.25 13.25C6.25 12.8358 6.58579 12.5 7 12.5H7.01C7.42421 12.5 7.76 12.8358 7.76 13.25C7.76 13.6642 7.42421 14 7.01 14H7C6.58579 14 6.25 13.6642 6.25 13.25ZM11.25 13.25C11.25 12.8358 11.5858 12.5 12 12.5H12.01C12.4242 12.5 12.76 12.8358 12.76 13.25C12.76 13.6642 12.4242 14 12.01 14H12C11.5858 14 11.25 13.6642 11.25 13.25ZM16.24 13.25C16.24 12.8358 16.5758 12.5 16.99 12.5H17C17.4142 12.5 17.75 12.8358 17.75 13.25C17.75 13.6642 17.4142 14 17 14H16.99C16.5758 14 16.24 13.6642 16.24 13.25ZM6.25 17.25C6.25 16.8358 6.58579 16.5 7 16.5H7.01C7.42421 16.5 7.76 16.8358 7.76 17.25C7.76 17.6642 7.42421 18 7.01 18H7C6.58579 18 6.25 17.6642 6.25 17.25ZM11.25 17.25C11.25 16.8358 11.5858 16.5 12 16.5H12.01C12.4242 16.5 12.76 16.8358 12.76 17.25C12.76 17.6642 12.4242 18 12.01 18H12C11.5858 18 11.25 17.6642 11.25 17.25ZM16.24 17.25C16.24 16.8358 16.5758 16.5 16.99 16.5H17C17.4142 16.5 17.75 16.8358 17.75 17.25C17.75 17.6642 17.4142 18 17 18H16.99C16.5758 18 16.24 17.6642 16.24 17.25Z" fill="black"/>
</svg>
