<svg width="24" height="24" viewBox="0 0 24 24" fill="none" xmlns="http://www.w3.org/2000/svg">
<path d="M7.375 2C7.78921 2 8.125 2.33579 8.125 2.75V3.5H15.875V2.75C15.875 2.33579 16.2108 2 16.625 2C17.0392 2 17.375 2.33579 17.375 2.75V3.5H18.1667C20.2643 3.5 22 5.15969 22 7.25V11.2534C22 11.6676 21.6642 12.0034 21.25 12.0034C20.8358 12.0034 20.5 11.6676 20.5 11.2534V10H3.5V18.25C3.5 19.4734 4.52517 20.5 5.83333 20.5H11.25C11.6642 20.5 12 20.8358 12 21.25C12 21.6642 11.6642 22 11.25 22H5.83333C3.73575 22 2 20.3403 2 18.25V7.25C2 5.15969 3.73575 3.5 5.83333 3.5H6.625V2.75C6.625 2.33579 6.96079 2 7.375 2ZM6.625 5H5.83333C4.52517 5 3.5 6.0266 3.5 7.25V8.5H20.5V7.25C20.5 6.0266 19.4748 5 18.1667 5H17.375V5.75C17.375 6.16421 17.0392 6.5 16.625 6.5C16.2108 6.5 15.875 6.16421 15.875 5.75V5H8.125V5.75C8.125 6.16421 7.78921 6.5 7.375 6.5C6.96079 6.5 6.625 6.16421 6.625 5.75V5ZM5.5 12.75C5.5 12.3358 5.83579 12 6.25 12H6.25103C6.66524 12 7.00103 12.3358 7.00103 12.75C7.00103 13.1642 6.66524 13.5 6.25103 13.5H6.25C5.83579 13.5 5.5 13.1642 5.5 12.75ZM18 14.5C16.067 14.5 14.5 16.067 14.5 18C14.5 19.933 16.067 21.5 18 21.5C19.933 21.5 21.5 19.933 21.5 18C21.5 16.067 19.933 14.5 18 14.5ZM13 18C13 15.2386 15.2386 13 18 13C20.7614 13 23 15.2386 23 18C23 20.7614 20.7614 23 18 23C15.2386 23 13 20.7614 13 18ZM20.2536 16.644C20.533 16.9497 20.5117 17.4241 20.206 17.7036L17.8812 19.8286C17.5864 20.0981 17.1321 20.0892 16.8481 19.8085L15.7728 18.746C15.4782 18.4548 15.4754 17.98 15.7665 17.6853C16.0577 17.3907 16.5325 17.3879 16.8272 17.679L17.3953 18.2405L19.194 16.5964C19.4997 16.317 19.9741 16.3383 20.2536 16.644Z" fill="black"/>
</svg>
