<svg width="24" height="24" viewBox="0 0 24 24" fill="none" xmlns="http://www.w3.org/2000/svg">
<path d="M7.375 2C7.78921 2 8.125 2.33579 8.125 2.75V3.5H15.875V2.75C15.875 2.33579 16.2108 2 16.625 2C17.0392 2 17.375 2.33579 17.375 2.75V3.5H18.1667C20.2643 3.5 22 5.15969 22 7.25V11.5C22 11.9142 21.6642 12.25 21.25 12.25C20.8358 12.25 20.5 11.9142 20.5 11.5V10H3.5V18.25C3.5 19.4734 4.52517 20.5 5.83333 20.5H9.5C9.91421 20.5 10.25 20.8358 10.25 21.25C10.25 21.6642 9.91421 22 9.5 22H5.83333C3.73575 22 2 20.3403 2 18.25V7.25C2 5.15969 3.73575 3.5 5.83333 3.5H6.625V2.75C6.625 2.33579 6.96079 2 7.375 2ZM6.625 5H5.83333C4.52517 5 3.5 6.0266 3.5 7.25V8.5H20.5V7.25C20.5 6.0266 19.4748 5 18.1667 5H17.375V5.75C17.375 6.16421 17.0392 6.5 16.625 6.5C16.2108 6.5 15.875 6.16421 15.875 5.75V5H8.125V5.75C8.125 6.16421 7.78921 6.5 7.375 6.5C6.96079 6.5 6.625 6.16421 6.625 5.75V5ZM5.5 12.75C5.5 12.3358 5.83579 12 6.25 12H6.25103C6.66524 12 7.00103 12.3358 7.00103 12.75C7.00103 13.1642 6.66524 13.5 6.25103 13.5H6.25C5.83579 13.5 5.5 13.1642 5.5 12.75ZM12 16.3571C12 15.0659 13.0342 14 14.3333 14H20.6667C21.9658 14 23 15.0659 23 16.3571V20.6429C23 21.9341 21.9658 23 20.6667 23H14.3333C13.0342 23 12 21.9341 12 20.6429V16.3571ZM14.3333 15.5C13.8836 15.5 13.5 15.8732 13.5 16.3571V17.2143H21.5V16.3571C21.5 15.8732 21.1164 15.5 20.6667 15.5H14.3333ZM21.5 18.7143H13.5V20.6429C13.5 21.1268 13.8836 21.5 14.3333 21.5H20.6667C21.1164 21.5 21.5 21.1268 21.5 20.6429V18.7143Z" fill="black"/>
</svg>
