<svg width="24" height="24" viewBox="0 0 24 24" fill="none" xmlns="http://www.w3.org/2000/svg">
<path d="M7.375 2C7.78921 2 8.125 2.33579 8.125 2.75V3.5H15.875V2.75C15.875 2.33579 16.2108 2 16.625 2C17.0392 2 17.375 2.33579 17.375 2.75V3.5H18.1667C20.2643 3.5 22 5.15969 22 7.25V10.8075C22 11.2217 21.6642 11.5575 21.25 11.5575C20.8358 11.5575 20.5 11.2217 20.5 10.8075V10H3.5V18.25C3.5 19.4734 4.52517 20.5 5.83333 20.5H10.831C11.2452 20.5 11.581 20.8358 11.581 21.25C11.581 21.6642 11.2452 22 10.831 22H5.83333C3.73575 22 2 20.3403 2 18.25V7.25C2 5.15969 3.73575 3.5 5.83333 3.5H6.625V2.75C6.625 2.33579 6.96079 2 7.375 2ZM6.625 5H5.83333C4.52517 5 3.5 6.0266 3.5 7.25V8.5H20.5V7.25C20.5 6.0266 19.4748 5 18.1667 5H17.375V5.75C17.375 6.16421 17.0392 6.5 16.625 6.5C16.2108 6.5 15.875 6.16421 15.875 5.75V5H8.125V5.75C8.125 6.16421 7.78921 6.5 7.375 6.5C6.96079 6.5 6.625 6.16421 6.625 5.75V5ZM5.5 12.75C5.5 12.3358 5.83579 12 6.25 12H6.25103C6.66524 12 7.00103 12.3358 7.00103 12.75C7.00103 13.1642 6.66524 13.5 6.25103 13.5H6.25C5.83579 13.5 5.5 13.1642 5.5 12.75ZM18 14.5C16.067 14.5 14.5 16.067 14.5 18C14.5 19.933 16.067 21.5 18 21.5C19.933 21.5 21.5 19.933 21.5 18C21.5 16.067 19.933 14.5 18 14.5ZM13 18C13 15.2386 15.2386 13 18 13C20.7614 13 23 15.2386 23 18C23 20.7614 20.7614 23 18 23C15.2386 23 13 20.7614 13 18ZM16.3528 16.3519C16.6381 16.0515 17.1128 16.0392 17.4132 16.3244L18.0479 16.9271L18.6827 16.3244C18.983 16.0392 19.4578 16.0515 19.743 16.3519C20.0282 16.6523 20.0159 17.127 19.7155 17.4122L19.1372 17.9613L19.7155 18.5103C20.0159 18.7956 20.0282 19.2703 19.743 19.5707C19.4578 19.871 18.983 19.8833 18.6827 19.5981L18.0479 18.9955L17.4132 19.5981C17.1128 19.8833 16.6381 19.871 16.3528 19.5707C16.0676 19.2703 16.08 18.7956 16.3803 18.5103L16.9586 17.9613L16.3803 17.4122C16.08 17.127 16.0676 16.6523 16.3528 16.3519Z" fill="black"/>
</svg>
