<svg width="24" height="24" viewBox="0 0 24 24" fill="none" xmlns="http://www.w3.org/2000/svg">
<path d="M7.375 2C7.78921 2 8.125 2.33579 8.125 2.75V3.5H15.875V2.75C15.875 2.33579 16.2108 2 16.625 2C17.0392 2 17.375 2.33579 17.375 2.75V3.5H18.1667C20.2643 3.5 22 5.15969 22 7.25V14.5039C22 14.9182 21.6642 15.2539 21.25 15.2539C20.8358 15.2539 20.5 14.9182 20.5 14.5039V10H3.5V18.25C3.5 19.4734 4.52517 20.5 5.83333 20.5H9.90715C10.3214 20.5 10.6572 20.8358 10.6572 21.25C10.6572 21.6642 10.3214 22 9.90715 22H5.83333C3.73575 22 2 20.3403 2 18.25V7.25C2 5.15969 3.73575 3.5 5.83333 3.5H6.625V2.75C6.625 2.33579 6.96079 2 7.375 2ZM6.625 5H5.83333C4.52517 5 3.5 6.0266 3.5 7.25V8.5H20.5V7.25C20.5 6.0266 19.4748 5 18.1667 5H17.375V5.75C17.375 6.16421 17.0392 6.5 16.625 6.5C16.2108 6.5 15.875 6.16421 15.875 5.75V5H8.125V5.75C8.125 6.16421 7.78921 6.5 7.375 6.5C6.96079 6.5 6.625 6.16421 6.625 5.75V5ZM5.5 12.75C5.5 12.3358 5.83579 12 6.25 12H6.25103C6.66524 12 7.00103 12.3358 7.00103 12.75C7.00103 13.1642 6.66524 13.5 6.25103 13.5H6.25C5.83579 13.5 5.5 13.1642 5.5 12.75ZM15.5059 16.5176C15.3176 16.4873 15.2032 16.5027 15.1664 16.5151C14.601 16.7057 14.4607 17.1037 14.5083 17.4567C14.5657 17.8822 14.8436 18.0875 15.0746 18.0875C15.4826 18.0875 15.8537 18.0267 16.1245 17.9645C16.2587 17.9337 16.3653 17.9032 16.4359 17.8814C16.4711 17.8705 16.4971 17.8618 16.5128 17.8564L16.5285 17.8509C16.8658 17.7246 17.2449 17.8561 17.4319 18.1639C17.6191 18.4718 17.5608 18.8693 17.2932 19.1105C16.3076 19.9991 15.4544 21.2946 14.833 22.577C14.6523 22.9498 14.2037 23.1056 13.831 22.9249C13.4582 22.7443 13.3025 22.2957 13.4831 21.923C13.8619 21.1412 14.3317 20.3291 14.8813 19.5787C13.7985 19.4781 13.1407 18.5396 13.0218 17.6571C12.8861 16.6508 13.3863 15.5323 14.6872 15.0937C15.0488 14.9718 15.4376 14.9873 15.7444 15.0367C16.0622 15.0879 16.3801 15.1899 16.6368 15.3192C17.0067 15.5056 17.1554 15.9566 16.969 16.3265C16.7826 16.6964 16.3316 16.8451 15.9617 16.6587C15.8524 16.6036 15.6833 16.5462 15.5059 16.5176ZM19.4121 18.1816C20.1697 17.5599 21.2609 17.5599 22.0184 18.1816C22.0974 18.2464 22.1763 18.3254 22.2626 18.4118C22.2694 18.4186 22.2762 18.4254 22.2831 18.4323C22.2899 18.4391 22.2968 18.446 22.3035 18.4527C22.39 18.5391 22.4689 18.6179 22.5337 18.6969C23.1554 19.4544 23.1554 20.5457 22.5337 21.3032C22.4689 21.3822 22.39 21.461 22.3036 21.5474C22.2968 21.5542 22.2899 21.561 22.2831 21.5679C22.2762 21.5747 22.2694 21.5816 22.2626 21.5884C22.1762 21.6748 22.0974 21.7537 22.0184 21.8185C21.2609 22.4402 20.1697 22.4402 19.4121 21.8185C19.3331 21.7537 19.2543 21.6748 19.168 21.5884C19.1612 21.5816 19.1544 21.5747 19.1475 21.5679C19.1406 21.561 19.1338 21.5542 19.127 21.5474C19.0406 21.4611 18.9616 21.3822 18.8968 21.3032C18.2751 20.5457 18.2751 19.4544 18.8968 18.6969C18.9617 18.6179 19.0406 18.539 19.127 18.4527C19.1338 18.4459 19.1406 18.4391 19.1475 18.4323C19.1543 18.4254 19.1611 18.4186 19.1679 18.4118C19.2543 18.3254 19.3331 18.2464 19.4121 18.1816ZM21.0668 19.3411C20.8625 19.1734 20.5681 19.1734 20.3637 19.3411C20.3498 19.3525 20.3278 19.3732 20.2081 19.4929C20.0885 19.6126 20.0677 19.6346 20.0563 19.6485C19.8886 19.8529 19.8886 20.1473 20.0563 20.3516C20.0677 20.3655 20.0885 20.3875 20.2081 20.5072C20.3278 20.6269 20.3498 20.6476 20.3637 20.659C20.5681 20.8267 20.8625 20.8267 21.0668 20.659C21.0807 20.6476 21.1027 20.6269 21.2224 20.5072C21.3421 20.3875 21.3628 20.3655 21.3742 20.3516C21.5419 20.1473 21.5419 19.8529 21.3742 19.6485C21.3628 19.6346 21.3421 19.6126 21.2224 19.4929C21.1027 19.3732 21.0807 19.3525 21.0668 19.3411Z" fill="black"/>
</svg>
