<svg width="24" height="24" viewBox="0 0 24 24" fill="none" xmlns="http://www.w3.org/2000/svg">
<path d="M7.375 2C7.78921 2 8.125 2.33579 8.125 2.75V3.5H15.875V2.75C15.875 2.33579 16.2108 2 16.625 2C17.0392 2 17.375 2.33579 17.375 2.75V3.5H18.1667C20.2643 3.5 22 5.15969 22 7.25V10.75C22 11.1642 21.6642 11.5 21.25 11.5C20.8358 11.5 20.5 11.1642 20.5 10.75V10H3.5V18.25C3.5 19.4734 4.52517 20.5 5.83333 20.5H10.5C10.9142 20.5 11.25 20.8358 11.25 21.25C11.25 21.6642 10.9142 22 10.5 22H5.83333C3.73575 22 2 20.3403 2 18.25V7.25C2 5.15969 3.73575 3.5 5.83333 3.5H6.625V2.75C6.625 2.33579 6.96079 2 7.375 2ZM6.625 5H5.83333C4.52517 5 3.5 6.0266 3.5 7.25V8.5H20.5V7.25C20.5 6.0266 19.4748 5 18.1667 5H17.375V5.75C17.375 6.16421 17.0392 6.5 16.625 6.5C16.2108 6.5 15.875 6.16421 15.875 5.75V5H8.125V5.75C8.125 6.16421 7.78921 6.5 7.375 6.5C6.96079 6.5 6.625 6.16421 6.625 5.75V5ZM5.5 12.75C5.5 12.3358 5.83579 12 6.25 12H6.25103C6.66524 12 7.00103 12.3358 7.00103 12.75C7.00103 13.1642 6.66524 13.5 6.25103 13.5H6.25C5.83579 13.5 5.5 13.1642 5.5 12.75ZM18.9519 13.6945C19.878 12.7685 21.3794 12.7685 22.3055 13.6945C23.2315 14.6206 23.2315 16.122 22.3055 17.0481L17.2855 22.068C16.6888 22.6648 15.8794 23 15.0355 23H13.75C13.3358 23 13 22.6642 13 22.25V20.9645C13 20.1206 13.3352 19.3112 13.932 18.7145L18.9519 13.6945ZM21.2448 14.7552C20.9045 14.4149 20.3528 14.4149 20.0126 14.7552L14.9926 19.7751C14.6772 20.0906 14.5 20.5184 14.5 20.9645V21.5H15.0355C15.4816 21.5 15.9094 21.3228 16.2249 21.0074L21.2448 15.9874C21.5851 15.6472 21.5851 15.0955 21.2448 14.7552Z" fill="black"/>
</svg>
