<svg width="24" height="24" viewBox="0 0 24 24" fill="none" xmlns="http://www.w3.org/2000/svg">
<path d="M2.21967 2.21967C2.51256 1.92678 2.98744 1.92678 3.28033 2.21967L21.7803 20.7197C22.0732 21.0126 22.0732 21.4874 21.7803 21.7803C21.4874 22.0732 21.0126 22.0732 20.7197 21.7803L19.6435 20.7042C19.1885 20.8947 18.6893 21 18.1667 21H5.83333C3.71386 21 2 19.2767 2 17.1562V9.9375C2 8.06703 3.33357 6.5056 5.10277 6.16343L2.21967 3.28033C1.92678 2.98744 1.92678 2.51256 2.21967 2.21967ZM6.53309 7.59375H5.83333C4.54705 7.59375 3.5 8.6407 3.5 9.9375V17.1562C3.5 18.4531 4.54705 19.5 5.83333 19.5H18.1667C18.2541 19.5 18.3404 19.4952 18.4252 19.4858L15.3283 16.3889C14.4718 17.23 13.2967 17.75 12 17.75C9.37665 17.75 7.25 15.6234 7.25 13C7.25 11.7034 7.77001 10.5282 8.61111 9.67177L6.53309 7.59375ZM9.67174 10.7324C9.10061 11.3186 8.75 12.1184 8.75 13C8.75 14.795 10.2051 16.25 12 16.25C12.8817 16.25 13.6815 15.8994 14.2676 15.3283L9.67174 10.7324ZM8.4056 3.83254C8.92021 3.31229 9.63165 3 10.3982 3H13.6018C14.811 3 15.8824 3.77628 16.2636 4.92383L16.5886 5.90216C16.6271 6.01792 16.734 6.09375 16.8519 6.09375H18.1667C20.2861 6.09375 22 7.81704 22 9.9375V16.6394C22 17.0536 21.6642 17.3894 21.25 17.3894C20.8358 17.3894 20.5 17.0536 20.5 16.6394V9.9375C20.5 8.6407 19.4529 7.59375 18.1667 7.59375H16.8519C16.0851 7.59375 15.4064 7.10151 15.1651 6.37506L14.8401 5.39673C14.6617 4.85987 14.1621 4.5 13.6018 4.5H10.3982C10.0431 4.5 9.71252 4.64428 9.47202 4.88741C9.18072 5.18189 8.70586 5.18448 8.41137 4.89319C8.11689 4.60189 8.1143 4.12703 8.4056 3.83254Z" fill="black"/>
</svg>
