<svg width="24" height="24" viewBox="0 0 24 24" fill="none" xmlns="http://www.w3.org/2000/svg">
<path d="M7.7364 4.92383C8.11763 3.77628 9.189 3 10.3982 3H13.6018C14.811 3 15.8824 3.77628 16.2636 4.92383L16.5886 5.90216C16.6271 6.01792 16.734 6.09375 16.8519 6.09375H18.1667C20.2861 6.09375 22 7.81704 22 9.9375V17.1562C22 19.2767 20.2861 21 18.1667 21H5.83333C3.71386 21 2 19.2767 2 17.1562V9.9375C2 7.81704 3.71386 6.09375 5.83333 6.09375H7.14811C7.26604 6.09375 7.37294 6.01792 7.41139 5.90216L7.7364 4.92383ZM10.3982 4.5C9.83791 4.5 9.33826 4.85987 9.15991 5.39673L8.8349 6.37506C8.59356 7.10151 7.91495 7.59375 7.14811 7.59375H5.83333C4.54705 7.59375 3.5 8.6407 3.5 9.9375V17.1562C3.5 18.4531 4.54705 19.5 5.83333 19.5H18.1667C19.4529 19.5 20.5 18.4531 20.5 17.1562V9.9375C20.5 8.6407 19.4529 7.59375 18.1667 7.59375H16.8519C16.0851 7.59375 15.4064 7.10151 15.1651 6.37506L14.8401 5.39673C14.6617 4.85987 14.1621 4.5 13.6018 4.5H10.3982ZM12 9.75C10.2051 9.75 8.75 11.2051 8.75 13C8.75 14.7949 10.2051 16.25 12 16.25C13.7949 16.25 15.25 14.7949 15.25 13C15.25 11.2051 13.7949 9.75 12 9.75ZM7.25 13C7.25 10.3766 9.37665 8.25 12 8.25C14.6234 8.25 16.75 10.3766 16.75 13C16.75 15.6234 14.6234 17.75 12 17.75C9.37665 17.75 7.25 15.6234 7.25 13Z" fill="black"/>
</svg>
