<svg width="24" height="24" viewBox="0 0 24 24" fill="none" xmlns="http://www.w3.org/2000/svg">
<path d="M8.58496 4.75C7.69194 4.75 6.87715 5.38961 6.64648 6.35547L6.0127 9.00977H17.9873L17.3535 6.35547C17.1229 5.38961 16.3081 4.75 15.415 4.75H8.58496ZM16.9375 17.8398C16.9375 18.6516 17.5574 19.25 18.25 19.25H18.5938C19.4761 19.25 20.2498 18.4908 20.25 17.4805V11.9199C20.25 11.1082 19.6301 10.5098 18.9375 10.5098H5.0625C4.36992 10.5098 3.75004 11.1082 3.75 11.9199V17.4805C3.75024 18.4908 4.52394 19.25 5.40625 19.25H5.97949C6.54538 19.2498 7.06246 18.7591 7.0625 18.0801C7.0625 17.1687 7.77675 16.3701 8.72949 16.3701H15.5C16.3261 16.3701 16.9374 17.0611 16.9375 17.8398ZM21.75 17.4805C21.7498 19.2532 20.369 20.75 18.5938 20.75H18.25C16.6746 20.75 15.455 19.4311 15.4395 17.8701H8.72949C8.66971 17.8701 8.5625 17.9311 8.5625 18.0801C8.56246 19.5215 7.43831 20.7498 5.97949 20.75H5.40625C3.63099 20.75 2.25024 19.2532 2.25 17.4805V11.9199C2.25003 10.8527 2.8145 9.89576 3.67188 9.38965L2.45801 8.11816L2.40723 8.05957C2.17403 7.75953 2.20164 7.32572 2.48242 7.05762C2.78193 6.7718 3.25597 6.78274 3.54199 7.08203L4.65234 8.24512L5.1875 6.00781C5.56901 4.40963 6.95427 3.25 8.58496 3.25H15.415C17.0457 3.25 18.431 4.40963 18.8125 6.00781L19.3467 8.24512L20.458 7.08203L20.5137 7.0293C20.8026 6.78251 21.2368 6.78966 21.5176 7.05762C21.8172 7.34367 21.828 7.81859 21.542 8.11816L20.3271 9.38965C21.1849 9.89565 21.75 10.8524 21.75 11.9199V17.4805Z" fill="black"/>
</svg>
