<svg width="24" height="24" viewBox="0 0 24 24" fill="none" xmlns="http://www.w3.org/2000/svg">
<path d="M2 6.86111C2 4.17639 4.17639 2 6.86111 2H17.1389C19.8236 2 22 4.17639 22 6.86111V11.25C22 11.6642 21.6642 12 21.25 12C20.8358 12 20.5 11.6642 20.5 11.25V6.86111C20.5 5.00482 18.9952 3.5 17.1389 3.5H6.86111C5.00482 3.5 3.5 5.00482 3.5 6.86111V17.1389C3.5 18.9952 5.00482 20.5 6.86111 20.5H11.25C11.6642 20.5 12 20.8358 12 21.25C12 21.6642 11.6642 22 11.25 22H6.86111C4.17639 22 2 19.8236 2 17.1389V6.86111ZM9.65988 7.61108C9.12966 7.61108 8.68169 7.96442 8.55869 8.44746L8.21147 9.81108H15.7886L15.4414 8.44746C15.3184 7.96443 14.8704 7.61108 14.3402 7.61108H9.65988ZM6.84153 9.11235L7.10508 8.07733C7.40149 6.91324 8.46085 6.11108 9.65988 6.11108H14.3402C15.5392 6.11108 16.5986 6.91324 16.895 8.07733L17.4803 10.376C17.5375 10.6004 17.4878 10.8386 17.3457 11.0214C17.2036 11.2042 16.985 11.3111 16.7535 11.3111H7.24657C6.86726 11.3111 6.58337 11.6094 6.58337 11.9486V15.5201C6.58337 15.987 6.97272 16.3889 7.4821 16.3889H7.87465C8.16724 16.3889 8.38083 16.1596 8.38083 15.9055C8.38083 15.1378 9.01085 14.5389 9.75891 14.5389H11.007C11.4212 14.5389 11.757 14.8746 11.757 15.2889C11.757 15.7031 11.4212 16.0389 11.007 16.0389H9.8764C9.80679 17.0832 8.9253 17.8889 7.87465 17.8889H7.4821C6.17035 17.8889 5.08337 16.8412 5.08337 15.5201V11.9486C5.08337 11.2699 5.40082 10.6718 5.89199 10.2822L5.30793 9.70876C5.01236 9.41856 5.00801 8.94371 5.2982 8.64814C5.58839 8.35257 6.06325 8.34822 6.35882 8.63841L6.84153 9.11235ZM18 14.5C16.067 14.5 14.5 16.067 14.5 18C14.5 19.933 16.067 21.5 18 21.5C19.933 21.5 21.5 19.933 21.5 18C21.5 16.067 19.933 14.5 18 14.5ZM13 18C13 15.2386 15.2386 13 18 13C20.7614 13 23 15.2386 23 18C23 20.7614 20.7614 23 18 23C15.2386 23 13 20.7614 13 18ZM20.2536 16.644C20.533 16.9497 20.5117 17.4241 20.206 17.7036L17.8812 19.8286C17.5864 20.0981 17.1321 20.0892 16.8481 19.8085L15.7728 18.746C15.4782 18.4548 15.4754 17.98 15.7665 17.6853C16.0577 17.3907 16.5325 17.3879 16.8272 17.679L17.3953 18.2405L19.194 16.5964C19.4997 16.317 19.9741 16.3383 20.2536 16.644Z" fill="black"/>
</svg>
