<svg width="24" height="24" viewBox="0 0 24 24" fill="none" xmlns="http://www.w3.org/2000/svg">
<path d="M2 6.86111C2 4.17639 4.17639 2 6.86111 2H17.1389C19.8236 2 22 4.17639 22 6.86111V17.1389C22 19.8236 19.8236 22 17.1389 22H6.86111C4.17639 22 2 19.8236 2 17.1389V6.86111ZM6.86111 3.5C5.00482 3.5 3.5 5.00482 3.5 6.86111V17.1389C3.5 18.9952 5.00482 20.5 6.86111 20.5H17.1389C18.9952 20.5 20.5 18.9952 20.5 17.1389V6.86111C20.5 5.00482 18.9952 3.5 17.1389 3.5H6.86111ZM9.65985 7.61108C9.12963 7.61108 8.68166 7.96442 8.55866 8.44746L8.21144 9.81108H15.7886L15.4414 8.44746C15.3184 7.96443 14.8704 7.61108 14.3402 7.61108H9.65985ZM18.1081 10.2822C18.5992 10.6718 18.9167 11.2699 18.9167 11.9486V15.5201C18.9167 16.8412 17.8297 17.8889 16.518 17.8889H16.2824C15.1974 17.8889 14.2811 17.0929 14.1385 16.0389H9.87637C9.80676 17.0832 8.92527 17.8889 7.87462 17.8889H7.48207C6.17032 17.8889 5.08334 16.8412 5.08334 15.5201V11.9486C5.08334 11.2699 5.40079 10.6718 5.89196 10.2822L5.3079 9.70876C5.01233 9.41856 5.00798 8.94371 5.29817 8.64814C5.58836 8.35257 6.06322 8.34822 6.35879 8.63841L6.8415 9.11235L7.10505 8.07733C7.40145 6.91324 8.46082 6.11108 9.65985 6.11108H14.3402C15.5392 6.11108 16.5986 6.91324 16.895 8.07733L17.1585 9.11235L17.6412 8.63841C17.9368 8.34822 18.4117 8.35257 18.7019 8.64814C18.992 8.94371 18.9877 9.41856 18.6921 9.70876L18.1081 10.2822ZM7.24654 11.3111C6.86723 11.3111 6.58334 11.6094 6.58334 11.9486V15.5201C6.58334 15.987 6.97268 16.3889 7.48207 16.3889H7.87462C8.16721 16.3889 8.3808 16.1596 8.3808 15.9055C8.3808 15.1378 9.01082 14.5389 9.75888 14.5389H14.3982C15.0595 14.5389 15.6192 15.0688 15.6192 15.7514C15.6192 16.0905 15.9031 16.3889 16.2824 16.3889H16.518C17.0273 16.3889 17.4167 15.987 17.4167 15.5201V11.9486C17.4167 11.6094 17.1328 11.3111 16.7535 11.3111H7.24654Z" fill="black"/>
</svg>
