<svg width="24" height="24" viewBox="0 0 24 24" fill="none" xmlns="http://www.w3.org/2000/svg">
<path d="M12 2C12.4142 2 12.75 2.33579 12.75 2.75V3H13.1467C13.5609 3 13.8967 3.33579 13.8967 3.75C13.8967 4.16421 13.5609 4.5 13.1467 4.5H12.75V19.5H13.1467C13.5609 19.5 13.8967 19.8358 13.8967 20.25C13.8967 20.6642 13.5609 21 13.1467 21H12.75V21.25C12.75 21.6642 12.4142 22 12 22C11.5858 22 11.25 21.6642 11.25 21.25V21H7.41667C4.97741 21 3 19.0226 3 16.5833V7.41667C3 4.97741 4.97741 3 7.41667 3H11.25V2.75C11.25 2.33579 11.5858 2 12 2ZM11.25 4.5H7.41667C5.80584 4.5 4.5 5.80584 4.5 7.41667V16.5833C4.5 18.1942 5.80584 19.5 7.41667 19.5H11.25V15.47H10.4609C10.342 16.3435 9.58288 17 8.68819 17H8.36354C7.2093 17 6.25 16.0777 6.25 14.9112V11.9575C6.25 11.4071 6.48472 10.9171 6.85677 10.5729L6.47456 10.1977C6.17899 9.90748 6.17463 9.43263 6.46483 9.13706C6.75502 8.84149 7.22987 8.83713 7.52544 9.12733L7.76371 9.36126L7.92601 8.72385C8.18615 7.70222 9.11515 7 10.1646 7H11.25V4.5ZM11.25 8.5H10.1646C9.78396 8.5 9.46635 8.7534 9.37963 9.09399L8.89556 10.9951C8.81094 11.3274 8.51168 11.56 8.16875 11.56C7.92445 11.56 7.75 11.7509 7.75 11.9575V14.9112C7.75 15.2235 8.01166 15.5 8.36354 15.5H8.68819C8.86077 15.5 8.97708 15.3662 8.97708 15.23C8.97708 14.5212 9.55847 13.97 10.2465 13.97H11.25V8.5ZM14.6967 3.75C14.6967 3.33579 15.0324 3 15.4467 3H16.5833C17.1591 3 17.7109 3.10994 18.2174 3.31063C18.6025 3.46322 18.7909 3.89909 18.6384 4.28417C18.4858 4.66926 18.0499 4.85774 17.6648 4.70515C17.3315 4.57306 16.9669 4.5 16.5833 4.5H15.4467C15.0324 4.5 14.6967 4.16421 14.6967 3.75ZM19.7286 5.37444C20.1143 5.22346 20.5494 5.41374 20.7004 5.79946C20.894 6.29428 21 6.83196 21 7.39252V8.28C21 8.69421 20.6642 9.03 20.25 9.03C19.8358 9.03 19.5 8.69421 19.5 8.28V7.39252C19.5 7.0222 19.4302 6.66977 19.3036 6.34622C19.1526 5.96051 19.3429 5.52543 19.7286 5.37444ZM20.25 10.018C20.6642 10.018 21 10.3538 21 10.768V13.232C21 13.6462 20.6642 13.982 20.25 13.982C19.8358 13.982 19.5 13.6462 19.5 13.232V10.768C19.5 10.3538 19.8358 10.018 20.25 10.018ZM20.25 14.97C20.6642 14.97 21 15.3058 21 15.72V16.6075C21 17.168 20.894 17.7057 20.7003 18.2005C20.5494 18.5863 20.1143 18.7765 19.7286 18.6256C19.3429 18.4746 19.1526 18.0395 19.3036 17.6538C19.4302 17.3302 19.5 16.9778 19.5 16.6075V15.72C19.5 15.3058 19.8358 14.97 20.25 14.97ZM18.6384 19.7158C18.7909 20.1009 18.6025 20.5368 18.2174 20.6894C17.7109 20.8901 17.1591 21 16.5833 21H15.4467C15.0324 21 14.6967 20.6642 14.6967 20.25C14.6967 19.8358 15.0324 19.5 15.4467 19.5H16.5833C16.9669 19.5 17.3315 19.4269 17.6648 19.2948C18.0499 19.1423 18.4858 19.3307 18.6384 19.7158Z" fill="black"/>
</svg>
