<svg width="24" height="24" viewBox="0 0 24 24" fill="none" xmlns="http://www.w3.org/2000/svg">
<path d="M12.8973 3.875C13.6834 2.74701 14.9707 2 16.4381 2H18.8441C20.6139 2 22 3.48244 22 5.25V7.75C22 9.51756 20.6139 11 18.8441 11H16.4381C14.9707 11 13.6834 10.253 12.8973 9.125H6.55447C6.02702 9.125 5.52728 8.90702 5.16343 8.52895L4.56195 7.90395C3.81268 7.1254 3.81269 5.8746 4.56195 5.09605L5.16343 4.47105C5.52728 4.09298 6.02702 3.875 6.55447 3.875H12.8973ZM12.2166 5.375H6.55447C6.44381 5.375 6.33159 5.42041 6.24423 5.51118L5.64274 6.13618C5.45242 6.33395 5.45242 6.66605 5.64274 6.86381L6.24423 7.48881C6.33159 7.57959 6.44381 7.625 6.55447 7.625H12.2166C12.1268 7.26488 12.0792 6.88781 12.0792 6.5C12.0792 6.11219 12.1268 5.73512 12.2166 5.375ZM16.4381 3.5C15.3952 3.5 14.4693 4.08803 13.9673 4.98981C13.7213 5.43171 13.5792 5.94678 13.5792 6.5C13.5792 7.05322 13.7213 7.56829 13.9673 8.01019C14.4693 8.91197 15.3952 9.5 16.4381 9.5H18.8441C19.7318 9.5 20.5 8.74387 20.5 7.75V5.25C20.5 4.25613 19.7318 3.5 18.8441 3.5H16.4381ZM2 14.1714C2 13.1988 2.78827 12.41 3.76108 12.41H5.78325C6.64148 12.41 7.35609 13.0239 7.51251 13.8363C7.73851 13.788 7.98564 13.7215 8.24716 13.6397C8.81307 13.4626 9.39179 13.2315 9.87717 13.0203C10.7661 12.6335 11.7771 12.4879 12.7663 12.7078L14.4717 13.0869C15.6332 13.3451 16.4265 14.3881 16.4001 15.5454C17.0097 15.2152 17.6004 14.8456 18.0889 14.5211C19.0732 13.8674 20.4231 13.9425 21.2921 14.8117C22.1806 15.7004 22.271 17.1627 21.3458 18.1068C20.459 19.0116 19.0675 20.2972 17.7266 20.9198C17.6814 20.9408 17.6368 20.9615 17.5928 20.9819C16.8537 21.3256 16.2802 21.5923 15.6086 21.7603C14.89 21.94 14.0915 22.0009 12.8608 22.0009C11.8398 22.0009 11.0351 21.7668 10.2648 21.5427C10.1764 21.517 10.0884 21.4914 10.0007 21.4663C9.27075 21.2577 8.47782 21.056 7.37076 21.003C7.08639 21.5934 6.48247 22.0009 5.78325 22.0009H3.76108C2.78827 22.0009 2 21.2121 2 20.2395V14.1714ZM7.54436 19.51C8.75844 19.5781 9.64416 19.8044 10.4129 20.0241C10.5025 20.0497 10.5896 20.0749 10.6745 20.0994C11.4585 20.326 12.0634 20.5009 12.8608 20.5009C14.0568 20.5009 14.7077 20.4394 15.2446 20.3051C15.7741 20.1727 16.2242 19.9636 17.0279 19.5904C17.05 19.5801 17.0723 19.5698 17.0949 19.5593C18.1667 19.0616 19.3942 17.9551 20.2745 17.0569C20.579 16.7462 20.5848 16.2259 20.2312 15.8722C19.9003 15.5412 19.3481 15.4855 18.9188 15.7706C18.3222 16.1668 17.5614 16.6402 16.7768 17.0425C16.0109 17.4353 15.1652 17.7906 14.4034 17.9111C14.2517 17.9403 14.0958 17.9554 13.9373 17.9554H12.8608C12.4466 17.9554 12.1108 17.6197 12.1108 17.2054C12.1108 16.7912 12.4466 16.4554 12.8608 16.4554H13.8665L13.872 16.4554C13.9501 16.4554 14.0398 16.4487 14.1415 16.4337C14.5202 16.3519 14.8214 16.0457 14.8873 15.6503C14.9715 15.1449 14.6458 14.6622 14.1462 14.5511L12.4408 14.1721C11.8028 14.0302 11.1154 14.1173 10.4757 14.3957C9.96274 14.619 9.33055 14.8724 8.69507 15.0712C8.32275 15.1877 7.92856 15.2922 7.54434 15.3574L7.54436 19.51ZM3.76108 13.91C3.61708 13.91 3.5 14.0268 3.5 14.1714V20.2395C3.5 20.3841 3.61708 20.5009 3.76108 20.5009H5.78325C5.92727 20.5009 6.04437 20.384 6.04437 20.2395L6.04433 14.1714C6.04433 14.0268 5.92725 13.91 5.78325 13.91H3.76108Z" fill="black"/>
</svg>
