<svg width="24" height="24" viewBox="0 0 24 24" fill="none" xmlns="http://www.w3.org/2000/svg">
<path d="M2 6.86111C2 4.17639 4.17639 2 6.86111 2H17.1389C19.8236 2 22 4.17639 22 6.86111V10.25C22 10.6642 21.6642 11 21.25 11C20.8358 11 20.5 10.6642 20.5 10.25V6.86111C20.5 5.00482 18.9952 3.5 17.1389 3.5H6.86111C5.00482 3.5 3.5 5.00482 3.5 6.86111V17.1389C3.5 18.9952 5.00482 20.5 6.86111 20.5H10.25C10.6642 20.5 11 20.8358 11 21.25C11 21.6642 10.6642 22 10.25 22H6.86111C4.17639 22 2 19.8236 2 17.1389V6.86111ZM9.65985 7.61108C9.12963 7.61108 8.68166 7.96442 8.55866 8.44746L8.21144 9.81108H15.7886L15.4414 8.44746C15.3184 7.96443 14.8704 7.61108 14.3402 7.61108H9.65985ZM6.8415 9.11235L7.10505 8.07733C7.40145 6.91324 8.46082 6.11108 9.65985 6.11108H14.3402C15.5392 6.11108 16.5986 6.91324 16.895 8.07733L17.4803 10.376C17.5374 10.6004 17.4877 10.8386 17.3456 11.0214C17.2036 11.2042 16.985 11.3111 16.7535 11.3111H7.24654C6.86723 11.3111 6.58334 11.6094 6.58334 11.9486V15.5201C6.58334 15.987 6.97268 16.3889 7.48207 16.3889H7.87462C8.16721 16.3889 8.3808 16.1596 8.3808 15.9055C8.3808 15.1378 9.01082 14.5389 9.75888 14.5389H13.819C14.2332 14.5389 14.569 14.8746 14.569 15.2889C14.569 15.7031 14.2332 16.0389 13.819 16.0389H9.87637C9.80676 17.0832 8.92527 17.8889 7.87462 17.8889H7.48207C6.17032 17.8889 5.08334 16.8412 5.08334 15.5201V11.9486C5.08334 11.2699 5.40079 10.6718 5.89196 10.2822L5.3079 9.70876C5.01233 9.41856 5.00798 8.94371 5.29817 8.64814C5.58836 8.35257 6.06322 8.34822 6.35879 8.63841L6.8415 9.11235ZM18.9519 13.6945C19.878 12.7685 21.3794 12.7685 22.3055 13.6945C23.2315 14.6206 23.2315 16.122 22.3055 17.0481L17.2855 22.068C16.6888 22.6648 15.8794 23 15.0355 23H13.75C13.3358 23 13 22.6642 13 22.25V20.9645C13 20.1206 13.3352 19.3112 13.932 18.7145L18.9519 13.6945ZM21.2448 14.7552C20.9045 14.4149 20.3528 14.4149 20.0126 14.7552L14.9926 19.7751C14.6772 20.0906 14.5 20.5184 14.5 20.9645V21.5H15.0355C15.4816 21.5 15.9094 21.3228 16.2249 21.0074L21.2448 15.9874C21.5851 15.6472 21.5851 15.0955 21.2448 14.7552Z" fill="black"/>
</svg>
