<svg width="24" height="24" viewBox="0 0 24 24" fill="none" xmlns="http://www.w3.org/2000/svg">
<path d="M6.86111 2C4.17639 2 2 4.17639 2 6.86111V17.1389C2 19.8236 4.17639 22 6.86111 22H17.1389C19.8236 22 22 19.8236 22 17.1389V6.86111C22 4.17639 19.8236 2 17.1389 2H6.86111ZM6.86111 3.5H17.1389C18.9952 3.5 20.5 5.00482 20.5 6.86111V17.1389C20.5 18.9952 18.9952 20.5 17.1389 20.5H6.86111C5.00482 20.5 3.5 18.9952 3.5 17.1389V6.86111C3.5 5.00482 5.00482 3.5 6.86111 3.5Z" fill="black"/>
<path d="M6.49255 9.82125C6.25576 9.48139 5.78829 9.39784 5.44843 9.63464C5.10858 9.87143 5.02503 10.3389 5.26182 10.6788C5.60702 11.1742 6.00019 11.6289 6.43425 12.0361L5.10815 14.23C4.89387 14.5845 5.00754 15.0455 5.36203 15.2598C5.71651 15.4741 6.17758 15.3604 6.39185 15.0059L7.62448 12.9667C7.81624 13.0904 8.01316 13.2062 8.21481 13.3138C8.62069 13.5302 9.04173 13.7109 9.47356 13.8546L9.0958 16.127C9.02788 16.5356 9.30405 16.9219 9.71266 16.9898C10.1213 17.0578 10.5076 16.7816 10.5755 16.373L10.9378 14.1938C11.289 14.241 11.6439 14.2649 12 14.2649C12.3562 14.2649 12.711 14.241 13.0622 14.1938L13.4245 16.373C13.4924 16.7816 13.8787 17.0578 14.2873 16.9898C14.6959 16.9219 14.9721 16.5356 14.9042 16.127L14.5264 13.8546C14.9583 13.7109 15.3793 13.5302 15.7852 13.3138C15.9868 13.2062 16.1838 13.0904 16.3755 12.9667L17.6081 15.0059C17.8224 15.3604 18.2835 15.4741 18.638 15.2598C18.9925 15.0455 19.1061 14.5845 18.8919 14.23L17.5657 12.0361C17.9998 11.6289 18.393 11.1742 18.7382 10.6788C18.975 10.3389 18.8914 9.87143 18.5516 9.63464C18.2117 9.39784 17.7442 9.48139 17.5075 9.82125C17.1155 10.3838 16.6505 10.8806 16.1286 11.2984C15.8001 11.5614 15.449 11.7931 15.0794 11.9902C14.5769 12.2582 14.0473 12.4583 13.503 12.588C13.4733 12.5951 13.4435 12.602 13.4136 12.6086C12.9503 12.7122 12.4765 12.7649 12 12.7649C11.5234 12.7649 11.0497 12.7122 10.5864 12.6086C10.5565 12.602 10.5267 12.5951 10.497 12.588C9.95273 12.4583 9.42313 12.2582 8.92059 11.9902C8.55096 11.7931 8.19989 11.5614 7.87136 11.2984C7.34954 10.8806 6.88452 10.3838 6.49255 9.82125Z" fill="black"/>
</svg>
