<svg width="24" height="24" viewBox="0 0 24 24" fill="none" xmlns="http://www.w3.org/2000/svg">
<path d="M4 5.97222C4 3.77842 5.77842 2 7.97222 2H16.0278C18.2216 2 20 3.77842 20 5.97222V11.25H21.25C21.6642 11.25 22 11.5858 22 12C22 12.4142 21.6642 12.75 21.25 12.75H2.75C2.33579 12.75 2 12.4142 2 12C2 11.5858 2.33579 11.25 2.75 11.25H4V5.97222ZM5.5 11.25H6.25V9.90446C6.25 9.32127 6.56613 8.85398 6.93398 8.55746C7.15191 8.3818 7.41099 8.24533 7.6896 8.1631L8.04336 6.84325C8.31095 5.84488 9.24913 5.19751 10.2644 5.19751L13.7356 5.19751C14.7509 5.19751 15.689 5.84487 15.9566 6.84325L16.3104 8.1631C16.589 8.24533 16.8481 8.38179 17.066 8.55746C17.4339 8.85398 17.75 9.32127 17.75 9.90446V11.25H18.5V5.97222C18.5 4.60685 17.3931 3.5 16.0278 3.5H7.97222C6.60685 3.5 5.5 4.60685 5.5 5.97222V11.25ZM16.25 11.25V9.90446C16.25 9.89164 16.2413 9.81934 16.1246 9.72528C16.0088 9.63188 15.851 9.57529 15.7114 9.57529C15.372 9.57529 15.0749 9.34732 14.987 9.01946L14.5078 7.23159C14.432 6.94887 14.1361 6.69751 13.7356 6.69751L10.2644 6.69751C9.86389 6.69751 9.56799 6.94887 9.49222 7.23159L9.01301 9.01946C8.92513 9.34732 8.62801 9.57529 8.28858 9.57529C8.14905 9.57529 7.99123 9.63188 7.87535 9.72529C7.75866 9.81935 7.75 9.89164 7.75 9.90446V11.25H16.25ZM5.83331 14.3333C6.24753 14.3333 6.58331 14.669 6.58331 15.0833V17.1388C6.58331 17.553 6.24753 17.8888 5.83331 17.8888C5.4191 17.8888 5.08331 17.553 5.08331 17.1388V15.0833C5.08331 14.669 5.4191 14.3333 5.83331 14.3333ZM9.9444 14.3333C10.3586 14.3333 10.6944 14.669 10.6944 15.0833V21.2499C10.6944 21.6641 10.3586 21.9999 9.9444 21.9999C9.53018 21.9999 9.1944 21.6641 9.1944 21.2499V15.0833C9.1944 14.669 9.53018 14.3333 9.9444 14.3333ZM14.0555 14.3333C14.4698 14.3333 14.8055 14.669 14.8055 15.0833V17.1388C14.8055 17.553 14.4698 17.8888 14.0555 17.8888C13.6413 17.8888 13.3055 17.553 13.3055 17.1388V15.0833C13.3055 14.669 13.6413 14.3333 14.0555 14.3333ZM18.1666 14.3333C18.5808 14.3333 18.9166 14.669 18.9166 15.0833V19.1944C18.9166 19.6086 18.5808 19.9444 18.1666 19.9444C17.7524 19.9444 17.4166 19.6086 17.4166 19.1944V15.0833C17.4166 14.669 17.7524 14.3333 18.1666 14.3333Z" fill="black"/>
</svg>
