<svg width="24" height="24" viewBox="0 0 24 24" fill="none" xmlns="http://www.w3.org/2000/svg">
<path d="M2 6.86111C2 4.17639 4.17639 2 6.86111 2H17.1389C19.8236 2 22 4.17639 22 6.86111V11.25C22 11.6642 21.6642 12 21.25 12C20.8358 12 20.5 11.6642 20.5 11.25V6.86111C20.5 5.00482 18.9952 3.5 17.1389 3.5H6.86111C5.00482 3.5 3.5 5.00482 3.5 6.86111V17.1389C3.5 18.9952 5.00482 20.5 6.86111 20.5H11.25C11.6642 20.5 12 20.8358 12 21.25C12 21.6642 11.6642 22 11.25 22H6.86111C4.17639 22 2 19.8236 2 17.1389V6.86111ZM9.65985 7.61108C9.12963 7.61108 8.68166 7.96442 8.55866 8.44746L8.21144 9.81108H15.7886L15.4414 8.44746C15.3184 7.96443 14.8704 7.61108 14.3402 7.61108H9.65985ZM6.8415 9.11235L7.10505 8.07733C7.40145 6.91324 8.46082 6.11108 9.65985 6.11108H14.3402C15.5392 6.11108 16.5986 6.91324 16.895 8.07733L17.4803 10.376C17.5374 10.6004 17.4877 10.8386 17.3456 11.0214C17.2036 11.2042 16.985 11.3111 16.7535 11.3111H7.24654C6.86723 11.3111 6.58334 11.6094 6.58334 11.9486V15.5201C6.58334 15.987 6.97268 16.3889 7.48207 16.3889H7.87462C8.16721 16.3889 8.3808 16.1596 8.3808 15.9055C8.3808 15.1378 9.01082 14.5389 9.75888 14.5389H11.007C11.4212 14.5389 11.757 14.8746 11.757 15.2889C11.757 15.7031 11.4212 16.0389 11.007 16.0389H9.87637C9.80676 17.0832 8.92527 17.8889 7.87462 17.8889H7.48207C6.17032 17.8889 5.08334 16.8412 5.08334 15.5201V11.9486C5.08334 11.2699 5.40079 10.6718 5.89196 10.2822L5.3079 9.70876C5.01233 9.41856 5.00798 8.94371 5.29817 8.64814C5.58836 8.35257 6.06322 8.34822 6.35879 8.63841L6.8415 9.11235ZM18 14.5C16.067 14.5 14.5 16.067 14.5 18C14.5 19.933 16.067 21.5 18 21.5C19.933 21.5 21.5 19.933 21.5 18C21.5 16.067 19.933 14.5 18 14.5ZM13 18C13 15.2386 15.2386 13 18 13C20.7614 13 23 15.2386 23 18C23 20.7614 20.7614 23 18 23C15.2386 23 13 20.7614 13 18ZM16.053 16.053C16.3459 15.7601 16.8208 15.7601 17.1137 16.053L18 16.9393L18.8863 16.053C19.1792 15.7601 19.6541 15.7601 19.947 16.053C20.2399 16.3459 20.2399 16.8208 19.947 17.1137L19.0607 18L19.947 18.8863C20.2399 19.1792 20.2399 19.6541 19.947 19.947C19.6541 20.2399 19.1792 20.2399 18.8863 19.947L18 19.0607L17.1137 19.947C16.8208 20.2399 16.3459 20.2399 16.053 19.947C15.7601 19.6541 15.7601 19.1792 16.053 18.8863L16.9393 18L16.053 17.1137C15.7601 16.8208 15.7601 16.3459 16.053 16.053Z" fill="black"/>
</svg>
