<svg width="24" height="24" viewBox="0 0 24 24" fill="none" xmlns="http://www.w3.org/2000/svg">
<path d="M6.86111 3.5C5.00482 3.5 3.5 5.00482 3.5 6.86111V17.1389C3.5 18.9952 5.00482 20.5 6.86111 20.5H17.1389C18.9952 20.5 20.5 18.9952 20.5 17.1389V6.86111C20.5 5.00482 18.9952 3.5 17.1389 3.5H6.86111ZM2 6.86111C2 4.17639 4.17639 2 6.86111 2H17.1389C19.8236 2 22 4.17639 22 6.86111V17.1389C22 19.8236 19.8236 22 17.1389 22H6.86111C4.17639 22 2 19.8236 2 17.1389V6.86111ZM12 8.25C10.1171 8.25 8.14005 9.40747 6.84412 11.6476C6.71863 11.8645 6.71863 12.1355 6.84412 12.3524C8.14006 14.5925 10.1172 15.75 12 15.75C13.8828 15.75 15.8599 14.5925 17.1559 12.3524C17.2814 12.1355 17.2814 11.8645 17.1559 11.6476C15.8599 9.40747 13.8829 8.25 12 8.25ZM5.54574 10.8965C7.0548 8.28793 9.48028 6.75 12 6.75C14.5197 6.75 16.9452 8.28793 18.4543 10.8965C18.8486 11.5781 18.8486 12.4219 18.4543 13.1035C16.9452 15.712 14.5197 17.25 12 17.25C9.48027 17.25 7.05479 15.712 5.54574 13.1035C5.15142 12.4219 5.15142 11.5781 5.54574 10.8965ZM12 11.25C11.5858 11.25 11.25 11.5858 11.25 12C11.25 12.4142 11.5858 12.75 12 12.75C12.4142 12.75 12.75 12.4142 12.75 12C12.75 11.5858 12.4142 11.25 12 11.25ZM9.75 12C9.75 13.2426 10.7574 14.25 12 14.25C13.2426 14.25 14.25 13.2426 14.25 12C14.25 10.7574 13.2426 9.75 12 9.75C10.7574 9.75 9.75 10.7574 9.75 12Z" fill="black"/>
</svg>
