<svg width="24" height="24" viewBox="0 0 24 24" fill="none" xmlns="http://www.w3.org/2000/svg">
<path d="M2 6.86111C2 4.17639 4.17639 2 6.86111 2H17.1389C19.8236 2 22 4.17639 22 6.86111V10.75C22 11.1642 21.6642 11.5 21.25 11.5C20.8358 11.5 20.5 11.1642 20.5 10.75V6.86111C20.5 5.00482 18.9952 3.5 17.1389 3.5H6.86111C5.00482 3.5 3.5 5.00482 3.5 6.86111V17.1389C3.5 18.9952 5.00482 20.5 6.86111 20.5H10.25C10.6642 20.5 11 20.8358 11 21.25C11 21.6642 10.6642 22 10.25 22H6.86111C4.17639 22 2 19.8236 2 17.1389V6.86111ZM9.65985 7.61108C9.12963 7.61108 8.68166 7.96442 8.55866 8.44746L8.21144 9.81108H15.7886L15.4414 8.44746C15.3184 7.96443 14.8704 7.61108 14.3402 7.61108H9.65985ZM6.8415 9.11235L7.10505 8.07733C7.40145 6.91324 8.46082 6.11108 9.65985 6.11108H14.3402C15.5392 6.11108 16.5986 6.91324 16.895 8.07733L17.4803 10.376C17.5374 10.6004 17.4877 10.8386 17.3456 11.0214C17.2036 11.2042 16.985 11.3111 16.7535 11.3111H7.24654C6.86723 11.3111 6.58334 11.6094 6.58334 11.9486V15.5201C6.58334 15.987 6.97268 16.3889 7.48207 16.3889H7.87462C8.16721 16.3889 8.3808 16.1596 8.3808 15.9055C8.3808 15.1378 9.01082 14.5389 9.75888 14.5389H12.4718C12.886 14.5389 13.2218 14.8746 13.2218 15.2889C13.2218 15.7031 12.886 16.0389 12.4718 16.0389H9.87637C9.80676 17.0832 8.92527 17.8889 7.87462 17.8889H7.48207C6.17032 17.8889 5.08334 16.8412 5.08334 15.5201V11.9486C5.08334 11.2699 5.40079 10.6718 5.89196 10.2822L5.3079 9.70876C5.01233 9.41856 5.00798 8.94371 5.29817 8.64814C5.58836 8.35257 6.06322 8.34822 6.35879 8.63841L6.8415 9.11235ZM14.7 17.15C14.7 14.858 16.558 13 18.85 13C21.142 13 23 14.858 23 17.15C23 19.442 21.142 21.3 18.85 21.3C17.9753 21.3 17.1631 21.0288 16.4939 20.5667L14.2803 22.7803C13.9874 23.0732 13.5126 23.0732 13.2197 22.7803C12.9268 22.4874 12.9268 22.0126 13.2197 21.7197L15.4333 19.5061C14.9712 18.8369 14.7 18.0247 14.7 17.15ZM18.85 14.5C17.3864 14.5 16.2 15.6865 16.2 17.15C16.2 17.882 16.4958 18.5435 16.9761 19.0239C17.4565 19.5042 18.118 19.8 18.85 19.8C20.3135 19.8 21.5 18.6136 21.5 17.15C21.5 15.6865 20.3135 14.5 18.85 14.5Z" fill="black"/>
</svg>
