<svg width="24" height="24" viewBox="0 0 24 24" fill="none" xmlns="http://www.w3.org/2000/svg">
<path d="M12 3.5C7.30558 3.5 3.5 7.30558 3.5 12C3.5 16.6944 7.30558 20.5 12 20.5C16.6944 20.5 20.5 16.6944 20.5 12C20.5 7.30558 16.6944 3.5 12 3.5ZM2 12C2 6.47715 6.47715 2 12 2C17.5228 2 22 6.47715 22 12C22 17.5228 17.5228 22 12 22C6.47715 22 2 17.5228 2 12ZM16.7947 8.98449C17.0795 9.28535 17.0664 9.76004 16.7655 10.0447L10.9535 15.5447C10.6561 15.8262 10.1879 15.8171 9.9017 15.5243L7.21366 12.7743C6.92413 12.478 6.92954 12.0032 7.22575 11.7137C7.52196 11.4241 7.9968 11.4295 8.28634 11.7257L10.4585 13.948L15.7345 8.95525C16.0353 8.67054 16.51 8.68364 16.7947 8.98449Z" fill="black"/>
</svg>
