<svg width="24" height="24" viewBox="0 0 24 24" fill="none" xmlns="http://www.w3.org/2000/svg">
<path d="M10.4742 3.79841C10.474 3.79845 10.4743 3.79836 10.4742 3.79841L5.31645 5.90975C5.12811 5.98558 4.9162 6.15903 4.74839 6.40866C4.58046 6.65848 4.5 6.92021 4.5 7.12047V11.1833C4.5 15.359 7.54764 19.3102 11.7217 20.4642C11.8973 20.5119 12.0934 20.5119 12.269 20.4642C16.4431 19.3102 19.4907 15.359 19.4907 11.1833L19.4907 11.1816L19.5 7.12047C19.5 7.12023 19.5 7.12071 19.5 7.12047C19.4998 6.92299 19.4189 6.6614 19.2491 6.41009C19.0792 6.15861 18.8658 5.98411 18.6804 5.90846L13.5258 3.79841C13.5256 3.79834 13.526 3.79848 13.5258 3.79841C12.5509 3.40079 11.449 3.40073 10.4742 3.79841ZM9.90748 2.40957C11.2459 1.86348 12.7541 1.86348 14.0925 2.40957L19.2469 4.51957C19.2468 4.5195 19.2471 4.51965 19.2469 4.51957C19.7646 4.73088 20.1947 5.13026 20.4921 5.57041C20.7894 6.01057 21 6.55915 21 7.12047L21 7.12218L20.9907 11.1833C20.9907 11.183 20.9907 11.1836 20.9907 11.1833C20.9903 16.0577 17.4684 20.5838 12.6671 21.9104L12.6647 21.9111C12.2301 22.0296 11.7606 22.0296 11.3261 21.9111L11.3237 21.9104C6.52203 20.5837 3 16.0581 3 11.1833V7.12047C3 6.56185 3.20642 6.0138 3.50351 5.57184C3.80031 5.13031 4.23077 4.73048 4.754 4.51918L9.90748 2.40957ZM16.7947 8.98449C17.0795 9.28535 17.0664 9.76004 16.7655 10.0447L10.9535 15.5447C10.6561 15.8262 10.1879 15.8171 9.9017 15.5243L7.21366 12.7743C6.92412 12.478 6.92954 12.0032 7.22575 11.7137C7.52196 11.4241 7.9968 11.4295 8.28634 11.7257L10.4585 13.948L15.7345 8.95525C16.0353 8.67054 16.51 8.68364 16.7947 8.98449Z" fill="black"/>
</svg>
