<svg width="24" height="24" viewBox="0 0 24 24" fill="none" xmlns="http://www.w3.org/2000/svg">
<path d="M2 6.86111C2 4.17639 4.17639 2 6.86111 2H17.1389C19.8236 2 22 4.17639 22 6.86111V17.1389C22 19.8236 19.8236 22 17.1389 22H6.86111C4.17639 22 2 19.8236 2 17.1389V6.86111ZM6.86111 3.5C5.00482 3.5 3.5 5.00482 3.5 6.86111V17.1389C3.5 18.9952 5.00482 20.5 6.86111 20.5H17.1389C18.9952 20.5 20.5 18.9952 20.5 17.1389V6.86111C20.5 5.00482 18.9952 3.5 17.1389 3.5H6.86111ZM16.7947 8.98449C17.0795 9.28535 17.0664 9.76004 16.7655 10.0447L10.9535 15.5447C10.6561 15.8262 10.1879 15.8171 9.9017 15.5243L7.21366 12.7743C6.92413 12.478 6.92954 12.0032 7.22575 11.7137C7.52196 11.4241 7.9968 11.4295 8.28634 11.7257L10.4585 13.948L15.7345 8.95525C16.0353 8.67054 16.51 8.68364 16.7947 8.98449Z" fill="black"/>
</svg>
