<svg width="24" height="24" viewBox="0 0 24 24" fill="none" xmlns="http://www.w3.org/2000/svg">
<path d="M2 7.25C2 5.73122 3.23122 4.5 4.75 4.5H19.25C20.7688 4.5 22 5.73122 22 7.25V16.75C22 18.2688 20.7688 19.5 19.25 19.5H4.75C3.23122 19.5 2 18.2688 2 16.75V7.25ZM4.75 6C4.05964 6 3.5 6.55964 3.5 7.25V16.75C3.5 17.4404 4.05964 18 4.75 18H19.25C19.9404 18 20.5 17.4404 20.5 16.75V7.25C20.5 6.55964 19.9404 6 19.25 6H4.75ZM6 9.7478C6 9.33359 6.33579 8.9978 6.75 8.9978L17.25 8.9978C17.6642 8.9978 18 9.33359 18 9.7478C18 10.162 17.6642 10.4978 17.25 10.4978L6.75 10.4978C6.33579 10.4978 6 10.162 6 9.7478ZM14.7908 14.3029C14.9664 14.1887 15.107 14.1442 15.2015 14.1386C15.2722 14.1344 15.3451 14.1467 15.4449 14.241C15.736 14.5161 16.0212 14.7221 16.3421 14.8492C16.6681 14.9783 16.9718 15.0022 17.2498 15.0022C17.664 15.0022 17.9998 14.6665 17.9998 14.2522C17.9998 13.838 17.664 13.5022 17.2498 13.5022C17.0618 13.5022 16.9714 13.4851 16.8945 13.4546C16.8124 13.4221 16.6858 13.3499 16.4752 13.1508C16.0732 12.7709 15.5945 12.6124 15.112 12.6413C14.6574 12.6684 14.2514 12.8574 13.9301 13.0739L13.9047 13.091L13.8808 13.1101C13.7884 13.1839 13.6444 13.2958 13.4898 13.3874C13.413 13.4329 13.3466 13.4656 13.2938 13.4855C13.2627 13.4972 13.2452 13.5011 13.2396 13.5022H12.25C11.8358 13.5022 11.5 13.838 11.5 14.2522C11.5 14.6665 11.8358 15.0022 12.25 15.0022H13.2498C13.6588 15.0022 14.0337 14.8087 14.2545 14.6778C14.4836 14.5421 14.6806 14.3904 14.7908 14.3029Z" fill="black"/>
</svg>
