<svg width="24" height="24" viewBox="0 0 24 24" fill="none" xmlns="http://www.w3.org/2000/svg">
<path d="M4 6.52778C4 5.12934 5.1368 4 6.53378 4H19.4662C20.8632 4 22 5.12934 22 6.52778V14.9722C22 16.3707 20.8632 17.5 19.4662 17.5H14.25C13.8358 17.5 13.5 17.1642 13.5 16.75C13.5 16.3358 13.8358 16 14.25 16H19.4662C20.0395 16 20.5 15.5375 20.5 14.9722V6.52778C20.5 5.96253 20.0395 5.5 19.4662 5.5H6.53378C5.96045 5.5 5.5 5.96253 5.5 6.52778V7.25C5.5 7.66421 5.16421 8 4.75 8C4.33579 8 4 7.66421 4 7.25V6.52778ZM10.397 8.24805C10.397 7.83383 10.7328 7.49805 11.147 7.49805L18.2498 7.49805C18.664 7.49805 18.9998 7.83383 18.9998 8.24805C18.9998 8.66226 18.664 8.99805 18.2498 8.99805L11.147 8.99805C10.7328 8.99805 10.397 8.66226 10.397 8.24805ZM6.69574 10.5337L3.76952 11.5574L3.73562 11.5658C3.59335 11.6012 3.50003 11.7251 3.50003 11.8611L3.5 13.9349C3.5 14.546 3.58902 15.1269 3.80093 15.6447C4.18752 16.5895 4.57537 17.1216 4.98197 17.4859C5.39905 17.8597 5.88212 18.1014 6.56826 18.4082C6.70459 18.4692 6.85193 18.5 6.99998 18.5C7.14806 18.5 7.29545 18.4692 7.43184 18.4082C8.11794 18.1013 8.601 17.8596 9.01807 17.4859C9.42465 17.1216 9.81249 16.5894 10.1991 15.6447C10.411 15.1269 10.5 14.546 10.5 13.9349V11.8611C10.5 11.7251 10.4067 11.6012 10.2644 11.5658L10.2305 11.5574L7.30426 10.5337C7.20413 10.5113 7.10207 10.5 6.99998 10.5C6.89791 10.5 6.79586 10.5113 6.69574 10.5337ZM6.30383 9.08515C6.5324 9.02838 6.7662 9 6.99997 9C7.23376 9 7.46758 9.02837 7.69617 9.08515L7.73007 9.09357L10.6642 10.12C11.4477 10.3326 12 11.0416 12 11.8611V13.9349C12 14.6852 11.8915 15.4695 11.5873 16.2128C11.1399 17.3063 10.6378 18.0486 10.0191 18.603C9.4109 19.148 8.73338 19.4693 8.04423 19.7775C7.71207 19.926 7.35568 20 6.99998 20C6.64434 20 6.28801 19.9261 5.95589 19.7775C5.26671 19.4693 4.58917 19.1481 3.98095 18.6031C3.36225 18.0487 2.86012 17.3063 2.41266 16.2128C2.10849 15.4695 2 14.6852 2 13.9348L2.00003 11.8611C2.00004 11.0416 2.55233 10.3326 3.33584 10.12L6.26993 9.09357L6.30383 9.08515ZM15.791 12.8027C15.9666 12.6884 16.1072 12.644 16.2017 12.6383C16.2724 12.6341 16.3453 12.6465 16.4451 12.7408C16.7362 13.0159 17.0214 13.2218 17.3423 13.3489C17.6683 13.4781 17.972 13.502 18.25 13.502C18.6642 13.502 19 13.1662 19 12.752C19 12.3378 18.6642 12.002 18.25 12.002C18.062 12.002 17.9716 11.9848 17.8947 11.9544C17.8126 11.9218 17.686 11.8496 17.4754 11.6506C17.0734 11.2707 16.5947 11.1122 16.1122 11.141C15.6576 11.1682 15.2516 11.3572 14.9303 11.5736L14.9049 11.5907L14.881 11.6099C14.7886 11.6837 14.6446 11.7955 14.49 11.8872C14.4132 11.9326 14.3468 11.9653 14.294 11.9852C14.2622 11.9972 14.2446 12.001 14.2395 12.0021C13.8301 12.0077 13.5 12.3413 13.5 12.752C13.5 13.1662 13.8358 13.502 14.25 13.502C14.659 13.502 15.0339 13.3084 15.2547 13.1776C15.4837 13.0419 15.6808 12.8901 15.791 12.8027Z" fill="black"/>
</svg>
