<svg width="24" height="24" viewBox="0 0 24 24" fill="none" xmlns="http://www.w3.org/2000/svg">
<path d="M4.00001 6.52778C4.00001 5.12934 5.13681 4 6.5338 4H19.4662C20.8632 4 22 5.12934 22 6.52778V14.9722C22 16.3707 20.8632 17.5 19.4662 17.5H14.25C13.8358 17.5 13.5 17.1642 13.5 16.75C13.5 16.3358 13.8358 16 14.25 16H19.4662C20.0396 16 20.5 15.5375 20.5 14.9722V6.52778C20.5 5.96253 20.0396 5.5 19.4662 5.5H6.5338C5.96047 5.5 5.50001 5.96253 5.50001 6.52778V7.75C5.50001 8.16421 5.16423 8.5 4.75001 8.5C4.3358 8.5 4.00001 8.16421 4.00001 7.75V6.52778ZM10.397 8.24805C10.397 7.83383 10.7328 7.49805 11.147 7.49805L18.2498 7.49805C18.664 7.49805 18.9998 7.83383 18.9998 8.24805C18.9998 8.66226 18.664 8.99805 18.2498 8.99805L11.147 8.99805C10.7328 8.99805 10.397 8.66226 10.397 8.24805ZM15.791 12.8027C15.9666 12.6884 16.1072 12.644 16.2017 12.6383C16.2724 12.6341 16.3454 12.6465 16.4451 12.7408C16.7362 13.0159 17.0215 13.2218 17.3423 13.3489C17.6683 13.4781 17.972 13.502 18.25 13.502C18.6642 13.502 19 13.1662 19 12.752C19 12.3378 18.6642 12.002 18.25 12.002C18.062 12.002 17.9716 11.9848 17.8947 11.9544C17.8126 11.9218 17.686 11.8496 17.4754 11.6506C17.0734 11.2707 16.5947 11.1122 16.1122 11.141C15.6576 11.1682 15.2516 11.3572 14.9303 11.5736L14.9049 11.5907L14.881 11.6099C14.7886 11.6837 14.6446 11.7955 14.49 11.8872C14.4132 11.9326 14.3468 11.9653 14.294 11.9852C14.2622 11.9972 14.2446 12.001 14.2395 12.0021C13.8301 12.0077 13.5 12.3413 13.5 12.752C13.5 13.1662 13.8358 13.502 14.25 13.502C14.659 13.502 15.0339 13.3084 15.2547 13.1776C15.4838 13.0419 15.6809 12.8901 15.791 12.8027ZM11.25 14.25C11.6642 14.25 12 14.5858 12 15C12 17.7614 9.76144 20 7.00001 20C5.85603 20 4.80163 19.6154 3.95947 18.9695V19.25C3.95947 19.6642 3.62369 20 3.20947 20C2.79526 20 2.45947 19.6642 2.45947 19.25V17.1824C2.45947 16.7682 2.79526 16.4324 3.20947 16.4324H5.27704C5.69125 16.4324 6.02704 16.7682 6.02704 17.1824C6.02704 17.5966 5.69125 17.9324 5.27704 17.9324H5.0883C5.63808 18.2917 6.29462 18.5 7.00001 18.5C8.93301 18.5 10.5 16.933 10.5 15C10.5 14.5858 10.8358 14.25 11.25 14.25Z" fill="black"/>
<path d="M2.75 15.75C2.33579 15.75 2 15.4142 2 15C2 12.2386 4.23858 10 7 10C8.14398 10 9.19838 10.3846 10.0405 11.0305V10.75C10.0405 10.3358 10.3763 10 10.7905 10C11.2048 10 11.5405 10.3358 11.5405 10.75V12.8176C11.5405 13.2318 11.2048 13.5676 10.7905 13.5676H8.72297C8.30876 13.5676 7.97297 13.2318 7.97297 12.8176C7.97297 12.4034 8.30876 12.0676 8.72297 12.0676H8.91171C8.36193 11.7083 7.7054 11.5 7 11.5C5.067 11.5 3.5 13.067 3.5 15C3.5 15.4142 3.16421 15.75 2.75 15.75Z" fill="black"/>
</svg>
