<svg width="24" height="24" viewBox="0 0 24 24" fill="none" xmlns="http://www.w3.org/2000/svg">
<path d="M2.21967 2.21967C2.51256 1.92678 2.98744 1.92678 3.28033 2.21967L21.7803 20.7197C22.0732 21.0126 22.0732 21.4874 21.7803 21.7803C21.4874 22.0732 21.0126 22.0732 20.7197 21.7803L18.4393 19.5H7.25C4.35051 19.5 2 17.1495 2 14.25V7.25C2 6.11743 2.68466 5.14477 3.66267 4.72333L2.21967 3.28033C1.92678 2.98744 1.92678 2.51256 2.21967 2.21967ZM4.93934 6H4.75C4.05964 6 3.5 6.55964 3.5 7.25V13.5H5.8132C6.75494 13.5 7.42865 14.2203 7.61627 14.9912C7.82045 15.83 8.02668 16.3015 8.3505 16.7007C8.66839 17.0926 9.13832 17.4641 9.96926 18H16.9393L13.8266 14.8873C13.6501 14.9539 13.4531 15.0021 13.2498 15.0021H12.25C11.8358 15.0021 11.5 14.6663 11.5 14.2521C11.5 13.8379 11.8358 13.5021 12.25 13.5021H12.4414L9.43739 10.498H6.75C6.33579 10.498 6 10.1623 6 9.74805C6 9.33383 6.33579 8.99805 6.75 8.99805H7.93739L4.93934 6ZM7.50526 18C7.39104 17.8853 7.28463 17.7678 7.18557 17.6456C6.66146 16.9995 6.38692 16.283 6.15882 15.3459C6.13175 15.2347 6.07244 15.1409 6.00351 15.0799C5.93771 15.0216 5.87273 15 5.8132 15H3.57501C3.92247 16.7117 5.43578 18 7.25 18H7.50526ZM9.07606 5.25C9.07606 4.83579 9.41185 4.5 9.82606 4.5H19.25C20.7688 4.5 22 5.73122 22 7.25V16.6739C22 17.0882 21.6642 17.4239 21.25 17.4239C20.8358 17.4239 20.5 17.0882 20.5 16.6739V7.25C20.5 6.55964 19.9404 6 19.25 6H9.82606C9.41185 6 9.07606 5.66421 9.07606 5.25ZM13.5741 9.74805C13.5741 9.33383 13.9099 8.99805 14.3241 8.99805H17.25C17.6642 8.99805 18 9.33383 18 9.74805C18 10.1623 17.6642 10.498 17.25 10.498H14.3241C13.9099 10.498 13.5741 10.1623 13.5741 9.74805Z" fill="black"/>
</svg>
