<svg width="24" height="24" viewBox="0 0 24 24" fill="none" xmlns="http://www.w3.org/2000/svg">
<path d="M4 6.52778C4 5.12934 5.1368 4 6.53378 4H19.4662C20.8632 4 22 5.12934 22 6.52778V14.9722C22 16.3707 20.8632 17.5 19.4662 17.5H14.25C13.8358 17.5 13.5 17.1642 13.5 16.75C13.5 16.3358 13.8358 16 14.25 16H19.4662C20.0395 16 20.5 15.5375 20.5 14.9722V6.52778C20.5 5.96253 20.0395 5.5 19.4662 5.5H6.53378C5.96045 5.5 5.5 5.96253 5.5 6.52778V7.75C5.5 8.16421 5.16421 8.5 4.75 8.5C4.33579 8.5 4 8.16421 4 7.75V6.52778ZM10.397 8.24805C10.397 7.83383 10.7328 7.49805 11.147 7.49805L18.2498 7.49805C18.664 7.49805 18.9998 7.83383 18.9998 8.24805C18.9998 8.66226 18.664 8.99805 18.2498 8.99805L11.147 8.99805C10.7328 8.99805 10.397 8.66226 10.397 8.24805ZM7 11.5C5.067 11.5 3.5 13.067 3.5 15C3.5 16.933 5.067 18.5 7 18.5C8.933 18.5 10.5 16.933 10.5 15C10.5 13.067 8.933 11.5 7 11.5ZM2 15C2 12.2386 4.23858 10 7 10C9.76142 10 12 12.2386 12 15C12 17.7614 9.76142 20 7 20C4.23858 20 2 17.7614 2 15ZM15.791 12.8027C15.9666 12.6884 16.1072 12.644 16.2017 12.6383C16.2724 12.6341 16.3453 12.6465 16.4451 12.7408C16.7362 13.0159 17.0214 13.2218 17.3423 13.3489C17.6683 13.4781 17.972 13.502 18.25 13.502C18.6642 13.502 19 13.1662 19 12.752C19 12.3378 18.6642 12.002 18.25 12.002C18.062 12.002 17.9716 11.9848 17.8947 11.9544C17.8126 11.9218 17.686 11.8496 17.4754 11.6506C17.0734 11.2707 16.5947 11.1122 16.1122 11.141C15.6576 11.1682 15.2516 11.3572 14.9303 11.5736L14.9049 11.5907L14.881 11.6099C14.7886 11.6837 14.6446 11.7955 14.49 11.8872C14.4132 11.9326 14.3468 11.9653 14.294 11.9852C14.2622 11.9972 14.2446 12.001 14.2395 12.0021C13.8301 12.0077 13.5 12.3413 13.5 12.752C13.5 13.1662 13.8358 13.502 14.25 13.502C14.659 13.502 15.0339 13.3084 15.2547 13.1776C15.4837 13.0419 15.6808 12.8901 15.791 12.8027ZM5.35285 13.3519C5.63805 13.0515 6.11277 13.0392 6.41315 13.3244L7.04791 13.9271L7.68266 13.3244C7.98304 13.0392 8.45776 13.0515 8.74296 13.3519C9.02816 13.6523 9.01585 14.127 8.71547 14.4122L8.13717 14.9613L8.71547 15.5103C9.01586 15.7956 9.02816 16.2703 8.74296 16.5707C8.45776 16.871 7.98304 16.8833 7.68266 16.5981L7.04791 15.9955L6.41315 16.5981C6.11277 16.8833 5.63805 16.871 5.35285 16.5707C5.06765 16.2703 5.07996 15.7956 5.38034 15.5103L5.95865 14.9613L5.38034 14.4122C5.07996 14.127 5.06765 13.6523 5.35285 13.3519Z" fill="black"/>
</svg>
