<svg width="24" height="24" viewBox="0 0 24 24" fill="none" xmlns="http://www.w3.org/2000/svg">
<path d="M12.2843 2.16207C12.464 2.01982 12.6987 1.96747 12.9218 2.01994L14.5887 2.41216C14.777 2.45647 14.973 2.45647 15.1613 2.41216L16.3701 2.12773C16.7844 2.03026 17.2156 2.03026 17.6299 2.12773L18.8387 2.41216C19.027 2.45647 19.223 2.45647 19.4113 2.41216L21.0782 2.01994C21.3013 1.96747 21.536 2.01982 21.7157 2.16207C21.8953 2.30433 22 2.52088 22 2.75001V13.25C22 13.4791 21.8953 13.6957 21.7157 13.8379C21.536 13.9802 21.3013 14.0325 21.0782 13.9801L19.4113 13.5879C19.223 13.5435 19.027 13.5435 18.8387 13.5879L18.5272 13.6611C18.124 13.756 17.7202 13.5061 17.6254 13.1029C17.5305 12.6997 17.7805 12.2959 18.1837 12.201L18.4951 12.1277C18.9094 12.0303 19.3406 12.0303 19.7549 12.1277L20.5 12.3031V3.69696L19.7549 3.87229C19.3406 3.96976 18.9094 3.96976 18.4951 3.87229L17.2863 3.58785C17.098 3.54355 16.902 3.54355 16.7137 3.58785L15.5049 3.87229C15.0906 3.96976 14.6594 3.96976 14.2451 3.87229L13.5 3.69696V9.48786C13.5 9.90208 13.1642 10.2379 12.75 10.2379C12.3358 10.2379 12 9.90208 12 9.48786V2.75001C12 2.52088 12.1047 2.30433 12.2843 2.16207ZM2 6.86112C2 4.1764 4.17639 2.00001 6.86111 2.00001H9.25C9.66421 2.00001 10 2.33579 10 2.75001C10 3.16422 9.66421 3.50001 9.25 3.50001H6.86111C5.00482 3.50001 3.5 5.00483 3.5 6.86112V9.75001C3.5 10.1642 3.16421 10.5 2.75 10.5C2.33579 10.5 2 10.1642 2 9.75001V6.86112ZM2 14.1039C2 12.9433 2.94081 12.0025 4.10135 12.0025H13.8986C15.0592 12.0025 16 12.9433 16 14.1039V19.8987C16 21.0593 15.0592 22.0001 13.8986 22.0001H5.79054C3.69708 22.0001 2 20.303 2 18.2095V14.1039ZM4.10135 13.5025C3.76923 13.5025 3.5 13.7718 3.5 14.1039V17.4595H4.81973C5.59139 17.4595 6.12696 18.0472 6.27436 18.6528C6.40844 19.2037 6.53672 19.4825 6.72303 19.7122C6.90572 19.9374 7.18147 20.1624 7.69983 20.5001H13.8986C14.2308 20.5001 14.5 20.2309 14.5 19.8987V14.1039C14.5 13.7718 14.2308 13.5025 13.8986 13.5025H4.10135ZM5.41743 20.4699C5.12134 20.0431 4.9545 19.5728 4.81691 19.0075C4.81376 18.9946 4.80865 18.9824 4.80245 18.972C4.7994 18.9668 4.79643 18.9627 4.79382 18.9595H3.62561C3.89683 19.7426 4.5809 20.3328 5.41743 20.4699ZM21.25 16C21.6642 16 22 16.3358 22 16.75V17.1389C22 19.3551 20.5175 21.2232 18.4916 21.8091C18.0937 21.9242 17.6778 21.6949 17.5627 21.297C17.4476 20.8991 17.6769 20.4832 18.0748 20.3682C19.4763 19.9628 20.5 18.6694 20.5 17.1389V16.75C20.5 16.3358 20.8357 16 21.25 16Z" fill="black"/>
</svg>
