<svg width="24" height="24" viewBox="0 0 24 24" fill="none" xmlns="http://www.w3.org/2000/svg">
<path d="M4 6.52778C4 5.12934 5.1368 4 6.53378 4H19.4662C20.8632 4 22 5.12934 22 6.52778V14.9722C22 16.3707 20.8632 17.5 19.4662 17.5H14.25C13.8358 17.5 13.5 17.1642 13.5 16.75C13.5 16.3358 13.8358 16 14.25 16H19.4662C20.0395 16 20.5 15.5375 20.5 14.9722V6.52778C20.5 5.96254 20.0395 5.5 19.4662 5.5H6.53378C5.96045 5.5 5.5 5.96253 5.5 6.52778V7.75C5.5 8.16421 5.16421 8.5 4.75 8.5C4.33579 8.5 4 8.16421 4 7.75V6.52778ZM10.397 8.24805C10.397 7.83383 10.7328 7.49805 11.147 7.49805L18.2498 7.49805C18.664 7.49805 18.9998 7.83383 18.9998 8.24805C18.9998 8.66226 18.664 8.99805 18.2498 8.99805L11.147 8.99805C10.7328 8.99805 10.397 8.66226 10.397 8.24805ZM4.98744 11.7552C4.64717 11.4149 4.09547 11.4149 3.7552 11.7552C3.41493 12.0955 3.41493 12.6472 3.7552 12.9874L8.77513 18.0074C9.09056 18.3228 9.51838 18.5 9.96447 18.5H10.5V17.9645C10.5 17.5184 10.3228 17.0906 10.0074 16.7751L4.98744 11.7552ZM2.69454 10.6945C3.6206 9.76848 5.12204 9.76849 6.0481 10.6945L11.068 15.7145C11.6648 16.3112 12 17.1206 12 17.9645V19.25C12 19.6642 11.6642 20 11.25 20H9.96447C9.12055 20 8.3112 19.6648 7.71447 19.068L2.69454 14.0481C1.76849 13.122 1.76849 11.6206 2.69454 10.6945ZM15.791 12.8027C15.9666 12.6884 16.1072 12.644 16.2017 12.6383C16.2724 12.6341 16.3453 12.6465 16.4451 12.7408C16.7362 13.0159 17.0214 13.2218 17.3423 13.3489C17.6683 13.4781 17.972 13.502 18.25 13.502C18.6642 13.502 19 13.1662 19 12.752C19 12.3378 18.6642 12.002 18.25 12.002C18.062 12.002 17.9716 11.9848 17.8947 11.9544C17.8126 11.9218 17.686 11.8496 17.4754 11.6506C17.0734 11.2707 16.5947 11.1122 16.1122 11.141C15.6576 11.1682 15.2516 11.3572 14.9303 11.5736L14.9049 11.5907L14.881 11.6099C14.7886 11.6837 14.6446 11.7955 14.49 11.8872C14.4132 11.9326 14.3468 11.9653 14.294 11.9852C14.2622 11.9972 14.2446 12.001 14.2395 12.0021C13.8301 12.0077 13.5 12.3413 13.5 12.752C13.5 13.1662 13.8358 13.502 14.25 13.502C14.659 13.502 15.0339 13.3084 15.2547 13.1776C15.4837 13.0419 15.6808 12.8901 15.791 12.8027Z" fill="black"/>
</svg>
