<svg width="24" height="24" viewBox="0 0 24 24" fill="none" xmlns="http://www.w3.org/2000/svg">
<path d="M12.0107 2.68468C12.0468 3.09732 11.7416 3.46109 11.3289 3.49719C10.3441 3.58335 9.38196 3.8413 8.4861 4.25936C8.11074 4.43451 7.66446 4.27222 7.4893 3.89687C7.31414 3.52151 7.47644 3.07523 7.85179 2.90007C8.90634 2.40797 10.0389 2.10432 11.1982 2.0029C11.6109 1.9668 11.9746 2.27204 12.0107 2.68468ZM13.7257 2.83445C13.8328 2.43432 14.244 2.19677 14.6441 2.30387C15.7683 2.60475 16.831 3.10015 17.7843 3.76763C18.1236 4.00521 18.2061 4.47287 17.9685 4.81218C17.7309 5.15148 17.2632 5.23394 16.9239 4.99636C16.1141 4.42932 15.2113 4.00847 14.2563 3.75286C13.8562 3.64577 13.6186 3.23458 13.7257 2.83445ZM5.4499 4.76396C5.64881 4.76396 5.83958 4.84298 5.98023 4.98363L19.0165 18.0199C19.3094 18.3128 19.3094 18.7877 19.0165 19.0806C18.0909 20.0062 16.992 20.7404 15.7826 21.2413C14.5732 21.7423 13.277 22.0001 11.968 22.0001C10.659 22.0001 9.3628 21.7423 8.15343 21.2413C6.94405 20.7404 5.84518 20.0062 4.91957 19.0806C3.99395 18.1549 3.25971 17.0561 2.75877 15.8467C2.25783 14.6373 2 13.3411 2 12.0321C2 10.7231 2.25783 9.42687 2.75877 8.21749C3.25971 7.00811 3.99395 5.90925 4.91957 4.98363C5.06022 4.84298 5.25098 4.76396 5.4499 4.76396ZM5.47343 6.59815C4.92263 7.25646 4.47417 7.99583 4.14459 8.79152C3.71903 9.8189 3.5 10.9201 3.5 12.0321C3.5 13.1441 3.71903 14.2453 4.14459 15.2727C4.57015 16.3001 5.1939 17.2336 5.98023 18.0199C6.76656 18.8062 7.70006 19.43 8.72745 19.8555C9.75484 20.2811 10.856 20.5001 11.968 20.5001C13.0801 20.5001 14.1812 20.2811 15.2086 19.8555C16.0043 19.5259 16.7437 19.0775 17.402 18.5267L5.47343 6.59815ZM19.188 6.03143C19.5273 5.79385 19.9949 5.87631 20.2325 6.21561C20.9 7.16888 21.3954 8.23166 21.6963 9.35581C21.8034 9.75594 21.5658 10.1671 21.1657 10.2742C20.7656 10.3813 20.3544 10.1438 20.2473 9.74364C19.9917 8.78865 19.5708 7.8858 19.0038 7.07598C18.7662 6.73668 18.8487 6.26902 19.188 6.03143ZM21.315 11.9892C21.7276 12.0253 22.0328 12.3891 21.9967 12.8017C21.8953 13.961 21.5917 15.0936 21.0996 16.1482C20.9244 16.5235 20.4781 16.6858 20.1028 16.5106C19.7274 16.3355 19.5651 15.8892 19.7403 15.5139C20.1583 14.618 20.4163 13.6558 20.5024 12.671C20.5385 12.2584 20.9023 11.9531 21.315 11.9892Z" fill="black"/>
</svg>
