<svg width="24" height="24" viewBox="0 0 24 24" fill="none" xmlns="http://www.w3.org/2000/svg">
<path d="M12 3.5C7.30558 3.5 3.5 7.30558 3.5 12C3.5 16.6944 7.30558 20.5 12 20.5C16.6944 20.5 20.5 16.6944 20.5 12C20.5 7.30558 16.6944 3.5 12 3.5ZM2 12C2 6.47715 6.47715 2 12 2C17.5228 2 22 6.47715 22 12C22 17.5228 17.5228 22 12 22C6.47715 22 2 17.5228 2 12ZM12 6C12.4142 6 12.75 6.33578 12.75 6.75L12.75 9.20095L13.163 8.48566C13.3701 8.12694 13.8288 8.00403 14.1875 8.21114C14.5462 8.41824 14.6691 8.87693 14.462 9.23566L12.6495 12.375C12.4798 12.669 12.1338 12.8123 11.8059 12.7244C11.478 12.6366 11.25 12.3395 11.25 12L11.25 6.75C11.25 6.33579 11.5858 6 12 6Z" fill="black"/>
</svg>
