<svg width="24" height="24" viewBox="0 0 24 24" fill="none" xmlns="http://www.w3.org/2000/svg">
<path d="M3.75 3C4.16421 3 4.5 3.33579 4.5 3.75V7.02366C6.11182 4.5992 8.86857 3 12 3C16.9706 3 21 7.02944 21 12C21 16.9706 16.9706 21 12 21C8.28691 21 5.10065 18.7515 3.72528 15.5449C3.562 15.1642 3.73824 14.7233 4.11891 14.56C4.49959 14.3967 4.94055 14.5729 5.10382 14.9536C6.25116 17.6286 8.90792 19.5 12 19.5C16.1422 19.5 19.5 16.1421 19.5 12C19.5 7.85786 16.1422 4.5 12 4.5C9.3294 4.5 6.98353 5.89598 5.65442 8H8.75C9.16421 8 9.5 8.33579 9.5 8.75C9.5 9.16421 9.16421 9.5 8.75 9.5H4.45157C4.42678 9.50124 4.40184 9.50126 4.37684 9.5H3.75C3.33579 9.5 3 9.16421 3 8.75V3.75C3 3.33579 3.33579 3 3.75 3ZM12 6C12.4142 6 12.75 6.33579 12.75 6.75L12.75 12C12.75 12.1989 12.671 12.3897 12.5303 12.5304L9.96707 15.0933C9.67417 15.3862 9.1993 15.3862 8.90641 15.0933C8.61353 14.8004 8.61355 14.3255 8.90646 14.0326L11.25 11.6893L11.25 6.75C11.25 6.33578 11.5858 6 12 6Z" fill="black"/>
</svg>
