<svg width="24" height="24" viewBox="0 0 24 24" fill="none" xmlns="http://www.w3.org/2000/svg">
<path d="M12 3.5C7.30558 3.5 3.5 7.30558 3.5 12C3.5 16.6944 7.30558 20.5 12 20.5C16.6944 20.5 20.5 16.6944 20.5 12C20.5 7.30558 16.6944 3.5 12 3.5ZM2 12C2 6.47715 6.47715 2 12 2C17.5228 2 22 6.47715 22 12C22 17.5228 17.5228 22 12 22C6.47715 22 2 17.5228 2 12ZM12 6C12.4142 6 12.75 6.33578 12.75 6.75L12.75 11.567L15.5122 13.1618C15.8709 13.3689 15.9939 13.8276 15.7867 14.1863C15.5796 14.545 15.1209 14.6679 14.7622 14.4608L11.625 12.6495C11.393 12.5155 11.25 12.268 11.25 12L11.25 6.75C11.25 6.33579 11.5858 6 12 6Z" fill="black"/>
</svg>
