<svg width="24" height="24" viewBox="0 0 24 24" fill="none" xmlns="http://www.w3.org/2000/svg">
<path d="M11.2421 3C11.2421 2.58579 11.5779 2.25 11.9921 2.25C17.3806 2.25 21.75 6.6146 21.75 12C21.75 17.3854 17.3806 21.75 11.9921 21.75C8.37964 21.75 5.22639 19.7882 3.54019 16.8758C3.33264 16.5173 3.45499 16.0585 3.81346 15.8509C4.17192 15.6434 4.63076 15.7657 4.83831 16.1242C6.26713 18.592 8.9361 20.25 11.9921 20.25C16.5534 20.25 20.25 16.5557 20.25 12C20.25 7.44427 16.5534 3.75 11.9921 3.75C11.5779 3.75 11.2421 3.41421 11.2421 3ZM10.0522 3.17781C10.1741 3.57365 9.95215 3.99344 9.55631 4.11543L9.5477 4.11808C9.15186 4.24008 8.73207 4.01808 8.61008 3.62224C8.48808 3.2264 8.71008 2.80661 9.10592 2.68462L9.11453 2.68196C9.51037 2.55997 9.93016 2.78197 10.0522 3.17781ZM7.53425 4.13987C7.76745 4.4822 7.67898 4.94876 7.33665 5.18196L7.32921 5.18703C6.98688 5.42023 6.52032 5.33176 6.28712 4.98943C6.05392 4.6471 6.14238 4.18054 6.48471 3.94734L6.49216 3.94227C6.83449 3.70907 7.30105 3.79754 7.53425 4.13987ZM5.41206 5.80059C5.73579 6.059 5.78874 6.53091 5.53034 6.85464L5.52472 6.86168C5.26632 7.1854 4.79441 7.23836 4.47068 6.97996C4.14695 6.72156 4.09399 6.24964 4.3524 5.92591L4.35801 5.91888C4.61642 5.59515 5.08833 5.54219 5.41206 5.80059ZM11.9921 5.85C12.4063 5.85 12.7421 6.18579 12.7421 6.6V12C12.7421 12.2587 12.6088 12.4991 12.3893 12.6362L8.78615 14.8862C8.43481 15.1055 7.97214 14.9986 7.75275 14.6472C7.53335 14.2959 7.64032 13.8332 7.99166 13.6138L11.2421 11.5841V6.6C11.2421 6.18579 11.5779 5.85 11.9921 5.85ZM3.87399 8.01254C4.25952 8.16398 4.44929 8.59929 4.29785 8.98482L4.29456 8.9932C4.14311 9.37874 3.7078 9.56851 3.32227 9.41706C2.93673 9.26562 2.74696 8.83031 2.89841 8.44477L2.9017 8.4364C3.05314 8.05086 3.48845 7.86109 3.87399 8.01254ZM3.05677 10.5792C3.46982 10.6102 3.77955 10.9702 3.74857 11.3832L3.7479 11.3922C3.71692 11.8053 3.35696 12.115 2.9439 12.084C2.53085 12.053 2.22112 11.6931 2.2521 11.28L2.25277 11.271C2.28376 10.858 2.64372 10.5483 3.05677 10.5792ZM3.03305 13.2726C3.43686 13.1804 3.839 13.4329 3.93126 13.8368L3.93326 13.8455C4.02552 14.2493 3.77296 14.6515 3.36915 14.7437C2.96534 14.836 2.5632 14.5834 2.47094 14.1796L2.46894 14.1708C2.37668 13.767 2.62925 13.3649 3.03305 13.2726Z" fill="black"/>
</svg>
