<svg width="24" height="24" viewBox="0 0 24 24" fill="none" xmlns="http://www.w3.org/2000/svg">
<path d="M12 3.5C16.6944 3.5 20.5 7.30558 20.5 12C20.5 16.6944 16.6944 20.5 12 20.5C7.30558 20.5 3.5 16.6944 3.5 12C3.5 7.30558 7.30558 3.5 12 3.5ZM22 12C22 6.47715 17.5228 2 12 2C6.47715 2 2 6.47715 2 12C2 17.5228 6.47715 22 12 22C17.5228 22 22 17.5228 22 12ZM12 6C11.5858 6 11.25 6.33578 11.25 6.75L11.25 11.567L8.48777 13.1618C8.12905 13.3689 8.00615 13.8276 8.21325 14.1863C8.42036 14.545 8.87906 14.6679 9.23777 14.4608L12.375 12.6495C12.607 12.5155 12.75 12.268 12.75 12L12.75 6.75C12.75 6.33579 12.4142 6 12 6Z" fill="black"/>
</svg>
