<svg width="24" height="24" viewBox="0 0 24 24" fill="none" xmlns="http://www.w3.org/2000/svg">
<path d="M12 3.5C7.30558 3.5 3.5 7.30558 3.5 12C3.5 16.6944 7.30558 20.5 12 20.5C16.6944 20.5 20.5 16.6944 20.5 12C20.5 7.30558 16.6944 3.5 12 3.5ZM2 12C2 6.47715 6.47715 2 12 2C17.5228 2 22 6.47715 22 12C22 17.5228 17.5228 22 12 22C6.47715 22 2 17.5228 2 12ZM8.21967 8.21967C8.51256 7.92678 8.98744 7.92678 9.28033 8.21967L12 10.9393L14.7197 8.21967C15.0126 7.92678 15.4874 7.92678 15.7803 8.21967C16.0732 8.51256 16.0732 8.98744 15.7803 9.28033L13.0607 12L15.7803 14.7197C16.0732 15.0126 16.0732 15.4874 15.7803 15.7803C15.4874 16.0732 15.0126 16.0732 14.7197 15.7803L12 13.0607L9.28033 15.7803C8.98744 16.0732 8.51256 16.0732 8.21967 15.7803C7.92678 15.4874 7.92678 15.0126 8.21967 14.7197L10.9393 12L8.21967 9.28033C7.92678 8.98744 7.92678 8.51256 8.21967 8.21967Z" fill="black"/>
</svg>
