<svg width="24" height="24" viewBox="0 0 24 24" fill="none" xmlns="http://www.w3.org/2000/svg">
<path fill-rule="evenodd" clip-rule="evenodd" d="M20 2.25C20.9662 2.25 21.75 3.03379 21.75 4V19C21.75 19.9662 20.9662 20.75 20 20.75H16.75C16.3358 20.75 16 20.4142 16 20C16 19.5858 16.3358 19.25 16.75 19.25H20C20.1378 19.25 20.25 19.1378 20.25 19V4C20.25 3.86221 20.1378 3.75 20 3.75H13.5C13.3622 3.75 13.25 3.86221 13.25 4V6.18652C13.25 6.20791 13.2488 6.22907 13.2471 6.25H16C16.9662 6.25 17.75 7.03379 17.75 8V16C17.75 16.9662 16.9662 17.75 16 17.75H10.75V19.25H13.5C13.9142 19.25 14.25 19.5858 14.25 20C14.25 20.4142 13.9142 20.75 13.5 20.75H6.5C6.08579 20.75 5.75 20.4142 5.75 20C5.75 19.5858 6.08579 19.25 6.5 19.25H9.25V17.75H4C3.03379 17.75 2.25 16.9662 2.25 16V8C2.25 7.03379 3.03379 6.25 4 6.25H11.7529C11.7512 6.22907 11.75 6.20791 11.75 6.18652V4C11.75 3.03379 12.5338 2.25 13.5 2.25H20ZM4 7.75C3.86221 7.75 3.75 7.86221 3.75 8V16C3.75 16.1378 3.86221 16.25 4 16.25H16C16.1378 16.25 16.25 16.1378 16.25 16V8C16.25 7.86221 16.1378 7.75 16 7.75H4Z" fill="black"/>
</svg>
