<svg width="24" height="24" viewBox="0 0 24 24" fill="none" xmlns="http://www.w3.org/2000/svg">
<path d="M9.85714 3.5C8.54988 3.5 7.5 4.5501 7.5 5.83333V11.75C7.5 12.1642 7.16421 12.5 6.75 12.5C6.33579 12.5 6 12.1642 6 11.75V5.83333C6 3.71081 7.73235 2 9.85714 2H15.25C15.4489 2 15.6397 2.07902 15.7803 2.21967L21.7803 8.21967C21.921 8.36032 22 8.55109 22 8.75V18.1667C22 20.2892 20.2676 22 18.1429 22H14.25C13.8358 22 13.5 21.6642 13.5 21.25C13.5 20.8358 13.8358 20.5 14.25 20.5H18.1429C19.4501 20.5 20.5 19.4499 20.5 18.1667V9.5H16.25C15.2835 9.5 14.5 8.7165 14.5 7.75V3.5H9.85714ZM16 4.56066V7.75C16 7.88807 16.1119 8 16.25 8H19.4393L16 4.56066ZM9 8.75C9 8.33579 9.33579 8 9.75 8H12.25C12.6642 8 13 8.33579 13 8.75C13 9.16421 12.6642 9.5 12.25 9.5H9.75C9.33579 9.5 9 9.16421 9 8.75ZM10.5 12.75C10.5 12.3358 10.8358 12 11.25 12H18.25C18.6642 12 19 12.3358 19 12.75C19 13.1642 18.6642 13.5 18.25 13.5H11.25C10.8358 13.5 10.5 13.1642 10.5 12.75ZM3.98744 14.7552C3.64717 14.4149 3.09548 14.4149 2.7552 14.7552C2.41493 15.0955 2.41493 15.6472 2.7552 15.9874L7.77513 21.0074C8.09056 21.3228 8.51838 21.5 8.96447 21.5H9.5V20.9645C9.5 20.5184 9.32279 20.0906 9.00736 19.7751L3.98744 14.7552ZM1.69454 13.6945C2.6206 12.7685 4.12204 12.7685 5.0481 13.6945L10.068 18.7145C10.6648 19.3112 11 20.1206 11 20.9645V22.25C11 22.6642 10.6642 23 10.25 23H8.96447C8.12055 23 7.3112 22.6648 6.71447 22.068L1.69454 17.0481C0.768485 16.122 0.768485 14.6206 1.69454 13.6945ZM15.791 17.3007C15.9666 17.1865 16.1072 17.142 16.2017 17.1364C16.2724 17.1322 16.3453 17.1445 16.4451 17.2388C16.7362 17.5139 17.0214 17.7199 17.3423 17.847C17.6683 17.9761 17.972 18 18.25 18C18.6642 18 19 17.6643 19 17.2501C19 16.8358 18.6642 16.5001 18.25 16.5C18.062 16.5 17.9716 16.4829 17.8947 16.4524C17.8126 16.4199 17.686 16.3477 17.4754 16.1486C17.0734 15.7688 16.5947 15.6102 16.1122 15.6391C15.6576 15.6663 15.2516 15.8552 14.9303 16.0717C14.9134 16.0831 14.8969 16.0952 14.881 16.1079C14.7886 16.1817 14.6446 16.2936 14.49 16.3852C14.4132 16.4307 14.3468 16.4634 14.294 16.4833C14.2622 16.4952 14.2446 16.4991 14.2395 16.5001C13.8301 16.5058 13.5 16.8393 13.5 17.25C13.5 17.6643 13.8358 18 14.25 18C14.659 18 15.0339 17.8065 15.2547 17.6757C15.4837 17.5399 15.6808 17.3882 15.791 17.3007Z" fill="black"/>
</svg>
