<svg width="24" height="24" viewBox="0 0 24 24" fill="none" xmlns="http://www.w3.org/2000/svg">
<path d="M9.85714 3.5C8.54988 3.5 7.5 4.5501 7.5 5.83333V9.94875C7.5 10.363 7.16421 10.6987 6.75 10.6987C6.33579 10.6987 6 10.363 6 9.94875V5.83333C6 3.71081 7.73235 2 9.85714 2H15.25C15.4489 2 15.6397 2.07902 15.7803 2.21967L21.7803 8.21967C21.921 8.36032 22 8.55109 22 8.75V18.1667C22 20.2892 20.2676 22 18.1429 22H12.7013C12.2871 22 11.9513 21.6642 11.9513 21.25C11.9513 20.8358 12.2871 20.5 12.7013 20.5H18.1429C19.4501 20.5 20.5 19.4499 20.5 18.1667V9.5H16.25C15.2835 9.5 14.5 8.7165 14.5 7.75V3.5H9.85714ZM16 4.56066V7.75C16 7.88807 16.1119 8 16.25 8H19.4393L16 4.56066ZM9 8.75C9 8.33579 9.33579 8 9.75 8H12.25C12.6642 8 13 8.33579 13 8.75C13 9.16421 12.6642 9.5 12.25 9.5H9.75C9.33579 9.5 9 9.16421 9 8.75ZM10.5 12.75C10.5 12.3358 10.8358 12 11.25 12H18.25C18.6642 12 19 12.3358 19 12.75C19 13.1642 18.6642 13.5 18.25 13.5H11.25C10.8358 13.5 10.5 13.1642 10.5 12.75ZM1 18C1 15.2386 3.23858 13 6 13C8.76142 13 11 15.2386 11 18C11 20.7614 8.76142 23 6 23C3.23858 23 1 20.7614 1 18ZM6 14.5C4.067 14.5 2.5 16.067 2.5 18C2.5 19.933 4.067 21.5 6 21.5C7.933 21.5 9.5 19.933 9.5 18C9.5 16.067 7.933 14.5 6 14.5ZM6.00047 15.4968C6.41468 15.4968 6.75047 15.8326 6.75047 16.2468V18.0566L7.24868 17.6032C7.55502 17.3244 8.02937 17.3467 8.30816 17.653C8.58696 17.9594 8.56463 18.4337 8.25829 18.7125L6.50527 20.3079C6.21918 20.5683 5.782 20.5683 5.49583 20.3081L3.74176 18.7127C3.43534 18.434 3.41287 17.9596 3.69157 17.6532C3.97027 17.3468 4.44462 17.3243 4.75104 17.603L5.25047 18.0573V16.2468C5.25047 15.8326 5.58625 15.4968 6.00047 15.4968ZM15.791 17.3007C15.9666 17.1865 16.1072 17.142 16.2017 17.1364C16.2724 17.1322 16.3453 17.1445 16.4451 17.2388C16.7362 17.5139 17.0214 17.7199 17.3423 17.847C17.6683 17.9761 17.972 18 18.25 18C18.6642 18 19 17.6643 19 17.2501C19 16.8358 18.6642 16.5001 18.25 16.5C18.062 16.5 17.9716 16.4829 17.8947 16.4524C17.8126 16.4199 17.686 16.3477 17.4754 16.1486C17.0734 15.7688 16.5947 15.6102 16.1122 15.6391C15.6576 15.6663 15.2516 15.8552 14.9303 16.0717C14.9134 16.0831 14.8969 16.0952 14.881 16.1079C14.7886 16.1817 14.6446 16.2936 14.49 16.3852C14.4132 16.4307 14.3468 16.4634 14.294 16.4833C14.2622 16.4952 14.2446 16.4991 14.2395 16.5001C13.8301 16.5058 13.5 16.8393 13.5 17.25C13.5 17.6643 13.8358 18 14.25 18C14.659 18 15.0339 17.8065 15.2547 17.6757C15.4837 17.5399 15.6808 17.3882 15.791 17.3007Z" fill="black"/>
</svg>
