<svg width="24" height="24" viewBox="0 0 24 24" fill="none" xmlns="http://www.w3.org/2000/svg">
<path d="M2 5.83333C2 3.71624 3.71624 2 5.83333 2H13.0278C15.1449 2 16.8611 3.71624 16.8611 5.83333V7.1389L18.1665 7.13892C20.2835 7.13892 21.9998 8.85516 21.9998 10.9722V18.1667C21.9998 20.2838 20.2835 22 18.1665 22H10.972C8.85492 22 7.13867 20.2838 7.13867 18.1667L7.13881 16.8611H5.83333C3.71624 16.8611 2 15.1449 2 13.0278V5.83333ZM7.13886 15.3611L7.13867 10.9723C7.13867 8.85519 8.85491 7.13892 10.972 7.13892L15.3611 7.13889V5.83333C15.3611 4.54467 14.3164 3.5 13.0278 3.5H5.83333C4.54467 3.5 3.5 4.54467 3.5 5.83333V13.0278C3.5 14.3164 4.54467 15.3611 5.83333 15.3611H7.13886ZM10.972 8.63892C9.68335 8.63892 8.63869 9.68357 8.63867 10.9722C8.63867 10.9722 8.63867 10.9722 8.63867 10.9722V18.1667C8.63867 18.1667 8.63867 18.1667 8.63867 18.1667C8.63871 19.4553 9.68337 20.5 10.972 20.5H18.1665C19.4551 20.5 20.4998 19.4554 20.4998 18.1667V10.9722C20.4998 9.68359 19.4551 8.63892 18.1664 8.63892H10.972Z" fill="black"/>
</svg>
