<svg width="24" height="24" viewBox="0 0 24 24" fill="none" xmlns="http://www.w3.org/2000/svg">
<path d="M2 6.75C2 5.23122 3.23122 4 4.75 4H19.25C20.7688 4 22 5.23122 22 6.75V17.25C22 18.7688 20.7688 20 19.25 20H4.75C3.23122 20 2 18.7688 2 17.25V6.75ZM4.75 5.5C4.05964 5.5 3.5 6.05964 3.5 6.75V9H20.5V6.75C20.5 6.05964 19.9404 5.5 19.25 5.5H4.75ZM20.5 10.5H3.5V17.25C3.5 17.9404 4.05964 18.5 4.75 18.5H19.25C19.9404 18.5 20.5 17.9404 20.5 17.25V10.5ZM5.5 15.75C5.5 15.3358 5.83579 15 6.25 15H8.75C9.16421 15 9.5 15.3358 9.5 15.75C9.5 16.1642 9.16421 16.5 8.75 16.5H6.25C5.83579 16.5 5.5 16.1642 5.5 15.75Z" fill="black"/>
</svg>
