<svg width="24" height="24" viewBox="0 0 24 24" fill="none" xmlns="http://www.w3.org/2000/svg">
<path d="M7.85714 3.5C6.54988 3.5 5.5 4.5501 5.5 5.83333V10.75C5.5 11.1642 5.16421 11.5 4.75 11.5C4.33579 11.5 4 11.1642 4 10.75V5.83333C4 3.71081 5.73235 2 7.85714 2H13.8358C14.2999 2 14.745 2.18437 15.0732 2.51256L19.4874 6.92678C19.8156 7.25497 20 7.70009 20 8.16421V10.75C20 11.1642 19.6642 11.5 19.25 11.5C18.8358 11.5 18.5 11.1642 18.5 10.75V8.16421C18.5 8.09791 18.4737 8.03432 18.4268 7.98744L14.0126 3.57322C13.9657 3.52634 13.9021 3.5 13.8358 3.5H7.85714ZM7.5 6.75C7.5 6.33579 7.83579 6 8.25 6H11.25C11.6642 6 12 6.33579 12 6.75C12 7.16421 11.6642 7.5 11.25 7.5H8.25C7.83579 7.5 7.5 7.16421 7.5 6.75ZM14.6977 13.0821L17.3077 14.0226C17.7086 13.7404 18.1998 13.5754 18.7273 13.5754H21.25C21.6642 13.5754 22 13.9112 22 14.3254C22 14.7396 21.6642 15.0754 21.25 15.0754H18.7273C18.4404 15.0754 18.1893 15.1965 18.0202 15.382C17.8775 15.5386 17.7955 15.738 17.7955 15.9541V19.2114C17.7955 19.3679 17.8382 19.5137 17.9143 19.6412C18.0712 19.9039 18.3716 20.0901 18.7273 20.0901H21.25C21.6642 20.0901 22 20.4259 22 20.8401C22 21.2543 21.6642 21.5901 21.25 21.5901H18.7273C18.001 21.5901 17.3433 21.2775 16.8952 20.7758H15.449L11.9562 21.5816C11.5492 21.8633 11.0594 21.9797 10.6179 21.9975C10.1106 22.0179 9.56912 21.9134 9.12194 21.6729C9.0941 21.6579 9.06723 21.6412 9.04151 21.6228L7.36503 20.426C6.93732 21.1285 6.15119 21.5901 5.27273 21.5901H2.75C2.33579 21.5901 2 21.2543 2 20.8401C2 20.4259 2.33579 20.0901 2.75 20.0901H5.27273C5.81023 20.0901 6.20455 19.6742 6.20455 19.2114V15.9541C6.20455 15.8626 6.18996 15.7756 6.16325 15.6942C6.04952 15.3475 5.70342 15.0754 5.27273 15.0754H2.75C2.33579 15.0754 2 14.7396 2 14.3254C2 13.9112 2.33579 13.5754 2.75 13.5754H5.27273C6.05009 13.5754 6.75092 13.9341 7.1986 14.5013L9.17736 13.638C9.29549 13.5865 9.4249 13.5662 9.55311 13.5793L11.6967 13.7971L12.6091 13.267C12.9732 13.0554 13.3815 12.9438 13.7923 12.934C14.0966 12.9268 14.4046 12.9758 14.6977 13.0821ZM9.79155 15.1112L9.59701 15.0914L7.70426 15.9172C7.70445 15.9295 7.70455 15.9418 7.70455 15.9541V18.8253L9.86848 20.3701C10.045 20.4552 10.2962 20.5092 10.5574 20.4987C10.8419 20.4872 11.0412 20.4044 11.1408 20.3187L12.975 18.7398C13.2083 18.539 13.223 18.1825 12.9902 17.9571C12.8183 17.7905 12.5442 17.7454 12.3269 17.8506L12.252 17.8869C11.5148 18.2438 10.6225 18.1072 10.0317 17.5351C9.33505 16.8604 9.28787 15.837 9.79155 15.1112ZM14.293 19.5031L15.195 19.295C15.2503 19.2822 15.3069 19.2758 15.3636 19.2758H16.2963C16.2957 19.2544 16.2955 19.233 16.2955 19.2114V15.9541C16.2955 15.7224 16.3294 15.4986 16.3925 15.2872L14.1875 14.4926L14.1857 14.492C14.0705 14.4502 13.949 14.4308 13.8279 14.4336C13.6642 14.4375 13.5037 14.482 13.3627 14.5639L11.1591 15.8443C10.9191 15.9838 10.8917 16.2798 11.0752 16.4575C11.2078 16.5859 11.4206 16.6229 11.5983 16.5368L11.6731 16.5006C12.4602 16.1195 13.4117 16.2771 14.0337 16.8795C14.7646 17.5873 14.8561 18.7025 14.293 19.5031Z" fill="black"/>
</svg>
