<svg width="24" height="24" viewBox="0 0 24 24" fill="none" xmlns="http://www.w3.org/2000/svg">
<path fill-rule="evenodd" clip-rule="evenodd" d="M6 12.05C6 8.74559 8.67708 6 12 6C15.3229 6 18 8.74559 18 12.05V16.5068C19.4016 16.6331 20.5 17.8111 20.5 19.2456V21.2456C20.5 21.6598 20.1642 21.9956 19.75 21.9956H4.25C3.83579 21.9956 3.5 21.6598 3.5 21.2456V19.2456C3.5 17.8111 4.59837 16.6331 6 16.5068V12.05ZM6.25 17.9956C5.55964 17.9956 5 18.5552 5 19.2456V20.4956H19V19.2456C19 18.5552 18.4404 17.9956 17.75 17.9956H6.25ZM16.5 16.4956H7.5V12.05C7.5 9.55546 9.52393 7.5 12 7.5C14.4761 7.5 16.5 9.55546 16.5 12.05V16.4956Z" fill="black"/>
<path fill-rule="evenodd" clip-rule="evenodd" d="M12 2C12.4142 2 12.75 2.33579 12.75 2.75V3.80556C12.75 4.21977 12.4142 4.55556 12 4.55556C11.5858 4.55556 11.25 4.21977 11.25 3.80556V2.75C11.25 2.33579 11.5858 2 12 2ZM4.93574 4.99482C5.23252 4.70586 5.70735 4.71219 5.99631 5.00896L6.72306 5.75535C7.01202 6.05212 7.00569 6.52695 6.70892 6.81592C6.41215 7.10488 5.93731 7.09855 5.64835 6.80178L4.9216 6.05538C4.63264 5.75861 4.63897 5.28378 4.93574 4.99482ZM19.0643 4.99482C19.361 5.28378 19.3674 5.75861 19.0784 6.05538L18.3516 6.80178C18.0627 7.09855 17.5879 7.10488 17.2911 6.81592C16.9943 6.52695 16.988 6.05212 17.2769 5.75535L18.0037 5.00896C18.2927 4.71219 18.7675 4.70586 19.0643 4.99482ZM2 12.25C2 11.8358 2.33579 11.5 2.75 11.5H3.77778C4.19199 11.5 4.52778 11.8358 4.52778 12.25C4.52778 12.6642 4.19199 13 3.77778 13H2.75C2.33579 13 2 12.6642 2 12.25ZM19.4722 12.25C19.4722 11.8358 19.808 11.5 20.2222 11.5H21.25C21.6642 11.5 22 11.8358 22 12.25C22 12.6642 21.6642 13 21.25 13H20.2222C19.808 13 19.4722 12.6642 19.4722 12.25Z" fill="black"/>
</svg>
