<svg width="24" height="24" viewBox="0 0 24 24" fill="none" xmlns="http://www.w3.org/2000/svg">
<path d="M4.75 3C3.23122 3 2 4.23122 2 5.75V15.25C2 16.7688 3.23122 18 4.75 18H9.7516C10.1658 18 10.5016 17.6642 10.5016 17.25C10.5016 16.8358 10.1658 16.5 9.7516 16.5H4.75C4.05964 16.5 3.5 15.9404 3.5 15.25V5.75C3.5 5.05964 4.05964 4.5 4.75 4.5H19.25C19.9404 4.5 20.5 5.05964 20.5 5.75V10.25C20.5 10.6642 20.8358 11 21.25 11C21.6642 11 22 10.6642 22 10.25V5.75C22 4.23122 20.7688 3 19.25 3H4.75Z" fill="black"/>
<path d="M10.5 10.5C10.5 9.67157 11.1716 9 12 9C12.5665 9 13.0607 9.31372 13.3166 9.78045C13.5158 10.1437 13.9716 10.2767 14.3348 10.0775C14.698 9.87842 14.8311 9.42255 14.6319 9.05935C14.1233 8.13166 13.136 7.5 12 7.5C10.3431 7.5 9 8.84315 9 10.5C9 11.531 9.5207 12.4401 10.31 12.979C10.6521 13.2125 11.1188 13.1245 11.3523 12.7824C11.5859 12.4403 11.4979 11.9737 11.1558 11.7401C10.7583 11.4688 10.5 11.0145 10.5 10.5Z" fill="black"/>
<path d="M6.25 8C6.66421 8 7 8.33579 7 8.75V12.25C7 12.6642 6.66421 13 6.25 13C5.83579 13 5.5 12.6642 5.5 12.25V8.75C5.5 8.33579 5.83579 8 6.25 8Z" fill="black"/>
<path d="M17 11C19.7614 11 22 13.2386 22 16C22 17.3805 21.4395 18.6315 20.5355 19.5355C19.6315 20.4395 18.3805 21 17 21C14.2386 21 12 18.7614 12 16C12 13.2386 14.2386 11 17 11ZM13.5 16C13.5 17.933 15.067 19.5 17 19.5C17.6954 19.5 18.3428 19.2977 18.8875 18.9481L16.4697 16.5303C16.329 16.3897 16.25 16.1989 16.25 16V12.5805C14.6774 12.9239 13.5 14.3244 13.5 16ZM17.75 15.6893L19.9481 17.8875C20.2977 17.3428 20.5 16.6954 20.5 16C20.5 14.3244 19.3226 12.9239 17.75 12.5805V15.6893Z" fill="black"/>
</svg>
