<svg width="24" height="24" viewBox="0 0 24 24" fill="none" xmlns="http://www.w3.org/2000/svg">
<path d="M2 4.75C2 3.23122 3.23122 2 4.75 2H19.25C20.7688 2 22 3.23122 22 4.75V19.25C22 20.7688 20.7688 22 19.25 22H4.75C3.23122 22 2 20.7688 2 19.25V4.75ZM3.5 9.75V19.25C3.5 19.9404 4.05964 20.5 4.75 20.5H19.25C19.9404 20.5 20.5 19.9404 20.5 19.25V12.75C20.5 12.0596 19.9404 11.5 19.25 11.5H13.3204C12.4009 11.5 11.5423 11.0405 11.0322 10.2754L10.2197 9.05662C9.98786 8.70888 9.59757 8.5 9.17963 8.5H4.75C4.05964 8.5 3.5 9.05964 3.5 9.75ZM20.5 10.2999V4.75C20.5 4.05964 19.9404 3.5 19.25 3.5H4.75C4.05964 3.5 3.5 4.05964 3.5 4.75V7.29985C3.87503 7.10814 4.29989 7 4.75 7H9.17963C10.0991 7 10.9577 7.45953 11.4678 8.22458L12.2803 9.44338C12.5121 9.79112 12.9024 10 13.3204 10H19.25C19.7001 10 20.125 10.1081 20.5 10.2999ZM6 16.75C6 16.3358 6.33579 16 6.75 16H11.25C11.6642 16 12 16.3358 12 16.75C12 17.1642 11.6642 17.5 11.25 17.5H6.75C6.33579 17.5 6 17.1642 6 16.75Z" fill="black"/>
</svg>
