<svg width="24" height="24" viewBox="0 0 24 24" fill="none" xmlns="http://www.w3.org/2000/svg">
<path d="M2.21967 2.21967C2.51256 1.92678 2.98744 1.92678 3.28033 2.21967L5.3449 4.28423C5.40519 4.32879 5.45777 4.38174 5.50149 4.44083L12.2198 11.1591C12.2678 11.1967 12.3111 11.24 12.3487 11.288L16.2367 15.176C16.2696 15.2038 16.3001 15.2343 16.3279 15.2672L19.5561 18.4955C19.6135 18.5385 19.6639 18.5891 19.7061 18.6455L21.7803 20.7197C22.0732 21.0126 22.0732 21.4874 21.7803 21.7803C21.4874 22.0732 21.0126 22.0732 20.7197 21.7803L19.3035 20.3642C18.6055 21.3542 17.4493 22 16.1429 22L7.85714 22.0001C5.73233 22.0001 4 20.2892 4 18.1667V5.83333C4 5.59221 4.02249 5.35582 4.06561 5.12628L2.21967 3.28033C1.92678 2.98744 1.92678 2.51256 2.21967 2.21967ZM5.5 6.56066V18.1667C5.5 19.4499 6.5499 20.5001 7.85714 20.5001L16.1429 20.5C17.04 20.5 17.8183 20.0042 18.2166 19.2772L15.4393 16.5H8.25C7.83579 16.5 7.5 16.1642 7.5 15.75C7.5 15.3358 7.83579 15 8.25 15H13.9393L11.4393 12.5H8.25C7.83579 12.5 7.5 12.1642 7.5 11.75C7.5 11.3358 7.83579 11 8.25 11H9.93934L5.5 6.56066ZM7.85714 3.5C7.73663 3.5 7.61868 3.50889 7.50383 3.52594C7.0941 3.58673 6.71267 3.30387 6.65187 2.89414C6.59107 2.48442 6.87393 2.10298 7.28366 2.04218C7.47117 2.01436 7.66271 2 7.85714 2H13.25C13.4489 2 13.6397 2.07902 13.7803 2.21967L19.7803 8.21967C19.921 8.36032 20 8.55109 20 8.75V14.5726C20 14.9868 19.6642 15.3226 19.25 15.3226C18.8358 15.3226 18.5 14.9868 18.5 14.5726V9.5H14.25C13.2835 9.5 12.5 8.7165 12.5 7.75V3.5H7.85714ZM14 4.56066V7.75C14 7.88807 14.1119 8 14.25 8H17.4393L14 4.56066Z" fill="black"/>
</svg>
