<svg width="24" height="24" viewBox="0 0 24 24" fill="none" xmlns="http://www.w3.org/2000/svg">
<path d="M9.85714 3.5C8.54988 3.5 7.5 4.5501 7.5 5.83333V8.75C7.5 9.16421 7.16421 9.5 6.75 9.5C6.33579 9.5 6 9.16421 6 8.75V5.83333C6 3.71081 7.73235 2 9.85714 2H15.25C15.4489 2 15.6397 2.07902 15.7803 2.21967L21.7803 8.21967C21.921 8.36032 22 8.55109 22 8.75V18.1667C22 20.2893 20.2676 22.0001 18.1429 22.0001L13.25 22C12.8358 22 12.5 21.6642 12.5 21.25C12.5 20.8358 12.8358 20.5 13.25 20.5L18.1429 20.5001C19.4501 20.5001 20.5 19.45 20.5 18.1667V9.5H16.25C15.2835 9.5 14.5 8.7165 14.5 7.75V3.5H9.85714ZM16 4.56066V7.75C16 7.88807 16.1119 8 16.25 8H19.4393L16 4.56066ZM6.69574 12.5337L3.80249 13.5459C3.78052 13.5536 3.7582 13.5602 3.73562 13.5658C3.59335 13.6012 3.50003 13.7251 3.50003 13.8611L3.5 15.9349C3.5 16.546 3.58902 17.1269 3.80093 17.6447C4.18752 18.5895 4.57537 19.1216 4.98197 19.4859C5.39905 19.8597 5.88213 20.1014 6.56826 20.4082C6.70459 20.4692 6.85193 20.5 6.99998 20.5C7.14806 20.5 7.29545 20.4692 7.43184 20.4082C8.11794 20.1013 8.601 19.8596 9.01807 19.4859C9.42465 19.1216 9.81249 18.5894 10.1991 17.6447C10.411 17.1269 10.5 16.546 10.5 15.9349V13.8611C10.5 13.7251 10.4067 13.6012 10.2644 13.5658C10.2418 13.5602 10.2195 13.5536 10.1975 13.5459L7.30426 12.5337C7.20413 12.5113 7.10207 12.5 6.99998 12.5C6.89791 12.5 6.79586 12.5113 6.69574 12.5337ZM6.30383 11.0851C6.5324 11.0284 6.7662 11 6.99997 11C7.23376 11 7.46758 11.0284 7.69617 11.0851C7.71876 11.0908 7.74107 11.0974 7.76304 11.1051L10.6642 12.12C11.4477 12.3326 12 13.0416 12 13.8611V15.9349C12 16.6852 11.8915 17.4695 11.5873 18.2128C11.1399 19.3063 10.6378 20.0486 10.0191 20.603C9.4109 21.148 8.73338 21.4693 8.04423 21.7775C7.71207 21.926 7.35568 22 6.99998 22C6.64435 22 6.28801 21.9261 5.95589 21.7775C5.26671 21.4693 4.58917 21.1481 3.98095 20.6031C3.36225 20.0487 2.86012 19.3063 2.41266 18.2128C2.10849 17.4695 2 16.6852 2 15.9348L2.00003 13.8611C2.00004 13.0416 2.55233 12.3326 3.33583 12.12L6.23696 11.1051C6.25893 11.0974 6.28124 11.0908 6.30383 11.0851Z" fill="black"/>
</svg>
