<svg width="24" height="24" viewBox="0 0 24 24" fill="none" xmlns="http://www.w3.org/2000/svg">
<path d="M9.85714 3.5C8.54988 3.5 7.5 4.5501 7.5 5.83333V9.75C7.5 10.1642 7.16421 10.5 6.75 10.5C6.33579 10.5 6 10.1642 6 9.75V5.83333C6 3.71081 7.73235 2 9.85714 2H15.25C15.4489 2 15.6397 2.07902 15.7803 2.21967L21.7803 8.21967C21.921 8.36032 22 8.55109 22 8.75V18.1667C22 20.2893 20.2676 22.0001 18.1429 22.0001L13.25 22C12.8358 22 12.5 21.6642 12.5 21.25C12.5 20.8358 12.8358 20.5 13.25 20.5L18.1429 20.5001C19.4501 20.5001 20.5 19.45 20.5 18.1667V9.5H16.25C15.2835 9.5 14.5 8.7165 14.5 7.75V3.5H9.85714ZM16 4.56066V7.75C16 7.88807 16.1119 8 16.25 8H19.4393L16 4.56066ZM7 13.5C5.067 13.5 3.5 15.067 3.5 17C3.5 18.933 5.067 20.5 7 20.5C8.933 20.5 10.5 18.933 10.5 17C10.5 15.067 8.933 13.5 7 13.5ZM2 17C2 14.2386 4.23858 12 7 12C9.76142 12 12 14.2386 12 17C12 19.7614 9.76142 22 7 22C4.23858 22 2 19.7614 2 17ZM9.25358 15.644C9.53304 15.9497 9.51175 16.4241 9.20601 16.7036L6.88123 18.8286C6.58642 19.0981 6.13215 19.0892 5.84805 18.8085L4.77283 17.746C4.4782 17.4548 4.47538 16.98 4.76652 16.6853C5.05767 16.3907 5.53254 16.3879 5.82717 16.679L6.39535 17.2405L8.19399 15.5964C8.49973 15.317 8.97412 15.3383 9.25358 15.644Z" fill="black"/>
</svg>
