<svg width="24" height="24" viewBox="0 0 24 24" fill="none" xmlns="http://www.w3.org/2000/svg">
<path d="M7.85726 3.5C6.55 3.5 5.50012 4.5501 5.50012 5.83333V18.1667C5.50012 19.4499 6.55003 20.5001 7.85727 20.5001L16.143 20.5C17.4502 20.5 18.5001 19.4499 18.5001 18.1667V9.5H14.2501C13.2836 9.5 12.5001 8.7165 12.5001 7.75V3.5H7.85726ZM14.0001 4.56066V7.75C14.0001 7.88807 14.1121 8 14.2501 8H17.4395L14.0001 4.56066ZM4.00012 5.83333C4.00012 3.71081 5.73247 2 7.85726 2H13.2501C13.449 2 13.6398 2.07902 13.7805 2.21967L19.7805 8.21967C19.9211 8.36032 20.0001 8.55109 20.0001 8.75V18.1667C20.0001 20.2892 18.2678 22 16.143 22L7.85727 22.0001C5.73245 22.0001 4.00012 20.2892 4.00012 18.1667V5.83333Z" fill="black"/>
</svg>
