<svg width="24" height="24" viewBox="0 0 24 24" fill="none" xmlns="http://www.w3.org/2000/svg">
<path d="M9.85714 3.5C8.54988 3.5 7.5 4.5501 7.5 5.83333V9.75C7.5 10.1642 7.16421 10.5 6.75 10.5C6.33579 10.5 6 10.1642 6 9.75V5.83333C6 3.71081 7.73235 2 9.85714 2H15.25C15.4489 2 15.6397 2.07902 15.7803 2.21967L21.7803 8.21967C21.921 8.36032 22 8.55109 22 8.75V18.1667C22 20.2893 20.2676 22.0001 18.1428 22.0001L15.25 22C14.8358 22 14.5 21.6642 14.5 21.25C14.5 20.8358 14.8358 20.5 15.25 20.5L18.1429 20.5001C19.4501 20.5001 20.5 19.45 20.5 18.1667V9.5H16.25C15.2835 9.5 14.5 8.7165 14.5 7.75V3.5H9.85714ZM16 4.56066V7.75C16 7.88807 16.1119 8 16.25 8H19.4393L16 4.56066ZM3.80556 13.5C3.64143 13.5 3.5 13.6353 3.5 13.8125V20.1875C3.5 20.3647 3.64143 20.5 3.80556 20.5H11.1944C11.3586 20.5 11.5 20.3647 11.5 20.1875V15.4062C11.5 15.229 11.3586 15.0938 11.1944 15.0938H6.97222C6.72065 15.0938 6.48584 14.9676 6.34693 14.7579L5.60473 13.6373C5.54711 13.5503 5.45173 13.5 5.35175 13.5H3.80556ZM2 13.8125C2 12.8161 2.80375 12 3.80556 12H5.35175C5.95763 12 6.5214 12.3048 6.85532 12.809L7.37507 13.5938H11.1944C12.1963 13.5938 13 14.4099 13 15.4062V20.1875C13 21.1839 12.1963 22 11.1944 22H3.80556C2.80375 22 2 21.1839 2 20.1875V13.8125Z" fill="black"/>
</svg>
