<svg width="24" height="24" viewBox="0 0 24 24" fill="none" xmlns="http://www.w3.org/2000/svg">
<path d="M7.13388 2.80546C7.64961 2.28973 8.34908 2 9.07843 2H14.25C15.7688 2 17 3.23122 17 4.75V5H17.25C18.7688 5 20 6.23122 20 7.75V9.75C20 10.1642 19.6642 10.5 19.25 10.5C18.8358 10.5 18.5 10.1642 18.5 9.75V7.75C18.5 7.05964 17.9404 6.5 17.25 6.5H12V10.25C12 11.2165 11.2165 12 10.25 12H6.5V19.25C6.5 19.9404 7.05964 20.5 7.75 20.5H10.75C11.1642 20.5 11.5 20.8358 11.5 21.25C11.5 21.6642 11.1642 22 10.75 22H7.75C6.23122 22 5 20.7688 5 19.25V19H4.75C3.23122 19 2 17.7688 2 16.25V9.07843C2 8.34908 2.28973 7.64961 2.80546 7.13388L7.13388 2.80546ZM5 17.5V11.25C5 11.0511 5.07902 10.8603 5.21967 10.7197L10.7197 5.21967C10.8603 5.07902 11.0511 5 11.25 5H15.5V4.75C15.5 4.05964 14.9404 3.5 14.25 3.5H9.07843C8.74691 3.5 8.42896 3.6317 8.19454 3.86612L3.86612 8.19454C3.6317 8.42896 3.5 8.74691 3.5 9.07843V16.25C3.5 16.9404 4.05964 17.5 4.75 17.5H5ZM7.56066 10.5H10.25C10.3881 10.5 10.5 10.3881 10.5 10.25V7.56066L7.56066 10.5ZM17.15 14.5C15.6865 14.5 14.5 15.6865 14.5 17.15C14.5 18.6136 15.6865 19.8 17.15 19.8C17.882 19.8 18.5435 19.5042 19.0239 19.0239C19.5042 18.5435 19.8 17.882 19.8 17.15C19.8 15.6865 18.6136 14.5 17.15 14.5ZM13 17.15C13 14.858 14.858 13 17.15 13C19.442 13 21.3 14.858 21.3 17.15C21.3 18.0247 21.0288 18.8369 20.5667 19.5061L22.7803 21.7197C23.0732 22.0126 23.0732 22.4874 22.7803 22.7803C22.4874 23.0732 22.0126 23.0732 21.7197 22.7803L19.5061 20.5667C18.8369 21.0288 18.0247 21.3 17.15 21.3C14.858 21.3 13 19.442 13 17.15Z" fill="black"/>
</svg>
