<svg width="24" height="24" viewBox="0 0 24 24" fill="none" xmlns="http://www.w3.org/2000/svg">
<path d="M7.85714 3.5C6.54988 3.5 5.5 4.5501 5.5 5.83333V18.1667C5.5 19.4499 6.5499 20.5001 7.85714 20.5001L16.1429 20.5C17.4501 20.5 18.5 19.4499 18.5 18.1667V9.5H14.25C13.2835 9.5 12.5 8.7165 12.5 7.75V3.5H7.85714ZM14 4.56066V7.75C14 7.88807 14.1119 8 14.25 8H17.4393L14 4.56066ZM4 5.83333C4 3.71081 5.73235 2 7.85714 2H13.25C13.4489 2 13.6397 2.07902 13.7803 2.21967L19.7803 8.21967C19.921 8.36032 20 8.55109 20 8.75V18.1667C20 20.2892 18.2676 22 16.1429 22L7.85714 22.0001C5.73233 22.0001 4 20.2892 4 18.1667V5.83333ZM7 12.75C7 12.3358 7.33579 12 7.75 12H13.25C13.6642 12 14 12.3358 14 12.75C14 13.1642 13.6642 13.5 13.25 13.5H7.75C7.33579 13.5 7 13.1642 7 12.75ZM15.5 12.75C15.5 12.3358 15.8358 12 16.25 12H16.26C16.6742 12 17.01 12.3358 17.01 12.75C17.01 13.1642 16.6742 13.5 16.26 13.5H16.25C15.8358 13.5 15.5 13.1642 15.5 12.75ZM7 16.75C7 16.3358 7.33579 16 7.75 16H13.25C13.6642 16 14 16.3358 14 16.75C14 17.1642 13.6642 17.5 13.25 17.5H7.75C7.33579 17.5 7 17.1642 7 16.75ZM15.5 16.75C15.5 16.3358 15.8358 16 16.25 16H16.26C16.6742 16 17.01 16.3358 17.01 16.75C17.01 17.1642 16.6742 17.5 16.26 17.5H16.25C15.8358 17.5 15.5 17.1642 15.5 16.75Z" fill="black"/>
</svg>
