<svg width="24" height="24" viewBox="0 0 24 24" fill="none" xmlns="http://www.w3.org/2000/svg">
<path d="M6.21967 5.21967C6.51256 4.92678 6.98744 4.92678 7.28033 5.21967L12 9.93934L16.7197 5.21967C17.0126 4.92678 17.4874 4.92678 17.7803 5.21967C18.0732 5.51256 18.0732 5.98744 17.7803 6.28033L12.5303 11.5303C12.2374 11.8232 11.7626 11.8232 11.4697 11.5303L6.21967 6.28033C5.92678 5.98744 5.92678 5.51256 6.21967 5.21967ZM6.21967 12.4697C6.51256 12.1768 6.98744 12.1768 7.28033 12.4697L12 17.1893L16.7197 12.4697C17.0126 12.1768 17.4874 12.1768 17.7803 12.4697C18.0732 12.7626 18.0732 13.2374 17.7803 13.5303L12.5303 18.7803C12.2374 19.0732 11.7626 19.0732 11.4697 18.7803L6.21967 13.5303C5.92678 13.2374 5.92678 12.7626 6.21967 12.4697Z" fill="black"/>
</svg>
