<svg width="24" height="24" viewBox="0 0 24 24" fill="none" xmlns="http://www.w3.org/2000/svg">
<path d="M5.21967 6.21967C5.51256 5.92678 5.98744 5.92678 6.28033 6.21967L11.5303 11.4697C11.8232 11.7626 11.8232 12.2374 11.5303 12.5303L6.28033 17.7803C5.98744 18.0732 5.51256 18.0732 5.21967 17.7803C4.92678 17.4874 4.92678 17.0126 5.21967 16.7197L9.93934 12L5.21967 7.28033C4.92678 6.98744 4.92678 6.51256 5.21967 6.21967ZM12.4697 6.21967C12.7626 5.92678 13.2374 5.92678 13.5303 6.21967L18.7803 11.4697C19.0732 11.7626 19.0732 12.2374 18.7803 12.5303L13.5303 17.7803C13.2374 18.0732 12.7626 18.0732 12.4697 17.7803C12.1768 17.4874 12.1768 17.0126 12.4697 16.7197L17.1893 12L12.4697 7.28033C12.1768 6.98744 12.1768 6.51256 12.4697 6.21967Z" fill="black"/>
</svg>
