<svg width="24" height="24" viewBox="0 0 24 24" fill="none" xmlns="http://www.w3.org/2000/svg">
<path d="M11.4697 5.21967C11.7626 4.92678 12.2374 4.92678 12.5303 5.21967L17.7803 10.4697C18.0732 10.7626 18.0732 11.2374 17.7803 11.5303C17.4874 11.8232 17.0126 11.8232 16.7197 11.5303L12 6.81066L7.28033 11.5303C6.98744 11.8232 6.51256 11.8232 6.21967 11.5303C5.92678 11.2374 5.92678 10.7626 6.21967 10.4697L11.4697 5.21967ZM6.21967 17.7197L11.4697 12.4697C11.7626 12.1768 12.2374 12.1768 12.5303 12.4697L17.7803 17.7197C18.0732 18.0126 18.0732 18.4874 17.7803 18.7803C17.4874 19.0732 17.0126 19.0732 16.7197 18.7803L12 14.0607L7.28033 18.7803C6.98744 19.0732 6.51256 19.0732 6.21967 18.7803C5.92678 18.4874 5.92678 18.0126 6.21967 17.7197Z" fill="black"/>
</svg>
