<svg width="24" height="24" viewBox="0 0 24 24" fill="none" xmlns="http://www.w3.org/2000/svg">
<path d="M11.5303 6.21967C11.8232 6.51256 11.8232 6.98744 11.5303 7.28033L6.81066 12L11.5303 16.7197C11.8232 17.0126 11.8232 17.4874 11.5303 17.7803C11.2374 18.0732 10.7626 18.0732 10.4697 17.7803L5.21967 12.5303C4.92678 12.2374 4.92678 11.7626 5.21967 11.4697L10.4697 6.21967C10.7626 5.92678 11.2374 5.92678 11.5303 6.21967ZM18.7803 6.21967C19.0732 6.51256 19.0732 6.98744 18.7803 7.28033L14.0607 12L18.7803 16.7197C19.0732 17.0126 19.0732 17.4874 18.7803 17.7803C18.4874 18.0732 18.0126 18.0732 17.7197 17.7803L12.4697 12.5303C12.1768 12.2374 12.1768 11.7626 12.4697 11.4697L17.7197 6.21967C18.0126 5.92678 18.4874 5.92678 18.7803 6.21967Z" fill="black"/>
</svg>
