<svg width="24" height="24" viewBox="0 0 24 24" fill="none" xmlns="http://www.w3.org/2000/svg">
<path d="M2 6.86111C2 4.17639 4.17639 2 6.86111 2H17.1389C19.8236 2 22 4.17639 22 6.86111V17.1389C22 19.8236 19.8236 22 17.1389 22H6.86111C4.17639 22 2 19.8236 2 17.1389V6.86111ZM6.86111 3.5C5.00482 3.5 3.5 5.00482 3.5 6.86111V17.1389C3.5 18.9952 5.00482 20.5 6.86111 20.5H17.1389C18.9952 20.5 20.5 18.9952 20.5 17.1389V6.86111C20.5 5.00482 18.9952 3.5 17.1389 3.5H6.86111ZM14.4924 8.93424C14.8048 9.20615 14.8377 9.67989 14.5658 9.99235L9.77945 15.4924C9.63371 15.6598 9.42126 15.7541 9.1993 15.7499C8.97733 15.7456 8.76866 15.6432 8.62945 15.4703L6.41577 12.7203C6.15603 12.3976 6.20705 11.9255 6.52971 11.6658C6.85237 11.406 7.3245 11.457 7.58423 11.7797L9.23609 13.8318L13.4342 9.00765C13.7062 8.69519 14.1799 8.66232 14.4924 8.93424ZM17.4925 8.93424C17.805 9.20615 17.8379 9.67989 17.566 9.99235L12.7796 15.4924C12.5077 15.8048 12.034 15.8377 11.7215 15.5658C11.4091 15.2938 11.3762 14.8201 11.6481 14.5076L16.4344 9.00765C16.7063 8.69519 17.1801 8.66232 17.4925 8.93424Z" fill="black"/>
</svg>
