<svg width="24" height="24" viewBox="0 0 24 24" fill="none" xmlns="http://www.w3.org/2000/svg">
<path d="M18.2492 5.69028C18.5584 5.96598 18.5855 6.44008 18.3098 6.74921L8.05335 18.2492C7.90769 18.4125 7.69797 18.5041 7.47918 18.4999C7.26039 18.4957 7.05434 18.3961 6.91508 18.2273L2.17148 12.4773C1.90789 12.1578 1.95323 11.6851 2.27274 11.4215C2.59226 11.1579 3.06496 11.2032 3.32856 11.5227L7.5158 16.5983L17.1903 5.75081C17.466 5.44168 17.9401 5.41458 18.2492 5.69028ZM21.7493 5.69028C22.0584 5.96598 22.0855 6.44008 21.8098 6.74921L11.5534 18.2492C11.2777 18.5583 10.8036 18.5854 10.4945 18.3097C10.1853 18.034 10.1582 17.5599 10.4339 17.2508L20.6903 5.75081C20.966 5.44168 21.4401 5.41458 21.7493 5.69028Z" fill="black"/>
</svg>
