<svg width="24" height="24" viewBox="0 0 24 24" fill="none" xmlns="http://www.w3.org/2000/svg">
<path opacity="0.12" d="M19.1944 22C20.7439 22 22 20.7439 22 19.1944V10.3481L20.5 8.5237L14.552 12.6416L9.31932 9.3117C9.03301 9.1295 8.66004 9.16226 8.40987 9.39158L3.5 13.8923L2 15.3923V19.1944C2 20.7439 3.25609 22 4.80556 22H19.1944Z" fill="black"/>
<path d="M2 4.80556C2 3.25609 3.25609 2 4.80556 2H19.1944C20.7439 2 22 3.25609 22 4.80556V19.1944C22 20.7439 20.7439 22 19.1944 22H4.80556C3.25609 22 2 20.7439 2 19.1944V4.80556ZM4.80556 3.5C4.08452 3.5 3.5 4.08452 3.5 4.80556V13.8923L8.40987 9.39158C8.66004 9.16226 9.03301 9.1295 9.31932 9.3117L14.552 12.6416L20.5 8.5237V4.80556C20.5 4.08452 19.9155 3.5 19.1944 3.5H4.80556ZM20.5 10.3481L14.9964 14.1583C14.7482 14.3301 14.4214 14.3364 14.1668 14.1744L8.99937 10.8861L3.5 15.9271V19.1944C3.5 19.9155 4.08452 20.5 4.80556 20.5H19.1944C19.9155 20.5 20.5 19.9155 20.5 19.1944V10.3481Z" fill="black"/>
</svg>
