<svg width="24" height="24" viewBox="0 0 24 24" fill="none" xmlns="http://www.w3.org/2000/svg">
<path opacity="0.12" d="M10.75 2C9.7835 2 9 2.7835 9 3.75V22H21.25C21.6642 22 22 21.6642 22 21.25C22 20.8358 21.6642 20.5 21.25 20.5H21V3.75C21 2.7835 20.2165 2 19.25 2H10.75Z" fill="black"/>
<path d="M9 3.75C9 2.7835 9.7835 2 10.75 2H19.25C20.2165 2 21 2.7835 21 3.75V20.5H21.25C21.6642 20.5 22 20.8358 22 21.25C22 21.6642 21.6642 22 21.25 22H2.75C2.33579 22 2 21.6642 2 21.25C2 20.8358 2.33579 20.5 2.75 20.5H3V9.75C3 8.7835 3.7835 8 4.75 8H9V3.75ZM9 9.5H4.75C4.61193 9.5 4.5 9.61193 4.5 9.75V20.5H9V9.5ZM10.5 20.5H19.5V3.75C19.5 3.61193 19.3881 3.5 19.25 3.5H10.75C10.6119 3.5 10.5 3.61193 10.5 3.75V20.5ZM12 6.75C12 6.33579 12.3358 6 12.75 6H17.25C17.6642 6 18 6.33579 18 6.75C18 7.16421 17.6642 7.5 17.25 7.5H12.75C12.3358 7.5 12 7.16421 12 6.75ZM12 9.75C12 9.33579 12.3358 9 12.75 9H17.25C17.6642 9 18 9.33579 18 9.75C18 10.1642 17.6642 10.5 17.25 10.5H12.75C12.3358 10.5 12 10.1642 12 9.75ZM12 12.75C12 12.3358 12.3358 12 12.75 12H17.25C17.6642 12 18 12.3358 18 12.75C18 13.1642 17.6642 13.5 17.25 13.5H12.75C12.3358 13.5 12 13.1642 12 12.75Z" fill="black"/>
</svg>
