<svg width="24" height="24" viewBox="0 0 24 24" fill="none" xmlns="http://www.w3.org/2000/svg">
<path opacity="0.12" d="M10.3617 2.55762C11.3208 1.81413 12.6633 1.81413 13.6224 2.55762L13.6375 2.56963L19.6132 7.45272C20.4879 8.13473 21 9.18086 21 10.2897V19.3493C21 20.0531 20.7194 20.7276 20.2208 21.2245C19.7223 21.7213 19.0468 22 18.3429 22H5.65714C4.95324 22 4.27766 21.7213 3.77915 21.2245C3.28056 20.7276 3 20.0531 3 19.3493V10.2897C3 9.18102 3.51197 8.13504 4.38645 7.45302L10.3459 2.57024L10.3617 2.55762Z" fill="black"/>
<path d="M11.2877 3.73773L5.32974 8.61934L5.31389 8.63197C4.79987 9.03042 4.5 9.64234 4.5 10.2897V19.3493C4.5 19.6536 4.6213 19.9461 4.83802 20.1621C5.05484 20.3782 5.34944 20.5 5.65714 20.5H18.3429C18.6506 20.5 18.9452 20.3782 19.162 20.1621C19.3787 19.9461 19.5 19.6536 19.5 19.3493V10.2897C19.5 9.64234 19.2001 9.03042 18.6861 8.63197L18.671 8.61996L12.6967 3.738C12.2813 3.42076 11.7032 3.42067 11.2877 3.73773ZM10.3617 2.55762C11.3208 1.81413 12.6633 1.81413 13.6224 2.55762L13.6375 2.56963L19.6132 7.45272C20.4879 8.13473 21 9.18086 21 10.2897V19.3493C21 20.0531 20.7194 20.7276 20.2208 21.2245C19.7223 21.7213 19.0468 22 18.3429 22H5.65714C4.95324 22 4.27766 21.7213 3.77915 21.2245C3.28056 20.7276 3 20.0531 3 19.3493V10.2897C3 9.18102 3.51197 8.13504 4.38645 7.45302L10.3459 2.57024L10.3617 2.55762Z" fill="black"/>
</svg>
