<svg width="24" height="24" viewBox="0 0 24 24" fill="none" xmlns="http://www.w3.org/2000/svg">
<path opacity="0.12" d="M4 18.229C4 15.5592 6.23399 13.5002 9.24997 13.5001H14.75C17.766 13.5002 20 15.5592 20 18.229V19.4374C20 20.3379 19.624 21.0329 18.9733 21.4677C18.37 21.8709 17.6073 21.9999 16.8827 21.9999H7.11735C6.39269 21.9999 5.63001 21.8709 5.02666 21.4677C4.37602 21.0329 4 20.3379 4 19.4374V18.229Z" fill="black"/>
<path d="M12 3.5C10.3431 3.5 8.99997 4.84315 8.99997 6.5C8.99997 8.15685 10.3431 9.5 12 9.5C13.6568 9.5 15 8.15685 15 6.5C15 4.84315 13.6568 3.5 12 3.5ZM7.49997 6.5C7.49997 4.01472 9.51469 2 12 2C14.4853 2 16.5 4.01472 16.5 6.5C16.5 8.98528 14.4853 11 12 11C9.51469 11 7.49997 8.98528 7.49997 6.5ZM9.25 15.0001C6.92752 15.0002 5.5 16.5164 5.5 18.229V19.4374C5.5 19.8715 5.65393 20.0828 5.8601 20.2205C6.11356 20.3899 6.53456 20.4999 7.11735 20.4999H16.8827C17.4654 20.4999 17.8864 20.3899 18.1399 20.2205C18.3461 20.0828 18.5 19.8715 18.5 19.4374V18.229C18.5 16.5164 17.0725 15.0002 14.75 15.0001M4 18.229C4 15.5592 6.23399 13.5002 9.24997 13.5001H14.75C17.766 13.5002 20 15.5592 20 18.229V19.4374C20 20.3379 19.624 21.0329 18.9733 21.4677C18.37 21.8709 17.6073 21.9999 16.8827 21.9999H7.11735C6.39269 21.9999 5.63001 21.8709 5.02666 21.4677C4.37602 21.0329 4 20.3379 4 19.4374V18.229Z" fill="black"/>
</svg>
