<svg width="24" height="24" viewBox="0 0 24 24" fill="none" xmlns="http://www.w3.org/2000/svg">
<path opacity="0.12" d="M2 4.75C2 3.23122 3.23122 2 4.75 2H18.25C19.7688 2 21 3.23122 21 4.75V9.91901L10.9404 10.5V19.5519L7.14307 21.8887C6.91167 22.0311 6.62134 22.0373 6.38415 21.9047C6.14696 21.7722 6 21.5217 6 21.25V18H4.75C3.23122 18 2 16.7688 2 15.25V4.75Z" fill="black"/>
<path d="M2 4.75C2 3.23122 3.23122 2 4.75 2H18.25C19.7688 2 21 3.23122 21 4.75V9.91901C21.591 10.1996 22 10.8015 22 11.5V18C22 18.9665 21.2165 19.75 20.25 19.75H20V21.25C20 21.5164 19.8587 21.7628 19.6288 21.8973C19.3988 22.0319 19.1148 22.0343 18.8826 21.9038L15.107 19.7821C15.0696 19.761 15.0274 19.75 14.9846 19.75H11.75C11.4579 19.75 11.1825 19.6784 10.9404 19.5519L7.14307 21.8887C6.91167 22.0311 6.62134 22.0373 6.38415 21.9047C6.14696 21.7722 6 21.5217 6 21.25V18H4.75C3.23122 18 2 16.7688 2 15.25V4.75ZM10.0346 18.3481C10.0119 18.2356 10 18.1192 10 18V11.5C10 10.5335 10.7835 9.75 11.75 9.75L19.5 9.75065V4.75C19.5 4.05964 18.9404 3.5 18.25 3.5H4.75C4.05964 3.5 3.5 4.05964 3.5 4.75V15.25C3.5 15.9404 4.05964 16.5 4.75 16.5H6.75C7.16421 16.5 7.5 16.8358 7.5 17.25V19.9078L10.0346 18.3481ZM11.7499 11.25C11.6119 11.25 11.5 11.3619 11.5 11.5V18C11.5 18.1381 11.6119 18.25 11.75 18.25H14.9846C15.2849 18.25 15.5801 18.3273 15.8419 18.4744L18.5 19.9682V19C18.5 18.5858 18.8358 18.25 19.25 18.25H20.25C20.3881 18.25 20.5 18.1381 20.5 18V11.5C20.5 11.3626 20.3888 11.2507 20.25 11.2507L11.7499 11.25Z" fill="black"/>
</svg>
