<svg width="24" height="24" viewBox="0 0 24 24" fill="none" xmlns="http://www.w3.org/2000/svg">
<g opacity="0.1">
<path d="M17.4538 20.25C18.6466 19.6961 19.9414 18.5136 20.815 17.6221C21.423 17.0018 21.3811 16.0217 20.767 15.4074C20.1738 14.814 19.2335 14.7494 18.5346 15.2135C17.3807 15.9799 15.6267 17.0207 14.3517 17.2172C15.0303 17.0818 15.5727 16.5392 15.6902 15.8342C15.8382 14.9459 15.2657 14.0969 14.3868 13.9016L12.7006 13.5268C11.8961 13.348 11.0565 13.463 10.3008 13.7918C9.31361 14.2214 7.75615 14.75 6.80664 14.75L6.80668 20.25C9.80581 20.25 10.9556 21.25 12.955 21.25C15.3543 21.25 15.8213 21.008 17.4538 20.25Z" fill="black"/>
<path d="M5.80711 13.25H3.75119C3.19906 13.25 2.75146 13.6977 2.75146 14.25V20.25C2.75146 20.8023 3.19906 21.25 3.75119 21.25H5.80711C6.35924 21.25 6.80668 20.8022 6.80668 20.25L6.80664 14.75L6.80683 14.25C6.80683 13.6977 6.35924 13.25 5.80711 13.25Z" fill="black"/>
</g>
<path d="M6 4.75C6 3.23122 7.23122 2 8.75 2H19.25C20.7688 2 22 3.23122 22 4.75V11.75C22 12.1642 21.6642 12.5 21.25 12.5C20.8358 12.5 20.5 12.1642 20.5 11.75V4.75C20.5 4.05964 19.9404 3.5 19.25 3.5H8.75C8.05964 3.5 7.5 4.05964 7.5 4.75V10.25C7.5 10.6642 7.16421 11 6.75 11C6.33579 11 6 10.6642 6 10.25V4.75Z" fill="black"/>
<path fill-rule="evenodd" clip-rule="evenodd" d="M3.75119 12.5C2.78465 12.5 2.00146 13.2837 2.00146 14.25V20.25C2.00146 21.2163 2.78465 22 3.75119 22H5.80711C6.49987 22 7.09848 21.5974 7.382 21.0135C8.48443 21.0662 9.30103 21.266 10.0575 21.4733C10.1479 21.4981 10.2386 21.5233 10.3296 21.5487C11.1228 21.7699 11.9483 22 12.955 22C14.172 22 14.9624 21.9398 15.6739 21.7618C16.3388 21.5955 16.9065 21.3315 17.6371 20.9918L17.7696 20.9302C19.097 20.3139 20.4738 19.0418 21.3507 18.1471C22.269 17.2101 22.179 15.7589 21.2974 14.8771C20.4352 14.0147 19.096 13.9403 18.1196 14.5888C17.6401 14.9072 17.0612 15.2697 16.4632 15.5943C16.4825 14.4518 15.6971 13.4245 14.5495 13.1695L12.8634 12.7946C11.8833 12.5768 10.8818 12.721 10.0015 13.1041C9.53323 13.3079 8.92634 13.5364 8.32784 13.7125C8.04103 13.7969 7.7696 13.8652 7.52462 13.9141C7.36799 13.1084 6.65872 12.5 5.80711 12.5H3.75119ZM6.05684 14.7327L6.05664 14.75L6.05684 14.7673L6.05687 20.2328L6.05668 20.25L6.05673 20.2585C6.05221 20.3928 5.94199 20.5 5.80711 20.5H3.75119C3.61346 20.5 3.50146 20.3883 3.50146 20.25V14.25C3.50146 14.1117 3.61346 14 3.75119 14H5.80711C5.94483 14 6.05683 14.1117 6.05683 14.25L6.05684 14.7327ZM7.55686 19.5206L7.55684 15.4324C7.95014 15.3687 8.36172 15.2662 8.75133 15.1515C9.41573 14.956 10.0811 14.7054 10.6 14.4795C11.2311 14.2049 11.909 14.1191 12.5379 14.2589L14.2241 14.6337C14.7137 14.7426 15.0329 15.2156 14.9504 15.7109C14.885 16.1035 14.5829 16.4063 14.2049 16.4817C14.0562 16.5114 13.8823 16.5202 13.6651 16.5174C13.6031 16.5166 13.5088 16.5136 13.4051 16.5104C13.2506 16.5055 13.0753 16.5 12.955 16.5C12.5408 16.5 12.205 16.8358 12.205 17.25C12.205 17.6642 12.5408 18 12.955 18C13.0889 18 13.1851 18.0036 13.2922 18.0077C13.389 18.0113 13.4951 18.0153 13.6457 18.0173C13.8956 18.0205 14.1858 18.0133 14.4819 17.956C15.2364 17.8366 16.0734 17.4848 16.8308 17.0964C17.607 16.6984 18.3596 16.2301 18.9495 15.8383C19.3709 15.5584 19.9124 15.6134 20.2366 15.9377C20.5833 16.2844 20.577 16.7935 20.2794 17.0972C19.4089 17.9853 18.1962 19.0784 17.1379 19.5697L17.0723 19.6002C16.2771 19.9695 15.8327 20.1759 15.31 20.3066C14.7801 20.4392 14.1373 20.5 12.955 20.5C12.1635 20.5 11.5337 20.3255 10.7231 20.1009C10.6358 20.0767 10.5459 20.0518 10.454 20.0266C9.66704 19.811 8.76283 19.5881 7.55686 19.5206Z" fill="black"/>
<path fill-rule="evenodd" clip-rule="evenodd" d="M14 5.25C12.6193 5.25 11.5 6.36929 11.5 7.75C11.5 9.13071 12.6193 10.25 14 10.25C15.3807 10.25 16.5 9.13071 16.5 7.75C16.5 6.36929 15.3807 5.25 14 5.25ZM13 7.75C13 7.19772 13.4477 6.75 14 6.75C14.5523 6.75 15 7.19772 15 7.75C15 8.30228 14.5523 8.75 14 8.75C13.4477 8.75 13 8.30228 13 7.75Z" fill="black"/>
</svg>
