<svg width="24" height="24" viewBox="0 0 24 24" fill="none" xmlns="http://www.w3.org/2000/svg">
<path opacity="0.12" d="M2 12.111C2 10.5452 3.2651 9.27078 4.83196 9.27078H19.168C20.7349 9.27078 22 10.5452 22 12.111V19.2024C22 20.1911 21.201 20.9976 20.209 20.9976H18.1271C17.1351 20.9976 16.3361 20.1911 16.3361 19.2024V18.0867H7.66393V19.2024C7.66393 20.1911 6.86489 20.9976 5.87294 20.9976H3.79098C2.79904 20.9976 2 20.1911 2 19.2024V12.111Z" fill="black"/>
<path d="M5.27141 5.15207C5.58588 3.88916 6.71737 3 8.01898 3H15.981C17.2826 3 18.4141 3.88916 18.7286 5.15207L19.5746 8.54977L20.7186 7.40124C21.0109 7.10777 21.4858 7.10683 21.7793 7.39914C22.0728 7.69145 22.0737 8.16632 21.7814 8.45979L20.5911 9.65479C21.4344 10.1473 22 11.0641 22 12.111V19.2024C22 20.1911 21.201 20.9976 20.209 20.9976H18.1271C17.1351 20.9976 16.3361 20.1911 16.3361 19.2024V18.0867H7.66393V19.2024C7.66393 20.1911 6.86489 20.9976 5.87294 20.9976H3.79098C2.79904 20.9976 2 20.1911 2 19.2024V12.111C2 11.0641 2.56562 10.1473 3.40887 9.65479L2.21862 8.45979C1.92631 8.16632 1.92725 7.69145 2.22073 7.39914C2.5142 7.10683 2.98907 7.10777 3.28138 7.40124L4.42535 8.54977L5.27141 5.15207ZM5.79162 9.27078H18.2084L17.273 5.51452C17.1241 4.91641 16.5901 4.5 15.981 4.5H8.01898C7.4099 4.5 6.87589 4.91641 6.72696 5.51452L5.79162 9.27078ZM4.83196 10.7708C4.09915 10.7708 3.5 11.368 3.5 12.111V19.2024C3.5 19.3683 3.63309 19.4976 3.79098 19.4976H5.87294C6.03084 19.4976 6.16393 19.3683 6.16393 19.2024V17.3367C6.16393 16.9225 6.49971 16.5867 6.91393 16.5867H17.0861C17.5003 16.5867 17.8361 16.9225 17.8361 17.3367V19.2024C17.8361 19.3683 17.9692 19.4976 18.1271 19.4976H20.209C20.3669 19.4976 20.5 19.3683 20.5 19.2024V12.111C20.5 11.368 19.9009 10.7708 19.168 10.7708H4.83196ZM5.12294 13.6787C5.12294 13.2645 5.45873 12.9287 5.87294 12.9287H8.99589C9.4101 12.9287 9.74589 13.2645 9.74589 13.6787C9.74589 14.0929 9.4101 14.4287 8.99589 14.4287H5.87294C5.45873 14.4287 5.12294 14.0929 5.12294 13.6787ZM14.2541 13.6787C14.2541 13.2645 14.5899 12.9287 15.0041 12.9287H18.1271C18.5413 12.9287 18.8771 13.2645 18.8771 13.6787C18.8771 14.0929 18.5413 14.4287 18.1271 14.4287H15.0041C14.5899 14.4287 14.2541 14.0929 14.2541 13.6787Z" fill="black"/>
</svg>
