<svg width="24" height="24" viewBox="0 0 24 24" fill="none" xmlns="http://www.w3.org/2000/svg">
<path d="M12 2C12.4142 2 12.75 2.33579 12.75 2.75V14.9393L17.4697 10.2197C17.7626 9.92678 18.2374 9.92678 18.5303 10.2197C18.8232 10.5126 18.8232 10.9874 18.5303 11.2803L12.5303 17.2803C12.2374 17.5732 11.7626 17.5732 11.4697 17.2803L5.46967 11.2803C5.17678 10.9874 5.17678 10.5126 5.46967 10.2197C5.76256 9.92678 6.23744 9.92678 6.53033 10.2197L11.25 14.9393V2.75C11.25 2.33579 11.5858 2 12 2ZM2.75 16.0002C3.16421 16.0002 3.5 16.336 3.5 16.7502V18.1667C3.5 19.4554 4.54467 20.5 5.83333 20.5H18.1667C19.4553 20.5 20.5 19.4554 20.5 18.1667V16.7502C20.5 16.336 20.8358 16.0002 21.25 16.0002C21.6642 16.0002 22 16.336 22 16.7502V18.1667C22 20.2838 20.2838 22 18.1667 22H5.83333C3.71624 22 2 20.2838 2 18.1667V16.7502C2 16.336 2.33579 16.0002 2.75 16.0002Z" fill="black"/>
</svg>
