<svg width="24" height="24" viewBox="0 0 24 24" fill="none" xmlns="http://www.w3.org/2000/svg">
<path d="M2 5.75V15.25C2 16.729 3.14409 18 4.64189 18H10.25C10.6642 18 11 17.6642 11 17.25C11 16.8358 10.6642 16.5 10.25 16.5H4.64189C4.04997 16.5 3.5 15.9802 3.5 15.25V9H19.5V10.25C19.5 10.6642 19.8358 11 20.25 11C20.6642 11 21 10.6642 21 10.25V5.75C21 4.27103 19.8559 3 18.3581 3H4.64189C3.14409 3 2 4.27103 2 5.75ZM3.5 7.5V5.75C3.5 5.01983 4.04997 4.5 4.64189 4.5H18.3581C18.95 4.5 19.5 5.01983 19.5 5.75V7.5H3.5ZM12 16C12 13.2386 14.2386 11 17 11C19.7614 11 22 13.2386 22 16C22 17.3805 21.4395 18.6315 20.5355 19.5355C19.6315 20.4395 18.3805 21 17 21C14.2386 21 12 18.7614 12 16ZM16.25 12.5805C14.6774 12.9239 13.5 14.3244 13.5 16C13.5 17.933 15.067 19.5 17 19.5C17.6954 19.5 18.3428 19.2977 18.8875 18.9481L16.4697 16.5303C16.329 16.3897 16.25 16.1989 16.25 16V12.5805ZM17.75 12.5805V15.6893L19.9481 17.8875C20.2977 17.3428 20.5 16.6954 20.5 16C20.5 14.3244 19.3226 12.9239 17.75 12.5805Z" fill="black"/>
</svg>
