<svg width="24" height="24" viewBox="0 0 24 24" fill="none" xmlns="http://www.w3.org/2000/svg">
<path d="M14 6.25C14 5.55964 14.5596 5 15.25 5C15.9404 5 16.5 5.55964 16.5 6.25C16.5 6.94036 15.9404 7.5 15.25 7.5C14.5596 7.5 14 6.94036 14 6.25ZM14 12C14 11.3096 14.5596 10.75 15.25 10.75C15.9404 10.75 16.5 11.3096 16.5 12C16.5 12.6904 15.9404 13.25 15.25 13.25C14.5596 13.25 14 12.6904 14 12ZM14 17.75C14 17.0596 14.5596 16.5 15.25 16.5C15.9404 16.5 16.5 17.0596 16.5 17.75C16.5 18.4404 15.9404 19 15.25 19C14.5596 19 14 18.4404 14 17.75Z" fill="black"/>
<path d="M7.5 6.25C7.5 5.55964 8.05964 5 8.75 5C9.44036 5 10 5.55964 10 6.25C10 6.94036 9.44036 7.5 8.75 7.5C8.05964 7.5 7.5 6.94036 7.5 6.25ZM7.5 12C7.5 11.3096 8.05964 10.75 8.75 10.75C9.44036 10.75 10 11.3096 10 12C10 12.6904 9.44036 13.25 8.75 13.25C8.05964 13.25 7.5 12.6904 7.5 12ZM7.5 17.75C7.5 17.0596 8.05964 16.5 8.75 16.5C9.44036 16.5 10 17.0596 10 17.75C10 18.4404 9.44036 19 8.75 19C8.05964 19 7.5 18.4404 7.5 17.75Z" fill="black"/>
</svg>
