<svg width="24" height="24" viewBox="0 0 24 24" fill="none" xmlns="http://www.w3.org/2000/svg">
<path d="M17.2976 2.54078C18.0187 1.81974 19.1877 1.81974 19.9088 2.54078L21.4592 4.09124C22.1803 4.81228 22.1803 5.98132 21.4592 6.70236L11.7024 16.4592C11.3561 16.8055 10.8865 17 10.3968 17H7.75C7.33579 17 7 16.6642 7 16.25V13.6032C7 13.1135 7.19452 12.6439 7.54078 12.2976L17.2976 2.54078ZM18.8481 3.60144C18.7128 3.46619 18.4936 3.46619 18.3583 3.60144L17.4195 4.54028L19.4597 6.58053L20.3986 5.6417C20.5338 5.50644 20.5338 5.28715 20.3986 5.1519L18.8481 3.60144ZM18.3991 7.64119L16.3588 5.60094L8.60144 13.3583C8.53649 13.4233 8.5 13.5113 8.5 13.6032V15.5H10.3968C10.4887 15.5 10.5767 15.4635 10.6417 15.3986L18.3991 7.64119ZM2 8.41667C2 5.97741 3.97741 4 6.41667 4H11.5597C11.9739 4 12.3097 4.33579 12.3097 4.75C12.3097 5.16421 11.9739 5.5 11.5597 5.5H6.41667C4.80584 5.5 3.5 6.80584 3.5 8.41667V17.5833C3.5 19.1942 4.80584 20.5 6.41667 20.5H15.5833C17.1942 20.5 18.5 19.1942 18.5 17.5833V12.4531C18.5 12.0389 18.8358 11.7031 19.25 11.7031C19.6642 11.7031 20 12.0389 20 12.4531V17.5833C20 20.0226 18.0226 22 15.5833 22H6.41667C3.97741 22 2 20.0226 2 17.5833V8.41667Z" fill="black"/>
</svg>
