<svg width="24" height="24" viewBox="0 0 24 24" fill="none" xmlns="http://www.w3.org/2000/svg">
<path d="M15.5372 3.61214C16.3534 2.79595 17.6767 2.79595 18.4929 3.61214L20.3879 5.50714C21.204 6.32333 21.204 7.64662 20.3879 8.46281L8.46281 20.3879C8.07086 20.7798 7.53927 21 6.98497 21H3.75C3.55109 21 3.36032 20.921 3.21967 20.7803C3.07902 20.6397 3 20.4489 3 20.25L3 17.015C3 16.4607 3.22019 15.9291 3.61214 15.5372L15.5372 3.61214ZM17.4322 4.6728C17.2018 4.4424 16.8283 4.4424 16.5979 4.6728L15.3325 5.93812L18.0619 8.66746L19.3272 7.40215C19.5576 7.17175 19.5576 6.7982 19.3272 6.5678L17.4322 4.6728ZM17.0012 9.72812L14.2719 6.99878L4.6728 16.5979C4.56216 16.7085 4.5 16.8586 4.5 17.015L4.5 19.5H6.98497C7.14145 19.5 7.29151 19.4378 7.40215 19.3272L17.0012 9.72812Z" fill="black"/>
</svg>
