<svg width="24" height="24" viewBox="0 0 24 24" fill="none" xmlns="http://www.w3.org/2000/svg">
<path d="M20.25 12C20.25 7.44321 16.5568 3.75 12 3.75C7.44321 3.75 3.75 7.44321 3.75 12C3.75 16.5568 7.44321 20.25 12 20.25C16.5568 20.25 20.25 16.5568 20.25 12ZM14.9727 14.1543C15.2659 13.8645 15.7385 13.8662 16.0303 14.1582C16.323 14.4512 16.3233 14.926 16.0303 15.2188L15.1143 14.3018C15.1926 14.3802 15.3134 14.5018 15.5 14.6885C15.9862 15.175 16.0262 15.2152 16.0293 15.2188V15.2197L16.0283 15.2207C16.0276 15.2214 16.0263 15.2218 16.0254 15.2227C16.0236 15.2244 16.022 15.2271 16.0195 15.2295C16.0146 15.2343 16.0076 15.2399 16 15.2471C15.9848 15.2615 15.9642 15.2808 15.9385 15.3037C15.8871 15.3496 15.8149 15.4112 15.7227 15.4834C15.5381 15.6277 15.271 15.8163 14.9287 16.0029C14.2444 16.3759 13.2465 16.75 12 16.75C10.7528 16.75 9.75463 16.3761 9.07031 16.0029C8.7281 15.8163 8.46181 15.6277 8.27734 15.4834C8.18494 15.4111 8.11192 15.3496 8.06055 15.3037C8.03492 15.2808 8.01422 15.2615 7.99902 15.2471C7.99162 15.2401 7.98535 15.2342 7.98047 15.2295C7.97807 15.2272 7.97639 15.2244 7.97461 15.2227C7.97379 15.2218 7.97237 15.2214 7.97168 15.2207L7.96973 15.2188L7.91797 15.1611C7.67792 14.8666 7.69522 14.4317 7.96973 14.1572C8.26158 13.8656 8.73429 13.8647 9.02734 14.1543L9.03125 14.1582C9.03633 14.163 9.04616 14.1727 9.06055 14.1855C9.0895 14.2114 9.13662 14.2522 9.20117 14.3027C9.33101 14.4043 9.52908 14.5443 9.78809 14.6855C10.3068 14.9684 11.0593 15.25 12 15.25C12.9401 15.25 13.692 14.9684 14.2109 14.6855C14.4703 14.5442 14.6688 14.4034 14.7988 14.3018C14.8635 14.2512 14.9105 14.2104 14.9395 14.1846C14.9537 14.1719 14.9636 14.1631 14.9688 14.1582C14.9707 14.1563 14.9721 14.1548 14.9727 14.1543ZM7.75 10V9C7.75 8.58579 8.08579 8.25 8.5 8.25C8.91421 8.25 9.25 8.58579 9.25 9V10C9.25 10.4142 8.91421 10.75 8.5 10.75C8.08579 10.75 7.75 10.4142 7.75 10ZM14.75 10V9C14.75 8.58579 15.0858 8.25 15.5 8.25C15.9142 8.25 16.25 8.58579 16.25 9V10C16.25 10.4142 15.9142 10.75 15.5 10.75C15.0858 10.75 14.75 10.4142 14.75 10ZM21.75 12C21.75 17.3852 17.3852 21.75 12 21.75C6.61479 21.75 2.25 17.3852 2.25 12C2.25 6.61479 6.61479 2.25 12 2.25C17.3852 2.25 21.75 6.61479 21.75 12Z" fill="black"/>
</svg>
