<svg width="24" height="24" viewBox="0 0 24 24" fill="none" xmlns="http://www.w3.org/2000/svg">
<path d="M2 4.80556C2 3.25066 3.26865 2 4.82143 2H15.1786C16.7314 2 18 3.25066 18 4.80556V10.25C18 10.6642 17.6642 11 17.25 11C16.8358 11 16.5 10.6642 16.5 10.25V4.80556C16.5 4.08995 15.9138 3.5 15.1786 3.5H4.82143C4.08617 3.5 3.5 4.08995 3.5 4.80556V19.1944C3.5 19.9101 4.08617 20.5 4.82143 20.5H11.25C11.6642 20.5 12 20.8358 12 21.25C12 21.6642 11.6642 22 11.25 22H4.82143C3.26865 22 2 20.7493 2 19.1944V4.80556ZM6.27507 6.16953C6.59566 5.90724 7.06817 5.95449 7.33047 6.27507L9 8.31561L10.6695 6.27507C10.9318 5.95449 11.4043 5.90724 11.7249 6.16953C12.0455 6.43183 12.0928 6.90434 11.8305 7.22493L9.96905 9.5L11.8305 11.7751C12.0928 12.0957 12.0455 12.5682 11.7249 12.8305C11.4043 13.0928 10.9318 13.0455 10.6695 12.7249L9 10.6844L7.33047 12.7249C7.06817 13.0455 6.59566 13.0928 6.27507 12.8305C5.95449 12.5682 5.90724 12.0957 6.16953 11.7751L8.03095 9.5L6.16953 7.22493C5.90724 6.90434 5.95449 6.43183 6.27507 6.16953ZM13 18C13 15.2386 15.2386 13 18 13C20.7614 13 23 15.2386 23 18C23 20.7614 20.7614 23 18 23C15.2386 23 13 20.7614 13 18ZM18 14.5C16.067 14.5 14.5 16.067 14.5 18C14.5 19.933 16.067 21.5 18 21.5C19.933 21.5 21.5 19.933 21.5 18C21.5 16.067 19.933 14.5 18 14.5ZM18.0005 15.4968C18.4147 15.4968 18.7505 15.8326 18.7505 16.2468V18.0566L19.2487 17.6032C19.555 17.3244 20.0294 17.3467 20.3082 17.653C20.587 17.9594 20.5646 18.4337 20.2583 18.7125L18.5053 20.3079C18.2192 20.5683 17.782 20.5683 17.4958 20.3081L15.7418 18.7127C15.4353 18.434 15.4129 17.9596 15.6916 17.6532C15.9703 17.3468 16.4446 17.3243 16.751 17.603L17.2505 18.0573V16.2468C17.2505 15.8326 17.5863 15.4968 18.0005 15.4968Z" fill="black"/>
</svg>
