<svg width="24" height="24" viewBox="0 0 24 24" fill="none" xmlns="http://www.w3.org/2000/svg">
<path d="M13.7679 2.75C13.7679 2.33579 14.1037 2 14.5179 2H21.2499C21.6641 2 21.9999 2.33579 21.9999 2.75V9.48199C21.9999 9.8962 21.6641 10.232 21.2499 10.232C20.8357 10.232 20.4999 9.8962 20.4999 9.48199V4.56066L10.5313 14.5293C10.2384 14.8222 9.76354 14.8222 9.47065 14.5293C9.17775 14.2364 9.17775 13.7615 9.47065 13.4686L19.4393 3.5H14.5179C14.1037 3.5 13.7679 3.16421 13.7679 2.75ZM2 10.0962C2 7.83391 3.83391 6 6.09615 6H9.25C9.66421 6 10 6.33579 10 6.75C10 7.16421 9.66421 7.5 9.25 7.5H6.09615C4.66234 7.5 3.5 8.66234 3.5 10.0962V17.9038C3.5 19.3377 4.66234 20.5 6.09615 20.5H13.9038C15.3377 20.5 16.5 19.3377 16.5 17.9038V14.75C16.5 14.3358 16.8358 14 17.25 14C17.6642 14 18 14.3358 18 14.75V17.9038C18 20.1661 16.1661 22 13.9038 22H6.09615C3.83391 22 2 20.1661 2 17.9038V10.0962Z" fill="black"/>
</svg>
