<svg width="24" height="24" viewBox="0 0 24 24" fill="none" xmlns="http://www.w3.org/2000/svg">
<path d="M12 6.5C8.88697 6.5 5.72007 8.21972 3.6816 11.3942C3.43947 11.7712 3.43947 12.2287 3.6816 12.6058C5.72007 15.7802 8.88698 17.5 12 17.5C15.113 17.5 18.2799 15.7802 20.3184 12.6058C20.5605 12.2287 20.5605 11.7712 20.3184 11.3942C18.2799 8.21972 15.113 6.5 12 6.5ZM2.41943 10.5837C4.70533 7.02389 8.32572 5 12 5C15.6743 5 19.2947 7.02389 21.5806 10.5837C22.1398 11.4545 22.1398 12.5454 21.5806 13.4163C19.2947 16.976 15.6743 19 12 19C8.32572 19 4.70532 16.976 2.41943 13.4163C1.86019 12.5454 1.86019 11.4545 2.41943 10.5837ZM12 10C10.8954 10 10 10.8954 10 12C10 13.1046 10.8954 14 12 14C13.1046 14 14 13.1046 14 12C14 10.8954 13.1046 10 12 10ZM8.5 12C8.5 10.067 10.067 8.5 12 8.5C13.933 8.5 15.5 10.067 15.5 12C15.5 13.933 13.933 15.5 12 15.5C10.067 15.5 8.5 13.933 8.5 12Z" fill="black"/>
</svg>
