<svg width="24" height="24" viewBox="0 0 24 24" fill="none" xmlns="http://www.w3.org/2000/svg">
<path d="M2.21967 2.21967C2.51256 1.92678 2.98744 1.92678 3.28033 2.21967L7.57843 6.51777C7.6091 6.54379 7.63791 6.57251 7.66448 6.60382L10.5814 9.52069C10.5828 9.52215 10.5843 9.52362 10.5858 9.52509C10.5873 9.52656 10.5887 9.52804 10.5902 9.52952L14.4705 13.4099C14.472 13.4113 14.4734 13.4127 14.4749 13.4142C14.4763 13.4156 14.4778 13.4171 14.4792 13.4185L17.3964 16.3358C17.4271 16.3618 17.4559 16.3905 17.4825 16.4218L21.7803 20.7197C22.0732 21.0126 22.0732 21.4874 21.7803 21.7803C21.4874 22.0732 21.0126 22.0732 20.7197 21.7803L16.7733 17.834C15.2684 18.5967 13.6383 19 12 19C8.32572 19 4.70532 16.976 2.41943 13.4163C1.86019 12.5454 1.86019 11.4545 2.41943 10.5837C3.3765 9.09324 4.56623 7.87291 5.89646 6.95713L2.21967 3.28033C1.92678 2.98744 1.92678 2.51256 2.21967 2.21967ZM6.97772 8.03838C5.72465 8.85212 4.5903 9.97908 3.6816 11.3942C3.43947 11.7712 3.43947 12.2287 3.6816 12.6058C5.72007 15.7802 8.88698 17.5 12 17.5C13.2332 17.5 14.4729 17.2308 15.6479 16.7086L13.8876 14.9482C12.5328 15.8174 10.7099 15.6596 9.52513 14.4748C8.34033 13.29 8.18254 11.4672 9.05174 10.1124L6.97772 8.03838ZM10.1582 11.2189C9.84977 11.947 9.99229 12.8207 10.5858 13.4142C11.1793 14.0077 12.053 14.1502 12.7811 13.8417L10.1582 11.2189ZM12 6.5C11.531 6.5 11.0614 6.5389 10.5947 6.61579C10.186 6.68314 9.80011 6.40641 9.73276 5.99771C9.66542 5.589 9.94215 5.20309 10.3508 5.13575C10.8968 5.0458 11.448 5 12 5C15.6743 5 19.2947 7.02389 21.5806 10.5837C22.1398 11.4545 22.1398 12.5454 21.5806 13.4163C21.1135 14.1437 20.591 14.8068 20.0237 15.4016C19.7378 15.7013 19.263 15.7125 18.9633 15.4267C18.6636 15.1408 18.6523 14.666 18.9382 14.3663C19.4387 13.8415 19.9022 13.2539 20.3184 12.6058C20.5605 12.2287 20.5605 11.7712 20.3184 11.3942C18.2799 8.21972 15.113 6.5 12 6.5Z" fill="black"/>
</svg>
