<svg width="24" height="24" viewBox="0 0 24 24" fill="none" xmlns="http://www.w3.org/2000/svg">
<path d="M16.2803 2.21747C16.5732 2.51037 16.5732 2.98524 16.2803 3.27813L15.0604 4.49803L17.1389 4.49829C19.8236 4.49834 22 6.67472 22 9.3594V14.6416C22 17.3263 19.8236 19.5027 17.1389 19.5027H14.2756C13.8613 19.5027 13.5256 19.167 13.5256 18.7527C13.5256 18.3385 13.8613 18.0027 14.2756 18.0027H17.1389C18.9952 18.0027 20.5 16.4979 20.5 14.6416V9.3594C20.5 7.50311 18.9952 5.99829 17.1389 5.99829L13.2499 5.9978C12.9466 5.99776 12.6731 5.81502 12.5571 5.53477C12.441 5.25452 12.5052 4.93196 12.7197 4.71747L15.2197 2.21747C15.5126 1.92458 15.9874 1.92458 16.2803 2.21747ZM6.86111 5.99731C5.00482 5.99731 3.5 7.50214 3.5 9.35843V14.6406C3.5 16.4969 5.00482 18.0018 6.86111 18.0018L10.7501 18.0023C11.0534 18.0023 11.3269 18.185 11.4429 18.4653C11.559 18.7455 11.4948 19.0681 11.2803 19.2826L8.78033 21.7826C8.48744 22.0755 8.01256 22.0755 7.71967 21.7826C7.42678 21.4897 7.42678 21.0148 7.71967 20.7219L8.93957 19.502L6.86111 19.5018C4.17644 19.5017 2 17.3253 2 14.6406V9.35843C2 6.67371 4.17639 4.49731 6.86111 4.49731H9.72444C10.1387 4.49731 10.4744 4.8331 10.4744 5.24731C10.4744 5.66153 10.1387 5.99731 9.72444 5.99731H6.86111ZM9.1057 8.61201C9.32681 8.47536 9.60292 8.46293 9.83541 8.57918L15.3354 11.3292C15.5895 11.4562 15.75 11.7159 15.75 12C15.75 12.2841 15.5895 12.5438 15.3354 12.6708L9.83541 15.4208C9.60292 15.5371 9.32681 15.5246 9.1057 15.388C8.88459 15.2513 8.75 15.0099 8.75 14.75V9.25C8.75 8.99007 8.88459 8.74867 9.1057 8.61201ZM10.25 10.4635V13.5365L13.3229 12L10.25 10.4635Z" fill="black"/>
</svg>
