<svg width="24" height="24" viewBox="0 0 24 24" fill="none" xmlns="http://www.w3.org/2000/svg">
<path d="M2 4.75C2 3.23122 3.23122 2 4.75 2H19.25C20.7688 2 22 3.23122 22 4.75V13.25C22 13.6642 21.6642 14 21.25 14C20.8358 14 20.5 13.6642 20.5 13.25V4.75C20.5 4.05964 19.9404 3.5 19.25 3.5H4.75C4.05964 3.5 3.5 4.05964 3.5 4.75V14.25C3.5 14.9404 4.05964 15.5 4.75 15.5H7.75C8.16421 15.5 8.5 15.8358 8.5 16.25C8.5 16.6642 8.16421 17 7.75 17H4.75C3.23122 17 2 15.7688 2 14.25V4.75ZM16 6.25C16 5.83579 16.3358 5.5 16.75 5.5H18.25C18.6642 5.5 19 5.83579 19 6.25C19 6.66421 18.6642 7 18.25 7H16.75C16.3358 7 16 6.66421 16 6.25ZM12 8C11.1716 8 10.5 8.67157 10.5 9.5C10.5 10.1222 10.879 10.6576 11.4217 10.8847C11.8038 11.0445 11.9839 11.4839 11.8241 11.866C11.6642 12.2481 11.2248 12.4283 10.8427 12.2684C9.76176 11.8162 9 10.7479 9 9.5C9 7.84315 10.3431 6.5 12 6.5C13.2979 6.5 14.4015 7.32382 14.82 8.47465C14.9616 8.86393 14.7607 9.29425 14.3715 9.43582C13.9822 9.57738 13.5519 9.37657 13.4103 8.9873C13.2005 8.41025 12.6472 8 12 8ZM15.5869 12.5C15.1481 12.5 14.7924 12.8557 14.7924 13.2945V17.4131C14.7924 17.7163 14.6099 17.9896 14.3299 18.1058C14.0499 18.222 13.7275 18.1583 13.5128 17.9442L12.827 17.2605L12.8263 17.2597C12.5229 16.9563 12.031 16.9563 11.7276 17.2597C11.4241 17.5631 11.4241 18.055 11.7276 18.3584L14.0888 20.7197C14.3817 21.0126 14.3817 21.4874 14.0888 21.7803C13.7959 22.0732 13.321 22.0732 13.0281 21.7803L10.6669 19.4191C9.7777 18.5299 9.7777 17.0882 10.6669 16.199C11.3773 15.4887 12.4402 15.3458 13.2924 15.7704V13.2945C13.2924 12.0273 14.3197 11 15.5869 11C16.8541 11 17.8814 12.0273 17.8814 13.2945V15.2383C17.9387 15.2486 17.9985 15.2595 18.0602 15.271C18.5085 15.3538 19.0752 15.4649 19.5016 15.5715C19.6866 15.6177 19.8836 15.6727 20.077 15.7297C21.2559 16.0772 22 17.1735 22 18.3544V21.25C22 21.6642 21.6642 22 21.25 22C20.8358 22 20.5 21.6642 20.5 21.25V18.3544C20.5 17.79 20.1483 17.3145 19.653 17.1685C19.4723 17.1153 19.2964 17.0664 19.1378 17.0267C18.76 16.9323 18.2326 16.8282 17.7877 16.746C17.5678 16.7054 17.3725 16.6709 17.2322 16.6466C17.1621 16.6345 17.1059 16.6249 17.0674 16.6184L17.0233 16.611L17.0095 16.6087C16.6475 16.5487 16.3814 16.2355 16.3814 15.8686V13.2945C16.3814 12.8557 16.0257 12.5 15.5869 12.5ZM5 12.75C5 12.3358 5.33579 12 5.75 12H7.25C7.66421 12 8 12.3358 8 12.75C8 13.1642 7.66421 13.5 7.25 13.5H5.75C5.33579 13.5 5 13.1642 5 12.75Z" fill="black"/>
</svg>
