<svg width="24" height="24" viewBox="0 0 24 24" fill="none" xmlns="http://www.w3.org/2000/svg">
<path d="M16.2803 2.21772C16.5732 2.51061 16.5732 2.98548 16.2803 3.27838L15.0604 4.49827L17.1389 4.49854C19.8236 4.49859 22 6.67496 22 9.35965V14.6419C22 15.3361 21.854 15.9982 21.5904 16.5976C21.4236 16.9767 20.981 17.1489 20.6019 16.9821C20.2227 16.8153 20.0506 16.3728 20.2173 15.9936C20.3989 15.5809 20.5 15.1242 20.5 14.6419V9.35965C20.5 7.50336 18.9952 5.99854 17.1389 5.99854L13.2499 5.99805C12.9466 5.99801 12.6731 5.81526 12.5571 5.53502C12.441 5.25477 12.5052 4.9322 12.7197 4.71772L15.2197 2.21772C15.5126 1.92482 15.9874 1.92482 16.2803 2.21772ZM2.21967 2.21967C2.51256 1.92678 2.98744 1.92678 3.28033 2.21967L21.7803 20.7197C22.0732 21.0126 22.0732 21.4874 21.7803 21.7803C21.4874 22.0732 21.0126 22.0732 20.7197 21.7803L18.302 19.3627C17.9287 19.4544 17.539 19.5029 17.1387 19.5029H14.2754C13.8612 19.5029 13.5254 19.1671 13.5254 18.7529C13.5254 18.3387 13.8612 18.0029 14.2754 18.0029H16.9423L5.31311 6.37377C4.23509 6.93411 3.5 8.06107 3.5 9.35819V14.6404C3.5 16.4967 5.00482 18.0015 6.86111 18.0015L10.7501 18.002C11.0534 18.0021 11.3269 18.1848 11.4429 18.465C11.559 18.7453 11.4948 19.0679 11.2803 19.2823L8.78033 21.7823C8.48744 22.0752 8.01256 22.0752 7.71967 21.7823C7.42678 21.4894 7.42678 21.0146 7.71967 20.7217L8.93957 19.5018L6.86111 19.5015C4.17644 19.5015 2 17.3251 2 14.6404V9.35819C2 7.64751 2.88338 6.14442 4.21758 5.27824L2.21967 3.28033C1.92678 2.98744 1.92678 2.51256 2.21967 2.21967Z" fill="black"/>
</svg>
