<svg width="24" height="24" viewBox="0 0 24 24" fill="none" xmlns="http://www.w3.org/2000/svg">
<path d="M16.2803 2.21772C16.5732 2.51061 16.5732 2.98548 16.2803 3.27838L15.0604 4.49827L17.1389 4.49854C19.8236 4.49859 22 6.67496 22 9.35965V14.6419C22 17.3266 19.8236 19.503 17.1389 19.503H14.2756C13.8613 19.503 13.5256 19.1672 13.5256 18.753C13.5256 18.3388 13.8613 18.003 14.2756 18.003H17.1389C18.9952 18.003 20.5 16.4982 20.5 14.6419V9.35965C20.5 7.50336 18.9952 5.99854 17.1389 5.99854L13.2499 5.99805C12.9466 5.99801 12.6731 5.81526 12.5571 5.53502C12.441 5.25477 12.5052 4.9322 12.7197 4.71772L15.2197 2.21772C15.5126 1.92482 15.9874 1.92482 16.2803 2.21772ZM6.86111 5.99707C5.00482 5.99707 3.5 7.50189 3.5 9.35818V14.6404C3.5 16.4967 5.00482 18.0015 6.86111 18.0015L10.7501 18.002C11.0534 18.002 11.3269 18.1848 11.4429 18.465C11.559 18.7453 11.4948 19.0679 11.2803 19.2823L8.78033 21.7823C8.48744 22.0752 8.01256 22.0752 7.71967 21.7823C7.42678 21.4894 7.42678 21.0146 7.71967 20.7217L8.93957 19.5018L6.86111 19.5015C4.17644 19.5015 2 17.3251 2 14.6404V9.35818C2 6.67347 4.17639 4.49707 6.86111 4.49707H9.72444C10.1387 4.49707 10.4744 4.83286 10.4744 5.24707C10.4744 5.66128 10.1387 5.99707 9.72444 5.99707H6.86111ZM10 8.5C10.4142 8.5 10.75 8.83579 10.75 9.25V14.75C10.75 15.1642 10.4142 15.5 10 15.5C9.58579 15.5 9.25 15.1642 9.25 14.75V9.25C9.25 8.83579 9.58579 8.5 10 8.5ZM14 8.5C14.4142 8.5 14.75 8.83579 14.75 9.25V14.75C14.75 15.1642 14.4142 15.5 14 15.5C13.5858 15.5 13.25 15.1642 13.25 14.75V9.25C13.25 8.83579 13.5858 8.5 14 8.5Z" fill="black"/>
</svg>
