<svg width="24" height="24" viewBox="0 0 24 24" fill="none" xmlns="http://www.w3.org/2000/svg">
<path d="M4 6.75C4 6.33579 4.33579 6 4.75 6H19.25C19.6642 6 20 6.33579 20 6.75C20 7.16421 19.6642 7.5 19.25 7.5H4.75C4.33579 7.5 4 7.16421 4 6.75ZM6 12C6 12.4142 6.33579 12.75 6.75 12.75H17.25C17.6642 12.75 18 12.4142 18 12C18 11.5858 17.6642 11.25 17.25 11.25H6.75C6.33579 11.25 6 11.5858 6 12ZM8 17.25C8 16.8358 8.33579 16.5 8.75 16.5H15.25C15.6642 16.5 16 16.8358 16 17.25C16 17.6642 15.6642 18 15.25 18H8.75C8.33579 18 8 17.6642 8 17.25Z" fill="black"/>
</svg>
