<svg width="24" height="24" viewBox="0 0 24 24" fill="none" xmlns="http://www.w3.org/2000/svg">
<path d="M2.07627 2.42049C2.20212 2.16316 2.46356 2 2.75001 2H21.25C21.5365 2 21.7979 2.16316 21.9237 2.42049C22.0496 2.67781 22.0179 2.98435 21.842 3.21046L14.8056 12.2573V21.25C14.8056 21.5099 14.671 21.7513 14.4499 21.888C14.2287 22.0246 13.9526 22.0371 13.7202 21.9208L9.60904 19.8653C9.35495 19.7382 9.19445 19.4785 9.19445 19.1944V12.2573L2.15799 3.21046C1.98213 2.98435 1.95042 2.67781 2.07627 2.42049ZM4.28349 3.5L10.5365 11.5395C10.6389 11.6712 10.6945 11.8332 10.6945 12V18.7309L13.3056 20.0365V12C13.3056 11.8332 13.3612 11.6712 13.4635 11.5395L19.7165 3.5H4.28349Z" fill="black"/>
</svg>
