<svg width="24" height="24" viewBox="0 0 24 24" fill="none" xmlns="http://www.w3.org/2000/svg">
<path d="M14.302 2.87875C14.0065 2.50134 13.6 2.22613 13.1398 2.09185C12.8006 1.99289 12.4317 2.00012 12 2.00012C11.5682 2.00012 11.1993 1.99289 10.8601 2.09185C10.3999 2.22613 9.99344 2.50134 9.69785 2.87875C9.49401 3.13902 9.36684 3.45796 9.21995 3.82634L9.18936 3.90298C9.08122 4.17333 8.78109 4.31252 8.50486 4.22045L7.8473 4.00121C7.50214 3.88577 7.20289 3.78568 6.89684 3.76785C6.45138 3.7419 6.00804 3.84656 5.62122 4.06899C5.35545 4.2218 5.13254 4.44516 4.87546 4.70276L4.82234 4.75595L4.76557 4.81264C4.49209 5.08554 4.25523 5.3219 4.09812 5.6042C3.86943 6.0151 3.77269 6.48641 3.82103 6.95417C3.85423 7.27553 3.97884 7.5861 4.1227 7.94465L4.15255 8.01912C4.28699 8.35521 4.15763 8.7392 3.84723 8.92544L3.4872 9.14138C3.12428 9.35855 2.80856 9.54748 2.57063 9.81806C2.362 10.0553 2.20468 10.3332 2.10856 10.6342C1.99894 10.9774 1.99937 11.348 1.99988 11.7746L1.99994 11.8627L1.99985 11.968C1.99916 12.4715 1.99857 12.9079 2.1445 13.2991C2.27224 13.6414 2.48 13.9483 2.75045 14.1941C3.0594 14.4748 3.46201 14.6352 3.92558 14.8199L4.02197 14.8584C4.22559 14.9398 4.3305 15.1659 4.26115 15.3739L4.01387 16.1156C3.8864 16.4966 3.77576 16.8273 3.76531 17.1659C3.75286 17.5693 3.84719 17.9689 4.03875 18.3242C4.19953 18.6224 4.44638 18.8687 4.73076 19.1525L4.78948 19.2111L4.84811 19.2698C5.13188 19.5542 5.37816 19.801 5.67638 19.9618C6.03166 20.1534 6.43123 20.2477 6.83466 20.2353C7.17331 20.2248 7.50395 20.1142 7.88496 19.9867L8.50499 19.7799C8.78116 19.6878 9.08124 19.827 9.18936 20.0973L9.21995 20.1739C9.36684 20.5423 9.49401 20.8612 9.69785 21.1215C9.99344 21.4989 10.3999 21.7741 10.8601 21.9084C11.1993 22.0073 11.5681 22.0001 12 22.0001C12.4318 22.0001 12.8006 22.0073 13.1398 21.9084C13.6 21.7741 14.0065 21.4989 14.302 21.1215C14.5059 20.8612 14.6331 20.5423 14.7799 20.1739L14.8105 20.0973C14.9187 19.827 15.2187 19.6878 15.4949 19.7799L16.1149 19.9867C16.4959 20.1142 16.8266 20.2248 17.1652 20.2353C17.5687 20.2477 17.9682 20.1534 18.3235 19.9618C18.6217 19.801 18.868 19.5542 19.1518 19.2698L19.2104 19.2111L19.2691 19.1525C19.5535 18.8687 19.8004 18.6224 19.9612 18.3242C20.1527 17.9689 20.247 17.5693 20.2346 17.1659C20.2241 16.8273 20.1135 16.4966 19.986 16.1156L19.7388 15.3739C19.6694 15.1659 19.7743 14.9398 19.9779 14.8584L20.0743 14.8199C20.5379 14.6352 20.9405 14.4748 21.2495 14.1941C21.5199 13.9483 21.7277 13.6414 21.8554 13.2991C22.0013 12.9079 22.0007 12.4715 22.0001 11.968L22 11.8627L22 11.7746C22.0005 11.348 22.001 10.9774 21.8913 10.6342C21.7952 10.3332 21.6379 10.0553 21.4293 9.81806C21.1913 9.54748 20.8756 9.35855 20.5127 9.14138L20.1527 8.92544C19.8423 8.7392 19.7129 8.35521 19.8474 8.01912L19.8772 7.94465C20.0211 7.5861 20.1457 7.27553 20.1789 6.95417C20.2272 6.48641 20.1305 6.0151 19.9018 5.6042C19.7447 5.3219 19.5078 5.08554 19.2343 4.81264L19.1776 4.75595L19.1244 4.70276C18.8674 4.44516 18.6445 4.2218 18.3787 4.06899C17.9919 3.84656 17.5485 3.7419 17.1031 3.76785C16.797 3.78568 16.4978 3.88577 16.1526 4.00121L15.495 4.22045C15.2188 4.31252 14.9187 4.17333 14.8105 3.90298L14.7799 3.82634C14.6331 3.45795 14.5059 3.13903 14.302 2.87875ZM12 20.5001C11.4741 20.5001 11.3641 20.4929 11.2803 20.4684C11.1213 20.422 10.9809 20.327 10.8788 20.1966C10.8249 20.1278 10.7774 20.0284 10.5821 19.5402C10.179 18.5324 9.06014 18.0136 8.03048 18.3569L7.48933 18.5374C6.98497 18.7055 6.87809 18.7332 6.7884 18.736C6.64903 18.7403 6.51099 18.7077 6.38827 18.6415C6.30928 18.5989 6.22606 18.5263 5.85014 18.1504C5.47423 17.7745 5.40164 17.6913 5.35906 17.6123C5.29289 17.4896 5.2603 17.3515 5.2646 17.2122C5.26737 17.1225 5.29507 17.0156 5.46318 16.5112L5.68417 15.8483C6.00469 14.8867 5.52012 13.842 4.57906 13.4657C3.96364 13.2195 3.84083 13.1581 3.75921 13.0839C3.66578 12.999 3.59401 12.893 3.54988 12.7748C3.51141 12.6716 3.49994 12.5325 3.49994 11.8627C3.49994 11.298 3.50843 11.1814 3.53747 11.0905C3.57067 10.9865 3.62502 10.8905 3.69709 10.8086C3.76025 10.7367 3.85419 10.6705 4.33339 10.383L4.61897 10.2117C5.56069 9.64665 5.95313 8.4817 5.54526 7.46203C5.35517 6.98679 5.32186 6.88497 5.31308 6.80001C5.29639 6.63841 5.32981 6.4756 5.40881 6.33365C5.45034 6.25901 5.52106 6.17855 5.883 5.81661C6.22333 5.47628 6.29854 5.40982 6.36893 5.36934C6.50256 5.2925 6.65571 5.25635 6.8096 5.26531C6.89066 5.27004 6.98764 5.29584 7.44426 5.44805L8.03052 5.64347C9.06021 5.9867 10.179 5.46782 10.5821 4.46006C10.7774 3.97183 10.8249 3.87241 10.8788 3.80365C10.9809 3.67327 11.1213 3.5782 11.2803 3.53181C11.3641 3.50734 11.4741 3.50012 12 3.50012C12.5258 3.50012 12.6358 3.50734 12.7196 3.53181C12.8786 3.5782 13.019 3.67327 13.1211 3.80365C13.175 3.87241 13.2225 3.97183 13.4178 4.46006C13.8209 5.46782 14.9397 5.9867 15.9694 5.64347L16.5556 5.44805C17.0123 5.29584 17.1092 5.27004 17.1903 5.26531C17.3442 5.25635 17.4973 5.2925 17.631 5.36934C17.7014 5.40982 17.7766 5.47628 18.1169 5.81661C18.4788 6.17855 18.5496 6.25901 18.5911 6.33365C18.6701 6.4756 18.7035 6.63841 18.6868 6.80001C18.678 6.88497 18.6447 6.98679 18.4546 7.46203C18.0468 8.4817 18.4392 9.64665 19.3809 10.2117L19.6665 10.383C20.1457 10.6705 20.2397 10.7367 20.3028 10.8086C20.3749 10.8905 20.4292 10.9865 20.4624 11.0905C20.4915 11.1814 20.5 11.298 20.5 11.8627C20.5 12.5325 20.4885 12.6716 20.45 12.7748C20.4059 12.893 20.3341 12.999 20.2407 13.0839C20.1591 13.1581 20.0363 13.2195 19.4208 13.4657C18.4798 13.842 17.9952 14.8867 18.3157 15.8483L18.5367 16.5112C18.7048 17.0156 18.7325 17.1225 18.7353 17.2122C18.7396 17.3515 18.707 17.4896 18.6408 17.6123C18.5983 17.6913 18.5257 17.7745 18.1498 18.1504C17.7738 18.5263 17.6906 18.5989 17.6116 18.6415C17.4889 18.7077 17.3509 18.7403 17.2115 18.736C17.1218 18.7332 17.0149 18.7055 16.5106 18.5374L15.9694 18.3569C14.9398 18.0136 13.8209 18.5324 13.4178 19.5402C13.2225 20.0284 13.175 20.1278 13.1211 20.1966C13.019 20.327 12.8786 20.422 12.7196 20.4684C12.6358 20.4929 12.5258 20.5001 12 20.5001Z" fill="black"/>
<path d="M11.9999 8C9.7908 8 7.99994 9.79086 7.99994 12C7.99994 14.2091 9.7908 16 11.9999 16C14.2091 16 15.9999 14.2091 15.9999 12C15.9999 9.79086 14.2091 8 11.9999 8ZM11.9999 9.5C13.3807 9.5 14.4999 10.6193 14.4999 12C14.4999 13.3807 13.3807 14.5 11.9999 14.5C10.6192 14.5 9.49994 13.3807 9.49994 12C9.49994 10.6193 10.6192 9.5 11.9999 9.5Z" fill="black"/>
</svg>
