<svg width="20" height="20" viewBox="0 0 20 20" fill="none" xmlns="http://www.w3.org/2000/svg">
<path fill-rule="evenodd" clip-rule="evenodd" d="M16.75 0C18.2692 0 19.5 1.23079 19.5 2.75V16.75C19.5 18.2692 18.2692 19.5 16.75 19.5H2.75C1.23079 19.5 0 18.2692 0 16.75V2.75C0 1.23079 1.23079 0 2.75 0H16.75ZM2.75 1.5C2.05921 1.5 1.5 2.05921 1.5 2.75V16.75C1.5 17.4408 2.05921 18 2.75 18H6V1.5H2.75ZM13.5 18H16.75C17.4408 18 18 17.4408 18 16.75V2.75C18 2.05921 17.4408 1.5 16.75 1.5H13.5V18ZM7.5 18H12V1.5H7.5V18Z" fill="black"/>
</svg>
