<svg width="24" height="24" viewBox="0 0 24 24" fill="none" xmlns="http://www.w3.org/2000/svg">
<path d="M4.75 2C3.23122 2 2 3.23122 2 4.75V19.25C2 20.7688 3.23122 22 4.75 22H10.25C10.6642 22 11 21.6642 11 21.25C11 20.8358 10.6642 20.5 10.25 20.5H4.75C4.05964 20.5 3.5 19.9404 3.5 19.25V4.75C3.5 4.05964 4.05964 3.5 4.75 3.5H15.25C15.9404 3.5 16.5 4.05964 16.5 4.75V12.25C16.5 12.6642 16.8358 13 17.25 13C17.6642 13 18 12.6642 18 12.25V4.75C18 3.23122 16.7688 2 15.25 2H4.75Z" fill="black"/>
<path d="M5.5 13.75C5.5 13.3358 5.83579 13 6.25 13H11.75C12.1642 13 12.5 13.3358 12.5 13.75C12.5 14.1642 12.1642 14.5 11.75 14.5H6.25C5.83579 14.5 5.5 14.1642 5.5 13.75Z" fill="black"/>
<path d="M5.5 17.25C5.5 16.8358 5.83579 16.5 6.25 16.5H9.75C10.1642 16.5 10.5 16.8358 10.5 17.25C10.5 17.6642 10.1642 18 9.75 18H6.25C5.83579 18 5.5 17.6642 5.5 17.25Z" fill="black"/>
<path d="M18.9519 13.6945C19.878 12.7685 21.3794 12.7685 22.3055 13.6945C23.2315 14.6206 23.2315 16.122 22.3055 17.0481L17.2855 22.068C16.6888 22.6648 15.8794 23 15.0355 23H13.75C13.3358 23 13 22.6642 13 22.25V20.9645C13 20.1206 13.3352 19.3112 13.932 18.7145L18.9519 13.6945ZM21.2448 14.7552C20.9045 14.4149 20.3528 14.4149 20.0126 14.7552L14.9926 19.7751C14.6772 20.0906 14.5 20.5184 14.5 20.9645V21.5H15.0355C15.4816 21.5 15.9094 21.3228 16.2249 21.0074L21.2448 15.9874C21.5851 15.6472 21.5851 15.0955 21.2448 14.7552Z" fill="black"/>
<path d="M9.99947 5C9.8568 5 9.7141 5.01732 9.57457 5.05197C9.55198 5.05758 9.52967 5.06424 9.5077 5.07193L8.14559 5.54843C7.61254 5.70008 7.23635 6.18659 7.23634 6.74999L7.23633 7.73229C7.23633 8.12434 7.29284 8.54938 7.4612 8.96083C7.68917 9.51794 7.9571 9.92492 8.30599 10.2375C8.64439 10.5408 9.0165 10.7139 9.34375 10.8602C9.5526 10.9536 9.77639 11 9.99948 11C10.2226 11 10.4464 10.9536 10.6553 10.8602C10.9825 10.7138 11.3546 10.5407 11.693 10.2375C12.0419 9.9249 12.3098 9.51792 12.5378 8.96083C12.7061 8.54938 12.7626 8.12435 12.7626 7.7323V6.75C12.7626 6.18659 12.3865 5.70008 11.8534 5.54843L10.4913 5.07193C10.4693 5.06424 10.447 5.05758 10.4244 5.05197C10.2849 5.01732 10.1421 5 9.99947 5ZM11.2626 6.93091V7.7323C11.2626 7.98514 11.2256 8.20678 11.1495 8.39275C10.9824 8.8011 10.8288 8.99784 10.692 9.1204C10.5447 9.25236 10.3671 9.34591 10.0429 9.4909C10.0298 9.49676 10.015 9.5 9.99947 9.5C9.98397 9.5 9.96918 9.49676 9.95613 9.49092C9.63192 9.34593 9.45427 9.25238 9.307 9.12042C9.17022 8.99785 9.01657 8.80111 8.84947 8.39275C8.77338 8.20679 8.73633 7.98514 8.73633 7.7323L8.73634 6.93091L9.95927 6.50309C9.97258 6.50103 9.98602 6.5 9.99948 6.5C10.0129 6.5 10.0264 6.50103 10.0397 6.50309L11.2626 6.93091Z" fill="black"/>
</svg>
