<svg width="24" height="24" viewBox="0 0 24 24" fill="none" xmlns="http://www.w3.org/2000/svg">
<path d="M9.47448 3.79824C10.4494 3.40056 11.5504 3.40054 12.5253 3.79816L17.6795 5.90807C17.865 5.98372 18.0792 6.15857 18.2491 6.41005C18.4189 6.66136 18.4998 6.92223 18.5 7.11971L18.4954 9.15012C18.4944 9.56433 18.8294 9.90088 19.2437 9.90183C19.6579 9.90277 19.9944 9.56775 19.9954 9.15354L20 7.12214L20 7.12043C20 6.55911 19.7894 6.01053 19.4921 5.57037C19.1947 5.13019 18.7651 4.73101 18.2474 4.51972L13.0933 2.40985C11.7549 1.86376 10.2459 1.86344 8.90748 2.40953L3.754 4.51915C3.23077 4.73045 2.80031 5.13027 2.50351 5.5718C2.20642 6.01376 2 6.56181 2 7.12043V11.1832C2 14.7744 3.91115 18.1655 6.81447 20.2327C7.15189 20.473 7.62018 20.3942 7.86044 20.0568C8.10069 19.7194 8.02192 19.2511 7.6845 19.0108C5.14008 17.1991 3.5 14.2462 3.5 11.1832V7.12043C3.5 6.92017 3.58046 6.65844 3.74839 6.40862C3.9162 6.15899 4.12811 5.98553 4.31644 5.9097L4.32046 5.90807L9.47448 3.79824Z" fill="#151E31"/>
<path d="M14.7924 13.2944C14.7924 12.8557 15.1481 12.5 15.5869 12.5C16.0257 12.5 16.3814 12.8557 16.3814 13.2944V15.8686C16.3814 16.2355 16.6468 16.5485 17.0087 16.6085L17.0233 16.6109L17.0674 16.6183C17.1059 16.6249 17.1621 16.6344 17.2322 16.6466C17.3725 16.6709 17.5678 16.7053 17.7877 16.746C18.2326 16.8281 18.76 16.9322 19.1378 17.0267C19.2964 17.0663 19.4723 17.1152 19.653 17.1685C20.1483 17.3145 20.5 17.7899 20.5 18.3544V21.25C20.5 21.6642 20.8358 22 21.25 22C21.6642 22 22 21.6642 22 21.25V18.3544C22 17.1735 21.2559 16.0771 20.077 15.7297C19.8836 15.6727 19.6866 15.6177 19.5016 15.5715C19.0752 15.4649 18.5085 15.3537 18.0602 15.2709C17.9985 15.2595 17.9387 15.2486 17.8814 15.2382V13.2944C17.8814 12.0272 16.8541 11 15.5869 11C14.3197 11 13.2924 12.0272 13.2924 13.2944V15.7704C12.4402 15.3458 11.3772 15.4886 10.6669 16.199C9.7777 17.0882 9.7777 18.5298 10.6669 19.419L13.0281 21.7803C13.321 22.0732 13.7959 22.0732 14.0888 21.7803C14.3817 21.4874 14.3817 21.0125 14.0888 20.7196L11.7276 18.3584C11.4241 18.0549 11.4242 17.563 11.7276 17.2596C12.031 16.9562 12.5229 16.9562 12.8263 17.2596L13.5128 17.9442C13.7275 18.1582 14.0499 18.222 14.3299 18.1058C14.6099 17.9896 14.7924 17.7162 14.7924 17.4131V13.2944Z" fill="#151E31"/>
</svg>
