<svg width="24" height="24" viewBox="0 0 24 24" fill="none" xmlns="http://www.w3.org/2000/svg">
<path d="M2 4.75C2 3.23122 3.23122 2 4.75 2H15.25C16.7688 2 18 3.23122 18 4.75V10C18 10.4142 17.6642 10.75 17.25 10.75C16.8358 10.75 16.5 10.4142 16.5 10V4.75C16.5 4.05964 15.9404 3.5 15.25 3.5H4.75C4.05964 3.5 3.5 4.05964 3.5 4.75V19.25C3.5 19.9404 4.05964 20.5 4.75 20.5H12C12.4142 20.5 12.75 20.8358 12.75 21.25C12.75 21.6642 12.4142 22 12 22H4.75C3.23122 22 2 20.7688 2 19.25V4.75ZM9.95927 6.50309L8.73634 6.93091L8.73633 7.7323C8.73633 7.98514 8.77338 8.20679 8.84947 8.39275C9.01657 8.80111 9.17022 8.99785 9.307 9.12042C9.45427 9.25238 9.63192 9.34593 9.95613 9.49092C9.96918 9.49676 9.98397 9.5 9.99947 9.5C10.015 9.5 10.0298 9.49676 10.0429 9.4909C10.3671 9.34591 10.5447 9.25236 10.692 9.1204C10.8288 8.99784 10.9824 8.8011 11.1495 8.39275C11.2256 8.20678 11.2626 7.98514 11.2626 7.7323V6.93091L10.0397 6.50309C10.0264 6.50103 10.0129 6.5 9.99948 6.5C9.98602 6.5 9.97258 6.50103 9.95927 6.50309ZM9.57457 5.05197C9.71409 5.01732 9.8568 5 9.99947 5C10.1421 5 10.2849 5.01732 10.4244 5.05197C10.447 5.05758 10.4693 5.06424 10.4913 5.07192L11.8534 5.54843C12.3864 5.70007 12.7626 6.18659 12.7626 6.74999V7.7323C12.7626 8.12435 12.7061 8.54938 12.5378 8.96083C12.3098 9.51792 12.0419 9.9249 11.693 10.2375C11.3546 10.5407 10.9825 10.7138 10.6553 10.8602C10.4464 10.9536 10.2226 11 9.99948 11C9.77639 11 9.5526 10.9536 9.34375 10.8602C9.0165 10.7139 8.64439 10.5408 8.30599 10.2375C7.9571 9.92492 7.68917 9.51794 7.4612 8.96083C7.29284 8.54938 7.23633 8.12435 7.23633 7.7323L7.23634 6.74999C7.23635 6.18659 7.61254 5.70007 8.14559 5.54843L9.5077 5.07193C9.52967 5.06424 9.55199 5.05758 9.57457 5.05197ZM5.5 13.75C5.5 13.3358 5.83579 13 6.25 13H11.75C12.1642 13 12.5 13.3358 12.5 13.75C12.5 14.1642 12.1642 14.5 11.75 14.5H6.25C5.83579 14.5 5.5 14.1642 5.5 13.75ZM17.15 14.5C15.6865 14.5 14.5 15.6865 14.5 17.15C14.5 18.6136 15.6865 19.8 17.15 19.8C17.882 19.8 18.5435 19.5042 19.0239 19.0239C19.5042 18.5435 19.8 17.882 19.8 17.15C19.8 15.6865 18.6136 14.5 17.15 14.5ZM13 17.15C13 14.858 14.858 13 17.15 13C19.442 13 21.3 14.858 21.3 17.15C21.3 18.0247 21.0288 18.8369 20.5667 19.5061L22.7803 21.7197C23.0732 22.0126 23.0732 22.4874 22.7803 22.7803C22.4874 23.0732 22.0126 23.0732 21.7197 22.7803L19.5061 20.5667C18.8369 21.0288 18.0247 21.3 17.15 21.3C14.858 21.3 13 19.442 13 17.15ZM5.5 17.25C5.5 16.8358 5.83579 16.5 6.25 16.5H9.75C10.1642 16.5 10.5 16.8358 10.5 17.25C10.5 17.6642 10.1642 18 9.75 18H6.25C5.83579 18 5.5 17.6642 5.5 17.25Z" fill="black"/>
</svg>
