<svg width="24" height="24" viewBox="0 0 24 24" fill="none" xmlns="http://www.w3.org/2000/svg">
<path d="M2 4.75C2 3.23122 3.23122 2 4.75 2H15.25C16.7688 2 18 3.23122 18 4.75V10C18 10.4142 17.6642 10.75 17.25 10.75C16.8358 10.75 16.5 10.4142 16.5 10V4.75C16.5 4.05964 15.9404 3.5 15.25 3.5H4.75C4.05964 3.5 3.5 4.05964 3.5 4.75V19.25C3.5 19.9404 4.05964 20.5 4.75 20.5H11C11.4142 20.5 11.75 20.8358 11.75 21.25C11.75 21.6642 11.4142 22 11 22H4.75C3.23122 22 2 20.7688 2 19.25V4.75ZM9.95976 6.50309L8.73683 6.93091L8.73682 7.7323C8.73682 7.7323 8.73682 7.7323 8.73682 7.7323C8.73682 7.98514 8.77386 8.20679 8.84996 8.39275C9.01706 8.80111 9.17071 8.99785 9.30749 9.12042C9.45476 9.25238 9.63241 9.34593 9.95662 9.49092C9.96967 9.49676 9.98446 9.5 9.99996 9.5C10.0155 9.5 10.0303 9.49676 10.0434 9.4909C10.3676 9.34591 10.5452 9.25236 10.6925 9.1204C10.8293 8.99784 10.9829 8.8011 11.15 8.39275C11.2261 8.20678 11.2631 7.98514 11.2631 7.7323V6.93091L10.0402 6.50309C10.0269 6.50103 10.0134 6.5 9.99997 6.5C9.98651 6.5 9.97307 6.50103 9.95976 6.50309ZM9.57506 5.05197C9.71458 5.01732 9.85729 5 9.99995 5C10.1426 5 10.2854 5.01732 10.4249 5.05197C10.4475 5.05758 10.4698 5.06424 10.4918 5.07192L11.8539 5.54843C12.3869 5.70007 12.7631 6.18659 12.7631 6.74999V7.7323C12.7631 8.12435 12.7066 8.54938 12.5383 8.96083C12.3103 9.51792 12.0424 9.9249 11.6935 10.2375C11.3551 10.5407 10.983 10.7138 10.6558 10.8602C10.4469 10.9536 10.2231 11 9.99996 11C9.77688 11 9.55309 10.9536 9.34424 10.8602C9.01699 10.7139 8.64488 10.5408 8.30647 10.2375C7.95759 9.92492 7.68966 9.51794 7.46169 8.96083C7.29333 8.54938 7.23682 8.12435 7.23682 7.7323L7.23683 6.74999C7.23684 6.18659 7.61303 5.70007 8.14608 5.54843L9.50819 5.07193C9.53016 5.06424 9.55247 5.05758 9.57506 5.05197ZM5.5 13.75C5.5 13.3358 5.83579 13 6.25 13H11.75C12.1642 13 12.5 13.3358 12.5 13.75C12.5 14.1642 12.1642 14.5 11.75 14.5H6.25C5.83579 14.5 5.5 14.1642 5.5 13.75ZM18 14.5C16.067 14.5 14.5 16.067 14.5 18C14.5 19.933 16.067 21.5 18 21.5C19.933 21.5 21.5 19.933 21.5 18C21.5 16.067 19.933 14.5 18 14.5ZM13 18C13 15.2386 15.2386 13 18 13C20.7614 13 23 15.2386 23 18C23 20.7614 20.7614 23 18 23C15.2386 23 13 20.7614 13 18ZM20.2536 16.644C20.533 16.9497 20.5117 17.4241 20.206 17.7036L17.8812 19.8286C17.5864 20.0981 17.1321 20.0892 16.8481 19.8085L15.7728 18.746C15.4782 18.4548 15.4754 17.98 15.7665 17.6853C16.0577 17.3907 16.5325 17.3879 16.8272 17.679L17.3953 18.2405L19.194 16.5964C19.4997 16.317 19.9741 16.3383 20.2536 16.644ZM5.5 17.25C5.5 16.8358 5.83579 16.5 6.25 16.5H9.75C10.1642 16.5 10.5 16.8358 10.5 17.25C10.5 17.6642 10.1642 18 9.75 18H6.25C5.83579 18 5.5 17.6642 5.5 17.25Z" fill="black"/>
</svg>
