<svg width="24" height="24" viewBox="0 0 24 24" fill="none" xmlns="http://www.w3.org/2000/svg">
<path d="M7.61842 4.5C5.34626 4.5 3.5 6.34886 3.5 8.63487C3.5 10.4042 4.3758 11.8885 4.83934 12.612C6.62931 15.4058 9.14115 17.6673 12 19.3801C14.8588 17.6673 17.3707 15.4058 19.1607 12.612C19.6242 11.8885 20.5 10.4042 20.5 8.63488C20.5 6.34887 18.6537 4.50001 16.3816 4.50001C14.7539 4.50001 13.344 5.44819 12.675 6.82989C12.5497 7.08868 12.2875 7.25306 12 7.25306C11.7125 7.25306 11.4503 7.08868 11.325 6.82989C10.656 5.44819 9.24609 4.5 7.61842 4.5ZM2 8.63487C2 5.5252 4.51307 3 7.61842 3C9.39158 3 10.9711 3.8237 12 5.10761C13.0289 3.8237 14.6084 3.00001 16.3816 3.00001C19.4869 3.00001 22 5.52521 22 8.63488C22 10.8637 20.9104 12.6615 20.4237 13.4212C18.4042 16.5733 15.5576 19.0648 12.3746 20.8998C12.1427 21.0334 11.8573 21.0334 11.6254 20.8998C8.44243 19.0648 5.59584 16.5733 3.57633 13.4212C3.08959 12.6615 2 10.8637 2 8.63487Z" fill="black"/>
</svg>
