<svg width="24" height="24" viewBox="0 0 24 24" fill="none" xmlns="http://www.w3.org/2000/svg">
<path d="M10.9549 3.07199C12.0242 2.90355 13.1202 3.03205 14.1208 3.44332C15.1218 3.85475 15.9882 4.53339 16.6256 5.40422C17.2632 6.27524 17.6465 7.30473 17.7318 8.37956C17.8172 9.45457 17.6007 10.5313 17.1083 11.491C16.6161 12.4505 15.8671 13.2565 14.943 13.8189C14.234 14.2503 13.4436 14.5257 12.625 14.6304V16.25C12.625 16.6642 12.2892 17 11.875 17C11.4608 17 11.125 16.6642 11.125 16.25V13.9282C11.125 13.514 11.4608 13.1782 11.875 13.1782C12.683 13.1782 13.475 12.9563 14.1632 12.5375C14.851 12.1189 15.4078 11.5195 15.7737 10.8063C16.1395 10.0933 16.2998 9.29466 16.2365 8.49828C16.1733 7.70171 15.8892 6.93767 15.4153 6.29021C14.9412 5.64255 14.2964 5.13726 13.5506 4.8307C12.8044 4.52399 11.9864 4.428 11.1884 4.55371C10.3903 4.67943 9.64384 5.02152 9.03058 5.54192C8.41724 6.06238 7.96139 6.74039 7.71288 7.50073C7.5842 7.89445 7.16071 8.10931 6.76699 7.98062C6.37327 7.85194 6.15842 7.42845 6.2871 7.03473C6.62217 6.00956 7.23617 5.09733 8.06006 4.39821C8.88401 3.69902 9.88574 3.24042 10.9549 3.07199ZM11 20C11 19.4477 11.4477 19 12 19C12.5523 19 13 19.4477 13 20C13 20.5523 12.5523 21 12 21C11.4477 21 11 20.5523 11 20Z" fill="black"/>
</svg>
