<svg width="24" height="24" viewBox="0 0 24 24" fill="none" xmlns="http://www.w3.org/2000/svg">
<path d="M12 3.5C7.30558 3.5 3.5 7.30558 3.5 12C3.5 16.6944 7.30558 20.5 12 20.5C16.6944 20.5 20.5 16.6944 20.5 12C20.5 7.30558 16.6944 3.5 12 3.5ZM2 12C2 6.47715 6.47715 2 12 2C17.5228 2 22 6.47715 22 12C22 17.5228 17.5228 22 12 22C6.47715 22 2 17.5228 2 12ZM11.3263 6.04685C12.0221 5.93724 12.7353 6.02084 13.3866 6.28852C14.0382 6.55635 14.6023 6.9982 15.0175 7.56533C15.4327 8.13266 15.6825 8.80344 15.7382 9.50399C15.7938 10.2047 15.6527 10.9064 15.3319 11.5315C15.0113 12.1565 14.5235 12.6814 13.9217 13.0476C13.5363 13.2821 13.114 13.4458 12.675 13.5331V14.25C12.675 14.6642 12.3392 15 11.925 15C11.5108 15 11.175 14.6642 11.175 14.25V12.8569C11.175 12.4427 11.5108 12.1069 11.925 12.1069C12.3549 12.1069 12.7761 11.9888 13.142 11.7662C13.5074 11.5439 13.8031 11.2255 13.9973 10.8468C14.1915 10.4684 14.2764 10.0448 14.2429 9.62271C14.2093 9.20042 14.0587 8.79509 13.8071 8.45132C13.5553 8.10736 13.2128 7.83886 12.8163 7.6759C12.4195 7.51279 11.9843 7.46169 11.5597 7.52857C11.1351 7.59546 10.7383 7.77741 10.4125 8.0539C10.0866 8.33044 9.84468 8.6904 9.71289 9.09364C9.58421 9.48736 9.16072 9.70221 8.767 9.57353C8.37328 9.44485 8.15843 9.02136 8.28711 8.62764C8.50546 7.95957 8.9055 7.36539 9.44193 6.91018C9.97845 6.45491 10.6305 6.15645 11.3263 6.04685ZM11 17C11 16.4477 11.4477 16 12 16C12.5523 16 13 16.4477 13 17C13 17.5523 12.5523 18 12 18C11.4477 18 11 17.5523 11 17Z" fill="black"/>
</svg>
