<svg width="24" height="24" viewBox="0 0 24 24" fill="none" xmlns="http://www.w3.org/2000/svg">
<path d="M10.4742 3.79841C10.474 3.79845 10.4743 3.79836 10.4742 3.79841L5.31645 5.90975C5.12811 5.98558 4.9162 6.15903 4.74839 6.40866C4.58046 6.65848 4.5 6.92021 4.5 7.12047V11.1833C4.5 15.359 7.54764 19.3102 11.7217 20.4642C11.8973 20.5119 12.0934 20.5119 12.269 20.4642C16.4431 19.3102 19.4907 15.359 19.4907 11.1833L19.4907 11.1816L19.5 7.12047C19.5 7.12023 19.5 7.12071 19.5 7.12047C19.4998 6.92299 19.4189 6.6614 19.2491 6.41009C19.0792 6.15861 18.8658 5.98411 18.6804 5.90846L13.5258 3.79841C13.5256 3.79834 13.526 3.79848 13.5258 3.79841C12.5509 3.40079 11.449 3.40073 10.4742 3.79841ZM9.90748 2.40957C11.2459 1.86348 12.7541 1.86348 14.0925 2.40957L19.2469 4.51957C19.2468 4.5195 19.2471 4.51965 19.2469 4.51957C19.7646 4.73088 20.1947 5.13026 20.4921 5.57041C20.7894 6.01057 21 6.55915 21 7.12047L21 7.12218L20.9907 11.1833C20.9907 11.183 20.9907 11.1836 20.9907 11.1833C20.9903 16.0577 17.4684 20.5838 12.6671 21.9104L12.6647 21.9111C12.2301 22.0296 11.7606 22.0296 11.3261 21.9111L11.3237 21.9104C6.52203 20.5837 3 16.0581 3 11.1833V7.12047C3 6.56185 3.20642 6.0138 3.50351 5.57184C3.80031 5.13031 4.23077 4.73048 4.754 4.51918L9.90748 2.40957ZM11.3263 6.04685C12.0221 5.93724 12.7353 6.02084 13.3866 6.28852C14.0382 6.55635 14.6023 6.9982 15.0175 7.56533C15.4327 8.13266 15.6825 8.80344 15.7382 9.50399C15.7938 10.2047 15.6527 10.9064 15.3319 11.5315C15.0113 12.1565 14.5235 12.6814 13.9217 13.0476C13.5363 13.2821 13.114 13.4458 12.675 13.5331V14.25C12.675 14.6642 12.3392 15 11.925 15C11.5108 15 11.175 14.6642 11.175 14.25V12.8569C11.175 12.4427 11.5108 12.1069 11.925 12.1069C12.3549 12.1069 12.7761 11.9888 13.142 11.7662C13.5074 11.5439 13.8031 11.2255 13.9973 10.8468C14.1915 10.4684 14.2764 10.0448 14.2429 9.62271C14.2093 9.20042 14.0587 8.79509 13.8071 8.45132C13.5553 8.10736 13.2128 7.83886 12.8163 7.6759C12.4195 7.51279 11.9843 7.46169 11.5597 7.52857C11.1351 7.59546 10.7383 7.77741 10.4125 8.0539C10.0866 8.33044 9.84468 8.6904 9.71289 9.09364C9.58421 9.48736 9.16072 9.70221 8.767 9.57353C8.37328 9.44485 8.15843 9.02136 8.28711 8.62764C8.50546 7.95957 8.9055 7.36539 9.44193 6.91018C9.97845 6.45491 10.6305 6.15645 11.3263 6.04685ZM11 17C11 16.4477 11.4477 16 12 16C12.5523 16 13 16.4477 13 17C13 17.5523 12.5523 18 12 18C11.4477 18 11 17.5523 11 17Z" fill="black"/>
</svg>
