<svg width="24" height="24" viewBox="0 0 24 24" fill="none" xmlns="http://www.w3.org/2000/svg">
<path d="M10.191 2.49333C11.3098 1.83556 12.6902 1.83556 13.809 2.49333L19.2012 5.6633C20.3184 6.32011 21 7.52899 21 8.83003V15.17C21 16.471 20.3184 17.6799 19.2012 18.3367L13.809 21.5067C12.6902 22.1644 11.3098 22.1644 10.191 21.5067L4.79884 18.3367C3.68161 17.6799 3 16.471 3 15.17V8.83003C3 7.52899 3.68161 6.32011 4.79884 5.6633L10.191 2.49333ZM13.0488 3.78642C12.3992 3.40453 11.6008 3.40453 10.9512 3.78642L5.55904 6.95639C4.90781 7.33925 4.5 8.05174 4.5 8.83003V15.17C4.5 15.9483 4.90781 16.6608 5.55904 17.0436L10.9512 20.2136C11.6008 20.5955 12.3992 20.5955 13.0488 20.2136L18.441 17.0436C19.0922 16.6608 19.5 15.9483 19.5 15.17V8.83003C19.5 8.05174 19.0922 7.33925 18.441 6.95639L13.0488 3.78642Z" fill="black"/>
</svg>
