<svg width="24" height="24" viewBox="0 0 24 24" fill="none" xmlns="http://www.w3.org/2000/svg">
<path d="M6 2.5C4.067 2.5 2.5 4.067 2.5 6C2.5 7.933 4.067 9.5 6 9.5C7.933 9.5 9.5 7.933 9.5 6C9.5 4.067 7.933 2.5 6 2.5ZM1 6C1 3.23858 3.23858 1 6 1C8.76142 1 11 3.23858 11 6C11 8.76142 8.76142 11 6 11C3.23858 11 1 8.76142 1 6ZM12 2.75C12 2.33579 12.3358 2 12.75 2H17.1389C19.8236 2 22 4.17639 22 6.86111V17.1389C22 19.8236 19.8236 22 17.1389 22H6.86111C4.17639 22 2 19.8236 2 17.1389V12.75C2 12.3358 2.33579 12 2.75 12C3.16421 12 3.5 12.3358 3.5 12.75V17.1389C3.5 18.9952 5.00482 20.5 6.86111 20.5H17.1389C18.9952 20.5 20.5 18.9952 20.5 17.1389V6.86111C20.5 5.00482 18.9952 3.5 17.1389 3.5H12.75C12.3358 3.5 12 3.16421 12 2.75ZM6 3.36111C6.41421 3.36111 6.75 3.6969 6.75 4.11111V5.59861L7.83269 6.32041C8.17734 6.55017 8.27047 7.01582 8.0407 7.36047C7.81094 7.70512 7.34529 7.79825 7.00064 7.56848L5.58397 6.62404C5.37533 6.48494 5.25 6.25076 5.25 6V4.11111C5.25 3.6969 5.58579 3.36111 6 3.36111ZM12.5 7.75C12.5 7.33579 12.8358 7 13.25 7H14.75C15.1642 7 15.5 7.33579 15.5 7.75C15.5 8.16421 15.1642 8.5 14.75 8.5H13.25C12.8358 8.5 12.5 8.16421 12.5 7.75ZM16.49 7.75C16.49 7.33579 16.8258 7 17.24 7H17.25C17.6642 7 18 7.33579 18 7.75C18 8.16421 17.6642 8.5 17.25 8.5H17.24C16.8258 8.5 16.49 8.16421 16.49 7.75ZM10 12C10 11.5858 10.3358 11.25 10.75 11.25H14.75C15.1642 11.25 15.5 11.5858 15.5 12C15.5 12.4142 15.1642 12.75 14.75 12.75H10.75C10.3358 12.75 10 12.4142 10 12ZM16.49 12C16.49 11.5858 16.8258 11.25 17.24 11.25H17.25C17.6642 11.25 18 11.5858 18 12C18 12.4142 17.6642 12.75 17.25 12.75H17.24C16.8258 12.75 16.49 12.4142 16.49 12ZM6 16.25C6 15.8358 6.33579 15.5 6.75 15.5H14.75C15.1642 15.5 15.5 15.8358 15.5 16.25C15.5 16.6642 15.1642 17 14.75 17H6.75C6.33579 17 6 16.6642 6 16.25ZM16.49 16.25C16.49 15.8358 16.8258 15.5 17.24 15.5H17.25C17.6642 15.5 18 15.8358 18 16.25C18 16.6642 17.6642 17 17.25 17H17.24C16.8258 17 16.49 16.6642 16.49 16.25Z" fill="black"/>
</svg>
