<svg width="24" height="24" viewBox="0 0 24 24" fill="none" xmlns="http://www.w3.org/2000/svg">
<path d="M2.21967 2.21967C2.51256 1.92678 2.98744 1.92678 3.28033 2.21967L21.7803 20.7197C22.0732 21.0126 22.0732 21.4874 21.7803 21.7803C21.4874 22.0732 21.0126 22.0732 20.7197 21.7803L20.0049 21.0656C19.2015 21.6528 18.2103 22 17.1389 22H6.86111C4.17639 22 2 19.8236 2 17.1389V6.86111C2 5.7897 2.34725 4.79848 2.93443 3.99509L2.21967 3.28033C1.92678 2.98744 1.92678 2.51256 2.21967 2.21967ZM4.01362 5.07428C3.68794 5.59196 3.5 6.20423 3.5 6.86111V17.1389C3.5 18.9952 5.00482 20.5 6.86111 20.5H17.1389C17.7958 20.5 18.4081 20.3121 18.9257 19.9864L15.9393 17H6.75C6.33579 17 6 16.6642 6 16.25C6 15.8358 6.33579 15.5 6.75 15.5H14.4393L11.6893 12.75H6.75C6.33579 12.75 6 12.4142 6 12C6 11.5858 6.33579 11.25 6.75 11.25H10.1893L7.43934 8.5H6.75C6.33579 8.5 6 8.16421 6 7.75C6 7.55833 6.0719 7.38345 6.1902 7.25086L4.01362 5.07428ZM6.59329 2.75C6.59329 2.33578 6.92908 2 7.34329 2L17.1389 2.00003C19.8236 2.00003 22 4.17643 22 6.86114V16.6567C22 17.0709 21.6642 17.4067 21.25 17.4067C20.8358 17.4067 20.5 17.0709 20.5 16.6567V6.86114C20.5 5.00485 18.9952 3.50003 17.1389 3.50003L7.34329 3.5C6.92908 3.5 6.59329 3.16421 6.59329 2.75Z" fill="black"/>
</svg>
