<svg width="24" height="24" viewBox="0 0 24 24" fill="none" xmlns="http://www.w3.org/2000/svg">
<path d="M2 4.75C2 3.23122 3.23122 2 4.75 2H19.25C20.7688 2 22 3.23122 22 4.75V19.25C22 20.7688 20.7688 22 19.25 22H4.75C3.23122 22 2 20.7688 2 19.25V4.75ZM3.5 18.5049V19.1944C3.5 19.5534 3.64385 19.8772 3.87879 20.114C4.11617 20.3532 4.44302 20.5 4.80556 20.5H19.1944C19.9155 20.5 20.5 19.9155 20.5 19.1944V17.9577L15.493 12.8177L11.5303 16.7803C11.264 17.0467 10.8413 17.0742 10.5427 16.8445L7.78297 14.7216L3.5 18.5049ZM20.5 15.808V4.75C20.5 4.05964 19.9404 3.5 19.25 3.5H4.75C4.05964 3.5 3.5 4.05964 3.5 4.75V16.5035L7.25347 13.1879C7.52265 12.9501 7.92261 12.9366 8.20728 13.1555L10.9353 15.254L14.9697 11.2197C15.1115 11.0778 15.3043 10.9987 15.5049 11C15.7055 11.0013 15.8973 11.083 16.0372 11.2267L20.5 15.808ZM8 6.5C7.17157 6.5 6.5 7.17157 6.5 8C6.5 8.82843 7.17157 9.5 8 9.5C8.82843 9.5 9.5 8.82843 9.5 8C9.5 7.17157 8.82843 6.5 8 6.5ZM5 8C5 6.34315 6.34315 5 8 5C9.65685 5 11 6.34315 11 8C11 9.65685 9.65685 11 8 11C6.34315 11 5 9.65685 5 8Z" fill="black"/>
</svg>
