<svg width="24" height="24" viewBox="0 0 24 24" fill="none" xmlns="http://www.w3.org/2000/svg">
<path d="M2.21968 2.21967C2.51257 1.92678 2.98745 1.92678 3.28034 2.21967L7.15409 6.09342C7.19364 6.1255 7.23042 6.16207 7.26366 6.20299L10.297 9.23636C10.3379 9.26959 10.3745 9.30636 10.4066 9.34592L21.7803 20.7197C22.0732 21.0126 22.0732 21.4874 21.7803 21.7803C21.4874 22.0732 21.0126 22.0732 20.7197 21.7803L19.8692 20.9298C19.6698 20.9758 19.4624 21 19.25 21H4.75001C3.23123 21 2.00001 19.7688 2.00001 18.25V17.5917C2 17.5893 2 17.5868 2.00001 17.5844V5.75C2.00001 5.00547 2.29585 4.33076 2.77546 3.83611L2.21968 3.28033C1.92679 2.98744 1.92679 2.51256 2.21968 2.21967ZM3.83623 4.89688C3.6273 5.12062 3.50001 5.42079 3.50001 5.75V15.9245L7.25348 12.609C7.52266 12.3712 7.92262 12.3576 8.20729 12.5766L10.9353 14.6751L12.2749 13.3355L9.82243 10.8831C9.31759 11.2696 8.68569 11.5 8.00001 11.5C6.34315 11.5 5.00001 10.1569 5.00001 8.5C5.00001 7.81432 5.2304 7.18242 5.61693 6.67758L3.83623 4.89688ZM6.69643 7.75709C6.57123 7.97627 6.50001 8.22981 6.50001 8.5C6.50001 9.32843 7.17158 10 8.00001 10C8.2702 10 8.52374 9.92878 8.74292 9.80357L6.69643 7.75709ZM13.3355 14.3962L11.5303 16.2014C11.264 16.4678 10.8413 16.4952 10.5427 16.2655L7.78298 14.1427L3.50001 17.926V18.25C3.50001 18.9404 4.05965 19.5 4.75001 19.5H18.4393L13.3355 14.3962ZM7.59315 3.75C7.59315 3.33579 7.92894 3 8.34315 3H19.25C20.7688 3 22 4.23122 22 5.75V16.6382C22 17.0524 21.6642 17.3882 21.25 17.3882C20.8358 17.3882 20.5 17.0524 20.5 16.6382V5.75C20.5 5.05964 19.9404 4.5 19.25 4.5H8.34315C7.92894 4.5 7.59315 4.16421 7.59315 3.75Z" fill="black"/>
</svg>
