<svg width="24" height="24" viewBox="0 0 24 24" fill="none" xmlns="http://www.w3.org/2000/svg">
<path d="M2.28435 2.16206C2.46396 2.01981 2.69875 1.96746 2.92178 2.01994L4.5887 2.41215C4.777 2.45646 4.973 2.45646 5.1613 2.41215L6.37014 2.12772C6.78439 2.03025 7.21561 2.03025 7.62986 2.12772L8.8387 2.41215C9.027 2.45646 9.223 2.45646 9.4113 2.41215L11.0782 2.01994C11.3013 1.96746 11.536 2.01981 11.7157 2.16206C11.8953 2.30432 12 2.52088 12 2.75V6.25H10.5V3.69695L9.75486 3.87228C9.34061 3.96975 8.90939 3.96975 8.49514 3.87228L7.2863 3.58785C7.098 3.54354 6.902 3.54354 6.7137 3.58785L5.50486 3.87228C5.09061 3.96975 4.65939 3.96975 4.24514 3.87228L3.5 3.69695V12.303L4.24514 12.1277C4.65939 12.0302 5.09061 12.0302 5.50486 12.1277L5.67314 12.1673C6.07634 12.2622 6.32629 12.666 6.23142 13.0692C6.13655 13.4724 5.73278 13.7223 5.32957 13.6274L5.1613 13.5878C4.973 13.5435 4.777 13.5435 4.5887 13.5878L2.92178 13.9801C2.69875 14.0325 2.46396 13.9802 2.28435 13.8379C2.10473 13.6957 2 13.4791 2 13.25V2.75C2 2.52088 2.10473 2.30432 2.28435 2.16206ZM13.5 2.75C13.5 2.33579 13.8358 2 14.25 2H17.1389C19.8236 2 22 4.17639 22 6.86111V7.25C22 7.66421 21.6642 8 21.25 8C20.8358 8 20.5 7.66421 20.5 7.25V6.86111C20.5 5.00482 18.9952 3.5 17.1389 3.5H14.25C13.8358 3.5 13.5 3.16421 13.5 2.75ZM12.0395 10.5C10.6611 10.5 9.5 11.664 9.5 13.1546C9.5 14.3249 10.0631 15.3154 10.3721 15.8128C11.5324 17.6809 13.1514 19.2042 15 20.3705C16.8486 19.2042 18.4676 17.6809 19.6279 15.8128C19.9369 15.3154 20.5 14.3249 20.5 13.1546C20.5 11.664 19.3389 10.5 17.9605 10.5C16.9706 10.5 16.0978 11.095 15.6789 11.9875C15.5554 12.2507 15.2908 12.4188 15 12.4188C14.7092 12.4188 14.4446 12.2507 14.3211 11.9875C13.9022 11.095 13.0294 10.5 12.0395 10.5ZM8 13.1546C8 10.8846 9.78442 9 12.0395 9C13.2154 9 14.2659 9.51529 15 10.3283C15.7341 9.51529 16.7846 9.00001 17.9605 9.00001C20.2156 9.00001 22 10.8846 22 13.1546C22 14.7709 21.2352 16.068 20.9021 16.6043C19.5154 18.8369 17.5625 20.5988 15.3833 21.8946C15.1471 22.0351 14.8529 22.0351 14.6167 21.8946C12.4375 20.5988 10.4846 18.8369 9.09791 16.6043C8.76483 16.068 8 14.7709 8 13.1546ZM2.75 15.5C3.16421 15.5 3.5 15.8358 3.5 16.25V17.1389C3.5 18.9952 5.00482 20.5 6.86111 20.5H9.75C10.1642 20.5 10.5 20.8358 10.5 21.25C10.5 21.6642 10.1642 22 9.75 22H6.86111C4.17639 22 2 19.8236 2 17.1389V16.25C2 15.8358 2.33579 15.5 2.75 15.5Z" fill="black"/>
</svg>
