<svg width="24" height="24" viewBox="0 0 24 24" fill="none" xmlns="http://www.w3.org/2000/svg">
<path d="M3.21967 3.21967C3.51256 2.92678 3.98744 2.92678 4.28033 3.21967L9 7.93934V4.60714C9 4.19293 9.33579 3.85714 9.75 3.85714C10.1642 3.85714 10.5 4.19293 10.5 4.60714V9.75C10.5 10.1642 10.1642 10.5 9.75 10.5H4.60714C4.19293 10.5 3.85714 10.1642 3.85714 9.75C3.85714 9.33579 4.19293 9 4.60714 9H7.93934L3.21967 4.28033C2.92678 3.98744 2.92678 3.51256 3.21967 3.21967ZM15.1771 3.80831C16.2548 2.73056 18.0022 2.73056 19.0799 3.80831L19.8049 4.53328C20.599 5.32739 21.1612 6.46231 20.9589 7.7146C20.653 9.60699 19.6164 12.859 16.2377 16.2377C12.859 19.6164 9.60699 20.653 7.7146 20.9589C6.46231 21.1612 5.32739 20.599 4.53328 19.8049L3.80831 19.0799C2.73056 18.0022 2.73056 16.2548 3.80831 15.1771L5.06687 13.9185C5.84195 13.1434 7.09861 13.1434 7.87369 13.9185C8.40343 14.4482 9.18054 14.5551 9.77315 14.201C10.6608 13.6707 11.6821 12.9877 12.3349 12.3349C12.9877 11.6821 13.6707 10.6608 14.201 9.77315C14.5551 9.18054 14.4482 8.40343 13.9185 7.87369C13.1434 7.09861 13.1434 5.84195 13.9185 5.06687L15.1771 3.80831ZM18.0193 4.86897C17.5273 4.37701 16.7297 4.37701 16.2377 4.86897L14.9792 6.12753C14.7899 6.31683 14.7899 6.62373 14.9792 6.81303C15.9526 7.78649 16.225 9.31012 15.4887 10.5425C14.9478 11.4479 14.1868 12.6043 13.3955 13.3955C12.6043 14.1868 11.4479 14.9478 10.5425 15.4887C9.31012 16.225 7.7865 15.9526 6.81303 14.9792C6.62374 14.7899 6.31683 14.7899 6.12753 14.9792L4.86897 16.2377C4.37701 16.7297 4.37701 17.5273 4.86897 18.0193L5.59394 18.7442C6.15675 19.307 6.83317 19.5818 7.47528 19.4781C9.09494 19.2163 12.0472 18.3069 15.1771 15.1771C18.3069 12.0472 19.2163 9.09494 19.4781 7.47527C19.5818 6.83317 19.307 6.15675 18.7442 5.59394L18.0193 4.86897Z" fill="black"/>
</svg>
