<svg width="24" height="24" viewBox="0 0 24 24" fill="none" xmlns="http://www.w3.org/2000/svg">
<path d="M8.70519 3C7.51268 3 6.45606 3.76859 6.08883 4.90315L3.87454 11.7442C3.65477 11.7857 3.46026 11.8247 3.29289 11.8595C3.06153 11.9076 2.88189 11.9479 2.75889 11.9765C2.69739 11.9908 2.65003 12.0022 2.61744 12.0102C2.20611 12.1116 1.91378 12.5064 2.02327 12.9354C2.13025 13.3547 2.56991 13.5668 2.97315 13.4674C3.00057 13.4607 3.04261 13.4506 3.09868 13.4375C3.21082 13.4115 3.37901 13.3737 3.59836 13.328C3.84642 13.2764 4.15978 13.2149 4.53138 13.1489C4.56347 13.1453 4.59517 13.1397 4.62629 13.1322C4.88742 13.0865 5.17559 13.039 5.48853 12.9915C7.10623 12.7458 9.38046 12.5 12.0008 12.5C14.6211 12.5 16.8949 12.7458 18.5122 12.9915C18.8254 13.0391 19.1138 13.0866 19.375 13.1323C19.4058 13.1398 19.4371 13.1453 19.4687 13.1488C19.8404 13.2148 20.1538 13.2764 20.4018 13.328C20.6211 13.3736 20.7892 13.4114 20.9013 13.4375C20.9573 13.4506 20.9994 13.4607 21.0268 13.4674C21.43 13.5668 21.8696 13.3548 21.9767 12.9355C22.0849 12.5115 21.789 12.1104 21.3826 12.0102C21.35 12.0022 21.3027 11.9908 21.2412 11.9765C21.1182 11.9479 20.9387 11.9076 20.7074 11.8595C20.5401 11.8247 20.3458 11.7858 20.1262 11.7443L17.9119 4.90315C17.5447 3.76859 16.4881 3 15.2956 3H8.70519ZM5.5408 11.4673L7.51594 5.36507C7.68286 4.84936 8.16314 4.5 8.70519 4.5H15.2956C15.8376 4.5 16.3179 4.84936 16.4848 5.36507L18.46 11.4673C16.8078 11.2274 14.5657 11 12.0008 11C9.43581 11 7.1933 11.2274 5.5408 11.4673Z" fill="black"/>
<path d="M10.679 17.4275C10.0681 16.0001 8.65085 15 6.99998 15C4.79084 15 2.99998 16.7909 2.99998 19C2.99998 21.2091 4.79084 23 6.99998 23C9.20912 23 11 21.2091 11 19C11 18.9652 10.9995 18.9306 10.9987 18.8961C11.3153 18.8017 11.6512 18.751 11.9998 18.751C12.3486 18.751 12.6846 18.8018 13.0013 18.8962C13.0004 18.9307 13 18.9653 13 19C13 21.2091 14.7908 23 17 23C19.2091 23 21 21.2091 21 19C21 16.7909 19.2091 15 17 15C15.3491 15 13.9318 16.0001 13.3209 17.4276C12.8996 17.3124 12.4565 17.251 11.9998 17.251C11.5433 17.251 11.1003 17.3124 10.679 17.4275ZM6.99998 16.5C8.20711 16.5 9.21441 17.3555 9.44861 18.4933C9.45237 18.5242 9.45808 18.555 9.46581 18.5857C9.48829 18.7205 9.49998 18.8589 9.49998 19C9.49998 20.3807 8.38069 21.5 6.99998 21.5C5.61927 21.5 4.49998 20.3807 4.49998 19C4.49998 17.6193 5.61927 16.5 6.99998 16.5ZM14.5506 18.497C14.7834 17.3574 15.7916 16.5 17 16.5C18.3807 16.5 19.5 17.6193 19.5 19C19.5 20.3807 18.3807 21.5 17 21.5C15.6193 21.5 14.5 20.3807 14.5 19C14.5 18.8576 14.5119 18.718 14.5348 18.5821C14.5417 18.5538 14.547 18.5254 14.5506 18.497Z" fill="black"/>
</svg>
