<svg width="24" height="24" viewBox="0 0 24 24" fill="none" xmlns="http://www.w3.org/2000/svg">
<path d="M2 6.86111C2 4.17639 4.17639 2 6.86111 2H17.1389C19.8236 2 22 4.17639 22 6.86111V17.1389C22 19.8236 19.8236 22 17.1389 22H6.86111C4.17639 22 2 19.8236 2 17.1389V6.86111ZM6.86111 3.5C5.00482 3.5 3.5 5.00482 3.5 6.86111V17.1389C3.5 18.9952 5.00482 20.5 6.86111 20.5H17.1389C18.9952 20.5 20.5 18.9952 20.5 17.1389V6.86111C20.5 5.00482 18.9952 3.5 17.1389 3.5H6.86111ZM11 7.5C11 6.94771 11.4477 6.5 12 6.5C12.5523 6.5 13 6.94771 13 7.5C13 8.05228 12.5523 8.5 12 8.5C11.4477 8.5 11 8.05229 11 7.5ZM12 9.5C12.4142 9.5 12.75 9.83579 12.75 10.25V16.75C12.75 17.1642 12.4142 17.5 12 17.5C11.5858 17.5 11.25 17.1642 11.25 16.75V10.25C11.25 9.83579 11.5858 9.5 12 9.5Z" fill="black"/>
</svg>
