<svg width="24" height="24" viewBox="0 0 24 24" fill="none" xmlns="http://www.w3.org/2000/svg">
<path d="M12 3.5C7.30558 3.5 3.5 7.30558 3.5 12C3.5 16.6944 7.30558 20.5 12 20.5C16.6944 20.5 20.5 16.6944 20.5 12C20.5 7.30558 16.6944 3.5 12 3.5ZM2 12C2 6.47715 6.47715 2 12 2C17.5228 2 22 6.47715 22 12C22 17.5228 17.5228 22 12 22C6.47715 22 2 17.5228 2 12ZM11 7.5C11 6.94771 11.4477 6.5 12 6.5C12.5523 6.5 13 6.94771 13 7.5C13 8.05228 12.5523 8.5 12 8.5C11.4477 8.5 11 8.05229 11 7.5ZM12 9.5C12.4142 9.5 12.75 9.83579 12.75 10.25V16.75C12.75 17.1642 12.4142 17.5 12 17.5C11.5858 17.5 11.25 17.1642 11.25 16.75V10.25C11.25 9.83579 11.5858 9.5 12 9.5Z" fill="black"/>
</svg>
