<svg width="24" height="24" viewBox="0 0 24 24" fill="none" xmlns="http://www.w3.org/2000/svg">
<path d="M2 6.86111C2 4.17639 4.17639 2 6.86111 2H17.1389C19.8236 2 22 4.17639 22 6.86111V17.1389C22 19.8236 19.8236 22 17.1389 22H6.86111C4.17639 22 2 19.8236 2 17.1389V6.86111ZM6.86111 3.5C5.00482 3.5 3.5 5.00482 3.5 6.86111V17.1389C3.5 18.9952 5.00482 20.5 6.86111 20.5H17.1389C18.9952 20.5 20.5 18.9952 20.5 17.1389V6.86111C20.5 5.00482 18.9952 3.5 17.1389 3.5H6.86111ZM8.5 7.75C7.94772 7.75 7.5 8.19772 7.5 8.75C7.5 9.30228 7.94772 9.75 8.5 9.75C9.05228 9.75 9.5 9.30228 9.5 8.75C9.5 8.19772 9.05228 7.75 8.5 7.75ZM6 8.75C6 7.36929 7.11929 6.25 8.5 6.25C9.88071 6.25 11 7.36929 11 8.75C11 10.1307 9.88071 11.25 8.5 11.25C7.11929 11.25 6 10.1307 6 8.75ZM12.7614 7.375C12.7614 6.96079 13.0971 6.625 13.5114 6.625H16.875C17.2892 6.625 17.625 6.96079 17.625 7.375V10.7386C17.625 11.1528 17.2892 11.4886 16.875 11.4886C16.4608 11.4886 16.125 11.1528 16.125 10.7386V9.18566L8.15533 17.1553C7.86244 17.4482 7.38756 17.4482 7.09467 17.1553C6.80178 16.8624 6.80178 16.3876 7.09467 16.0947L15.0643 8.125H13.5114C13.0971 8.125 12.7614 7.78921 12.7614 7.375ZM15.5 14.75C14.9477 14.75 14.5 15.1977 14.5 15.75C14.5 16.3023 14.9477 16.75 15.5 16.75C16.0523 16.75 16.5 16.3023 16.5 15.75C16.5 15.1977 16.0523 14.75 15.5 14.75ZM13 15.75C13 14.3693 14.1193 13.25 15.5 13.25C16.8807 13.25 18 14.3693 18 15.75C18 17.1307 16.8807 18.25 15.5 18.25C14.1193 18.25 13 17.1307 13 15.75Z" fill="black"/>
</svg>
