<svg width="24" height="24" viewBox="0 0 24 24" fill="none" xmlns="http://www.w3.org/2000/svg">
<path fill-rule="evenodd" clip-rule="evenodd" d="M7.5 8.5C7.5 8.08579 7.83579 7.75 8.25 7.75H15.75C16.1642 7.75 16.5 8.08579 16.5 8.5C16.5 8.91421 16.1642 9.25 15.75 9.25H8.25C7.83579 9.25 7.5 8.91421 7.5 8.5Z" fill="#151E31"/>
<path fill-rule="evenodd" clip-rule="evenodd" d="M7.5 12C7.5 11.5858 7.83579 11.25 8.25 11.25H15.75C16.1642 11.25 16.5 11.5858 16.5 12C16.5 12.4142 16.1642 12.75 15.75 12.75H8.25C7.83579 12.75 7.5 12.4142 7.5 12Z" fill="#151E31"/>
<path fill-rule="evenodd" clip-rule="evenodd" d="M7.5 15.5C7.5 15.0858 7.83579 14.75 8.25 14.75H11.75C12.1642 14.75 12.5 15.0858 12.5 15.5C12.5 15.9142 12.1642 16.25 11.75 16.25H8.25C7.83579 16.25 7.5 15.9142 7.5 15.5Z" fill="#151E31"/>
<path fill-rule="evenodd" clip-rule="evenodd" d="M5.84352 3.58353L5.6767 3.66964C5.26109 3.88414 5 4.31271 5 4.78041V19.22C5 19.6877 5.26109 20.1163 5.6767 20.3308L5.84352 20.4169C6.05932 20.5283 6.31568 20.5283 6.53148 20.4169L7.09305 20.127C7.74045 19.7929 8.50955 19.7929 9.15695 20.127L9.71852 20.4169C9.93432 20.5283 10.1907 20.5283 10.4065 20.4169L10.9681 20.127C11.6154 19.7929 12.3846 19.7929 13.0319 20.127L13.5935 20.4169C13.8093 20.5283 14.0657 20.5283 14.2815 20.4169L14.8431 20.127C15.4904 19.7929 16.2596 19.7929 16.9069 20.127L17.4685 20.4169C17.6843 20.5283 17.9407 20.5283 18.1565 20.4169L18.3233 20.3308C18.7389 20.1163 19 19.6877 19 19.22V4.78041C19 4.31272 18.7389 3.88414 18.3233 3.66964L18.1565 3.58353C17.9407 3.47215 17.6843 3.47215 17.4685 3.58353L16.9069 3.87338C16.2596 4.20752 15.4904 4.20752 14.8431 3.87338L14.2815 3.58353C14.0657 3.47215 13.8093 3.47215 13.5935 3.58353L13.0319 3.87338C12.3846 4.20752 11.6154 4.20752 10.9681 3.87338L10.4065 3.58353C10.1907 3.47215 9.93431 3.47215 9.71852 3.58353L9.15695 3.87338C8.50956 4.20752 7.74044 4.20752 7.09305 3.87338L6.53148 3.58353C6.31569 3.47216 6.05931 3.47216 5.84352 3.58353ZM7.21945 2.2506L7.78102 2.54045C7.99681 2.65183 8.25318 2.65183 8.46898 2.54045L9.03055 2.2506C9.67794 1.91647 10.4471 1.91647 11.0944 2.2506L11.656 2.54045C11.8718 2.65183 12.1282 2.65183 12.344 2.54045L12.9056 2.2506C13.5529 1.91647 14.3221 1.91647 14.9694 2.2506L15.531 2.54045C15.7468 2.65183 16.0032 2.65183 16.219 2.54045L16.7806 2.2506C17.4279 1.91647 18.1971 1.91647 18.8444 2.2506L19.0113 2.33671C19.9256 2.80862 20.5 3.75148 20.5 4.78041V19.22C20.5 20.2489 19.9256 21.1918 19.0113 21.6637L18.8444 21.7498C18.1971 22.0839 17.4279 22.0839 16.7806 21.7498L16.219 21.46C16.0032 21.3486 15.7468 21.3486 15.531 21.46L14.9694 21.7498C14.3221 22.0839 13.5529 22.0839 12.9056 21.7498L12.344 21.46C12.1282 21.3486 11.8718 21.3486 11.656 21.46L11.0944 21.7498C10.4471 22.0839 9.67795 22.0839 9.03055 21.7498L8.46898 21.46C8.25318 21.3486 7.99682 21.3486 7.78102 21.46L7.21945 21.7498C6.57205 22.0839 5.80295 22.0839 5.15555 21.7498L4.98873 21.6637C4.0744 21.1918 3.5 20.2489 3.5 19.22V4.78041C3.5 3.75148 4.0744 2.80862 4.98873 2.33671L5.15555 2.2506C5.80294 1.91647 6.57205 1.91647 7.21945 2.2506Z" fill="#151E31"/>
</svg>
