<svg width="24" height="24" viewBox="0 0 24 24" fill="none" xmlns="http://www.w3.org/2000/svg">
<path fill-rule="evenodd" clip-rule="evenodd" d="M8.85214 7.65349C9.54451 7.65358 10.1877 7.90084 10.6558 8.09099C10.9115 8.19482 11.1024 8.27749 11.2838 8.34099C11.4665 8.40493 11.5567 8.41798 11.5914 8.41814C11.5914 8.41814 11.5989 8.41732 11.6139 8.41521C11.6296 8.41296 11.6522 8.40955 11.6812 8.40251C11.7414 8.38788 11.8176 8.3634 11.9156 8.32829C12.1562 8.2421 12.3112 8.17242 12.648 8.04704C13.2169 7.83529 13.9752 7.60043 14.8307 7.66521C15.4099 7.70455 17.2427 7.88749 18.4361 9.63396C18.555 9.80807 18.595 10.0245 18.5465 10.2297C18.4979 10.4347 18.3654 10.6097 18.1812 10.7121C18.1732 10.7168 17.809 10.9282 17.4527 11.3478C17.0962 11.7679 16.7636 12.3758 16.7701 13.2013L16.7769 13.3879C16.8353 14.2982 17.2429 14.8983 17.651 15.2873C18.1053 15.7203 18.5527 15.8811 18.4849 15.8586C18.8657 15.9855 19.0793 16.3896 18.9693 16.7756C18.9411 16.8744 18.5814 18.0937 17.7164 19.3566C17.3778 19.854 16.9819 20.4283 16.5045 20.8742C16.0124 21.3336 15.3812 21.7065 14.5728 21.7209L14.5738 21.7218L14.5689 21.7209L14.568 21.7218L14.567 21.7209C13.834 21.7371 13.3332 21.5093 12.9459 21.342C12.58 21.1839 12.2898 21.0656 11.816 21.0656C11.3263 21.0656 11.0169 21.1811 10.6627 21.3312C10.2963 21.4865 9.80926 21.7189 9.12557 21.7482H8.96444C8.20358 21.7226 7.58853 21.3246 7.12069 20.8859C6.62383 20.4199 6.20023 19.8207 5.85506 19.3254L5.85409 19.3234C5.07847 18.2012 4.40855 16.6443 4.12264 15.0236C3.83777 13.4086 3.91916 11.6359 4.7701 10.1584C5.60805 8.70167 7.12735 7.65359 8.85214 7.65349ZM14.7223 9.16032C14.1974 9.11947 13.6872 9.26035 13.1715 9.45231C12.9654 9.52903 12.6229 9.66822 12.4215 9.7404C12.2229 9.81152 11.9678 9.89384 11.7047 9.91325L11.5914 9.91814L11.5152 9.91423C11.5107 9.91372 11.5061 9.91184 11.5015 9.9113C11.2404 9.89683 10.9909 9.8268 10.7887 9.75603C10.5609 9.6763 10.3058 9.56771 10.0914 9.48064C9.61964 9.28905 9.22108 9.15358 8.85214 9.15349C7.75344 9.15359 6.68798 9.83174 6.06991 10.9064C5.45701 11.9707 5.34969 13.3481 5.59921 14.7629C5.84754 16.1706 6.43401 17.5243 7.08553 18.4679C7.44118 18.9783 7.78194 19.4487 8.14706 19.7912C8.50739 20.1291 8.80112 20.2547 9.06307 20.2482C9.42912 20.2323 9.66562 20.125 10.0777 19.9504C10.5027 19.7703 11.03 19.5656 11.816 19.5656C12.6085 19.5656 13.132 19.7885 13.5406 19.965C13.9267 20.1318 14.1608 20.2309 14.5377 20.2218H14.5435C14.8645 20.2167 15.1581 20.079 15.4801 19.7785C15.8171 19.4638 16.1261 19.028 16.4781 18.5109L16.4791 18.509C16.884 17.9178 17.1568 17.3346 17.3228 16.9259C17.107 16.7878 16.8612 16.606 16.6168 16.3732C15.9517 15.7393 15.2862 14.718 15.2701 13.2179V13.216C15.2564 11.6028 16.0865 10.5295 16.7281 9.94255C15.995 9.28646 15.1221 9.18794 14.7301 9.1613L14.7223 9.16032Z" fill="black"/>
<path fill-rule="evenodd" clip-rule="evenodd" d="M13.6099 2.17985C14.1339 2.03826 14.7076 2.07339 15.1558 2.44938C15.6681 2.87928 15.7704 3.54831 15.6588 4.15544C15.5458 4.76932 15.2194 5.36266 14.8189 5.84001C14.4183 6.31737 13.8903 6.74225 13.3053 6.96013C12.7268 7.17548 12.05 7.19158 11.5377 6.76189C11.0255 6.33205 10.9241 5.66286 11.0357 5.05583C11.1487 4.4418 11.474 3.8467 11.8746 3.36931C12.2586 2.91177 12.7617 2.5072 13.318 2.28239L13.3189 2.28142L13.3892 2.25114L13.6099 2.17985ZM14.1812 3.60368C14.1499 3.60126 14.0916 3.6031 14.0064 3.62614L13.9127 3.65642L13.8043 3.70329C13.5481 3.82438 13.2678 4.04374 13.024 4.33415C12.7453 4.66631 12.5651 5.0295 12.5103 5.32731C12.4837 5.47238 12.495 5.56021 12.5055 5.60075L12.5074 5.60563L12.5133 5.60661C12.5551 5.6098 12.6438 5.60524 12.7818 5.55388C13.0655 5.4481 13.3919 5.20812 13.6705 4.87614C13.949 4.54412 14.1284 4.18164 14.1832 3.88396C14.2099 3.73878 14.1985 3.65108 14.1881 3.61052L14.1861 3.60563L14.1812 3.60368Z" fill="black"/>
</svg>
