<svg width="24" height="24" viewBox="0 0 24 24" fill="none" xmlns="http://www.w3.org/2000/svg">
<path d="M14.6562 8.21769C15.2493 8.21782 15.738 8.6779 15.7773 9.26555C15.7799 9.29051 15.7812 9.31609 15.7812 9.34172L15.7754 9.45793C15.7178 10.024 15.2401 10.4651 14.6592 10.4667H14.6572L14.6562 10.4677C14.0332 10.4687 13.5312 9.96298 13.5312 9.34367C13.5314 8.72198 14.0349 8.22083 14.6523 8.21769H14.6562Z" fill="black"/>
<path fill-rule="evenodd" clip-rule="evenodd" d="M10.0029 4.68352C12.5759 2.1052 16.7493 2.10514 19.3223 4.68352C21.8944 7.26127 21.894 11.4408 19.3223 14.0195C17.5272 15.8165 14.9581 16.3561 12.6953 15.6484L12 16.3466C11.8593 16.4876 11.6679 16.5663 11.4688 16.5663H10.3867V17.2861C10.3865 17.7001 10.0508 18.0361 9.63672 18.0361H8.92188V19.122C8.92179 19.3203 8.84313 19.5108 8.70312 19.6513L7.3291 21.0292C7.18839 21.1703 6.99714 21.2499 6.79785 21.2499H3.5C3.08587 21.2499 2.75014 20.914 2.75 20.4999V17.1943C2.7502 16.996 2.82875 16.8054 2.96875 16.665L8.3623 11.2587C7.68517 9.00901 8.22473 6.46594 10.0029 4.68352ZM18.2598 5.74309C16.2729 3.75245 13.0523 3.75251 11.0654 5.74309C9.59869 7.2133 9.21871 9.35967 9.92285 11.1894C10.0292 11.4656 9.96286 11.7786 9.75391 11.9882L4.25 17.5048V19.7499H6.48535L7.42188 18.8105V17.2861C7.42205 16.872 7.75783 16.5361 8.17188 16.5361H8.88672V15.8163C8.88708 15.4025 9.22286 15.0665 9.63672 15.0663H11.1582L11.9678 14.2548C12.1797 14.0426 12.4987 13.9767 12.7773 14.0878C14.6107 14.8195 16.7775 14.4436 18.2598 12.9599C20.2477 10.9665 20.2475 7.73521 18.2598 5.74309Z" fill="black"/>
</svg>
