<svg width="24" height="24" viewBox="0 0 24 24" fill="none" xmlns="http://www.w3.org/2000/svg">
<path d="M18.8096 18C19.2238 18 19.5596 18.3358 19.5596 18.75C19.5596 19.1642 19.2238 19.5 18.8096 19.5H17.0596C16.6455 19.4998 16.3096 19.1641 16.3096 18.75C16.3096 18.3359 16.6455 18.0002 17.0596 18H18.8096Z" fill="black"/>
<path fill-rule="evenodd" clip-rule="evenodd" d="M18 2.25C19.4927 2.25 20.7032 3.43834 20.7451 4.9209C20.7478 4.94692 20.75 4.97326 20.75 5V7.35547C21.9042 7.68197 22.75 8.741 22.75 10V19C22.75 20.5192 21.5192 21.75 20 21.75H15.875C14.6161 21.75 13.558 20.9041 13.2314 19.75H3C2.03379 19.75 1.25 18.9662 1.25 18V17C1.25 16.3024 1.65915 15.701 2.25 15.4199V5C2.25 3.48079 3.48079 2.25 5 2.25H18ZM15.875 8.75C15.1842 8.75 14.625 9.30921 14.625 10V19C14.625 19.6908 15.1842 20.25 15.875 20.25H20C20.6908 20.25 21.25 19.6908 21.25 19V10C21.25 9.30921 20.6908 8.75 20 8.75H15.875ZM3 16.75C2.86221 16.75 2.75 16.8622 2.75 17V18C2.75 18.1378 2.86221 18.25 3 18.25H13.125V16.75H3ZM5 3.75C4.30921 3.75 3.75 4.30921 3.75 5V15.25H13.125V10C13.125 8.48079 14.3558 7.25 15.875 7.25H19.25V5C19.25 4.30921 18.6908 3.75 18 3.75H5Z" fill="black"/>
</svg>
