<svg width="24" height="24" viewBox="0 0 24 24" fill="none" xmlns="http://www.w3.org/2000/svg">
<path d="M10.1195 8.26465C11.1564 7.22776 12.8385 7.22778 13.8754 8.26465L18.601 12.9902C19.6378 14.0271 19.6378 15.7092 18.601 16.7461L13.8754 21.4727C12.8385 22.5094 11.1563 22.5094 10.1195 21.4727L5.39392 16.7461C4.35705 15.7092 4.35703 14.0271 5.39392 12.9902L10.1195 8.26465ZM12.8148 9.3252C12.3637 8.87411 11.6312 8.87409 11.1801 9.3252L6.45447 14.0518C6.00354 14.5029 6.00344 15.2345 6.45447 15.6855L11.1801 20.4121C11.6311 20.8631 12.3637 20.863 12.8148 20.4121L17.5404 15.6855C17.9915 15.2345 17.9915 14.5029 17.5404 14.0518L12.8148 9.3252ZM12.0765 1.75C15.7964 1.75019 18.9847 3.9726 20.4125 7.15527L20.5453 7.4668L20.5707 7.53906C20.677 7.90404 20.4912 8.29767 20.1312 8.44336C19.7473 8.59859 19.31 8.41317 19.1547 8.0293C18.0199 5.22579 15.2821 3.2502 12.0765 3.25C9.2801 3.25 6.83632 4.75342 5.5033 6.99805H6.33142L6.40759 7.00195C6.78585 7.0403 7.08142 7.35968 7.08142 7.74805C7.0814 8.1364 6.78584 8.4558 6.40759 8.49414L6.33142 8.49805H3.68005C3.26586 8.49805 2.93008 8.16224 2.93005 7.74805V5.0957C2.93021 4.68163 3.26594 4.3457 3.68005 4.3457C4.09417 4.3457 4.42989 4.68163 4.43005 5.0957V5.88672C6.06262 3.39752 8.87402 1.75 12.0765 1.75Z" fill="black"/>
</svg>
