<svg width="24" height="24" viewBox="0 0 24 24" fill="none" xmlns="http://www.w3.org/2000/svg">
<path fill-rule="evenodd" clip-rule="evenodd" d="M2 7.25C2 5.73122 3.23122 4.5 4.75 4.5H19.25C20.7688 4.5 22 5.73122 22 7.25V10.25C22 10.6642 21.6642 11 21.25 11C20.8358 11 20.5 10.6642 20.5 10.25V7.25C20.5 6.55964 19.9404 6 19.25 6H4.75C4.05964 6 3.5 6.55964 3.5 7.25V16.75C3.5 17.4404 4.05964 18 4.75 18H10.75C11.1642 18 11.5 18.3358 11.5 18.75C11.5 19.1642 11.1642 19.5 10.75 19.5H4.75C3.23122 19.5 2 18.2688 2 16.75V7.25Z" fill="black"/>
<path fill-rule="evenodd" clip-rule="evenodd" d="M17 12.5C15.067 12.5 13.5 14.067 13.5 16C13.5 17.933 15.067 19.5 17 19.5C18.933 19.5 20.5 17.933 20.5 16C20.5 14.067 18.933 12.5 17 12.5ZM12 16C12 13.2386 14.2386 11 17 11C19.7614 11 22 13.2386 22 16C22 18.7614 19.7614 21 17 21C14.2386 21 12 18.7614 12 16ZM19.2536 14.644C19.533 14.9497 19.5117 15.4241 19.206 15.7036L16.8812 17.8286C16.5864 18.0981 16.1321 18.0892 15.8481 17.8085L14.7728 16.746C14.4782 16.4548 14.4754 15.98 14.7665 15.6853C15.0577 15.3907 15.5325 15.3879 15.8272 15.679L16.3953 16.2405L18.194 14.5964C18.4997 14.317 18.9741 14.3383 19.2536 14.644Z" fill="black"/>
<path fill-rule="evenodd" clip-rule="evenodd" d="M5.25 8.5C5.25 8.08579 5.58579 7.75 6 7.75H6.00103C6.41524 7.75 6.75103 8.08579 6.75103 8.5C6.75103 8.91421 6.41524 9.25 6.00103 9.25H6C5.58579 9.25 5.25 8.91421 5.25 8.5Z" fill="black"/>
<path fill-rule="evenodd" clip-rule="evenodd" d="M17.25 8.5C17.25 8.08579 17.5858 7.75 18 7.75H18.001C18.4152 7.75 18.751 8.08579 18.751 8.5C18.751 8.91421 18.4152 9.25 18.001 9.25H18C17.5858 9.25 17.25 8.91421 17.25 8.5Z" fill="black"/>
<path fill-rule="evenodd" clip-rule="evenodd" d="M5.25 15.5C5.25 15.0858 5.58579 14.75 6 14.75H6.00103C6.41524 14.75 6.75103 15.0858 6.75103 15.5C6.75103 15.9142 6.41524 16.25 6.00103 16.25H6C5.58579 16.25 5.25 15.9142 5.25 15.5Z" fill="black"/>
</svg>
