<svg width="24" height="24" viewBox="0 0 24 24" fill="none" xmlns="http://www.w3.org/2000/svg">
<path d="M2 7.25C2 5.73122 3.23122 4.5 4.75 4.5H19.25C20.7688 4.5 22 5.73122 22 7.25V10.25C22 10.6642 21.6642 11 21.25 11C20.8358 11 20.5 10.6642 20.5 10.25V7.25C20.5 6.55964 19.9404 6 19.25 6H4.75C4.05964 6 3.5 6.55964 3.5 7.25V16.75C3.5 17.4404 4.05964 18 4.75 18H10.75C11.1642 18 11.5 18.3358 11.5 18.75C11.5 19.1642 11.1642 19.5 10.75 19.5H4.75C3.23122 19.5 2 18.2688 2 16.75V7.25Z" fill="black"/>
<path d="M19.4749 13.5251C18.108 12.1583 15.892 12.1583 14.5251 13.5251C13.1583 14.892 13.1583 17.108 14.5251 18.4749C15.892 19.8417 18.108 19.8417 19.4749 18.4749C20.8417 17.108 20.8417 14.892 19.4749 13.5251ZM13.4645 12.4645C15.4171 10.5118 18.5829 10.5118 20.5355 12.4645C22.4882 14.4171 22.4882 17.5829 20.5355 19.5355C18.5829 21.4882 15.4171 21.4882 13.4645 19.5355C11.5118 17.5829 11.5118 14.4171 13.4645 12.4645ZM17 13.2465C17.4142 13.2465 17.75 13.5823 17.75 13.9965V15.25L19.0035 15.25C19.4177 15.25 19.7535 15.5858 19.7535 16C19.7535 16.4142 19.4177 16.75 19.0035 16.75L17.75 16.75V18.0035C17.75 18.4177 17.4142 18.7535 17 18.7535C16.5858 18.7535 16.25 18.4177 16.25 18.0035V16.75L14.9965 16.75C14.5823 16.75 14.2465 16.4142 14.2465 16C14.2465 15.5858 14.5823 15.25 14.9965 15.25L16.25 15.25V13.9965C16.25 13.5823 16.5858 13.2465 17 13.2465Z" fill="black"/>
<path d="M5.25 8.5C5.25 8.08579 5.58579 7.75 6 7.75H6.00103C6.41524 7.75 6.75103 8.08579 6.75103 8.5C6.75103 8.91421 6.41524 9.25 6.00103 9.25H6C5.58579 9.25 5.25 8.91421 5.25 8.5Z" fill="black"/>
<path d="M17.25 8.5C17.25 8.08579 17.5858 7.75 18 7.75H18.001C18.4152 7.75 18.751 8.08579 18.751 8.5C18.751 8.91421 18.4152 9.25 18.001 9.25H18C17.5858 9.25 17.25 8.91421 17.25 8.5Z" fill="black"/>
<path d="M5.25 15.5C5.25 15.0858 5.58579 14.75 6 14.75H6.00103C6.41524 14.75 6.75103 15.0858 6.75103 15.5C6.75103 15.9142 6.41524 16.25 6.00103 16.25H6C5.58579 16.25 5.25 15.9142 5.25 15.5Z" fill="black"/>
</svg>
