<svg width="24" height="24" viewBox="0 0 24 24" fill="none" xmlns="http://www.w3.org/2000/svg">
<path d="M13.3105 2.05221C13.6157 2.17237 13.8073 2.47682 13.7838 2.80389L13.3156 9.30759L19.3632 10.2309C19.6285 10.2714 19.852 10.4506 19.9491 10.7008C20.0463 10.951 20.0024 11.234 19.8339 11.443L11.5482 21.7208C11.3424 21.9761 10.9946 22.068 10.6895 21.9479C10.3844 21.8277 10.1927 21.5233 10.2162 21.1962L10.6844 14.6925L4.63682 13.7692C4.37149 13.7287 4.14803 13.5495 4.05087 13.2993C3.95371 13.0491 3.99766 12.7661 4.16612 12.5571L12.4518 2.27933C12.6576 2.02404 13.0054 1.93205 13.3105 2.05221ZM6.15241 12.4832L11.5953 13.3142C11.9819 13.3732 12.2583 13.7194 12.2302 14.1094L11.8844 18.9137L17.8476 11.5169L12.4047 10.6859C12.0181 10.6269 11.7417 10.2807 11.7698 9.89064L12.1156 5.08635L6.15241 12.4832Z" fill="black"/>
</svg>
