<svg width="24" height="24" viewBox="0 0 24 24" fill="none" xmlns="http://www.w3.org/2000/svg">
<path d="M6.51175 9.77124C8.70167 7.85935 11.9673 7.85941 14.1573 9.77124C14.4692 10.0435 14.5016 10.5168 14.2295 10.8289C13.9571 11.1409 13.483 11.1735 13.1709 10.9011C11.5497 9.48573 9.13355 9.48213 7.50882 10.8914L5.87601 12.5242L5.87698 12.5251C4.3592 14.0757 4.37219 16.5591 5.90628 18.0935C7.44079 19.628 9.92495 19.641 11.4756 18.1228C11.7716 17.8332 12.2465 17.8386 12.5362 18.1345C12.8259 18.4304 12.8212 18.9053 12.5254 19.1951C10.3872 21.2885 6.96165 21.27 4.84573 19.154C2.73014 17.0381 2.71242 13.6134 4.8057 11.4753L4.81058 11.4695L6.47464 9.80542C6.48653 9.79353 6.49909 9.7823 6.51175 9.77124ZM11.6797 4.61499C13.8264 2.7149 17.1045 2.79596 19.1543 4.84546C21.2702 6.96137 21.2887 10.3869 19.1953 12.5251L19.1895 12.53L17.5254 14.1941C17.5135 14.206 17.501 14.2181 17.4883 14.2292C15.3669 16.081 12.2363 16.1391 10.0518 14.4031L9.8428 14.2292L9.78812 14.1755C9.52846 13.8979 9.51612 13.4632 9.77152 13.1707C10.027 12.8782 10.4594 12.8316 10.7696 13.0515L10.8301 13.0994L10.9844 13.2283C12.599 14.5114 14.9098 14.4727 16.4834 13.114L18.1289 11.4695C19.6415 9.91843 19.6264 7.43862 18.0938 5.906C16.5593 4.37191 14.076 4.35892 12.5254 5.87671L12.4678 5.92749C12.1708 6.16477 11.7367 6.14318 11.4649 5.86596C11.1752 5.57005 11.1798 5.09521 11.4756 4.80542L11.6797 4.61499Z" fill="black"/>
</svg>
