<svg width="24" height="24" viewBox="0 0 24 24" fill="none" xmlns="http://www.w3.org/2000/svg">
<path d="M20 18.2501C20.4142 18.2501 20.75 18.5859 20.75 19.0001C20.75 19.4143 20.4142 19.7501 20 19.7501H11.1504C10.7362 19.7501 10.4004 19.4143 10.4004 19.0001C10.4004 18.5859 10.7362 18.2501 11.1504 18.2501H20ZM3.25002 15.0001C3.25002 14.0336 4.03352 13.2501 5.00002 13.2501H5.61428C6.46576 13.2501 7.2218 13.7949 7.49123 14.6026C7.711 15.2619 7.56949 15.989 7.11721 16.5167L5.63088 18.2501H7.00002C7.41423 18.2501 7.75002 18.5859 7.75002 19.0001C7.75002 19.4143 7.41423 19.7501 7.00002 19.7501H4.00002C3.70712 19.7501 3.44077 19.5797 3.31838 19.3136C3.19601 19.0475 3.24008 18.7342 3.43068 18.5118L5.97756 15.5401C6.08696 15.4125 6.12154 15.2367 6.06838 15.0772C6.01134 14.9063 5.86432 14.7838 5.69045 14.7559L5.61428 14.7501H5.00002C4.86195 14.7501 4.75002 14.862 4.75002 15.0001C4.75002 15.4143 4.41423 15.7501 4.00002 15.7501C3.58581 15.7501 3.25002 15.4143 3.25002 15.0001ZM20 13.2501C20.4142 13.2501 20.75 13.5859 20.75 14.0001C20.75 14.4143 20.4142 14.7501 20 14.7501H11C10.5858 14.7501 10.25 14.4143 10.25 14.0001C10.25 13.5859 10.5858 13.2501 11 13.2501H20ZM4.71975 3.4698C4.93423 3.25532 5.25689 3.19067 5.53713 3.30672C5.81738 3.4228 6.00002 3.69673 6.00002 4.00007V8.25007H6.50002C6.91423 8.25007 7.25002 8.58586 7.25002 9.00007C7.25002 9.41429 6.91423 9.75007 6.50002 9.75007H4.00002C3.58581 9.75007 3.25002 9.41429 3.25002 9.00007C3.25002 8.58586 3.58581 8.25007 4.00002 8.25007H4.50002V5.80769C4.20556 6.07219 3.75296 6.06356 3.46975 5.78035C3.17685 5.48745 3.17685 5.01269 3.46975 4.7198L4.71975 3.4698ZM20 8.25007C20.4142 8.25007 20.75 8.58586 20.75 9.00007C20.75 9.41429 20.4142 9.75007 20 9.75007H11.1504C10.7362 9.75007 10.4004 9.41429 10.4004 9.00007C10.4004 8.58586 10.7362 8.25007 11.1504 8.25007H20ZM20 3.25007C20.4142 3.25007 20.75 3.58586 20.75 4.00007C20.75 4.41429 20.4142 4.75007 20 4.75007H11C10.5858 4.75007 10.25 4.41429 10.25 4.00007C10.25 3.58586 10.5858 3.25007 11 3.25007H20Z" fill="black"/>
</svg>
