<svg width="24" height="24" viewBox="0 0 24 24" fill="none" xmlns="http://www.w3.org/2000/svg">
<path d="M5.03148 3.77152C4.81569 3.66014 4.55932 3.66014 4.34352 3.77152L4.1767 3.85762C3.76109 4.07213 3.5 4.5007 3.5 4.9684V19.0316C3.5 19.4993 3.76109 19.9278 4.1767 20.1423L4.34352 20.2284C4.55931 20.3398 4.81569 20.3398 5.03148 20.2284L5.59305 19.9386C6.24044 19.6045 7.00955 19.6045 7.65695 19.9386L7.93773 20.0835C8.30581 20.2735 8.45019 20.7259 8.26021 21.094C8.07024 21.462 7.61784 21.6064 7.24977 21.4164L6.96898 21.2715C6.75319 21.1601 6.49681 21.1601 6.28102 21.2715L5.71945 21.5614C5.07206 21.8955 4.30295 21.8955 3.65556 21.5614L3.48873 21.4753C2.5744 21.0034 2 20.0605 2 19.0316V4.9684C2 3.93947 2.5744 2.99661 3.48873 2.52469L3.65555 2.43859C4.30295 2.10445 5.07205 2.10445 5.71945 2.43859L6.28102 2.72843C6.49682 2.83981 6.75319 2.83981 6.96898 2.72844L7.53055 2.43859C8.17795 2.10445 8.94705 2.10445 9.59445 2.43859L10.156 2.72843C10.3718 2.83981 10.6282 2.83981 10.844 2.72843L11.4056 2.43859C12.0529 2.10445 12.8221 2.10445 13.4694 2.43859L14.031 2.72843C14.2468 2.83981 14.5032 2.83981 14.719 2.72843L15.2806 2.43859C15.9279 2.10445 16.6971 2.10445 17.3444 2.43859L17.5113 2.52469C18.4256 2.99661 19 3.93946 19 4.9684V10.25C19 10.6642 18.6642 11 18.25 11C17.8358 11 17.5 10.6642 17.5 10.25V4.9684C17.5 4.5007 17.2389 4.07213 16.8233 3.85762L16.6565 3.77152C16.4407 3.66014 16.1843 3.66014 15.9685 3.77152L15.4069 4.06137C14.7596 4.3955 13.9904 4.3955 13.3431 4.06137L12.7815 3.77152C12.5657 3.66014 12.3093 3.66014 12.0935 3.77152L11.5319 4.06137C10.8846 4.3955 10.1154 4.3955 9.46805 4.06137L8.90648 3.77152C8.69069 3.66014 8.43431 3.66014 8.21852 3.77152L7.65695 4.06137C7.00955 4.3955 6.24045 4.3955 5.59305 4.06137L5.03148 3.77152ZM5.5 8.24998C5.5 7.83577 5.83579 7.49998 6.25 7.49998H13.75C14.1642 7.49998 14.5 7.83577 14.5 8.24998C14.5 8.66419 14.1642 8.99998 13.75 8.99998H6.25C5.83579 8.99998 5.5 8.66419 5.5 8.24998ZM5.5 11.75C5.5 11.3358 5.83579 11 6.25 11H9.25C9.66421 11 10 11.3358 10 11.75C10 12.1642 9.66421 12.5 9.25 12.5H6.25C5.83579 12.5 5.5 12.1642 5.5 11.75ZM10.0034 16.0166C10.0034 14.3506 11.354 13 13.0201 13H19.9834C21.6495 13 23.0001 14.3506 23.0001 16.0166V19.9833C23.0001 21.6494 21.6495 23 19.9834 23H13.0201C11.354 23 10.0034 21.6494 10.0034 19.9833V16.0166ZM19.9834 14.5H13.0201C12.1825 14.5 11.5034 15.179 11.5034 16.0166V16.4H21.5001V16.0166C21.5001 15.179 20.821 14.5 19.9834 14.5ZM21.5001 17.9H11.5034V19.9833C11.5034 20.8209 12.1825 21.5 13.0201 21.5H19.9834C20.821 21.5 21.5001 20.8209 21.5001 19.9833V17.9Z" fill="black"/>
</svg>
