<svg width="24" height="24" viewBox="0 0 24 24" fill="none" xmlns="http://www.w3.org/2000/svg">
<path d="M12 2C12.4142 2 12.75 2.33579 12.75 2.75V6.45C12.75 6.86421 12.4142 7.2 12 7.2C11.5858 7.2 11.25 6.86421 11.25 6.45V2.75C11.25 2.33579 11.5858 2 12 2ZM4.92992 4.92992C5.22281 4.63703 5.69769 4.63703 5.99058 4.92992L8.60833 7.54767C8.90122 7.84056 8.90122 8.31544 8.60833 8.60833C8.31544 8.90122 7.84056 8.90122 7.54767 8.60833L4.92992 5.99058C4.63703 5.69769 4.63703 5.22281 4.92992 4.92992ZM19.0701 4.92992C19.363 5.22281 19.363 5.69769 19.0701 5.99058L16.4523 8.60833C16.1594 8.90122 15.6846 8.90122 15.3917 8.60833C15.0988 8.31544 15.0988 7.84056 15.3917 7.54767L18.0094 4.92992C18.3023 4.63703 18.7772 4.63703 19.0701 4.92992ZM2 12C2 11.5858 2.33579 11.25 2.75 11.25H6.45C6.86421 11.25 7.2 11.5858 7.2 12C7.2 12.4142 6.86421 12.75 6.45 12.75H2.75C2.33579 12.75 2 12.4142 2 12ZM16.8 12C16.8 11.5858 17.1358 11.25 17.55 11.25H21.25C21.6642 11.25 22 11.5858 22 12C22 12.4142 21.6642 12.75 21.25 12.75H17.55C17.1358 12.75 16.8 12.4142 16.8 12ZM8.60833 15.3917C8.90122 15.6846 8.90122 16.1594 8.60833 16.4523L5.99058 19.0701C5.69769 19.363 5.22281 19.363 4.92992 19.0701C4.63703 18.7772 4.63703 18.3023 4.92992 18.0094L7.54767 15.3917C7.84056 15.0988 8.31544 15.0988 8.60833 15.3917ZM15.3917 15.3917C15.6846 15.0988 16.1594 15.0988 16.4523 15.3917L19.0701 18.0094C19.363 18.3023 19.363 18.7772 19.0701 19.0701C18.7772 19.363 18.3023 19.363 18.0094 19.0701L15.3917 16.4523C15.0988 16.1594 15.0988 15.6846 15.3917 15.3917ZM12 16.8C12.4142 16.8 12.75 17.1358 12.75 17.55V21.25C12.75 21.6642 12.4142 22 12 22C11.5858 22 11.25 21.6642 11.25 21.25V17.55C11.25 17.1358 11.5858 16.8 12 16.8Z" fill="black"/>
</svg>
