<svg width="24" height="24" viewBox="0 0 24 24" fill="none" xmlns="http://www.w3.org/2000/svg">
<path d="M2 4.75C2 3.23122 3.23122 2 4.75 2H12.25C13.7688 2 15 3.23122 15 4.75V7H19.2549C20.7737 7 22.0049 8.23122 22.0049 9.75V19.25C22.0049 20.7688 20.7737 22 19.2549 22H4.75C3.23122 22 2 20.7688 2 19.25V4.75ZM11.7549 20.5H19.2549C19.9452 20.5 20.5049 19.9404 20.5049 19.25V9.75C20.5049 9.05964 19.9452 8.5 19.2549 8.5H11.7549C11.0645 8.5 10.5049 9.05964 10.5049 9.75V19.25C10.5049 19.9404 11.0645 20.5 11.7549 20.5ZM13.5 7V4.75C13.5 4.05964 12.9404 3.5 12.25 3.5H4.75C4.05964 3.5 3.5 4.05964 3.5 4.75V19.25C3.5 19.9404 4.05964 20.5 4.75 20.5H9.30474C9.11302 20.125 9.00488 19.7001 9.00488 19.25V9.75C9.00488 8.23122 10.2361 7 11.7549 7H13.5ZM5.75 5C6.16421 5 6.5 5.33579 6.5 5.75V9.25C6.5 9.66421 6.16421 10 5.75 10C5.33579 10 5 9.66421 5 9.25V5.75C5 5.33579 5.33579 5 5.75 5ZM12.0049 10.75C12.0049 10.3358 12.3407 10 12.7549 10H15.2549C15.6691 10 16.0049 10.3358 16.0049 10.75C16.0049 11.1642 15.6691 11.5 15.2549 11.5H12.7549C12.3407 11.5 12.0049 11.1642 12.0049 10.75ZM17.5049 10.75C17.5049 10.3358 17.8407 10 18.2549 10C18.6691 10 19.0059 10.3358 19.0059 10.75C19.0059 11.1642 18.6701 11.5 18.2559 11.5C17.8417 11.5 17.5049 11.1642 17.5049 10.75ZM15.5049 14.5C14.6765 14.5 14.0049 15.1716 14.0049 16C14.0049 16.8284 14.6765 17.5 15.5049 17.5C16.3333 17.5 17.0049 16.8284 17.0049 16C17.0049 15.1716 16.3333 14.5 15.5049 14.5ZM12.5049 16C12.5049 14.3431 13.848 13 15.5049 13C17.1617 13 18.5049 14.3431 18.5049 16C18.5049 17.6569 17.1617 19 15.5049 19C13.848 19 12.5049 17.6569 12.5049 16Z" fill="black"/>
</svg>
