<svg width="24" height="24" viewBox="0 0 24 24" fill="none" xmlns="http://www.w3.org/2000/svg">
<path d="M8.89014 3.51095C9.09067 3.54016 9.30853 3.61498 9.60193 3.71575L9.62473 3.72358C10.0037 3.8537 10.5025 3.98585 11 3.98585C11.4975 3.98585 11.9963 3.8537 12.3753 3.72358L12.3981 3.71575C12.6915 3.61498 12.9093 3.54016 13.1099 3.51095C13.299 3.48341 13.3764 3.51265 13.4186 3.53981C13.6453 3.68531 13.7857 3.9293 13.7857 4.19912C13.7857 5.50387 12.698 6.62889 11.3929 6.62889H10.6071C9.30197 6.62889 8.21429 5.50387 8.21429 4.19912C8.21429 3.9293 8.35475 3.68531 8.58135 3.53981C8.62365 3.51265 8.70104 3.48341 8.89014 3.51095ZM13.9737 7.12308C14.7805 6.39211 15.2857 5.33518 15.2857 4.19912C15.2857 3.3889 14.8598 2.68258 14.2291 2.2776C13.7722 1.98427 13.2851 1.9696 12.8937 2.02661C12.5481 2.07694 12.2044 2.19566 11.9506 2.28333C11.9291 2.29076 11.9083 2.29797 11.8881 2.30489C11.5748 2.41248 11.257 2.48585 11 2.48585C10.743 2.48585 10.4252 2.41248 10.1119 2.30489C10.0917 2.29797 10.0709 2.29076 10.0494 2.28333C9.79555 2.19566 9.4519 2.07694 9.10633 2.02661C8.7149 1.9696 8.22775 1.98427 7.7709 2.2776C7.14018 2.68258 6.71429 3.3889 6.71429 4.19912C6.71429 5.33527 7.21962 6.39229 8.02654 7.12326C4.52312 8.32802 2 11.6022 2 15.4704C2 19.0902 4.98789 22 8.64286 22H11.75C12.1642 22 12.5 21.6642 12.5 21.25C12.5 20.8358 12.1642 20.5 11.75 20.5H8.64286C5.78875 20.5 3.5 18.2345 3.5 15.4704C3.5 11.4294 6.84408 8.12889 11 8.12889C13.0097 8.12889 14.8315 8.90159 16.1768 10.1583C16.4795 10.441 16.9541 10.4248 17.2368 10.1221C17.5196 9.81942 17.5034 9.34482 17.2007 9.06208C16.2863 8.20796 15.1892 7.541 13.9737 7.12308ZM15.5 16.0415V16.9931C15.5033 16.9923 15.5452 17.1643 16.0162 17.3816C16.4852 17.5981 17.1858 17.752 18 17.752C18.8142 17.752 19.5148 17.5981 19.9838 17.3816C20.4548 17.1643 20.4965 16.9917 20.4998 16.9925L20.5 16.0415C19.8086 16.3365 18.9296 16.5 18 16.5C17.0704 16.5 16.1914 16.3365 15.5 16.0415ZM22 14.25V19.7539C22 20.637 21.256 21.1985 20.6124 21.4955C19.9051 21.822 18.9807 22.0039 18 22.0039C17.0193 22.0039 16.0949 21.822 15.3876 21.4955C14.744 21.1985 14 20.637 14 19.7539V14.25C14 13.3669 14.744 12.8054 15.3876 12.5084C16.0949 12.1819 17.0193 12 18 12C18.9807 12 19.9051 12.1819 20.6124 12.5084C21.256 12.8054 22 13.3669 22 14.25ZM15.5 18.7935V19.745C15.5033 19.7443 15.5452 19.9162 16.0162 20.1336C16.4852 20.3501 17.1858 20.5039 18 20.5039C18.8142 20.5039 19.5148 20.3501 19.9838 20.1336C20.4548 19.9162 20.4965 19.7437 20.4998 19.7444L20.5 18.7935C19.8086 19.0885 18.9296 19.252 18 19.252C17.0704 19.252 16.1914 19.0885 15.5 18.7935ZM20.4951 14.25C20.4764 14.2111 20.389 14.0573 19.9838 13.8703C19.5148 13.6538 18.8142 13.5 18 13.5C17.1858 13.5 16.4852 13.6538 16.0162 13.8703C15.611 14.0573 15.5236 14.2111 15.5049 14.25C15.5236 14.2889 15.611 14.4427 16.0162 14.6297C16.4852 14.8461 17.1858 15 18 15C18.8142 15 19.5148 14.8461 19.9838 14.6297C20.389 14.4427 20.4764 14.2889 20.4951 14.25Z" fill="black"/>
</svg>
