<svg width="24" height="24" viewBox="0 0 24 24" fill="none" xmlns="http://www.w3.org/2000/svg">
<path d="M14.3404 2.21857C14.6339 1.92628 15.1088 1.92727 15.4011 2.22077L21.7814 8.62769C22.0737 8.92119 22.0727 9.39606 21.7792 9.68835C21.4857 9.98063 21.0108 9.97965 20.7185 9.68614L19.3991 8.36123L16.339 11.4341L18.3565 13.4599C18.6488 13.7534 18.6478 14.2283 18.3543 14.5206C18.0608 14.8129 17.5859 14.8119 17.2936 14.5184L15.8403 13.059L8.93375 19.9944C7.82524 21.1075 6.05633 21.1552 4.89121 20.1375L3.28552 21.7751C2.99551 22.0708 2.52066 22.0755 2.22491 21.7855C1.92915 21.4955 1.92448 21.0206 2.21449 20.7249L3.83186 19.0754C2.80814 17.9075 2.85178 16.1272 3.96278 15.0115L6.00256 12.9632C6.00668 12.959 6.01084 12.9548 6.01504 12.9507L8.6277 10.3272C8.63166 10.323 8.63567 10.3188 8.63974 10.3147C8.64463 10.3098 8.64956 10.305 8.65454 10.3002L10.8738 8.07176L9.41604 6.60796C9.12375 6.31446 9.12474 5.83959 9.41824 5.5473C9.71174 5.25502 10.1866 5.25601 10.4789 5.54951L12.5743 7.65364L15.637 4.58343L14.3382 3.27923C14.0459 2.98573 14.0469 2.51085 14.3404 2.21857ZM16.6955 5.6463L13.6328 8.71651L15.2806 10.3712L18.3407 7.29836L16.6955 5.6463ZM14.7311 11.9451L12.0538 9.25672C12.0505 9.25357 12.0473 9.25038 12.0441 9.24716C12.0396 9.24274 12.0353 9.23829 12.031 9.23379L11.9322 9.13463L10.2344 10.8395L10.9923 11.5909C11.2864 11.8825 11.2885 12.3574 10.9969 12.6516C10.7053 12.9457 10.2304 12.9478 9.93623 12.6562L9.17592 11.9024L7.60877 13.4761L8.36926 14.2109C8.66713 14.4988 8.67527 14.9736 8.38744 15.2714C8.09961 15.5693 7.62481 15.5775 7.32694 15.2896L6.55019 14.5391L5.02564 16.07C4.45206 16.6459 4.45206 17.5811 5.02564 18.157L5.8013 18.9359C6.37316 19.5102 7.29903 19.5102 7.87089 18.9359L14.7819 11.9961L14.7671 11.9814C14.7617 11.9763 14.7564 11.9711 14.751 11.9658C14.7442 11.959 14.7376 11.9521 14.7311 11.9451Z" fill="black"/>
</svg>
