<svg width="24" height="24" viewBox="0 0 24 24" fill="none" xmlns="http://www.w3.org/2000/svg">
<path d="M12.6259 2.21967C12.7666 2.07902 12.9573 2 13.1562 2H16.625C16.8239 2 17.0147 2.07902 17.1553 2.21967L19.4678 4.53217C19.6156 4.67989 19.695 4.88253 19.6869 5.09128C19.6789 5.30004 19.5842 5.49599 19.4256 5.63194L16.6593 8.00301C19.73 8.78923 22 11.5748 22 14.8906C22 18.0567 19.9309 20.7376 17.073 21.6585C16.6788 21.7856 16.2562 21.569 16.1291 21.1747C16.0021 20.7805 16.2187 20.3579 16.613 20.2308C18.8692 19.5038 20.5 17.3867 20.5 14.8906C20.5 11.7927 17.9886 9.28125 14.8906 9.28125C11.7927 9.28125 9.28125 11.7927 9.28125 14.8906C9.28125 15.8101 9.5019 16.6758 9.89247 17.4399C10.081 17.8087 9.93486 18.2605 9.56604 18.449C9.19722 18.6376 8.7454 18.4914 8.55686 18.1226C8.06075 17.1521 7.78125 16.0529 7.78125 14.8906C7.78125 11.5748 10.0512 8.78923 13.1219 8.00301L10.3557 5.63194C10.197 5.49599 10.1023 5.30004 10.0943 5.09128C10.0863 4.88253 10.1657 4.67989 10.3134 4.53217L12.6259 2.21967ZM14.8906 7.54344L17.8345 5.02014L16.3143 3.5H13.4669L11.9468 5.02014L14.8906 7.54344ZM7.85583 8.60949C7.98382 9.00344 7.76823 9.42655 7.37429 9.55454C5.12466 10.2855 3.5 12.3993 3.5 14.8906C3.5 17.9886 6.0114 20.5 9.10938 20.5C12.2073 20.5 14.7188 17.9886 14.7188 14.8906C14.7188 13.9712 14.4981 13.1054 14.1075 12.3414C13.919 11.9726 14.0651 11.5207 14.434 11.3322C14.8028 11.1437 15.2546 11.2898 15.4431 11.6586C15.9393 12.6291 16.2188 13.7283 16.2188 14.8906C16.2188 18.817 13.0358 22 9.10938 22C5.18298 22 2 18.817 2 14.8906C2 11.7305 4.06134 9.05376 6.91078 8.12795C7.30472 7.99996 7.72784 8.21555 7.85583 8.60949Z" fill="black"/>
</svg>
