<svg width="24" height="24" viewBox="0 0 24 24" fill="none" xmlns="http://www.w3.org/2000/svg">
<path d="M12 4.72173C12.8677 3.96177 13.6918 3.51677 14.6202 3.27434C15.6714 2.99984 16.8182 2.99992 18.1774 3L18.25 3.00001C18.6642 3.00001 19 3.33579 19 3.75001V5.00001H19.25C20.7688 5.00001 22 6.23122 22 7.75001V18.25C22 19.7688 20.7688 21 19.25 21H4.75C3.23122 21 2 19.7688 2 18.25V7.75001C2 6.23122 3.23122 5.00001 4.75 5.00001H5V3.75001C5 3.33579 5.33579 3.00001 5.75 3.00001C5.77427 3.00001 5.79847 3 5.8226 3C7.18183 2.99992 8.32858 2.99984 9.37979 3.27434C10.3082 3.51677 11.1323 3.96177 12 4.72173ZM5 6.50001H4.75C4.05964 6.50001 3.5 7.05965 3.5 7.75001V18.25C3.5 18.9404 4.05964 19.5 4.75 19.5H9.75842C9.50654 19.3806 9.25673 19.2925 9.00081 19.2257C8.15587 19.005 7.19971 19 5.75 19C5.33579 19 5 18.6642 5 18.25V6.50001ZM14.2416 19.5H19.25C19.9404 19.5 20.5 18.9404 20.5 18.25V7.75001C20.5 7.05965 19.9404 6.50001 19.25 6.50001H19V18.25C19 18.6642 18.6642 19 18.25 19C16.8003 19 15.8441 19.005 14.9992 19.2257C14.7433 19.2925 14.4935 19.3806 14.2416 19.5ZM17.5 4.50181C16.4534 4.5091 15.6892 4.54549 14.9992 4.72567C14.2636 4.91774 13.5786 5.2856 12.75 6.06685V18.6356C13.3561 18.22 13.9619 17.9462 14.6202 17.7743C15.4922 17.5467 16.4298 17.5079 17.5 17.5013V4.50181ZM11.25 18.6356V6.06685C10.4214 5.2856 9.73636 4.91774 9.00081 4.72567C8.31079 4.54549 7.5466 4.5091 6.5 4.50181V17.5013C7.57016 17.5079 8.50784 17.5467 9.37979 17.7743C10.0381 17.9462 10.6439 18.22 11.25 18.6356Z" fill="black"/>
</svg>
