<svg width="24" height="24" viewBox="0 0 24 24" fill="none" xmlns="http://www.w3.org/2000/svg">
<path d="M7 6.75C7 4.67893 8.67893 3 10.75 3H13.25C15.3211 3 17 4.67893 17 6.75V9.99878H17.6964C18.9656 9.99878 20 11.0241 20 12.2957V18.1875C20 19.7439 18.7337 21 17.1786 21H6.82143C5.26625 21 4 19.7439 4 18.1875V12.2957C4 11.0241 5.0344 9.99878 6.30357 9.99878H7V6.75ZM7.70684 11.4988H6.30357C5.85671 11.4988 5.5 11.8586 5.5 12.2957V18.1875C5.5 18.9094 6.08857 19.5 6.82143 19.5H17.1786C17.9114 19.5 18.5 18.9094 18.5 18.1875V12.2957C18.5 11.8586 18.1433 11.4988 17.6964 11.4988H16.2932C16.2789 11.4996 16.2645 11.5 16.25 11.5C16.2355 11.5 16.2211 11.4996 16.2068 11.4988H7.79316C7.77888 11.4996 7.76449 11.5 7.75 11.5C7.73551 11.5 7.72112 11.4996 7.70684 11.4988ZM15.5 9.99878V6.75C15.5 5.50736 14.4926 4.5 13.25 4.5H10.75C9.50736 4.5 8.5 5.50736 8.5 6.75V9.99878H15.5Z" fill="black"/>
</svg>
