<svg width="24" height="24" viewBox="0 0 24 24" fill="none" xmlns="http://www.w3.org/2000/svg">
<path d="M2 4.75C2 3.23122 3.23122 2 4.75 2H13.25C14.7688 2 16 3.23122 16 4.75V7.25C16 7.66421 15.6642 8 15.25 8C14.8358 8 14.5 7.66421 14.5 7.25V4.75C14.5 4.05964 13.9404 3.5 13.25 3.5H4.75C4.05964 3.5 3.5 4.05964 3.5 4.75V19.25C3.5 19.9404 4.05964 20.5 4.75 20.5H13.25C13.9404 20.5 14.5 19.9404 14.5 19.25V16.75C14.5 16.3358 14.8358 16 15.25 16C15.6642 16 16 16.3358 16 16.75V19.25C16 20.7688 14.7688 22 13.25 22H4.75C3.23122 22 2 20.7688 2 19.25V4.75ZM17.584 8.4806C17.8708 8.18179 18.3456 8.1721 18.6444 8.45896L21.7694 11.459C21.9167 11.6004 22 11.7958 22 12C22 12.2042 21.9167 12.3996 21.7694 12.541L18.6444 15.541C18.3456 15.8279 17.8708 15.8182 17.584 15.5194C17.2971 15.2206 17.3068 14.7458 17.6056 14.459L19.3858 12.75H8.75C8.33579 12.75 8 12.4142 8 12C8 11.5858 8.33579 11.25 8.75 11.25H19.3858L17.6056 9.54104C17.3068 9.25418 17.2971 8.77941 17.584 8.4806Z" fill="black"/>
</svg>
