<svg width="24" height="24" viewBox="0 0 24 24" fill="none" xmlns="http://www.w3.org/2000/svg">
<path d="M11.5 4.97161C11.5 4.22948 10.8572 3.65079 10.1191 3.72848L4.61914 4.30742C3.98296 4.37439 3.5 4.91086 3.5 5.55056V18.4495C3.5 19.0892 3.98296 19.6257 4.61914 19.6926L10.1191 20.2716C10.8572 20.3493 11.5 19.7706 11.5 19.0285V4.97161ZM9.96212 2.23672C11.5858 2.0658 13 3.33893 13 4.97161V19.0285C13 20.6611 11.5858 21.9343 9.96212 21.7633L4.46212 21.1844C3.06251 21.0371 2 19.8568 2 18.4495V5.55056C2 4.14322 3.06251 2.96299 4.46212 2.81567L9.96212 2.23672ZM14.5 4.75003C14.5 4.33582 14.8358 4.00003 15.25 4.00003H18.25C19.7688 4.00003 21 5.23125 21 6.75003V7.25003C21 7.66425 20.6642 8.00003 20.25 8.00003C19.8358 8.00003 19.5 7.66425 19.5 7.25003V6.75003C19.5 6.05968 18.9404 5.50003 18.25 5.50003H15.25C14.8358 5.50003 14.5 5.16425 14.5 4.75003ZM17.8861 9.73063C18.1729 9.43183 18.6477 9.42214 18.9465 9.70899L20.7694 11.459C20.9168 11.6004 21 11.7958 21 12C21 12.2043 20.9168 12.3996 20.7694 12.5411L18.9465 14.2911C18.6477 14.5779 18.1729 14.5682 17.8861 14.2694C17.5992 13.9706 17.6089 13.4958 17.9077 13.209L18.3858 12.75H14.7504C14.3362 12.75 14.0004 12.4142 14.0004 12C14.0004 11.5858 14.3362 11.25 14.7504 11.25H18.3858L17.9077 10.7911C17.6089 10.5042 17.5992 10.0294 17.8861 9.73063ZM9.25 10C9.66421 10 10 10.3358 10 10.75V13.25C10 13.6642 9.66421 14 9.25 14C8.83579 14 8.5 13.6642 8.5 13.25V10.75C8.5 10.3358 8.83579 10 9.25 10ZM20.25 16C20.6642 16 21 16.3358 21 16.75V17.25C21 18.7688 19.7688 20 18.25 20H15.25C14.8358 20 14.5 19.6642 14.5 19.25C14.5 18.8358 14.8358 18.5 15.25 18.5H18.25C18.9404 18.5 19.5 17.9404 19.5 17.25V16.75C19.5 16.3358 19.8358 16 20.25 16Z" fill="black"/>
</svg>
