<svg width="24" height="24" viewBox="0 0 24 24" fill="none" xmlns="http://www.w3.org/2000/svg">
<path d="M11 4.5C7.41015 4.5 4.5 7.41015 4.5 11C4.5 14.5899 7.41015 17.5 11 17.5C12.7952 17.5 14.4193 16.7732 15.5964 15.596C16.7734 14.4189 17.5 12.795 17.5 11C17.5 7.41015 14.5899 4.5 11 4.5ZM3 11C3 6.58172 6.58172 3 11 3C15.4183 3 19 6.58172 19 11C19 12.9386 18.3097 14.7172 17.1626 16.1015L20.7809 19.7198C21.0738 20.0126 21.0738 20.4875 20.7809 20.7804C20.488 21.0733 20.0131 21.0733 19.7202 20.7804L16.102 17.1622C14.7176 18.3095 12.9389 19 11 19C6.58172 19 3 15.4183 3 11Z" fill="black"/>
</svg>
