<svg width="24" height="24" viewBox="0 0 24 24" fill="none" xmlns="http://www.w3.org/2000/svg">
<path d="M3.28033 2.21967C2.98744 1.92678 2.51256 1.92678 2.21967 2.21967C1.92678 2.51256 1.92678 2.98744 2.21967 3.28033L5.01257 6.07323C4.36773 7.21883 4 8.53971 4 9.94444C4 13.8059 5.94614 16.8074 7.82868 18.809C8.77362 19.8137 9.71676 20.5823 10.424 21.1003C10.7782 21.3597 11.0748 21.5575 11.2851 21.6916C11.3903 21.7587 11.474 21.81 11.5326 21.8452C11.5648 21.8644 11.597 21.8836 11.6295 21.9021C11.8785 22.0433 12.1691 22.0189 12.4108 21.8787C12.4346 21.8648 12.4684 21.8447 12.5113 21.8186C12.597 21.7664 12.7194 21.6901 12.8717 21.5901C13.176 21.3901 13.6011 21.0947 14.0935 20.7073C14.9202 20.0568 15.9464 19.1395 16.9102 17.9709L20.7197 21.7803C21.0126 22.0732 21.4874 22.0732 21.7803 21.7803C22.0732 21.4874 22.0732 21.0126 21.7803 20.7197L17.4016 16.341C17.3832 16.3203 17.3634 16.3005 17.3424 16.2817L13.2291 12.1684C13.2105 12.1476 13.1907 12.1278 13.17 12.1093L9.89073 8.83007C9.87218 8.80932 9.85244 8.78956 9.83157 8.77091L6.52227 5.46161C6.50355 5.44062 6.48351 5.42055 6.46216 5.4015L3.28033 2.21967ZM6.1242 7.18486L8.52441 9.58507C8.50828 9.72136 8.5 9.85984 8.5 10C8.5 11.933 10.067 13.5 12 13.5C12.1402 13.5 12.2787 13.4917 12.4149 13.4756L15.8442 16.9049C14.9409 18.0218 13.96 18.9037 13.166 19.5284C12.7116 19.8859 12.3218 20.1565 12.048 20.3364L12 20.3678C11.8212 20.2515 11.5857 20.0919 11.3104 19.8902C10.6582 19.4125 9.78888 18.7037 8.92132 17.7813C7.17886 15.9287 5.5 13.2774 5.5 9.94444C5.5 8.95632 5.72386 8.02111 6.1242 7.18486Z" fill="black"/>
<path d="M8.70806 4.38602C9.6726 3.82322 10.7967 3.5 11.9996 3.5C15.5949 3.5 18.4996 6.3907 18.4996 9.94444C18.4996 11.286 18.2284 12.5136 17.7918 13.6232C17.6401 14.0087 17.8296 14.4441 18.2151 14.5958C18.6005 14.7474 19.0359 14.5579 19.1876 14.1725C19.6858 12.9064 19.9996 11.4928 19.9996 9.94444C19.9996 5.55142 16.4124 2 11.9996 2C10.5245 2 9.1403 2.39714 7.9521 3.09045C7.59433 3.2992 7.47354 3.75845 7.68229 4.11621C7.89104 4.47398 8.35029 4.59478 8.70806 4.38602ZM11.8879 8.00308C11.925 8.00104 11.9624 8 12.0002 8C13.1048 8 14.0002 8.89543 14.0002 10C14.0002 10.0378 13.9991 10.0752 13.9971 10.1123C13.9744 10.5259 14.2912 10.8796 14.7048 10.9024C15.1184 10.9251 15.4721 10.6083 15.4948 10.1947C15.4984 10.1302 15.5002 10.0653 15.5002 10C15.5002 8.067 13.9332 6.5 12.0002 6.5C11.9349 6.5 11.87 6.50179 11.8055 6.50535C11.3919 6.5281 11.0751 6.88183 11.0978 7.29542C11.1206 7.709 11.4743 8.02584 11.8879 8.00308Z" fill="black"/>
</svg>
