<svg width="24" height="24" viewBox="0 0 24 24" fill="none" xmlns="http://www.w3.org/2000/svg">
<path d="M12 3.5C8.4047 3.5 5.5 6.39071 5.5 9.94444C5.5 13.2774 7.17886 15.9287 8.92132 17.7813C9.78888 18.7037 10.6582 19.4125 11.3104 19.8902C11.5857 20.0919 11.8212 20.2515 12 20.3678C12.1788 20.2515 12.4143 20.0919 12.6896 19.8902C13.3418 19.4125 14.2111 18.7037 15.0787 17.7813C16.8211 15.9287 18.5 13.2774 18.5 9.94444C18.5 6.39071 15.5953 3.5 12 3.5ZM12 22.0039C11.8072 22.0039 11.6488 21.9148 11.5326 21.8452C11.474 21.81 11.3903 21.7587 11.2851 21.6916C11.0748 21.5575 10.7782 21.3597 10.424 21.1003C9.71676 20.5823 8.77362 19.8137 7.82868 18.809C5.94614 16.8074 4 13.8059 4 9.94444C4 5.55142 7.58717 2 12 2C16.4128 2 20 5.55142 20 9.94444C20 13.8059 18.0539 16.8074 16.1713 18.809C15.2264 19.8137 14.2832 20.5823 13.576 21.1003C13.2218 21.3597 12.9252 21.5575 12.7149 21.6916C12.6097 21.7587 12.526 21.81 12.4674 21.8452C12.3826 21.896 12.1928 22.0039 12 22.0039Z" fill="black"/>
<path d="M12 8C10.8954 8 10 8.89543 10 10C10 11.1046 10.8954 12 12 12C13.1046 12 14 11.1046 14 10C14 8.89543 13.1046 8 12 8ZM8.5 10C8.5 8.067 10.067 6.5 12 6.5C13.933 6.5 15.5 8.067 15.5 10C15.5 11.933 13.933 13.5 12 13.5C10.067 13.5 8.5 11.933 8.5 10Z" fill="black"/>
</svg>
