<svg width="24" height="24" viewBox="0 0 24 24" fill="none" xmlns="http://www.w3.org/2000/svg">
<path fill-rule="evenodd" clip-rule="evenodd" d="M4 6.75C4 6.33579 4.33579 6 4.75 6H19.25C19.6642 6 20 6.33579 20 6.75C20 7.16421 19.6642 7.5 19.25 7.5H4.75C4.33579 7.5 4 7.16421 4 6.75Z" fill="black"/>
<path fill-rule="evenodd" clip-rule="evenodd" d="M4 12C4 11.5858 4.33579 11.25 4.75 11.25H19.25C19.6642 11.25 20 11.5858 20 12C20 12.4142 19.6642 12.75 19.25 12.75H4.75C4.33579 12.75 4 12.4142 4 12Z" fill="black"/>
<path fill-rule="evenodd" clip-rule="evenodd" d="M4 17.25C4 16.8358 4.33579 16.5 4.75 16.5H19.25C19.6642 16.5 20 16.8358 20 17.25C20 17.6642 19.6642 18 19.25 18H4.75C4.33579 18 4 17.6642 4 17.25Z" fill="black"/>
</svg>
