<svg width="24" height="24" viewBox="0 0 24 24" fill="none" xmlns="http://www.w3.org/2000/svg">
<path d="M2 4.75C2 3.23122 3.23122 2 4.75 2H19.25C20.7688 2 22 3.23122 22 4.75V15.25C22 16.7688 20.7688 18 19.25 18H13.8161C13.5848 18 13.358 18.0642 13.161 18.1854L7.14307 21.8887C6.91167 22.0311 6.62134 22.0373 6.38415 21.9047C6.14696 21.7722 6 21.5217 6 21.25V18H4.75C3.23122 18 2 16.7688 2 15.25V4.75ZM4.75 3.5C4.05964 3.5 3.5 4.05964 3.5 4.75V15.25C3.5 15.9404 4.05964 16.5 4.75 16.5H6.75C7.16421 16.5 7.5 16.8358 7.5 17.25V19.9078L12.3748 16.9079C12.8082 16.6412 13.3072 16.5 13.8161 16.5H19.25C19.9404 16.5 20.5 15.9404 20.5 15.25V4.75C20.5 4.05964 19.9404 3.5 19.25 3.5H4.75ZM9.21967 7.21967C9.51256 6.92678 9.98744 6.92678 10.2803 7.21967L12 8.93934L13.7197 7.21967C14.0126 6.92678 14.4874 6.92678 14.7803 7.21967C15.0732 7.51256 15.0732 7.98744 14.7803 8.28033L13.0607 10L14.7803 11.7197C15.0732 12.0126 15.0732 12.4874 14.7803 12.7803C14.4874 13.0732 14.0126 13.0732 13.7197 12.7803L12 11.0607L10.2803 12.7803C9.98744 13.0732 9.51256 13.0732 9.21967 12.7803C8.92678 12.4874 8.92678 12.0126 9.21967 11.7197L10.9393 10L9.21967 8.28033C8.92678 7.98744 8.92678 7.51256 9.21967 7.21967Z" fill="black"/>
</svg>
