<svg width="24" height="24" viewBox="0 0 24 24" fill="none" xmlns="http://www.w3.org/2000/svg">
<path d="M2 4.75C2 3.23122 3.23122 2 4.75 2H19.25C20.7688 2 22 3.23122 22 4.75V15.25C22 16.7688 20.7688 18 19.25 18H13.8161C13.5848 18 13.358 18.0642 13.161 18.1854L7.14307 21.8887C6.91167 22.0311 6.62134 22.0373 6.38415 21.9047C6.14696 21.7722 6 21.5217 6 21.25V18H4.75C3.23122 18 2 16.7688 2 15.25V4.75ZM4.75 3.5C4.05964 3.5 3.5 4.05964 3.5 4.75V15.25C3.5 15.9404 4.05964 16.5 4.75 16.5H6.75C7.16421 16.5 7.5 16.8358 7.5 17.25V19.9078L12.3748 16.9079C12.8082 16.6412 13.3072 16.5 13.8161 16.5H19.25C19.9404 16.5 20.5 15.9404 20.5 15.25V4.75C20.5 4.05964 19.9404 3.5 19.25 3.5H4.75ZM6 10.25C6 9.55964 6.55964 9 7.25 9C7.94036 9 8.5 9.55964 8.5 10.25C8.5 10.9404 7.94036 11.5 7.25 11.5C6.55964 11.5 6 10.9404 6 10.25ZM11.0001 10.25C11.0001 9.55964 11.5598 9 12.2501 9C12.9405 9 13.5001 9.55964 13.5001 10.25C13.5001 10.9404 12.9405 11.5 12.2501 11.5C11.5598 11.5 11.0001 10.9404 11.0001 10.25ZM16 10.25C16 9.55964 16.5596 9 17.25 9C17.9404 9 18.5 9.55964 18.5 10.25C18.5 10.9404 17.9404 11.5 17.25 11.5C16.5596 11.5 16 10.9404 16 10.25Z" fill="black"/>
</svg>
