<svg width="24" height="24" viewBox="0 0 24 24" fill="none" xmlns="http://www.w3.org/2000/svg">
<path d="M2 4.75C2 3.23122 3.23122 2 4.75 2H19.25C20.7688 2 22 3.23122 22 4.75V15.25C22 16.7688 20.7688 18 19.25 18H13.8161C13.5848 18 13.358 18.0642 13.161 18.1854L7.14307 21.8887C6.91167 22.0311 6.62134 22.0373 6.38415 21.9047C6.14696 21.7722 6 21.5217 6 21.25V18H4.75C3.23122 18 2 16.7688 2 15.25V4.75ZM4.75 3.5C4.05964 3.5 3.5 4.05964 3.5 4.75V15.25C3.5 15.9404 4.05964 16.5 4.75 16.5H6.75C7.16421 16.5 7.5 16.8358 7.5 17.25V19.9078L12.3748 16.9079C12.8082 16.6412 13.3072 16.5 13.8161 16.5H19.25C19.9404 16.5 20.5 15.9404 20.5 15.25V4.75C20.5 4.05964 19.9404 3.5 19.25 3.5H4.75Z" fill="black"/>
</svg>
