<svg width="24" height="24" viewBox="0 0 24 24" fill="none" xmlns="http://www.w3.org/2000/svg">
<path d="M12 3.5C7.24462 3.5 3.5 7.02823 3.5 11.25C3.5 13.485 4.53879 15.5117 6.22643 16.9369C6.39517 17.0795 6.49252 17.2891 6.49252 17.5099V20.1049L9.4524 18.8103C9.59972 18.7459 9.76385 18.7305 9.92058 18.7664C10.5851 18.9188 11.2816 19 12 19C16.7554 19 20.5 15.4718 20.5 11.25C20.5 7.02823 16.7554 3.5 12 3.5ZM2 11.25C2 6.08292 6.53812 2 12 2C17.4619 2 22 6.08292 22 11.25C22 16.4171 17.4619 20.5 12 20.5C11.2561 20.5 10.5302 20.4248 9.83121 20.2818L6.04306 21.9386C5.81117 22.0401 5.54378 22.0177 5.33197 21.8791C5.12017 21.7406 4.99252 21.5046 4.99252 21.2515V17.8498C3.15487 16.1801 2 13.8457 2 11.25Z" fill="black"/>
</svg>
