<svg width="24" height="24" viewBox="0 0 24 24" fill="none" xmlns="http://www.w3.org/2000/svg">
<path d="M5.69996 8.79333C5.69996 4.99358 8.98428 2 12.925 2H14.775C18.7156 2 22 4.99358 22 8.79333V9.65667C22 11.8441 20.9026 13.7745 19.225 15.0093V17.55C19.225 17.8286 19.0705 18.0843 18.8239 18.2139C18.5772 18.3435 18.279 18.3257 18.0496 18.1677L15.5057 16.4157C15.2652 16.4384 15.0214 16.45 14.775 16.45H13.6681C13.5183 19.5405 10.9651 22.0002 7.83751 22.0002C6.97881 22.0002 6.16175 21.8143 5.42588 21.4801L2.89703 21.9856C2.65115 22.0348 2.39698 21.9578 2.21968 21.7805C2.04238 21.6032 1.96541 21.3491 2.01456 21.1032L2.52009 18.5743C2.18589 17.8385 2.00001 17.0214 2.00001 16.1627C2.00001 13.6606 3.5737 11.5283 5.78431 10.6975C5.72875 10.3579 5.69996 10.0102 5.69996 9.65667V8.79333ZM7.24926 10.3548C7.44269 10.3353 7.63893 10.3252 7.83751 10.3252C10.646 10.3252 12.9896 12.3078 13.5478 14.95H14.775C15.0558 14.95 15.3315 14.9313 15.6007 14.8954C15.7851 14.8708 15.9721 14.9156 16.1254 15.0211L17.725 16.1228V14.6168C17.725 14.3631 17.8532 14.1266 18.0658 13.9882C19.5525 13.0204 20.5 11.4316 20.5 9.65667V8.79333C20.5 5.9178 17.9864 3.5 14.775 3.5H12.925C9.71356 3.5 7.19996 5.9178 7.19996 8.79333V9.65667C7.19996 9.89361 7.21676 10.1266 7.24926 10.3548ZM7.83751 11.8252C7.49361 11.8252 7.15932 11.8658 6.83829 11.9414C4.92408 12.3925 3.50001 14.112 3.50001 16.1627C3.50001 16.874 3.67064 17.5432 3.97255 18.1338C4.04949 18.2843 4.07333 18.4564 4.04019 18.6222L3.70594 20.2943L5.37799 19.96C5.54376 19.9269 5.71587 19.9507 5.86639 20.0277C6.45697 20.3296 7.12622 20.5002 7.83751 20.5002C10.233 20.5002 12.175 18.5582 12.175 16.1627C12.175 16.0324 12.1683 15.9006 12.1563 15.7673C11.9571 13.5572 10.0996 11.8252 7.83751 11.8252Z" fill="black"/>
</svg>
