<svg width="24" height="24" viewBox="0 0 24 24" fill="none" xmlns="http://www.w3.org/2000/svg">
<path d="M7.375 2C7.78921 2 8.125 2.33579 8.125 2.75V3.5H15.875V2.75C15.875 2.33579 16.2108 2 16.625 2C17.0392 2 17.375 2.33579 17.375 2.75V3.5H18.1667C20.2643 3.5 22 5.15969 22 7.25V11.25C22 11.6642 21.6642 12 21.25 12C20.8358 12 20.5 11.6642 20.5 11.25V7.25C20.5 6.0266 19.4748 5 18.1667 5H17.375V5.75C17.375 6.16421 17.0392 6.5 16.625 6.5C16.2108 6.5 15.875 6.16421 15.875 5.75V5H8.125V5.75C8.125 6.16421 7.78921 6.5 7.375 6.5C6.96079 6.5 6.625 6.16421 6.625 5.75V5H5.83333C4.52517 5 3.5 6.0266 3.5 7.25V18.25C3.5 19.4734 4.52517 20.5 5.83333 20.5H11.25C11.6642 20.5 12 20.8358 12 21.25C12 21.6642 11.6642 22 11.25 22H5.83333C3.73575 22 2 20.3403 2 18.25V7.25C2 5.15969 3.73575 3.5 5.83333 3.5H6.625V2.75C6.625 2.33579 6.96079 2 7.375 2ZM6 9.75C6 9.33579 6.33579 9 6.75 9H12.75C13.1642 9 13.5 9.33579 13.5 9.75C13.5 10.1642 13.1642 10.5 12.75 10.5H6.75C6.33579 10.5 6 10.1642 6 9.75ZM14.7227 14.0532C15.0948 13.9051 15.5177 14.0755 15.6831 14.4403C15.8361 14.7778 15.9685 15.1209 16.083 15.4651C16.2319 15.7788 16.384 16.0091 16.5363 16.1505C16.6739 16.2782 16.7893 16.3172 16.93 16.3045C17.31 16.2701 17.3552 16.1779 17.3634 16.1612L17.3644 16.1593C17.4229 16.0603 17.4775 15.8308 17.4775 15.2527C17.4775 14.8915 17.7349 14.5817 18.0899 14.5154C18.445 14.4492 18.7968 14.6454 18.927 14.9823C18.9762 15.1096 19.028 15.2859 19.0704 15.4305C19.087 15.4868 19.1021 15.5384 19.1151 15.5803C19.1747 15.7725 19.2326 15.9237 19.3005 16.039C19.3654 16.1495 19.4183 16.1905 19.4536 16.2082C19.4819 16.2224 19.5672 16.2572 19.7727 16.2184C19.9953 16.1764 20.1025 16.1098 20.151 16.0678C20.1941 16.0303 20.2204 15.9875 20.236 15.9224C20.2751 15.7587 20.2374 15.4597 20.0498 15.0877C19.8633 14.7179 20.0119 14.2669 20.3817 14.0804C20.7515 13.8938 21.2026 14.0424 21.3891 14.4123C21.6517 14.9329 21.8515 15.6157 21.6949 16.2711C21.6126 16.6155 21.4327 16.9416 21.1338 17.2009C20.8402 17.4556 20.4695 17.6135 20.0506 17.6924C19.5883 17.7796 19.1576 17.7381 18.7804 17.5486C18.6265 17.4713 18.4947 17.376 18.3817 17.2714C18.0381 17.6034 17.5743 17.7523 17.0653 17.7984C16.9102 17.8124 16.7622 17.8086 16.6215 17.7898C16.8724 19.5082 16.8201 21.0582 16.7934 21.8485C16.7876 22.0202 16.783 22.1561 16.783 22.25C16.783 22.6642 16.4472 23 16.033 23C15.6188 23 15.283 22.6642 15.283 22.25C15.283 22.123 15.2881 21.9557 15.2943 21.7547C15.3302 20.5743 15.4017 18.2292 14.6854 16.0167C14.5233 15.6608 14.3947 15.2956 14.2909 14.9943C14.1604 14.6156 14.3505 14.2012 14.7227 14.0532ZM6 14.75C6 14.3358 6.33579 14 6.75 14H8.75C9.16421 14 9.5 14.3358 9.5 14.75C9.5 15.1642 9.16421 15.5 8.75 15.5H6.75C6.33579 15.5 6 15.1642 6 14.75Z" fill="black"/>
</svg>
