<svg width="24" height="24" viewBox="0 0 24 24" fill="none" xmlns="http://www.w3.org/2000/svg">
<path d="M8.125 2.75C8.125 2.33579 7.78921 2 7.375 2C6.96079 2 6.625 2.33579 6.625 2.75V3.5H5.83333C3.73575 3.5 2 5.15969 2 7.25V18.25C2 20.3403 3.73575 22 5.83333 22H11.25C11.6642 22 12 21.6642 12 21.25C12 20.8358 11.6642 20.5 11.25 20.5H5.83333C4.52517 20.5 3.5 19.4734 3.5 18.25V7.25C3.5 6.0266 4.52517 5 5.83333 5H6.625V5.75C6.625 6.16421 6.96079 6.5 7.375 6.5C7.78921 6.5 8.125 6.16421 8.125 5.75V5H15.875V5.75C15.875 6.16421 16.2108 6.5 16.625 6.5C17.0392 6.5 17.375 6.16421 17.375 5.75V5H18.1667C19.4748 5 20.5 6.0266 20.5 7.25V11.25C20.5 11.6642 20.8358 12 21.25 12C21.6642 12 22 11.6642 22 11.25V7.25C22 5.15969 20.2643 3.5 18.1667 3.5H17.375V2.75C17.375 2.33579 17.0392 2 16.625 2C16.2108 2 15.875 2.33579 15.875 2.75V3.5H8.125V2.75Z" fill="black"/>
<path d="M6.75 9C6.33579 9 6 9.33579 6 9.75C6 10.1642 6.33579 10.5 6.75 10.5H12.75C13.1642 10.5 13.5 10.1642 13.5 9.75C13.5 9.33579 13.1642 9 12.75 9H6.75Z" fill="black"/>
<path d="M6.75 14C6.33579 14 6 14.3358 6 14.75C6 15.1642 6.33579 15.5 6.75 15.5H8.75C9.16421 15.5 9.5 15.1642 9.5 14.75C9.5 14.3358 9.16421 14 8.75 14H6.75Z" fill="black"/>
<path d="M18 15.2465C17.5858 15.2465 17.25 15.5823 17.25 15.9965V17.25L15.9965 17.25C15.5823 17.25 15.2465 17.5858 15.2465 18C15.2465 18.4142 15.5823 18.75 15.9965 18.75H17.25V20.0035C17.25 20.4177 17.5858 20.7535 18 20.7535C18.4142 20.7535 18.75 20.4177 18.75 20.0035V18.75H20.0035C20.4177 18.75 20.7535 18.4142 20.7535 18C20.7535 17.5858 20.4177 17.25 20.0035 17.25L18.75 17.25V15.9965C18.75 15.5823 18.4142 15.2465 18 15.2465Z" fill="black"/>
<path d="M14.4645 14.4645C12.5118 16.4171 12.5118 19.5829 14.4645 21.5355C16.4171 23.4882 19.5829 23.4882 21.5355 21.5355C23.4882 19.5829 23.4882 16.4171 21.5355 14.4645C19.5829 12.5118 16.4171 12.5118 14.4645 14.4645ZM20.4749 15.5251C21.8417 16.892 21.8417 19.108 20.4749 20.4749C19.108 21.8417 16.892 21.8417 15.5251 20.4749C14.1583 19.108 14.1583 16.892 15.5251 15.5251C16.892 14.1583 19.108 14.1583 20.4749 15.5251Z" fill="black"/>
</svg>
