<svg width="24" height="24" viewBox="0 0 24 24" fill="none" xmlns="http://www.w3.org/2000/svg">
<path d="M7.375 2C7.78921 2 8.125 2.33579 8.125 2.75V3.5H15.875V2.75C15.875 2.33579 16.2108 2 16.625 2C17.0392 2 17.375 2.33579 17.375 2.75V3.5H18.1667C20.2643 3.5 22 5.15969 22 7.25V11.25C22 11.6642 21.6642 12 21.25 12C20.8358 12 20.5 11.6642 20.5 11.25V7.25C20.5 6.0266 19.4748 5 18.1667 5H17.375V5.75C17.375 6.16421 17.0392 6.5 16.625 6.5C16.2108 6.5 15.875 6.16421 15.875 5.75V5H8.125V5.75C8.125 6.16421 7.78921 6.5 7.375 6.5C6.96079 6.5 6.625 6.16421 6.625 5.75V5H5.83333C4.52517 5 3.5 6.0266 3.5 7.25V18.25C3.5 19.4734 4.52517 20.5 5.83333 20.5H11.25C11.6642 20.5 12 20.8358 12 21.25C12 21.6642 11.6642 22 11.25 22H5.83333C3.73575 22 2 20.3403 2 18.25V7.25C2 5.15969 3.73575 3.5 5.83333 3.5H6.625V2.75C6.625 2.33579 6.96079 2 7.375 2ZM6 9.75C6 9.33579 6.33579 9 6.75 9H12.75C13.1642 9 13.5 9.33579 13.5 9.75C13.5 10.1642 13.1642 10.5 12.75 10.5H6.75C6.33579 10.5 6 10.1642 6 9.75ZM17.2064 14.0598C17.5876 13.8977 18.028 14.0753 18.1902 14.4564C19.377 17.2469 19.2705 20.5571 19.229 21.8475C19.2235 22.0196 19.2191 22.1558 19.2191 22.25C19.2191 22.6642 18.8833 23 18.4691 23C18.0549 23 17.7191 22.6642 17.7191 22.25C17.7191 22.1234 17.7238 21.9566 17.7294 21.7561C17.7676 20.3967 17.8494 17.4876 16.8098 15.0436C16.6477 14.6624 16.8253 14.222 17.2064 14.0598ZM6 14.75C6 14.3358 6.33579 14 6.75 14H8.75C9.16421 14 9.5 14.3358 9.5 14.75C9.5 15.1642 9.16421 15.5 8.75 15.5H6.75C6.33579 15.5 6 15.1642 6 14.75Z" fill="black"/>
</svg>
