<svg width="24" height="24" viewBox="0 0 24 24" fill="none" xmlns="http://www.w3.org/2000/svg">
<path d="M7.375 2C7.78921 2 8.125 2.33579 8.125 2.75V3.5H15.875V2.75C15.875 2.33579 16.2108 2 16.625 2C17.0392 2 17.375 2.33579 17.375 2.75V3.5H18.1667C20.2643 3.5 22 5.15969 22 7.25V18.25C22 20.3403 20.2643 22 18.1667 22H5.83333C3.73575 22 2 20.3403 2 18.25V7.25C2 5.15969 3.73575 3.5 5.83333 3.5H6.625V2.75C6.625 2.33579 6.96079 2 7.375 2ZM6.625 5H5.83333C4.52517 5 3.5 6.0266 3.5 7.25V18.25C3.5 19.4734 4.52517 20.5 5.83333 20.5H18.1667C19.4748 20.5 20.5 19.4734 20.5 18.25V7.25C20.5 6.0266 19.4748 5 18.1667 5H17.375V5.75C17.375 6.16421 17.0392 6.5 16.625 6.5C16.2108 6.5 15.875 6.16421 15.875 5.75V5H8.125V5.75C8.125 6.16421 7.78921 6.5 7.375 6.5C6.96079 6.5 6.625 6.16421 6.625 5.75V5ZM17.0197 9.20921C17.3183 9.49621 17.3278 9.97099 17.0408 10.2697L11.2752 16.2697C11.1366 16.4138 10.9463 16.4967 10.7463 16.4999C10.5464 16.5031 10.3535 16.4263 10.2104 16.2866L6.97605 13.1287C6.67968 12.8394 6.674 12.3645 6.96336 12.0682C7.25273 11.7718 7.72757 11.7661 8.02395 12.0555L10.7174 14.6852L15.9592 9.23034C16.2462 8.93167 16.721 8.92221 17.0197 9.20921Z" fill="black"/>
</svg>
