<svg width="24" height="24" viewBox="0 0 24 24" fill="none" xmlns="http://www.w3.org/2000/svg">
<path d="M7.375 2C7.78921 2 8.125 2.33579 8.125 2.75V3.5H15.875V2.75C15.875 2.33579 16.2108 2 16.625 2C17.0392 2 17.375 2.33579 17.375 2.75V3.5H18.1667C20.2643 3.5 22 5.15969 22 7.25V11.25C22 11.6642 21.6642 12 21.25 12C20.8358 12 20.5 11.6642 20.5 11.25V7.25C20.5 6.0266 19.4748 5 18.1667 5H17.375V5.75C17.375 6.16421 17.0392 6.5 16.625 6.5C16.2108 6.5 15.875 6.16421 15.875 5.75V5H8.125V5.75C8.125 6.16421 7.78921 6.5 7.375 6.5C6.96079 6.5 6.625 6.16421 6.625 5.75V5H5.83333C4.52517 5 3.5 6.0266 3.5 7.25V18.25C3.5 19.4734 4.52517 20.5 5.83333 20.5H11.25C11.6642 20.5 12 20.8358 12 21.25C12 21.6642 11.6642 22 11.25 22H5.83333C3.73575 22 2 20.3403 2 18.25V7.25C2 5.15969 3.73575 3.5 5.83333 3.5H6.625V2.75C6.625 2.33579 6.96079 2 7.375 2ZM6 9.75C6 9.33579 6.33579 9 6.75 9H12.75C13.1642 9 13.5 9.33579 13.5 9.75C13.5 10.1642 13.1642 10.5 12.75 10.5H6.75C6.33579 10.5 6 10.1642 6 9.75ZM6 14.75C6 14.3358 6.33579 14 6.75 14H8.75C9.16421 14 9.5 14.3358 9.5 14.75C9.5 15.1642 9.16421 15.5 8.75 15.5H6.75C6.33579 15.5 6 15.1642 6 14.75ZM20.125 14C20.5392 14 20.875 14.3358 20.875 14.75C20.875 16.3924 19.4488 17.4485 18.1303 17.4485C17.8691 17.4485 17.6255 17.4132 17.3989 17.3493C17.7204 19.2425 17.6627 20.991 17.6345 21.8479C17.6288 22.0198 17.6243 22.1559 17.6243 22.25C17.6243 22.6642 17.2885 23 16.8743 23C16.4601 23 16.1243 22.6642 16.1243 22.25C16.1243 22.1232 16.1292 21.9563 16.1351 21.7555C16.1727 20.464 16.2512 17.7753 15.3354 15.4086C15.269 15.271 15.211 15.13 15.1635 14.9873C15.0367 14.6071 15.2314 14.1943 15.6055 14.0503C15.9796 13.9062 16.4008 14.0818 16.5618 14.4489C16.6134 14.5664 16.6625 14.6846 16.7093 14.8032C17.0974 15.576 17.5845 15.9485 18.1303 15.9485C18.7609 15.9485 19.375 15.4301 19.375 14.75C19.375 14.3358 19.7108 14 20.125 14Z" fill="black"/>
</svg>
