<svg width="24" height="24" viewBox="0 0 24 24" fill="none" xmlns="http://www.w3.org/2000/svg">
<path d="M12.1016 16.5049C12.605 16.5561 13 16.9806 13 17.5C13 18.0522 12.5522 18.5 12 18.5C11.4824 18.5 11.0562 18.1066 11.0049 17.6025L11 17.5C10.9989 16.945 11.4497 16.5 11.999 16.5L12.1016 16.5049Z" fill="black"/>
<path d="M13.25 5.25C13.6642 5.25 14 5.58579 14 6C14 6.41421 13.6642 6.75 13.25 6.75H10.75C10.3358 6.75 10 6.41421 10 6C10 5.58579 10.3358 5.25 10.75 5.25H13.25Z" fill="black"/>
<path fill-rule="evenodd" clip-rule="evenodd" d="M16 2.25C17.5192 2.25 18.75 3.48079 18.75 5V19C18.75 20.5192 17.5192 21.75 16 21.75H8C6.48079 21.75 5.25 20.5192 5.25 19V5C5.25 3.48079 6.48079 2.25 8 2.25H16ZM8 3.75C7.30921 3.75 6.75 4.30921 6.75 5V19C6.75 19.6908 7.30921 20.25 8 20.25H16C16.6908 20.25 17.25 19.6908 17.25 19V5C17.25 4.30921 16.6908 3.75 16 3.75H8Z" fill="black"/>
</svg>
