<svg width="24" height="24" viewBox="0 0 24 24" fill="none" xmlns="http://www.w3.org/2000/svg">
<path d="M11.4697 2.21967C11.7626 1.92678 12.2374 1.92678 12.5303 2.21967L15.2803 4.96967C15.5732 5.26256 15.5732 5.73744 15.2803 6.03033C14.9874 6.32322 14.5126 6.32322 14.2197 6.03033L12.75 4.56066V9.25C12.75 9.66421 12.4142 10 12 10C11.5858 10 11.25 9.66421 11.25 9.25V4.56066L9.78033 6.03033C9.48744 6.32322 9.01256 6.32322 8.71967 6.03033C8.42678 5.73744 8.42678 5.26256 8.71967 4.96967L11.4697 2.21967ZM4.75 8.5C4.05964 8.5 3.5 9.05964 3.5 9.75V19.25C3.5 19.9404 4.05964 20.5 4.75 20.5H19.25C19.9404 20.5 20.5 19.9404 20.5 19.25V9.75C20.5 9.05964 19.9404 8.5 19.25 8.5H17.25C16.8358 8.5 16.5 8.16421 16.5 7.75C16.5 7.33579 16.8358 7 17.25 7H19.25C20.7688 7 22 8.23122 22 9.75V19.25C22 20.7688 20.7688 22 19.25 22H4.75C3.23122 22 2 20.7688 2 19.25V9.75C2 8.23122 3.23122 7 4.75 7H6.75C7.16421 7 7.5 7.33579 7.5 7.75C7.5 8.16421 7.16421 8.5 6.75 8.5H4.75ZM12 13C11.1716 13 10.5 13.6716 10.5 14.5C10.5 15.3284 11.1716 16 12 16C12.8284 16 13.5 15.3284 13.5 14.5C13.5 13.6716 12.8284 13 12 13ZM9 14.5C9 12.8431 10.3431 11.5 12 11.5C13.6569 11.5 15 12.8431 15 14.5C15 16.1569 13.6569 17.5 12 17.5C10.3431 17.5 9 16.1569 9 14.5ZM6.25 12C6.66421 12 7 12.3358 7 12.75V16.25C7 16.6642 6.66421 17 6.25 17C5.83579 17 5.5 16.6642 5.5 16.25V12.75C5.5 12.3358 5.83579 12 6.25 12ZM17.75 12C18.1642 12 18.5 12.3358 18.5 12.75V16.25C18.5 16.6642 18.1642 17 17.75 17C17.3358 17 17 16.6642 17 16.25V12.75C17 12.3358 17.3358 12 17.75 12Z" fill="black"/>
</svg>
