<svg width="24" height="24" viewBox="0 0 24 24" fill="none" xmlns="http://www.w3.org/2000/svg">
<path d="M2 7.25C2 5.73122 3.23122 4.5 4.75 4.5H19.25C20.7688 4.5 22 5.73122 22 7.25V16.75C22 18.2688 20.7688 19.5 19.25 19.5H4.75C3.23122 19.5 2 18.2688 2 16.75V7.25ZM4.75 6C4.05964 6 3.5 6.55964 3.5 7.25V16.75C3.5 17.4404 4.05964 18 4.75 18H19.25C19.9404 18 20.5 17.4404 20.5 16.75V7.25C20.5 6.55964 19.9404 6 19.25 6H4.75ZM12 10.5C11.1716 10.5 10.5 11.1716 10.5 12C10.5 12.8284 11.1716 13.5 12 13.5C12.8284 13.5 13.5 12.8284 13.5 12C13.5 11.1716 12.8284 10.5 12 10.5ZM9 12C9 10.3431 10.3431 9 12 9C13.6569 9 15 10.3431 15 12C15 13.6569 13.6569 15 12 15C10.3431 15 9 13.6569 9 12ZM6.25 9.5C6.66421 9.5 7 9.83579 7 10.25V13.75C7 14.1642 6.66421 14.5 6.25 14.5C5.83579 14.5 5.5 14.1642 5.5 13.75V10.25C5.5 9.83579 5.83579 9.5 6.25 9.5ZM17.75 9.5C18.1642 9.5 18.5 9.83579 18.5 10.25V13.75C18.5 14.1642 18.1642 14.5 17.75 14.5C17.3358 14.5 17 14.1642 17 13.75V10.25C17 9.83579 17.3358 9.5 17.75 9.5Z" fill="black"/>
</svg>
