<svg width="24" height="24" viewBox="0 0 24 24" fill="none" xmlns="http://www.w3.org/2000/svg">
<path d="M2 4.75C2 3.23122 3.23122 2 4.75 2H19.25C20.7688 2 22 3.23122 22 4.75V14.25C22 15.7688 20.7688 17 19.25 17H17.25C16.8358 17 16.5 16.6642 16.5 16.25C16.5 15.8358 16.8358 15.5 17.25 15.5H19.25C19.9404 15.5 20.5 14.9404 20.5 14.25V4.75C20.5 4.05964 19.9404 3.5 19.25 3.5H4.75C4.05964 3.5 3.5 4.05964 3.5 4.75V14.25C3.5 14.9404 4.05964 15.5 4.75 15.5H6.75C7.16421 15.5 7.5 15.8358 7.5 16.25C7.5 16.6642 7.16421 17 6.75 17H4.75C3.23122 17 2 15.7688 2 14.25V4.75ZM9 9.5C9 7.84315 10.3431 6.5 12 6.5C13.6569 6.5 15 7.84315 15 9.5C15 11.1569 13.6569 12.5 12 12.5C10.3431 12.5 9 11.1569 9 9.5ZM12 8C11.1716 8 10.5 8.67157 10.5 9.5C10.5 10.3284 11.1716 11 12 11C12.8284 11 13.5 10.3284 13.5 9.5C13.5 8.67157 12.8284 8 12 8ZM6.25 7C6.66421 7 7 7.33579 7 7.75V11.25C7 11.6642 6.66421 12 6.25 12C5.83579 12 5.5 11.6642 5.5 11.25V7.75C5.5 7.33579 5.83579 7 6.25 7ZM17.75 7C18.1642 7 18.5 7.33579 18.5 7.75V11.25C18.5 11.6642 18.1642 12 17.75 12C17.3358 12 17 11.6642 17 11.25V7.75C17 7.33579 17.3358 7 17.75 7ZM12 14C12.4142 14 12.75 14.3358 12.75 14.75V19.4393L14.2197 17.9697C14.5126 17.6768 14.9874 17.6768 15.2803 17.9697C15.5732 18.2626 15.5732 18.7374 15.2803 19.0303L12.5303 21.7803C12.2374 22.0732 11.7626 22.0732 11.4697 21.7803L8.71967 19.0303C8.42678 18.7374 8.42678 18.2626 8.71967 17.9697C9.01256 17.6768 9.48744 17.6768 9.78033 17.9697L11.25 19.4393V14.75C11.25 14.3358 11.5858 14 12 14Z" fill="black"/>
</svg>
