<svg width="24" height="24" viewBox="0 0 24 24" fill="none" xmlns="http://www.w3.org/2000/svg">
<path d="M2.21967 2.21967C2.51256 1.92678 2.98744 1.92678 3.28033 2.21967L10.9367 9.87606L10.9393 9.87867L10.9419 9.88129L14.1188 13.0581L14.1213 13.0606L14.1239 13.0632L21.7803 20.7197C22.0732 21.0126 22.0732 21.4874 21.7803 21.7803C21.4874 22.0732 21.0126 22.0732 20.7197 21.7803L18.4393 19.5H4.75C3.23122 19.5 2 18.2688 2 16.75V7.25C2 6.11743 2.68466 5.14477 3.66267 4.72333L2.21967 3.28033C1.92678 2.98744 1.92678 2.51256 2.21967 2.21967ZM4.93934 6H4.75C4.05964 6 3.5 6.55964 3.5 7.25V16.75C3.5 17.4404 4.05964 18 4.75 18H16.9393L13.5241 14.5848C12.3737 15.2643 10.8671 15.1098 9.87868 14.1213C8.89023 13.1329 8.73573 11.6263 9.41518 10.4758L4.93934 6ZM10.5509 11.6116C10.4173 12.112 10.5467 12.6681 10.9393 13.0606C11.3319 13.4532 11.888 13.5827 12.3884 13.4491L10.5509 11.6116ZM9 5.25C9 4.83579 9.33579 4.5 9.75 4.5H19.25C20.7688 4.5 22 5.73122 22 7.25V16.75C22 17.1642 21.6642 17.5 21.25 17.5C20.8358 17.5 20.5 17.1642 20.5 16.75V7.25C20.5 6.55964 19.9404 6 19.25 6H9.75C9.33579 6 9 5.66421 9 5.25ZM6.25 9.5C6.66421 9.5 7 9.83579 7 10.25V13.75C7 14.1642 6.66421 14.5 6.25 14.5C5.83579 14.5 5.5 14.1642 5.5 13.75V10.25C5.5 9.83579 5.83579 9.5 6.25 9.5ZM17.75 9.5C18.1642 9.5 18.5 9.83579 18.5 10.25V12.75C18.5 13.1642 18.1642 13.5 17.75 13.5C17.3358 13.5 17 13.1642 17 12.75V10.25C17 9.83579 17.3358 9.5 17.75 9.5Z" fill="black"/>
</svg>
