<svg width="24" height="24" viewBox="0 0 24 24" fill="none" xmlns="http://www.w3.org/2000/svg">
<path d="M10 5.25002C10 4.83581 10.3358 4.50002 10.75 4.50002H19.25C20.7688 4.50002 22 5.73124 22 7.25002V16.75C22 18.2688 20.7688 19.5 19.25 19.5H10.75C10.3358 19.5 10 19.1642 10 18.75C10 18.3358 10.3358 18 10.75 18H19.25C19.9404 18 20.5 17.4404 20.5 16.75V7.25002C20.5 6.55966 19.9404 6.00002 19.25 6.00002H10.75C10.3358 6.00002 10 5.66423 10 5.25002ZM12 10.5C11.1716 10.5 10.5 11.1716 10.5 12C10.5 12.8284 11.1716 13.5 12 13.5C12.8284 13.5 13.5 12.8284 13.5 12C13.5 11.1716 12.8284 10.5 12 10.5ZM9 12C9 10.3432 10.3431 9.00002 12 9.00002C13.6569 9.00002 15 10.3432 15 12C15 13.6569 13.6569 15 12 15C10.3431 15 9 13.6569 9 12ZM17.75 9.50002C18.1642 9.50002 18.5 9.83581 18.5 10.25V13.75C18.5 14.1642 18.1642 14.5 17.75 14.5C17.3358 14.5 17 14.1642 17 13.75V10.25C17 9.83581 17.3358 9.50002 17.75 9.50002Z" fill="black"/>
<path d="M8.75 20.5C7.50746 20.5 6.50011 19.4926 6.50011 18.25L6.49989 5.7487C6.49989 4.50611 7.50732 3.49872 8.75 3.49872C9.16421 3.49872 9.5 3.16293 9.5 2.74872C9.5 2.33451 9.16421 1.99872 8.75 1.99872C7.5233 1.99872 6.43412 2.58773 5.74991 3.49838C5.06576 2.58776 3.97668 1.99872 2.75 1.99872C2.33579 1.99872 2 2.33451 2 2.74872C2 3.16293 2.33579 3.49872 2.75 3.49872C3.99254 3.49872 4.99989 4.5061 4.99989 5.74872L5.00011 18.25C5.00011 19.4926 3.99268 20.5 2.75 20.5C2.33579 20.5 2 20.8358 2 21.25C2 21.6642 2.33579 22 2.75 22C3.9767 22 5.06588 21.411 5.75009 20.5004C6.43424 21.411 7.52332 22 8.75 22C9.16421 22 9.5 21.6642 9.5 21.25C9.5 20.8358 9.16421 20.5 8.75 20.5Z" fill="black"/>
</svg>
