<svg width="24" height="24" viewBox="0 0 24 24" fill="none" xmlns="http://www.w3.org/2000/svg">
<path d="M5 12C5 11.3096 5.55964 10.75 6.25 10.75C6.94036 10.75 7.5 11.3096 7.5 12C7.5 12.6904 6.94036 13.25 6.25 13.25C5.55964 13.25 5 12.6904 5 12ZM10.75 12C10.75 11.3096 11.3096 10.75 12 10.75C12.6904 10.75 13.25 11.3096 13.25 12C13.25 12.6904 12.6904 13.25 12 13.25C11.3096 13.25 10.75 12.6904 10.75 12ZM16.5 12C16.5 11.3096 17.0596 10.75 17.75 10.75C18.4404 10.75 19 11.3096 19 12C19 12.6904 18.4404 13.25 17.75 13.25C17.0596 13.25 16.5 12.6904 16.5 12Z" fill="black"/>
</svg>
