<svg width="24" height="24" viewBox="0 0 24 24" fill="none" xmlns="http://www.w3.org/2000/svg">
<path d="M10.75 6.25C10.75 5.55964 11.3096 5 12 5C12.6904 5 13.25 5.55964 13.25 6.25C13.25 6.94036 12.6904 7.5 12 7.5C11.3096 7.5 10.75 6.94036 10.75 6.25ZM10.75 12C10.75 11.3096 11.3096 10.75 12 10.75C12.6904 10.75 13.25 11.3096 13.25 12C13.25 12.6904 12.6904 13.25 12 13.25C11.3096 13.25 10.75 12.6904 10.75 12ZM10.75 17.75C10.75 17.0596 11.3096 16.5 12 16.5C12.6904 16.5 13.25 17.0596 13.25 17.75C13.25 18.4404 12.6904 19 12 19C11.3096 19 10.75 18.4404 10.75 17.75Z" fill="black"/>
</svg>
