<svg width="24" height="24" viewBox="0 0 24 24" fill="none" xmlns="http://www.w3.org/2000/svg">
<path fill-rule="evenodd" clip-rule="evenodd" d="M2 5.75C2 4.27103 3.14409 3 4.64189 3H18.3581C19.8559 3 21 4.27103 21 5.75V10.25C21 10.6642 20.6642 11 20.25 11C19.8358 11 19.5 10.6642 19.5 10.25V9H3.5V15.25C3.5 15.9802 4.04997 16.5 4.64189 16.5H10.25C10.6642 16.5 11 16.8358 11 17.25C11 17.6642 10.6642 18 10.25 18H4.64189C3.14409 18 2 16.729 2 15.25V5.75ZM3.5 7.5H19.5V5.75C19.5 5.01983 18.95 4.5 18.3581 4.5H4.64189C4.04997 4.5 3.5 5.01983 3.5 5.75V7.5ZM19.4749 13.5251C18.108 12.1583 15.892 12.1583 14.5251 13.5251C13.1583 14.892 13.1583 17.108 14.5251 18.4749C15.892 19.8417 18.108 19.8417 19.4749 18.4749C20.8417 17.108 20.8417 14.892 19.4749 13.5251ZM13.4645 12.4645C15.4171 10.5118 18.5829 10.5118 20.5355 12.4645C22.4882 14.4171 22.4882 17.5829 20.5355 19.5355C18.5829 21.4882 15.4171 21.4882 13.4645 19.5355C11.5118 17.5829 11.5118 14.4171 13.4645 12.4645ZM17 13.2465C17.4142 13.2465 17.75 13.5823 17.75 13.9965V15.25L19.0035 15.25C19.4177 15.25 19.7535 15.5858 19.7535 16C19.7535 16.4142 19.4177 16.75 19.0035 16.75L17.75 16.75V18.0035C17.75 18.4177 17.4142 18.7535 17 18.7535C16.5858 18.7535 16.25 18.4177 16.25 18.0035V16.75L14.9965 16.75C14.5823 16.75 14.2465 16.4142 14.2465 16C14.2465 15.5858 14.5823 15.25 14.9965 15.25L16.25 15.25V13.9965C16.25 13.5823 16.5858 13.2465 17 13.2465Z" fill="black"/>
</svg>
