<svg width="24" height="24" viewBox="0 0 24 24" fill="none" xmlns="http://www.w3.org/2000/svg">
<path d="M7.03694 3.39168C7.20264 2.59716 7.90577 2 8.75007 2H15.2501C16.2166 2 17.0001 2.7835 17.0001 3.75V4.25H17.25C18.7688 4.25 20 5.48122 20 7V14.7885C20 15.2028 19.6642 15.5385 19.25 15.5385C18.8358 15.5385 18.5 15.2028 18.5 14.7885V7C18.5 6.30964 17.9404 5.75 17.25 5.75H17.0001V6.25C17.0001 7.2165 16.2166 8 15.2501 8H11.5001C11.0859 8 10.7501 7.66421 10.7501 7.25C10.7501 6.83579 11.0859 6.5 11.5001 6.5H15.2501C15.3881 6.5 15.5001 6.38807 15.5001 6.25V5.01053L15.5 5L15.5001 4.98947V3.75C15.5001 3.61193 15.3881 3.5 15.2501 3.5H8.75007C8.63048 3.5 8.52896 3.58473 8.50535 3.69792C8.42078 4.10341 8.02351 4.36357 7.61803 4.279C7.21254 4.19443 6.95238 3.79717 7.03694 3.39168Z" fill="black"/>
<path d="M7.75 15.5C7.33579 15.5 7 15.8358 7 16.25C7 16.6642 7.33579 17 7.75 17H13.25C13.6642 17 14 16.6642 14 16.25C14 15.8358 13.6642 15.5 13.25 15.5H7.75Z" fill="black"/>
<path fill-rule="evenodd" clip-rule="evenodd" d="M4.44271 5.50337C4.16299 5.93388 4 6.44806 4 7V19.25C4 20.7688 5.23122 22 6.75 22H17.25C18.2502 22 19.1257 21.466 19.6069 20.6676L20.7197 21.7803C21.0126 22.0732 21.4874 22.0732 21.7803 21.7803C22.0732 21.4874 22.0732 21.0126 21.7803 20.7197L12.8528 11.7922C12.8134 11.7411 12.7676 11.6953 12.7166 11.6559L3.28033 2.21967C2.98744 1.92678 2.51256 1.92678 2.21967 2.21967C1.92678 2.51256 1.92678 2.98744 2.21967 3.28033L4.44271 5.50337ZM10.4393 11.5L5.55882 6.61948C5.52058 6.73946 5.5 6.86728 5.5 7V19.25C5.5 19.9404 6.05964 20.5 6.75 20.5H17.25C17.8443 20.5 18.3418 20.0852 18.4687 19.5293L11.9393 13H7.75C7.33579 13 7 12.6642 7 12.25C7 11.8358 7.33579 11.5 7.75 11.5H10.4393Z" fill="black"/>
</svg>
