<svg width="24" height="24" viewBox="0 0 24 24" fill="none" xmlns="http://www.w3.org/2000/svg">
<path d="M10 8.25C10.4142 8.25 10.75 8.58579 10.75 9V15C10.75 15.4142 10.4142 15.75 10 15.75C9.58579 15.75 9.25 15.4142 9.25 15V9C9.25 8.58579 9.58579 8.25 10 8.25Z" fill="black"/>
<path d="M14 8.25C14.4142 8.25 14.75 8.58579 14.75 9V15C14.75 15.4142 14.4142 15.75 14 15.75C13.5858 15.75 13.25 15.4142 13.25 15V9C13.25 8.58579 13.5858 8.25 14 8.25Z" fill="black"/>
<path fill-rule="evenodd" clip-rule="evenodd" d="M12 2.25C17.3852 2.25 21.75 6.61479 21.75 12C21.75 17.3852 17.3852 21.75 12 21.75C6.61479 21.75 2.25 17.3852 2.25 12C2.25 6.61479 6.61479 2.25 12 2.25ZM12 3.75C7.44321 3.75 3.75 7.44321 3.75 12C3.75 16.5568 7.44321 20.25 12 20.25C16.5568 20.25 20.25 16.5568 20.25 12C20.25 7.44321 16.5568 3.75 12 3.75Z" fill="black"/>
</svg>
