<svg width="24" height="24" viewBox="0 0 24 24" fill="none" xmlns="http://www.w3.org/2000/svg">
<path d="M6 4.75C6 3.23122 7.23122 2 8.75 2H19.25C20.7688 2 22 3.23122 22 4.75V11.75C22 12.1642 21.6642 12.5 21.25 12.5C20.8358 12.5 20.5 12.1642 20.5 11.75V4.75C20.5 4.05964 19.9404 3.5 19.25 3.5H8.75C8.05964 3.5 7.5 4.05964 7.5 4.75V10.25C7.5 10.6642 7.16421 11 6.75 11C6.33579 11 6 10.6642 6 10.25V4.75ZM11.5 7.75C11.5 6.36929 12.6193 5.25 14 5.25C15.3807 5.25 16.5 6.36929 16.5 7.75C16.5 9.13071 15.3807 10.25 14 10.25C12.6193 10.25 11.5 9.13071 11.5 7.75ZM14 6.75C13.4477 6.75 13 7.19772 13 7.75C13 8.30228 13.4477 8.75 14 8.75C14.5523 8.75 15 8.30228 15 7.75C15 7.19772 14.5523 6.75 14 6.75ZM2.00146 14.25C2.00146 13.2837 2.78465 12.5 3.75119 12.5H5.80711C6.65874 12.5 7.36802 13.1084 7.52463 13.9141C7.76967 13.8653 8.04118 13.797 8.32808 13.7125C8.92658 13.5364 9.53348 13.3079 10.0017 13.1041C10.882 12.721 11.8835 12.5768 12.8636 12.7946L14.5498 13.1695C15.6974 13.4245 16.4827 14.4518 16.4635 15.5943C17.0614 15.2697 17.6404 14.9072 18.1199 14.5888C19.0963 13.9403 20.4355 14.0147 21.2977 14.8771C22.1792 15.7589 22.2692 17.2101 21.3509 18.1471C20.474 19.0418 19.0973 20.3139 17.7698 20.9302C17.7251 20.951 17.6809 20.9716 17.6374 20.9918C16.9068 21.3315 16.3391 21.5955 15.6742 21.7618C14.9627 21.9398 14.1723 22 12.9552 22C11.9486 22 11.124 21.7701 10.3308 21.549C10.2394 21.5235 10.1485 21.4982 10.0577 21.4733C9.30122 21.266 8.48457 21.0662 7.38203 21.0135C7.09849 21.5974 6.49985 22 5.80711 22H3.75119C2.78465 22 2.00146 21.2163 2.00146 20.25V14.25ZM7.55692 19.5206C8.76297 19.5881 9.66724 19.811 10.4542 20.0266C10.5463 20.0519 10.6359 20.0767 10.7233 20.1009C11.5339 20.3255 12.1638 20.5 12.9552 20.5C14.1375 20.5 14.7803 20.4392 15.3102 20.3066C15.8329 20.1759 16.2773 19.9695 17.0725 19.6002L17.1381 19.5697C18.1964 19.0784 19.4092 17.9853 20.2796 17.0972C20.5772 16.7935 20.5835 16.2844 20.2369 15.9377C19.9127 15.6134 19.3712 15.5584 18.9498 15.8383C18.3598 16.2301 17.6072 16.6984 16.831 17.0964C16.0737 17.4848 15.2366 17.8366 14.4822 17.956C14.186 18.0133 13.8958 18.0205 13.6459 18.0173C13.4952 18.0153 13.3894 18.0113 13.2925 18.0077C13.1854 18.0036 13.0892 18 12.9552 18C12.541 18 12.2052 17.6642 12.2052 17.25C12.2052 16.8358 12.541 16.5 12.9552 16.5C13.0755 16.5 13.2508 16.5055 13.4052 16.5104C13.509 16.5136 13.6034 16.5166 13.6654 16.5174C13.8825 16.5202 14.0564 16.5114 14.2052 16.4817C14.5831 16.4063 14.8852 16.1035 14.9506 15.7109C15.0332 15.2156 14.7139 14.7426 14.2243 14.6337L12.5381 14.2589C11.9092 14.1191 11.2314 14.2049 10.6003 14.4795C10.0814 14.7054 9.41597 14.956 8.75158 15.1515C8.3619 15.2662 7.95025 15.3687 7.55689 15.4324L7.55692 19.5206ZM6.05683 14.2501C6.05683 14.1118 5.94483 14 5.80711 14H3.75119C3.61346 14 3.50146 14.1117 3.50146 14.25V20.25C3.50146 20.3883 3.61346 20.5 3.75119 20.5H5.80711C5.94489 20.5 6.05692 20.3882 6.05692 20.25L6.05683 14.2501Z" fill="black"/>
</svg>
