<svg width="24" height="24" viewBox="0 0 24 24" fill="none" xmlns="http://www.w3.org/2000/svg">
<path d="M15 1.75C15 1.33579 15.3358 1 15.75 1C16.7021 1 17.6448 1.18753 18.5245 1.55187C19.4041 1.91622 20.2033 2.45025 20.8765 3.12348C21.5498 3.7967 22.0838 4.59594 22.4481 5.47555C22.8125 6.35516 23 7.29792 23 8.25C23 8.66421 22.6642 9 22.25 9C21.8358 9 21.5 8.66421 21.5 8.25C21.5 7.4949 21.3513 6.74719 21.0623 6.04957C20.7733 5.35195 20.3498 4.71807 19.8159 4.18414C19.2819 3.6502 18.6481 3.22666 17.9504 2.93769C17.2528 2.64873 16.5051 2.5 15.75 2.5C15.3358 2.5 15 2.16421 15 1.75ZM2 6.86111C2 4.17639 4.17639 2 6.86111 2H12.25C12.6642 2 13 2.33579 13 2.75C13 3.16421 12.6642 3.5 12.25 3.5H6.86111C5.00482 3.5 3.5 5.00482 3.5 6.86111V17.1389C3.5 18.9952 5.00482 20.5 6.86111 20.5H17.1389C18.9952 20.5 20.5 18.9952 20.5 17.1389V11.75C20.5 11.3358 20.8358 11 21.25 11C21.6642 11 22 11.3358 22 11.75V17.1389C22 19.8236 19.8236 22 17.1389 22H6.86111C4.17639 22 2 19.8236 2 17.1389V6.86111ZM15 4.75C15 4.33579 15.3358 4 15.75 4C16.3081 4 16.8608 4.10993 17.3764 4.32351C17.892 4.53709 18.3606 4.85015 18.7552 5.2448C19.1499 5.63945 19.4629 6.10796 19.6765 6.6236C19.8901 7.13923 20 7.69188 20 8.25C20 8.66421 19.6642 9 19.25 9C18.8358 9 18.5 8.66421 18.5 8.25C18.5 7.88887 18.4289 7.53127 18.2907 7.19762C18.1525 6.86398 17.9499 6.56082 17.6945 6.30546C17.4392 6.0501 17.136 5.84753 16.8024 5.70933C16.4687 5.57113 16.1111 5.5 15.75 5.5C15.3358 5.5 15 5.16421 15 4.75ZM8.25 6C8.66421 6 9 6.33579 9 6.75V9.88306C9.79217 9.14908 10.8401 8.69948 12 8.69948C14.5128 8.69948 16.5 10.8095 16.5 13.3497C16.5 15.89 14.5128 18 12 18C9.48722 18 7.5 15.89 7.5 13.3497V6.75C7.5 6.33579 7.83579 6 8.25 6ZM9 13.3497C9 15.1176 10.3706 16.5 12 16.5C13.6294 16.5 15 15.1176 15 13.3497C15 11.5819 13.6294 10.1995 12 10.1995C10.3706 10.1995 9 11.5819 9 13.3497Z" fill="black"/>
</svg>
