<svg width="24" height="24" viewBox="0 0 24 24" fill="none" xmlns="http://www.w3.org/2000/svg">
<path d="M2 6.86111C2 4.17639 4.17639 2 6.86111 2H17.1389C19.8236 2 22 4.17639 22 6.86111V17.1389C22 19.8236 19.8236 22 17.1389 22H6.86111C4.17639 22 2 19.8236 2 17.1389V6.86111ZM6.86111 3.5C5.00482 3.5 3.5 5.00482 3.5 6.86111V17.1389C3.5 18.9952 5.00482 20.5 6.86111 20.5H17.1389C18.9952 20.5 20.5 18.9952 20.5 17.1389V6.86111C20.5 5.00482 18.9952 3.5 17.1389 3.5H6.86111ZM11.6954 6.06464C11.8893 5.97845 12.1107 5.97845 12.3046 6.06464L17.5546 8.39797C17.8254 8.51835 18 8.78694 18 9.08333V11.25C18 11.6642 17.6642 12 17.25 12H16.25V16.5H17.25C17.6642 16.5 18 16.8358 18 17.25C18 17.6642 17.6642 18 17.25 18H6.75C6.33579 18 6 17.6642 6 17.25C6 16.8358 6.33579 16.5 6.75 16.5H7.75V12H6.75C6.33579 12 6 11.6642 6 11.25V9.08333C6 8.78694 6.17455 8.51835 6.4454 8.39797L11.6954 6.06464ZM9.25 12V16.5H11.25V12H9.25ZM12.75 12V16.5H14.75V12H12.75ZM7.5 9.57074V10.5H16.5V9.57074L12 7.57074L7.5 9.57074Z" fill="black"/>
</svg>
