<svg width="24" height="24" viewBox="0 0 24 24" fill="none" xmlns="http://www.w3.org/2000/svg">
<path fill-rule="evenodd" clip-rule="evenodd" d="M2.75 15.5C3.16421 15.5 3.5 15.8358 3.5 16.25V17.1389C3.5 18.9952 5.00482 20.5 6.86111 20.5H8.75C9.16421 20.5 9.5 20.8358 9.5 21.25C9.5 21.6642 9.16421 22 8.75 22H6.86111C4.17639 22 2 19.8236 2 17.1389V16.25C2 15.8358 2.33579 15.5 2.75 15.5Z" fill="#151E31"/>
<path fill-rule="evenodd" clip-rule="evenodd" d="M8 15C8 11.134 11.134 8.00001 15 8.00001C18.866 8.00001 22 11.134 22 15C22 16.9328 21.2157 18.6838 19.9497 19.9498C18.6838 21.2157 16.9328 22 15 22C11.134 22 8 18.866 8 15ZM14.25 9.55072C11.5672 9.91651 9.5 12.2168 9.5 15C9.5 18.0376 11.9624 20.5 15 20.5C16.2487 20.5 17.3993 20.0846 18.3227 19.3834L14.4697 15.5303C14.329 15.3897 14.25 15.1989 14.25 15V9.55072ZM15.75 9.55072V14.6893L19.3834 18.3227C20.0846 17.3994 20.5 16.2487 20.5 15C20.5 12.2168 18.4328 9.91651 15.75 9.55072Z" fill="#151E31"/>
<path fill-rule="evenodd" clip-rule="evenodd" d="M13.5 2.75001C13.5 2.33579 13.8358 2.00001 14.25 2.00001H17.1389C19.8236 2.00001 22 4.1764 22 6.86112V8.25001C22 8.66422 21.6642 9.00001 21.25 9.00001C20.8358 9.00001 20.5 8.66422 20.5 8.25001V6.86112C20.5 5.00483 18.9952 3.50001 17.1389 3.50001H14.25C13.8358 3.50001 13.5 3.16422 13.5 2.75001Z" fill="#151E31"/>
<path fill-rule="evenodd" clip-rule="evenodd" d="M2.28435 2.16207C2.46396 2.01982 2.69875 1.96747 2.92178 2.01994L4.5887 2.41216C4.777 2.45647 4.973 2.45647 5.1613 2.41216L6.37014 2.12773C6.78439 2.03026 7.21561 2.03026 7.62986 2.12773L8.8387 2.41216C9.027 2.45647 9.223 2.45647 9.4113 2.41216L11.0782 2.01994C11.3013 1.96747 11.536 2.01982 11.7157 2.16207C11.8953 2.30433 12 2.52088 12 2.75001V6.25001C12 6.66422 11.6642 7.00001 11.25 7.00001C10.8358 7.00001 10.5 6.66422 10.5 6.25001V3.69696L9.75486 3.87229C9.34061 3.96976 8.90939 3.96976 8.49514 3.87229L7.2863 3.58785C7.098 3.54355 6.902 3.54355 6.7137 3.58785L5.50486 3.87229C5.09061 3.96976 4.65939 3.96976 4.24514 3.87229L3.5 3.69696V12.3031L4.24514 12.1277C4.65939 12.0303 5.09061 12.0303 5.50486 12.1277L5.67313 12.1673C6.07634 12.2622 6.32629 12.666 6.23142 13.0692C6.13655 13.4724 5.73278 13.7223 5.32958 13.6274L5.1613 13.5879C4.973 13.5435 4.777 13.5435 4.5887 13.5879L2.92178 13.9801C2.69875 14.0325 2.46396 13.9802 2.28435 13.8379C2.10473 13.6957 2 13.4791 2 13.25V2.75001C2 2.52088 2.10473 2.30433 2.28435 2.16207Z" fill="#151E31"/>
</svg>
