<svg width="24" height="24" viewBox="0 0 24 24" fill="none" xmlns="http://www.w3.org/2000/svg">
<path d="M15 1.75C15 1.33579 15.3358 1 15.75 1C16.7021 1 17.6448 1.18753 18.5245 1.55187C19.4041 1.91622 20.2033 2.45025 20.8765 3.12348C21.5498 3.7967 22.0838 4.59594 22.4481 5.47555C22.8125 6.35516 23 7.29792 23 8.25C23 8.66421 22.6642 9 22.25 9C21.8358 9 21.5 8.66421 21.5 8.25C21.5 7.4949 21.3513 6.74719 21.0623 6.04957C20.7733 5.35195 20.3498 4.71807 19.8159 4.18414C19.2819 3.6502 18.6481 3.22666 17.9504 2.93769C17.2528 2.64873 16.5051 2.5 15.75 2.5C15.3358 2.5 15 2.16421 15 1.75ZM2 6.86111C2 4.17639 4.17639 2 6.86111 2H12.25C12.6642 2 13 2.33579 13 2.75C13 3.16421 12.6642 3.5 12.25 3.5H6.86111C5.00482 3.5 3.5 5.00482 3.5 6.86111V17.1389C3.5 18.9952 5.00482 20.5 6.86111 20.5H17.1389C18.9952 20.5 20.5 18.9952 20.5 17.1389V11.75C20.5 11.3358 20.8358 11 21.25 11C21.6642 11 22 11.3358 22 11.75V17.1389C22 19.8236 19.8236 22 17.1389 22H6.86111C4.17639 22 2 19.8236 2 17.1389V6.86111ZM15 4.75C15 4.33579 15.3358 4 15.75 4C16.3081 4 16.8608 4.10993 17.3764 4.32351C17.892 4.53709 18.3606 4.85015 18.7552 5.2448C19.1499 5.63945 19.4629 6.10796 19.6765 6.6236C19.8901 7.13923 20 7.69188 20 8.25C20 8.66421 19.6642 9 19.25 9C18.8358 9 18.5 8.66421 18.5 8.25C18.5 7.88887 18.4289 7.53127 18.2907 7.19762C18.1525 6.86398 17.9499 6.56082 17.6945 6.30546C17.4392 6.0501 17.136 5.84753 16.8024 5.70933C16.4687 5.57113 16.1111 5.5 15.75 5.5C15.3358 5.5 15 5.16421 15 4.75ZM11.4988 6.5C11.913 6.5 12.2488 6.83579 12.2488 7.25V7.33406C12.5435 7.08154 12.9876 7.09478 13.2666 7.37378C13.5595 7.66667 13.5595 8.14155 13.2666 8.43444L12.2488 9.45219V11.201L13.7633 10.3266L14.1358 8.93629C14.243 8.53619 14.6542 8.29875 15.0543 8.40594C15.4354 8.50806 15.669 8.88607 15.5976 9.26753L15.6704 9.2255C16.0291 9.01839 16.4878 9.1413 16.6949 9.50002C16.902 9.85873 16.7791 10.3174 16.4204 10.5245L16.3476 10.5665C16.7136 10.6955 16.9242 11.0867 16.8221 11.4678C16.7149 11.8679 16.3036 12.1053 15.9035 11.9981L14.5133 11.6256L12.9988 12.5L14.5133 13.3744L15.9035 13.0018C16.3036 12.8946 16.7149 13.1321 16.8221 13.5322C16.9242 13.9133 16.7136 14.3045 16.3476 14.4335L16.4204 14.4755C16.7791 14.6826 16.902 15.1413 16.6949 15.5C16.4878 15.8587 16.0291 15.9816 15.6704 15.7745L15.5976 15.7325C15.669 16.114 15.4355 16.4919 15.0544 16.594C14.6543 16.7012 14.243 16.4638 14.1358 16.0637L13.7633 14.6734L12.2488 13.7991V15.5478L13.2666 16.5656C13.5595 16.8584 13.5595 17.3333 13.2666 17.6262C12.9876 17.9052 12.5435 17.9185 12.2488 17.6659V17.75C12.2488 18.1642 11.913 18.5 11.4988 18.5C11.0846 18.5 10.7488 18.1642 10.7488 17.75V17.666C10.4541 17.9185 10.01 17.9052 9.73105 17.6262C9.43816 17.3333 9.43816 16.8585 9.73105 16.5656L10.7488 15.5478V13.7991L9.23431 14.6734L8.86178 16.0637C8.75458 16.4638 8.34332 16.7013 7.94322 16.5941C7.56212 16.4919 7.3286 16.114 7.39994 15.7325L7.32715 15.7745C6.96843 15.9816 6.50974 15.8587 6.30264 15.5C6.09553 15.1413 6.21844 14.6826 6.57716 14.4755L6.64995 14.4335C6.28393 14.3045 6.07334 13.9133 6.17546 13.5322C6.28267 13.1321 6.69392 12.8947 7.09402 13.0019L8.48431 13.3744L9.99879 12.5L8.4843 11.6256L7.09402 11.9982C6.69392 12.1054 6.28267 11.8679 6.17546 11.4678C6.07335 11.0867 6.28393 10.6955 6.64993 10.5666L6.57715 10.5245C6.21843 10.3174 6.09552 9.85874 6.30263 9.50002C6.50974 9.1413 6.96843 9.01839 7.32715 9.2255L7.39995 9.26753C7.32859 8.88608 7.56212 8.50808 7.94324 8.40596C8.34334 8.29876 8.75459 8.5362 8.86179 8.9363L9.23431 10.3266L10.7488 11.201V9.45219L9.73103 8.43443C9.43814 8.14154 9.43814 7.66667 9.73103 7.37377C10.01 7.09479 10.4541 7.08154 10.7488 7.33404V7.25C10.7488 6.83579 11.0846 6.5 11.4988 6.5Z" fill="black"/>
</svg>
