<svg width="24" height="24" viewBox="0 0 24 24" fill="none" xmlns="http://www.w3.org/2000/svg">
<path d="M2 2.75C2 2.33579 2.33579 2 2.75 2H9.25C9.66421 2 10 2.33579 10 2.75C10 3.16421 9.66421 3.5 9.25 3.5H2.75C2.33579 3.5 2 3.16421 2 2.75ZM12 2.75C12 2.33579 12.3358 2 12.75 2H17.1389C19.8236 2 22 4.17639 22 6.86111V17.1389C22 19.8236 19.8236 22 17.1389 22H6.86111C4.17639 22 2 19.8236 2 17.1389V8.75C2 8.33579 2.33579 8 2.75 8C3.16421 8 3.5 8.33579 3.5 8.75V17.1389C3.5 18.9952 5.00482 20.5 6.86111 20.5H17.1389C18.9952 20.5 20.5 18.9952 20.5 17.1389V6.86111C20.5 5.00482 18.9952 3.5 17.1389 3.5H12.75C12.3358 3.5 12 3.16421 12 2.75ZM2 5.75C2 5.33579 2.33579 5 2.75 5H6.25C6.66421 5 7 5.33579 7 5.75C7 6.16421 6.66421 6.5 6.25 6.5H2.75C2.33579 6.5 2 6.16421 2 5.75ZM13.4178 8.26558C13.0637 7.91147 12.4895 7.91147 12.1354 8.26558L8.26558 12.1354C7.91147 12.4895 7.91147 13.0637 8.26558 13.4178L8.37583 13.528L13.528 8.37583L13.4178 8.26558ZM14.5887 9.43649L9.43649 14.5887L10.5822 15.7344C10.9363 16.0885 11.5105 16.0885 11.8646 15.7344L15.7344 11.8646C16.0885 11.5105 16.0885 10.9363 15.7344 10.5822L14.5887 9.43649ZM11.0748 7.20492C12.0147 6.26503 13.5385 6.26502 14.4784 7.20492L16.7951 9.52155C17.735 10.4615 17.735 11.9853 16.7951 12.9252L13.7203 16H16.75C17.1642 16 17.5 16.3358 17.5 16.75C17.5 17.1642 17.1642 17.5 16.75 17.5H7.25C6.83579 17.5 6.5 17.1642 6.5 16.75C6.5 16.3358 6.83579 16 7.25 16H8.72648L7.20492 14.4784C6.26502 13.5385 6.26503 12.0147 7.20492 11.0748L11.0748 7.20492Z" fill="black"/>
</svg>
