<svg width="24" height="24" viewBox="0 0 24 24" fill="none" xmlns="http://www.w3.org/2000/svg">
<path d="M2 6.86111C2 4.17639 4.17639 2 6.86111 2H7.75C8.16421 2 8.5 2.33579 8.5 2.75C8.5 3.16421 8.16421 3.5 7.75 3.5H6.86111C5.00482 3.5 3.5 5.00482 3.5 6.86111V9.75C3.5 10.1642 3.16421 10.5 2.75 10.5C2.33579 10.5 2 10.1642 2 9.75V6.86111ZM10 4.75C10 3.23122 11.2312 2 12.75 2H19.25C20.7688 2 22 3.23122 22 4.75V9.25C22 10.7688 20.7688 12 19.25 12H15.25C14.8358 12 14.5 11.6642 14.5 11.25C14.5 10.8358 14.8358 10.5 15.25 10.5H19.25C19.9404 10.5 20.5 9.94036 20.5 9.25V6.5H11.5V9.25C11.5 9.66421 11.1642 10 10.75 10C10.3358 10 10 9.66421 10 9.25V4.75ZM11.5 5H20.5V4.75C20.5 4.05964 19.9404 3.5 19.25 3.5H12.75C12.0596 3.5 11.5 4.05964 11.5 4.75V5ZM2 14.75C2 13.2312 3.23122 12 4.75 12H11.25C12.7688 12 14 13.2312 14 14.75V19.25C14 20.7688 12.7688 22 11.25 22H4.75C3.23122 22 2 20.7688 2 19.25V14.75ZM4.75 13.5C4.05964 13.5 3.5 14.0596 3.5 14.75V19.25C3.5 19.9404 4.05964 20.5 4.75 20.5H11.25C11.9404 20.5 12.5 19.9404 12.5 19.25V14.75C12.5 14.0596 11.9404 13.5 11.25 13.5H4.75ZM21.25 13.5C21.6642 13.5 22 13.8358 22 14.25V17.1389C22 19.8236 19.8236 22 17.1389 22H15.75C15.3358 22 15 21.6642 15 21.25C15 20.8358 15.3358 20.5 15.75 20.5H17.1389C18.9952 20.5 20.5 18.9952 20.5 17.1389V14.25C20.5 13.8358 20.8358 13.5 21.25 13.5ZM5 18.25C5 17.8358 5.33579 17.5 5.75 17.5H7.25C7.66421 17.5 8 17.8358 8 18.25C8 18.6642 7.66421 19 7.25 19H5.75C5.33579 19 5 18.6642 5 18.25Z" fill="black"/>
</svg>
