<svg width="24" height="24" viewBox="0 0 24 24" fill="none" xmlns="http://www.w3.org/2000/svg">
<path d="M2 2.75C2 2.33579 2.33579 2 2.75 2H9.25C9.66421 2 10 2.33579 10 2.75C10 3.16421 9.66421 3.5 9.25 3.5H2.75C2.33579 3.5 2 3.16421 2 2.75ZM12 2.75C12 2.33579 12.3358 2 12.75 2H17.1389C19.8236 2 22 4.17639 22 6.86111V17.1389C22 19.8236 19.8236 22 17.1389 22H6.86111C4.17639 22 2 19.8236 2 17.1389V8.75C2 8.33579 2.33579 8 2.75 8C3.16421 8 3.5 8.33579 3.5 8.75V17.1389C3.5 18.9952 5.00482 20.5 6.86111 20.5H17.1389C18.9952 20.5 20.5 18.9952 20.5 17.1389V6.86111C20.5 5.00482 18.9952 3.5 17.1389 3.5H12.75C12.3358 3.5 12 3.16421 12 2.75ZM2 5.75C2 5.33579 2.33579 5 2.75 5H6.25C6.66421 5 7 5.33579 7 5.75C7 6.16421 6.66421 6.5 6.25 6.5H2.75C2.33579 6.5 2 6.16421 2 5.75ZM7.01875 9.48834L6.08125 13.2383C5.66706 14.8951 6.92013 16.5 8.62788 16.5H14.4345C15.6391 16.5 16.689 15.6802 16.9811 14.5117L17.9186 10.7617C18.3328 9.1049 17.0798 7.5 15.372 7.5H9.56538C8.36085 7.5 7.31089 8.31978 7.01875 9.48834ZM9.56538 9H15.372C16.1039 9 16.6409 9.68781 16.4634 10.3979L16.3641 10.7952H8.23819L8.47397 9.85215C8.59917 9.35133 9.04915 9 9.56538 9ZM15.9891 12.2952L15.5259 14.1479C15.4007 14.6487 14.9508 15 14.4345 15H8.62788C7.89598 15 7.35896 14.3122 7.53647 13.6021L7.86319 12.2952H15.9891Z" fill="black"/>
</svg>
