<svg width="24" height="24" viewBox="0 0 24 24" fill="none" xmlns="http://www.w3.org/2000/svg">
<path d="M2.28435 2.16207C2.46396 2.01982 2.69875 1.96747 2.92178 2.01994L4.5887 2.41216C4.777 2.45647 4.973 2.45647 5.1613 2.41216L6.37014 2.12773C6.78439 2.03026 7.21561 2.03026 7.62986 2.12773L8.8387 2.41216C9.027 2.45647 9.223 2.45647 9.4113 2.41216L11.0782 2.01994C11.3013 1.96747 11.536 2.01982 11.7157 2.16207C11.8953 2.30433 12 2.52088 12 2.75001V6.75001C12 7.16422 11.6642 7.50001 11.25 7.50001C10.8358 7.50001 10.5 7.16422 10.5 6.75001V3.69696L9.75486 3.87229C9.34061 3.96976 8.90939 3.96976 8.49514 3.87229L7.2863 3.58785C7.098 3.54355 6.902 3.54355 6.7137 3.58785L5.50486 3.87229C5.09061 3.96976 4.65939 3.96976 4.24514 3.87229L3.5 3.69696V12.3031L4.24514 12.1277C4.65939 12.0303 5.09061 12.0303 5.50486 12.1277L6.68359 12.4051C7.08679 12.4999 7.33674 12.9037 7.24187 13.3069C7.147 13.7101 6.74323 13.9601 6.34003 13.8652L5.1613 13.5879C4.973 13.5435 4.777 13.5435 4.5887 13.5879L2.92178 13.9801C2.69875 14.0325 2.46396 13.9802 2.28435 13.8379C2.10473 13.6957 2 13.4791 2 13.25V2.75001C2 2.52088 2.10473 2.30433 2.28435 2.16207ZM13.5 2.75001C13.5 2.33579 13.8358 2.00001 14.25 2.00001H17.1389C19.8236 2.00001 22 4.1764 22 6.86112V7.25001C22 7.66422 21.6642 8.00001 21.25 8.00001C20.8358 8.00001 20.5 7.66422 20.5 7.25001V6.86112C20.5 5.00483 18.9952 3.50001 17.1389 3.50001H14.25C13.8358 3.50001 13.5 3.16422 13.5 2.75001ZM15.0096 9.55477L11.0805 10.8916C11.0589 10.8989 11.0371 10.9052 11.015 10.9106C10.6951 10.9878 10.5 11.2537 10.5 11.5278L10.5 14.2564C10.5 15.0803 10.6232 15.8742 10.924 16.5891C11.4562 17.8539 11.9992 18.5876 12.5853 19.0984C13.183 19.6193 13.8713 19.9512 14.8008 20.3555C15.0213 20.4514 15.26 20.5 15.5 20.5C15.74 20.5 15.9788 20.4514 16.1994 20.3554C17.1288 19.9512 17.817 19.6193 18.4147 19.0984C19.0009 18.5876 19.5438 17.8539 20.076 16.5891C20.3768 15.8742 20.5 15.0803 20.5 14.2564V11.5278C20.5 11.2537 20.3049 10.9878 19.9851 10.9106C19.963 10.9052 19.9411 10.8989 19.9196 10.8916L15.9904 9.55477C15.8293 9.51828 15.6647 9.5 15.5 9.50001C15.3353 9.50001 15.1707 9.51829 15.0096 9.55477ZM14.6266 8.10391C14.9135 8.03461 15.2068 8.00001 15.5 8.00001C15.7931 8 16.0865 8.03461 16.3734 8.10391C16.3955 8.10925 16.4173 8.11559 16.4389 8.12291L20.3737 9.46162C21.3149 9.7058 22 10.5399 22 11.5278V14.2564C22 15.2239 21.856 16.2262 21.4586 17.1708C20.8624 18.5878 20.2012 19.5312 19.4002 20.2292C18.6108 20.9171 17.7289 21.3259 16.7977 21.731C16.3844 21.9107 15.9415 22 15.5 22C15.0585 22 14.6157 21.9108 14.2025 21.731C13.2712 21.326 12.3893 20.9172 11.5998 20.2293C10.7988 19.5312 10.1377 18.5879 9.54143 17.1708C9.14398 16.2262 9 15.2239 9 14.2564L9.00004 11.5278C9.00005 10.5399 9.6851 9.70581 10.6263 9.46163L14.5611 8.12291C14.5827 8.11559 14.6045 8.10925 14.6266 8.10391ZM2.75 15.5C3.16421 15.5 3.5 15.8358 3.5 16.25V17.1389C3.5 18.9952 5.00482 20.5 6.86111 20.5H9.25C9.66421 20.5 10 20.8358 10 21.25C10 21.6642 9.66421 22 9.25 22H6.86111C4.17639 22 2 19.8236 2 17.1389V16.25C2 15.8358 2.33579 15.5 2.75 15.5Z" fill="black"/>
</svg>
