<svg width="24" height="24" viewBox="0 0 24 24" fill="none" xmlns="http://www.w3.org/2000/svg">
<path d="M2.28435 2.16206C2.46396 2.01981 2.69875 1.96746 2.92178 2.01994L4.5887 2.41215C4.777 2.45646 4.973 2.45646 5.1613 2.41215L6.37014 2.12772C6.78439 2.03025 7.21561 2.03025 7.62986 2.12772L8.8387 2.41215C9.027 2.45646 9.223 2.45646 9.4113 2.41215L11.0782 2.01994C11.3013 1.96746 11.536 2.01981 11.7157 2.16206C11.8953 2.30432 12 2.52088 12 2.75V13.25C12 13.4791 11.8953 13.6957 11.7157 13.8379C11.536 13.9802 11.3013 14.0325 11.0782 13.9801L9.4113 13.5878C9.223 13.5435 9.027 13.5435 8.8387 13.5878L7.62986 13.8723C7.21561 13.9697 6.78439 13.9697 6.37014 13.8723L5.1613 13.5878C4.973 13.5435 4.777 13.5435 4.5887 13.5878L2.92178 13.9801C2.69875 14.0325 2.46396 13.9802 2.28435 13.8379C2.10473 13.6957 2 13.4791 2 13.25V2.75C2 2.52088 2.10473 2.30432 2.28435 2.16206ZM13.5 2.75C13.5 2.33579 13.8358 2 14.25 2H17.1389C19.8236 2 22 4.17639 22 6.86111V9.75C22 10.1642 21.6642 10.5 21.25 10.5C20.8358 10.5 20.5 10.1642 20.5 9.75V6.86111C20.5 5.00482 18.9952 3.5 17.1389 3.5H14.25C13.8358 3.5 13.5 3.16421 13.5 2.75ZM3.5 3.69695V12.303L4.24514 12.1277C4.65939 12.0302 5.09061 12.0302 5.50486 12.1277L6.7137 12.4122C6.902 12.4565 7.098 12.4565 7.2863 12.4122L8.49514 12.1277C8.90939 12.0302 9.34061 12.0302 9.75486 12.1277L10.5 12.303V3.69695L9.75486 3.87228C9.34061 3.96975 8.90939 3.96975 8.49514 3.87228L7.2863 3.58785C7.098 3.54354 6.902 3.54354 6.7137 3.58785L5.50486 3.87228C5.09061 3.96975 4.65939 3.96975 4.24514 3.87228L3.5 3.69695ZM17.9519 12.6945C18.878 11.7685 20.3794 11.7685 21.3055 12.6945C22.2315 13.6206 22.2315 15.122 21.3055 16.0481L16.2855 21.068C15.6888 21.6648 14.8794 22 14.0355 22H12.75C12.3358 22 12 21.6642 12 21.25V19.9645C12 19.1206 12.3352 18.3112 12.932 17.7145L17.9519 12.6945ZM20.2448 13.7552C19.9045 13.4149 19.3528 13.4149 19.0126 13.7552L13.9926 18.7751C13.6772 19.0906 13.5 19.5184 13.5 19.9645V20.5H14.0355C14.4816 20.5 14.9094 20.3228 15.2249 20.0074L20.2448 14.9874C20.5851 14.6472 20.5851 14.0955 20.2448 13.7552ZM2.75 15.5C3.16421 15.5 3.5 15.8358 3.5 16.25V17.1389C3.5 18.9952 5.00482 20.5 6.86111 20.5H9.5C9.91421 20.5 10.25 20.8358 10.25 21.25C10.25 21.6642 9.91421 22 9.5 22H6.86111C4.17639 22 2 19.8236 2 17.1389V16.25C2 15.8358 2.33579 15.5 2.75 15.5Z" fill="black"/>
</svg>
