<svg width="24" height="24" viewBox="0 0 24 24" fill="none" xmlns="http://www.w3.org/2000/svg">
<path d="M10.75 2.5C9.23118 2.5 7.99996 3.73122 7.99996 5.25V7.25047C7.10457 7.25575 6.07846 7.31703 5.03319 7.96088C3.45853 8.93083 2.54016 10.4571 2.0455 11.8111C1.90336 12.2001 2.10353 12.6308 2.49259 12.7729C2.88165 12.915 3.31228 12.7149 3.45442 12.3258C3.87728 11.1684 4.62528 9.97388 5.81989 9.23804C6.49981 8.81922 7.16708 8.75723 7.99992 8.75067V12.6383C7.80587 12.7274 7.57076 12.7859 7.28773 12.8195C6.93337 12.8615 6.57009 12.8594 6.17303 12.8571C6.08023 12.8566 5.98558 12.856 5.88877 12.856C5.47455 12.856 5.13877 13.1918 5.13877 13.606C5.13877 14.0202 5.47455 14.356 5.88877 14.356C5.96481 14.356 6.04517 14.3566 6.12894 14.3571C6.52952 14.3599 7.00795 14.3632 7.46451 14.309C8.02807 14.2421 8.65445 14.0802 9.19079 13.658C9.2138 13.6398 9.23574 13.6204 9.25648 13.5997L11.3303 11.5313C11.6991 11.1635 12.2844 11.115 12.7695 11.4375C13.147 11.6885 13.3128 12.1275 13.2277 12.5336C13.2207 12.5571 13.2147 12.581 13.21 12.6053C13.1848 12.6934 13.1474 12.7792 13.0974 12.8606C12.0748 14.5243 10.5938 16.3209 9.44361 17.2847C8.57184 18.0152 6.90684 18.7015 5.35519 19.218C4.59907 19.4697 3.9024 19.6709 3.39451 19.8092C3.14087 19.8782 2.93506 19.9314 2.79336 19.9671C2.72253 19.985 2.66777 19.9985 2.63112 20.0074L2.59001 20.0173L2.57752 20.0203C2.17445 20.1156 1.92486 20.5195 2.02003 20.9226C2.11521 21.3257 2.51972 21.5752 2.92285 21.48L2.92387 21.4798L2.9398 21.476L2.98628 21.4647C3.02658 21.4549 3.08521 21.4405 3.1601 21.4216C3.30984 21.3838 3.52482 21.3283 3.78854 21.2565C4.31539 21.1131 5.03977 20.904 5.82897 20.6412C7.36797 20.1289 9.29064 19.3699 10.407 18.4345C11.7131 17.3401 13.2933 15.4064 14.3753 13.646C14.4049 13.5979 14.4327 13.5492 14.4586 13.5H19.25C20.7687 13.5 22 12.2688 22 10.75V5.25C22 3.73122 20.7687 2.5 19.25 2.5H10.75ZM9.49992 9.00766L9.49996 8.99997V8H20.5V10.75C20.5 11.4404 19.9403 12 19.25 12H14.7294C14.6368 11.2849 14.2414 10.6149 13.6 10.1884C12.5934 9.51916 11.2044 9.53833 10.271 10.4693L9.49992 11.2384V9.00766ZM9.49996 6.5V5.25C9.49996 4.55964 10.0596 4 10.75 4H19.25C19.9403 4 20.5 4.55964 20.5 5.25V6.5H9.49996Z" fill="black"/>
</svg>
