<svg width="24" height="24" viewBox="0 0 24 24" fill="none" xmlns="http://www.w3.org/2000/svg">
<path d="M11.75 2C10.2312 2 8.99996 3.23122 8.99996 4.75V7.75H8.18804C7.24969 7.75 6.15243 7.77147 5.03319 8.46088C3.45853 9.43083 2.54016 10.9571 2.0455 12.3111C1.90336 12.7001 2.10353 13.1308 2.49259 13.2729C2.88165 13.415 3.31228 13.2149 3.45442 12.8258C3.87728 11.6684 4.62528 10.4739 5.81989 9.73804C6.55024 9.28816 7.26599 9.25 8.18804 9.25H8.99992V12.2368L8.23219 13.0025C8.00296 13.1711 7.69493 13.2709 7.28773 13.3192C6.93337 13.3613 6.57009 13.3592 6.17303 13.3569C6.08023 13.3563 5.98558 13.3558 5.88877 13.3558C5.47455 13.3558 5.13877 13.6916 5.13877 14.1058C5.13877 14.52 5.47455 14.8558 5.88877 14.8558C5.96481 14.8558 6.04517 14.8563 6.12894 14.8569C6.52952 14.8597 7.00795 14.863 7.46451 14.8088C8.02807 14.7419 8.65445 14.58 9.19079 14.1577C9.2138 14.1396 9.23574 14.1201 9.25648 14.0995L10.2396 13.1189C10.2672 13.0951 10.2929 13.0694 10.3168 13.0419L11.3303 12.0311C11.6991 11.6633 12.2844 11.6148 12.7695 11.9373C13.2521 12.2582 13.3888 12.8862 13.0974 13.3603C12.0748 15.0241 10.5938 16.8207 9.44361 17.7845C8.57184 18.515 6.90684 19.2013 5.35519 19.7178C4.59907 19.9695 3.9024 20.1707 3.39452 20.3089C3.14087 20.378 2.93506 20.4311 2.79336 20.4669C2.72253 20.4847 2.66777 20.4982 2.63112 20.5072L2.59001 20.5171L2.57752 20.5201C2.17445 20.6153 1.92486 21.0192 2.02003 21.4223C2.11521 21.8255 2.51972 22.075 2.92285 21.9798L2.92387 21.9795L2.9398 21.9757L2.98628 21.9645C3.02658 21.9547 3.08521 21.9402 3.1601 21.9214C3.30984 21.8836 3.52482 21.8281 3.78854 21.7563C4.31539 21.6128 5.03977 21.4037 5.82897 21.141C6.96136 20.764 8.30146 20.2535 9.37525 19.6374C9.85243 20.4526 10.737 21 11.75 21H19.25C20.7687 21 22 19.7688 22 18.25V4.75C22 3.23122 20.7687 2 19.25 2H11.75ZM10.5 10.7657V4.75C10.5 4.05964 11.0596 3.5 11.75 3.5H19.25C19.9403 3.5 20.5 4.05964 20.5 4.75V18.25C20.5 18.9404 19.9403 19.5 19.25 19.5H11.75C11.2418 19.5 10.8038 19.1963 10.6085 18.7607C11.8727 17.6434 13.3484 15.8165 14.3753 14.1458C15.1011 12.9649 14.7367 11.444 13.6 10.6882C12.6728 10.0717 11.4211 10.0393 10.5 10.7657Z" fill="black"/>
<path d="M13.5 5.75C13.5 5.33579 13.1642 5 12.75 5C12.3357 5 12 5.33579 12 5.75V6.75C12 7.16421 12.3357 7.5 12.75 7.5C13.1642 7.5 13.5 7.16421 13.5 6.75V5.75Z" fill="black"/>
<path d="M15.4393 10.0012C15.4594 10.0004 15.4796 10 15.5 10C16.3284 10 17 10.6716 17 11.5C17 11.9478 16.8047 12.3491 16.4921 12.625C16.1816 12.8992 16.1521 13.3731 16.4263 13.6837C16.7004 13.9942 17.1744 14.0236 17.4849 13.7495C18.1063 13.2009 18.5 12.396 18.5 11.5C18.5 9.84315 17.1568 8.5 15.5 8.5C15.4599 8.5 15.42 8.50079 15.3802 8.50236C14.9663 8.51868 14.644 8.86744 14.6603 9.28133C14.6767 9.69523 15.0254 10.0175 15.4393 10.0012Z" fill="black"/>
<path d="M19 16.25C19 15.8358 18.6642 15.5 18.25 15.5C17.8357 15.5 17.5 15.8358 17.5 16.25V17.25C17.5 17.6642 17.8357 18 18.25 18C18.6642 18 19 17.6642 19 17.25V16.25Z" fill="black"/>
</svg>
