<svg width="24" height="24" viewBox="0 0 24 24" fill="none" xmlns="http://www.w3.org/2000/svg">
<path d="M5.03148 3.77152L5.59305 4.06137C6.24045 4.3955 7.00955 4.3955 7.65695 4.06137L8.21852 3.77152C8.43431 3.66014 8.69069 3.66014 8.90648 3.77152L9.46805 4.06137C10.1154 4.3955 10.8846 4.3955 11.5319 4.06137L12.0935 3.77152C12.3093 3.66014 12.5657 3.66014 12.7815 3.77152L13.3431 4.06137C13.9904 4.3955 14.7596 4.3955 15.4069 4.06137L15.9685 3.77152C16.1843 3.66014 16.4407 3.66014 16.6565 3.77152L16.8233 3.85762C17.2389 4.07213 17.5 4.5007 17.5 4.9684V10.25C17.5 10.6642 17.8358 11 18.25 11C18.6642 11 19 10.6642 19 10.25V4.9684C19 3.93946 18.4256 2.99661 17.5113 2.52469L17.3444 2.43859C16.6971 2.10445 15.9279 2.10445 15.2806 2.43859L14.719 2.72843C14.5032 2.83981 14.2468 2.83981 14.031 2.72843L13.4694 2.43859C12.8221 2.10445 12.0529 2.10445 11.4056 2.43859L10.844 2.72843C10.6282 2.83981 10.3718 2.83981 10.156 2.72843L9.59445 2.43859C8.94705 2.10445 8.17795 2.10445 7.53055 2.43859L6.96898 2.72844C6.75319 2.83981 6.49682 2.83981 6.28102 2.72843L5.71945 2.43859C5.07205 2.10445 4.30295 2.10445 3.65555 2.43859L3.48873 2.52469C2.5744 2.99661 2 3.93947 2 4.9684V19.0316C2 20.0605 2.5744 21.0034 3.48873 21.4753L3.65556 21.5614C4.30295 21.8955 5.07206 21.8955 5.71945 21.5614L6.28102 21.2715C6.49681 21.1601 6.75319 21.1601 6.96898 21.2715L7.53055 21.5614C8.17795 21.8955 8.94705 21.8955 9.59445 21.5614L10.844 20.9164C11.2121 20.7265 11.3564 20.2741 11.1665 19.906C10.9765 19.5379 10.5241 19.3935 10.156 19.5835L8.90648 20.2284C8.69069 20.3398 8.43431 20.3398 8.21852 20.2284L7.65695 19.9386C7.00955 19.6045 6.24044 19.6045 5.59305 19.9386L5.03148 20.2284C4.81569 20.3398 4.55931 20.3398 4.34352 20.2284L4.1767 20.1423C3.76109 19.9278 3.5 19.4993 3.5 19.0316V4.9684C3.5 4.5007 3.76109 4.07213 4.1767 3.85762L4.34352 3.77152C4.55932 3.66014 4.81569 3.66014 5.03148 3.77152ZM5.5 8.24998C5.5 7.83577 5.83579 7.49998 6.25 7.49998H13.75C14.1642 7.49998 14.5 7.83577 14.5 8.24998C14.5 8.66419 14.1642 8.99998 13.75 8.99998H6.25C5.83579 8.99998 5.5 8.66419 5.5 8.24998ZM5.5 11.75C5.5 11.3358 5.83579 11 6.25 11H11.75C12.1642 11 12.5 11.3358 12.5 11.75C12.5 12.1642 12.1642 12.5 11.75 12.5H6.25C5.83579 12.5 5.5 12.1642 5.5 11.75ZM18 14.5C16.067 14.5 14.5 16.067 14.5 18C14.5 19.933 16.067 21.5 18 21.5C19.933 21.5 21.5 19.933 21.5 18C21.5 16.067 19.933 14.5 18 14.5ZM13 18C13 15.2386 15.2386 13 18 13C20.7614 13 23 15.2386 23 18C23 20.7614 20.7614 23 18 23C15.2386 23 13 20.7614 13 18ZM5.5 15.25C5.5 14.8358 5.83579 14.5 6.25 14.5H9.75C10.1642 14.5 10.5 14.8358 10.5 15.25C10.5 15.6642 10.1642 16 9.75 16H6.25C5.83579 16 5.5 15.6642 5.5 15.25ZM18 15.3611C18.4142 15.3611 18.75 15.6969 18.75 16.1111V18C18.75 18.4142 18.4142 18.75 18 18.75C17.5858 18.75 17.25 18.4142 17.25 18V16.1111C17.25 15.6969 17.5858 15.3611 18 15.3611ZM17.25 19.8912C17.25 19.477 17.5858 19.1412 18 19.1412H18.0021C18.4163 19.1412 18.7521 19.477 18.7521 19.8912C18.7521 20.3054 18.4163 20.6412 18.0021 20.6412H18C17.5858 20.6412 17.25 20.3054 17.25 19.8912Z" fill="black"/>
</svg>
