<svg width="24" height="24" viewBox="0 0 24 24" fill="none" xmlns="http://www.w3.org/2000/svg">
<path d="M2 5.75C2 4.27103 3.14409 3 4.64189 3H18.3581C19.8559 3 21 4.27103 21 5.75V10.25C21 10.6642 20.6642 11 20.25 11C19.8358 11 19.5 10.6642 19.5 10.25V9H3.5V15.25C3.5 15.9802 4.04997 16.5 4.64189 16.5H10.25C10.6642 16.5 11 16.8358 11 17.25C11 17.6642 10.6642 18 10.25 18H4.64189C3.14409 18 2 16.729 2 15.25V5.75ZM3.5 7.5H19.5V5.75C19.5 5.01983 18.95 4.5 18.3581 4.5H4.64189C4.04997 4.5 3.5 5.01983 3.5 5.75V7.5ZM17 12.5C15.067 12.5 13.5 14.067 13.5 16C13.5 17.933 15.067 19.5 17 19.5C18.933 19.5 20.5 17.933 20.5 16C20.5 14.067 18.933 12.5 17 12.5ZM12 16C12 13.2386 14.2386 11 17 11C19.7614 11 22 13.2386 22 16C22 18.7614 19.7614 21 17 21C14.2386 21 12 18.7614 12 16ZM17 13.3611C17.4142 13.3611 17.75 13.6969 17.75 14.1111V16C17.75 16.4142 17.4142 16.75 17 16.75C16.5858 16.75 16.25 16.4142 16.25 16V14.1111C16.25 13.6969 16.5858 13.3611 17 13.3611ZM16.25 17.8912C16.25 17.477 16.5858 17.1412 17 17.1412H17.0021C17.4163 17.1412 17.7521 17.477 17.7521 17.8912C17.7521 18.3055 17.4163 18.6412 17.0021 18.6412H17C16.5858 18.6412 16.25 18.3055 16.25 17.8912Z" fill="black"/>
</svg>
