<svg width="24" height="24" viewBox="0 0 24 24" fill="none" xmlns="http://www.w3.org/2000/svg">
<path d="M2.21967 2.21967C2.51256 1.92678 2.98744 1.92678 3.28033 2.21967L21.7803 20.7197C22.0732 21.0126 22.0732 21.4874 21.7803 21.7803C21.4874 22.0732 21.0126 22.0732 20.7197 21.7803L15.6982 16.7588C12.5159 19.725 9.50602 20.6693 7.7146 20.9589C6.46231 21.1613 5.32739 20.599 4.53328 19.8049L3.80831 19.0799C2.73057 18.0022 2.73056 16.2548 3.80831 15.1771L5.06687 13.9185C5.84195 13.1435 7.09861 13.1434 7.87369 13.9185C8.40343 14.4483 9.18054 14.5551 9.77315 14.201C10.4354 13.8054 11.172 13.3248 11.7745 12.8351L2.21967 3.28033C1.92678 2.98744 1.92678 2.51256 2.21967 2.21967ZM12.8399 13.9005C12.118 14.5043 11.253 15.0643 10.5425 15.4887C9.31012 16.225 7.7865 15.9527 6.81303 14.9792C6.62373 14.7899 6.31683 14.7899 6.12753 14.9792L4.86897 16.2378C4.37701 16.7297 4.37701 17.5273 4.86897 18.0193L5.59394 18.7443C6.15676 19.3071 6.83317 19.5819 7.47528 19.4781C9.0014 19.2314 11.7107 18.4098 14.6368 15.6975L12.8399 13.9005ZM15.177 3.80831C16.2548 2.73056 18.0021 2.73056 19.0799 3.80831L19.8049 4.53328C20.599 5.32739 21.1612 6.4623 20.9588 7.7146C20.7336 9.10834 20.1108 11.2478 18.4366 13.6351C18.1987 13.9743 17.731 14.0564 17.3919 13.8186C17.0528 13.5807 16.9707 13.113 17.2085 12.7739C18.7367 10.5947 19.2843 8.67425 19.478 7.47527C19.5818 6.83317 19.307 6.15676 18.7442 5.59394L18.0192 4.86897C17.5273 4.37701 16.7296 4.37701 16.2377 4.86897L14.9791 6.12753C14.7898 6.31683 14.7898 6.62373 14.9791 6.81303C15.9526 7.7865 16.2249 9.31012 15.4887 10.5425C15.2762 10.8981 14.8158 11.0141 14.4602 10.8017C14.1046 10.5892 13.9885 10.1287 14.201 9.77315C14.555 9.18054 14.4482 8.40343 13.9185 7.87369C13.1434 7.09861 13.1434 5.84195 13.9185 5.06687L15.177 3.80831Z" fill="black"/>
</svg>
