<svg width="24" height="24" viewBox="0 0 24 24" fill="none" xmlns="http://www.w3.org/2000/svg">
<path d="M20.25 12C20.25 7.44321 16.5568 3.75 12 3.75C7.44321 3.75 3.75 7.44321 3.75 12C3.75 16.5568 7.44321 20.25 12 20.25C16.5568 20.25 20.25 16.5568 20.25 12ZM9.05859 9.7041C9.05859 8.54359 10.3214 7.82042 11.3223 8.41211L15.2051 10.708C16.1875 11.2883 16.1865 12.7097 15.2041 13.29L15.2051 13.291L11.3232 15.5869L11.3223 15.5859C10.3214 16.1781 9.05859 15.4556 9.05859 14.2949V9.7041ZM21.75 12C21.75 17.3852 17.3852 21.75 12 21.75C6.61479 21.75 2.25 17.3852 2.25 12C2.25 6.61479 6.61479 2.25 12 2.25C17.3852 2.25 21.75 6.61479 21.75 12ZM10.5586 14.2959L14.4404 11.999L10.5596 9.70312L10.5586 14.2959Z" fill="black"/>
</svg>
