<svg width="24" height="24" viewBox="0 0 24 24" fill="none" xmlns="http://www.w3.org/2000/svg">
<path d="M5 3.75C5 2.7835 5.7835 2 6.75 2H17.25C18.2165 2 19 2.7835 19 3.75V7H19.25C20.7688 7 22 8.23122 22 9.75V17.25C22 18.7688 20.7688 20 19.25 20H19V20.25C19 21.2165 18.2165 22 17.25 22H6.75C5.7835 22 5 21.2165 5 20.25V20H4.75C3.23122 20 2 18.7688 2 17.25V9.75C2 8.23122 3.23122 7 4.75 7H5V3.75ZM4.75 8.5C4.05964 8.5 3.5 9.05964 3.5 9.75V17.25C3.5 17.9404 4.05964 18.5 4.75 18.5H5V15.25C5 14.8358 5.33579 14.5 5.75 14.5H18.25C18.6642 14.5 19 14.8358 19 15.25V18.5H19.25C19.9404 18.5 20.5 17.9404 20.5 17.25V9.75C20.5 9.05964 19.9404 8.5 19.25 8.5H4.75ZM17.5 7V3.75C17.5 3.61193 17.3881 3.5 17.25 3.5H6.75C6.61193 3.5 6.5 3.61193 6.5 3.75V7H17.5ZM17.5 16H6.5V20.25C6.5 20.3881 6.61193 20.5 6.75 20.5H17.25C17.3881 20.5 17.5 20.3881 17.5 20.25V16ZM17.5 10.75C17.5 10.3358 17.8358 10 18.25 10H18.251C18.6652 10 19.001 10.3358 19.001 10.75C19.001 11.1642 18.6652 11.5 18.251 11.5H18.25C17.8358 11.5 17.5 11.1642 17.5 10.75Z" fill="black"/>
</svg>
