<svg width="24" height="24" viewBox="0 0 24 24" fill="none" xmlns="http://www.w3.org/2000/svg">
<path fill-rule="evenodd" clip-rule="evenodd" d="M2 6.86111C2 4.17639 4.17639 2 6.86111 2H9.43056C9.84477 2 10.1806 2.33579 10.1806 2.75C10.1806 3.16421 9.84477 3.5 9.43056 3.5H6.86111C5.00482 3.5 3.5 5.00482 3.5 6.86111V9.43056C3.5 9.84477 3.16421 10.1806 2.75 10.1806C2.33579 10.1806 2 9.84477 2 9.43056V6.86111ZM13.8194 2.75C13.8194 2.33579 14.1552 2 14.5694 2H17.1389C19.8236 2 22 4.17639 22 6.86111V9.43056C22 9.84477 21.6642 10.1806 21.25 10.1806C20.8358 10.1806 20.5 9.84477 20.5 9.43056V6.86111C20.5 5.00482 18.9952 3.5 17.1389 3.5H14.5694C14.1552 3.5 13.8194 3.16421 13.8194 2.75ZM2.75 13.8194C3.16421 13.8194 3.5 14.1552 3.5 14.5694V17.1389C3.5 18.9952 5.00482 20.5 6.86111 20.5H9.43056C9.84477 20.5 10.1806 20.8358 10.1806 21.25C10.1806 21.6642 9.84477 22 9.43056 22H6.86111C4.17639 22 2 19.8236 2 17.1389V14.5694C2 14.1552 2.33579 13.8194 2.75 13.8194ZM21.25 13.8194C21.6642 13.8194 22 14.1552 22 14.5694V17.1389C22 19.8236 19.8236 22 17.1389 22H14.5694C14.1552 22 13.8194 21.6642 13.8194 21.25C13.8194 20.8358 14.1552 20.5 14.5694 20.5H17.1389C18.9952 20.5 20.5 18.9952 20.5 17.1389V14.5694C20.5 14.1552 20.8358 13.8194 21.25 13.8194Z" fill="black"/>
<path fill-rule="evenodd" clip-rule="evenodd" d="M6.75 6.25C7.16421 6.25 7.5 6.58579 7.5 7V17C7.5 17.4142 7.16421 17.75 6.75 17.75C6.33579 17.75 6 17.4142 6 17V7C6 6.58579 6.33579 6.25 6.75 6.25Z" fill="black"/>
<path fill-rule="evenodd" clip-rule="evenodd" d="M10.25 6.25C10.6642 6.25 11 6.58579 11 7V13C11 13.4142 10.6642 13.75 10.25 13.75C9.83579 13.75 9.5 13.4142 9.5 13V7C9.5 6.58579 9.83579 6.25 10.25 6.25Z" fill="black"/>
<path fill-rule="evenodd" clip-rule="evenodd" d="M10.25 15C10.6642 15 11 15.3358 11 15.75V17C11 17.4142 10.6642 17.75 10.25 17.75C9.83579 17.75 9.5 17.4142 9.5 17V15.75C9.5 15.3358 9.83579 15 10.25 15Z" fill="black"/>
<path fill-rule="evenodd" clip-rule="evenodd" d="M13.75 6.25C14.1642 6.25 14.5 6.58579 14.5 7V13C14.5 13.4142 14.1642 13.75 13.75 13.75C13.3358 13.75 13 13.4142 13 13V7C13 6.58579 13.3358 6.25 13.75 6.25Z" fill="black"/>
<path fill-rule="evenodd" clip-rule="evenodd" d="M13.75 15C14.1642 15 14.5 15.3358 14.5 15.75V17C14.5 17.4142 14.1642 17.75 13.75 17.75C13.3358 17.75 13 17.4142 13 17V15.75C13 15.3358 13.3358 15 13.75 15Z" fill="black"/>
<path fill-rule="evenodd" clip-rule="evenodd" d="M17.25 6.25C17.6642 6.25 18 6.58579 18 7V17C18 17.4142 17.6642 17.75 17.25 17.75C16.8358 17.75 16.5 17.4142 16.5 17V7C16.5 6.58579 16.8358 6.25 17.25 6.25Z" fill="black"/>
</svg>
