<svg width="24" height="24" viewBox="0 0 24 24" fill="none" xmlns="http://www.w3.org/2000/svg">
<path d="M12 3.5C7.30558 3.5 3.5 7.30558 3.5 12C3.5 12.4142 3.16421 12.75 2.75 12.75C2.33579 12.75 2 12.4142 2 12C2 6.47715 6.47715 2 12 2C14.9871 2 17.6686 3.3105 19.5 5.38546V2.75C19.5 2.33579 19.8358 2 20.25 2C20.6642 2 21 2.33579 21 2.75V7.25C21 7.66421 20.6642 8 20.25 8H15.75C15.3358 8 15 7.66421 15 7.25C15 6.83579 15.3358 6.5 15.75 6.5H18.481C16.9208 4.6634 14.5965 3.5 12 3.5ZM21.25 11.25C21.6642 11.25 22 11.5858 22 12C22 17.5228 17.5228 22 12 22C9.01287 22 6.33138 20.6895 4.5 18.6145V21.25C4.5 21.6642 4.16421 22 3.75 22C3.33579 22 3 21.6642 3 21.25V16.75C3 16.3358 3.33579 16 3.75 16H8.25C8.66421 16 9 16.3358 9 16.75C9 17.1642 8.66421 17.5 8.25 17.5H5.51901C7.07922 19.3366 9.40351 20.5 12 20.5C16.6944 20.5 20.5 16.6944 20.5 12C20.5 11.5858 20.8358 11.25 21.25 11.25Z" fill="black"/>
</svg>
