<svg width="24" height="24" viewBox="0 0 24 24" fill="none" xmlns="http://www.w3.org/2000/svg">
<path d="M11.0001 2.75C11.0001 2.33579 11.3359 2 11.7501 2C12.9768 2 14.0659 2.58904 14.75 3.49966C15.4342 2.58901 16.5234 2 17.7501 2C18.1643 2 18.5001 2.33579 18.5001 2.75C18.5001 3.16421 18.1643 3.5 17.7501 3.5C16.5074 3.5 15.5 4.5074 15.5 5.75L15.5002 18.25C15.5002 19.4926 16.5076 20.5 17.7501 20.5C18.1643 20.5 18.5001 20.8358 18.5001 21.25C18.5001 21.6642 18.1643 22 17.7501 22C16.5234 22 15.4344 21.411 14.7502 20.5003C14.066 21.411 12.9768 22 11.7501 22C11.3359 22 11.0001 21.6642 11.0001 21.25C11.0001 20.8358 11.3359 20.5 11.7501 20.5C12.9928 20.5 14.0002 19.4926 14.0002 18.25L14 5.75C14 4.50738 12.9927 3.5 11.7501 3.5C11.3359 3.5 11.0001 3.16421 11.0001 2.75ZM4.75 7.5C4.05964 7.5 3.5 8.05964 3.5 8.75V15.25C3.5 15.9404 4.05964 16.5 4.75 16.5H11.25C11.6642 16.5 12 16.8358 12 17.25C12 17.6642 11.6642 18 11.25 18H4.75C3.23122 18 2 16.7688 2 15.25V8.75C2 7.23122 3.23122 6 4.75 6H11.25C11.6642 6 12 6.33579 12 6.75C12 7.16421 11.6642 7.5 11.25 7.5H4.75ZM18 6.75C18 6.33579 18.3358 6 18.75 6H19.25C20.7688 6 22 7.23122 22 8.75V15.25C22 16.7688 20.7688 18 19.25 18H18.75C18.3358 18 18 17.6642 18 17.25C18 16.8358 18.3358 16.5 18.75 16.5H19.25C19.9404 16.5 20.5 15.9404 20.5 15.25V8.75C20.5 8.05964 19.9404 7.5 19.25 7.5H18.75C18.3358 7.5 18 7.16421 18 6.75Z" fill="black"/>
</svg>
