<svg width="24" height="24" viewBox="0 0 24 24" fill="none" xmlns="http://www.w3.org/2000/svg">
<path d="M5 3.75C5 2.7835 5.7835 2 6.75 2H13.25C14.2165 2 15 2.7835 15 3.75V4.25H15.25C16.7688 4.25 18 5.48122 18 7V10.75C18 11.1642 17.6642 11.5 17.25 11.5C16.8358 11.5 16.5 11.1642 16.5 10.75V7C16.5 6.30964 15.9404 5.75 15.25 5.75H15V6.25C15 7.2165 14.2165 8 13.25 8H6.75C5.7835 8 5 7.2165 5 6.25V5.75H4.75C4.05964 5.75 3.5 6.30964 3.5 7V19.25C3.5 19.9404 4.05964 20.5 4.75 20.5H11.75C12.1642 20.5 12.5 20.8358 12.5 21.25C12.5 21.6642 12.1642 22 11.75 22H4.75C3.23122 22 2 20.7688 2 19.25V7C2 5.48122 3.23122 4.25 4.75 4.25H5V3.75ZM6.5 6.25C6.5 6.38807 6.61193 6.5 6.75 6.5H13.25C13.3881 6.5 13.5 6.38807 13.5 6.25V3.75C13.5 3.61193 13.3881 3.5 13.25 3.5H6.75C6.61193 3.5 6.5 3.61193 6.5 3.75V6.25ZM5 12.25C5 11.8358 5.33579 11.5 5.75 11.5H12.25C12.6642 11.5 13 11.8358 13 12.25C13 12.6642 12.6642 13 12.25 13H5.75C5.33579 13 5 12.6642 5 12.25ZM18 14.5C16.067 14.5 14.5 16.067 14.5 18C14.5 19.933 16.067 21.5 18 21.5C19.933 21.5 21.5 19.933 21.5 18C21.5 16.067 19.933 14.5 18 14.5ZM13 18C13 15.2386 15.2386 13 18 13C20.7614 13 23 15.2386 23 18C23 20.7614 20.7614 23 18 23C15.2386 23 13 20.7614 13 18ZM5 16.25C5 15.8358 5.33579 15.5 5.75 15.5H10.25C10.6642 15.5 11 15.8358 11 16.25C11 16.6642 10.6642 17 10.25 17H5.75C5.33579 17 5 16.6642 5 16.25ZM16.053 16.053C16.3459 15.7601 16.8208 15.7601 17.1137 16.053L18 16.9393L18.8863 16.053C19.1792 15.7601 19.6541 15.7601 19.947 16.053C20.2399 16.3459 20.2399 16.8208 19.947 17.1137L19.0607 18L19.947 18.8863C20.2399 19.1792 20.2399 19.6541 19.947 19.947C19.6541 20.2399 19.1792 20.2399 18.8863 19.947L18 19.0607L17.1137 19.947C16.8208 20.2399 16.3459 20.2399 16.053 19.947C15.7601 19.6541 15.7601 19.1792 16.053 18.8863L16.9393 18L16.053 17.1137C15.7601 16.8208 15.7601 16.3459 16.053 16.053Z" fill="black"/>
</svg>
