<svg width="24" height="24" viewBox="0 0 24 24" fill="none" xmlns="http://www.w3.org/2000/svg">
<path d="M6.25 1.5C5.2835 1.5 4.5 2.2835 4.5 3.25V3.75H4.25C2.73122 3.75 1.5 4.98122 1.5 6.5V18.75C1.5 20.2688 2.73122 21.5 4.25 21.5H9.75C10.1642 21.5 10.5 21.1642 10.5 20.75C10.5 20.3358 10.1642 20 9.75 20H4.25C3.55964 20 3 19.4404 3 18.75V6.5C3 5.80964 3.55964 5.25 4.25 5.25H4.5V5.75C4.5 6.7165 5.2835 7.5 6.25 7.5H12.75C13.7165 7.5 14.5 6.7165 14.5 5.75V5.25H14.75C15.4404 5.25 16 5.80964 16 6.5V12.25C16 12.6642 16.3358 13 16.75 13C17.1642 13 17.5 12.6642 17.5 12.25V6.5C17.5 4.98122 16.2688 3.75 14.75 3.75H14.5V3.25C14.5 2.2835 13.7165 1.5 12.75 1.5H6.25ZM13 3.25V5.75C13 5.88807 12.8881 6 12.75 6H6.25C6.11193 6 6 5.88807 6 5.75V3.25C6 3.11193 6.11193 3 6.25 3H12.75C12.8881 3 13 3.11193 13 3.25Z" fill="black"/>
<path d="M22.3055 13.6945C21.3794 12.7685 19.878 12.7685 18.9519 13.6945L13.932 18.7145C13.3352 19.3112 13 20.1206 13 20.9645V22.25C13 22.6642 13.3358 23 13.75 23H15.0355C15.8794 23 16.6888 22.6648 17.2855 22.068L22.3055 17.0481C23.2315 16.122 23.2315 14.6206 22.3055 13.6945ZM20.0126 14.7552C20.3528 14.4149 20.9045 14.4149 21.2448 14.7552C21.5851 15.0955 21.5851 15.6472 21.2448 15.9874L16.2249 21.0074C15.9094 21.3228 15.4816 21.5 15.0355 21.5H14.5V20.9645C14.5 20.5184 14.6772 20.0906 14.9926 19.7751L20.0126 14.7552Z" fill="black"/>
<path d="M5.25 11C4.83579 11 4.5 11.3358 4.5 11.75C4.5 12.1642 4.83579 12.5 5.25 12.5H11.75C12.1642 12.5 12.5 12.1642 12.5 11.75C12.5 11.3358 12.1642 11 11.75 11H5.25Z" fill="black"/>
<path d="M4.5 15.75C4.5 15.3358 4.83579 15 5.25 15H9.75C10.1642 15 10.5 15.3358 10.5 15.75C10.5 16.1642 10.1642 16.5 9.75 16.5H5.25C4.83579 16.5 4.5 16.1642 4.5 15.75Z" fill="black"/>
</svg>
