<svg width="24" height="24" viewBox="0 0 24 24" fill="none" xmlns="http://www.w3.org/2000/svg">
<path d="M7 3.75C7 2.7835 7.7835 2 8.75 2H15.25C16.2165 2 17 2.7835 17 3.75V4.25H17.25C18.7688 4.25 20 5.48122 20 7V19.25C20 20.7688 18.7688 22 17.25 22H6.75C5.23122 22 4 20.7688 4 19.25V7C4 5.48122 5.23122 4.25 6.75 4.25H7V3.75ZM7 5.75H6.75C6.05964 5.75 5.5 6.30964 5.5 7V19.25C5.5 19.9404 6.05964 20.5 6.75 20.5H17.25C17.9404 20.5 18.5 19.9404 18.5 19.25V7C18.5 6.30964 17.9404 5.75 17.25 5.75H17V6.25C17 7.2165 16.2165 8 15.25 8H8.75C7.7835 8 7 7.2165 7 6.25V5.75ZM15.5 6.25V3.75C15.5 3.61193 15.3881 3.5 15.25 3.5H8.75C8.61193 3.5 8.5 3.61193 8.5 3.75V6.25C8.5 6.38807 8.61193 6.5 8.75 6.5H15.25C15.3881 6.5 15.5 6.38807 15.5 6.25ZM7 12.25C7 11.8358 7.33579 11.5 7.75 11.5H13.25C13.6642 11.5 14 11.8358 14 12.25C14 12.6642 13.6642 13 13.25 13H7.75C7.33579 13 7 12.6642 7 12.25ZM15.5 12.25C15.5 11.8358 15.8358 11.5 16.25 11.5H16.26C16.6742 11.5 17.01 11.8358 17.01 12.25C17.01 12.6642 16.6742 13 16.26 13H16.25C15.8358 13 15.5 12.6642 15.5 12.25ZM7 16.25C7 15.8358 7.33579 15.5 7.75 15.5H13.25C13.6642 15.5 14 15.8358 14 16.25C14 16.6642 13.6642 17 13.25 17H7.75C7.33579 17 7 16.6642 7 16.25ZM15.5 16.25C15.5 15.8358 15.8358 15.5 16.25 15.5H16.26C16.6742 15.5 17.01 15.8358 17.01 16.25C17.01 16.6642 16.6742 17 16.26 17H16.25C15.8358 17 15.5 16.6642 15.5 16.25Z" fill="black"/>
</svg>
