<svg width="24" height="24" viewBox="0 0 24 24" fill="none" xmlns="http://www.w3.org/2000/svg">
<path d="M7 3.75C7 2.7835 7.7835 2 8.75 2H15.25C16.2165 2 17 2.7835 17 3.75V4.24994H17.25C18.7688 4.24994 20 5.48116 20 6.99994V11.25H21.25C21.6642 11.25 22 11.5858 22 12C22 12.4142 21.6642 12.75 21.25 12.75H2.75C2.33579 12.75 2 12.4142 2 12C2 11.5858 2.33579 11.25 2.75 11.25H4V6.99994C4 5.48116 5.23122 4.24994 6.75 4.24994H7V3.75ZM7 5.74994H6.75C6.05964 5.74994 5.5 6.30958 5.5 6.99994V11.25H18.5V6.99994C18.5 6.30958 17.9404 5.74994 17.25 5.74994H17V6.25C17 7.2165 16.2165 8 15.25 8H8.75C7.7835 8 7 7.2165 7 6.25V5.74994ZM8.75 3.5C8.61193 3.5 8.5 3.61193 8.5 3.75V6.25C8.5 6.38807 8.61193 6.5 8.75 6.5H15.25C15.3881 6.5 15.5 6.38807 15.5 6.25V3.75C15.5 3.61193 15.3881 3.5 15.25 3.5H8.75Z" fill="black"/>
<path d="M5.83331 14.3333C6.24753 14.3333 6.58331 14.669 6.58331 15.0833V17.1388C6.58331 17.553 6.24753 17.8888 5.83331 17.8888C5.4191 17.8888 5.08331 17.553 5.08331 17.1388V15.0833C5.08331 14.669 5.4191 14.3333 5.83331 14.3333Z" fill="black"/>
<path d="M9.9444 14.3333C10.3586 14.3333 10.6944 14.669 10.6944 15.0833V21.2499C10.6944 21.6641 10.3586 21.9999 9.9444 21.9999C9.53018 21.9999 9.1944 21.6641 9.1944 21.2499V15.0833C9.1944 14.669 9.53018 14.3333 9.9444 14.3333Z" fill="black"/>
<path d="M14.0555 14.3333C14.4698 14.3333 14.8055 14.669 14.8055 15.0833V17.1388C14.8055 17.553 14.4698 17.8888 14.0555 17.8888C13.6413 17.8888 13.3055 17.553 13.3055 17.1388V15.0833C13.3055 14.669 13.6413 14.3333 14.0555 14.3333Z" fill="black"/>
<path d="M18.1666 14.3333C18.5808 14.3333 18.9166 14.669 18.9166 15.0833V19.1944C18.9166 19.6086 18.5808 19.9444 18.1666 19.9444C17.7524 19.9444 17.4166 19.6086 17.4166 19.1944V15.0833C17.4166 14.669 17.7524 14.3333 18.1666 14.3333Z" fill="black"/>
</svg>
