<svg width="24" height="24" viewBox="0 0 24 24" fill="none" xmlns="http://www.w3.org/2000/svg">
<path d="M12 4.5C7.85786 4.5 4.5 7.85786 4.5 12C4.5 16.1421 7.85786 19.5 12 19.5C15.1464 19.5 17.8419 17.5623 18.9551 14.8123C19.1105 14.4284 19.5478 14.2431 19.9317 14.3985C20.3157 14.554 20.5009 14.9912 20.3455 15.3752C19.011 18.6721 15.7782 21 12 21C7.02944 21 3 16.9706 3 12C3 7.02944 7.02944 3 12 3C13.721 3 15.3314 3.48381 16.6998 4.32323C17.8179 5.00907 18.7747 5.93237 19.5 7.02345V3.75C19.5 3.33579 19.8358 3 20.25 3C20.6642 3 21 3.33579 21 3.75V8.90625C21 9.32046 20.6642 9.65625 20.25 9.65625H19.688C19.6631 9.65749 19.6383 9.65748 19.6137 9.65625H15.0938C14.6795 9.65625 14.3438 9.32046 14.3438 8.90625C14.3438 8.49204 14.6795 8.15625 15.0938 8.15625H18.4416C17.8187 7.11477 16.95 6.23641 15.9155 5.60184C14.7763 4.90305 13.4364 4.5 12 4.5Z" fill="black"/>
</svg>
