<svg width="24" height="24" viewBox="0 0 24 24" fill="none" xmlns="http://www.w3.org/2000/svg">
<path d="M9.65462 8.26465C10.6915 7.22776 12.3736 7.22776 13.4105 8.26465L18.1361 12.9902C19.173 14.0271 19.173 15.7092 18.1361 16.7461L13.4105 21.4727C12.3736 22.5094 10.6915 22.5094 9.65462 21.4727L4.92903 16.7461C3.89214 15.7092 3.89214 14.0271 4.92903 12.9902L9.65462 8.26465ZM12.3499 9.3252C11.8988 8.87409 11.1663 8.87409 10.7152 9.3252L5.98958 14.0518C5.53856 14.5029 5.5385 15.2345 5.98958 15.6855L10.7152 20.4121C11.1663 20.8631 11.8989 20.8631 12.3499 20.4121L17.0755 15.6855C17.5266 15.2345 17.5265 14.5029 17.0755 14.0518L12.3499 9.3252ZM11.4544 1.75C14.6567 1.75014 17.4674 3.39765 19.0999 5.88672V5.0957C19.1001 4.68165 19.4359 4.34575 19.8499 4.3457C20.264 4.3457 20.5998 4.68163 20.5999 5.0957V7.74805C20.5999 8.16224 20.2641 8.49805 19.8499 8.49805H17.1986C16.7846 8.49781 16.4486 8.16209 16.4486 7.74805C16.4486 7.3597 16.7442 7.04033 17.1224 7.00195L17.1986 6.99805H18.0267C16.6937 4.75355 14.2507 3.25015 11.4544 3.25C8.24868 3.25 5.51014 5.22563 4.37532 8.0293C4.21994 8.4132 3.78267 8.59864 3.39876 8.44336C3.01486 8.28798 2.82943 7.85071 2.98469 7.4668C4.3399 4.11852 7.6142 1.75 11.4544 1.75Z" fill="black"/>
</svg>
