<svg width="24" height="24" viewBox="0 0 24 24" fill="none" xmlns="http://www.w3.org/2000/svg">
<path d="M18.9168 17.0575V17.629C18.9168 18.0432 18.581 18.379 18.1668 18.379C17.7526 18.379 17.4168 18.0432 17.4168 17.629V17.0575C17.4168 16.7183 17.1329 16.42 16.7536 16.42H7.24669C6.86739 16.42 6.5835 16.7183 6.5835 17.0575V17.629C6.5835 18.0432 6.24771 18.379 5.8335 18.379C5.41928 18.379 5.0835 18.0432 5.0835 17.629V17.0575C5.0835 16.3788 5.40094 15.7807 5.89211 15.3911L5.30805 14.8176C5.01249 14.5274 5.00813 14.0526 5.29832 13.757C5.58852 13.4615 6.06337 13.4571 6.35894 13.7473L6.84165 14.2212L7.1052 13.1862C7.40161 12.0221 8.46097 11.22 9.66001 11.22H14.3403C15.5393 11.22 16.5987 12.0221 16.8951 13.1862L17.1587 14.2212L17.6414 13.7473C17.937 13.4571 18.4118 13.4615 18.702 13.757C18.9922 14.0526 18.9878 14.5275 18.6923 14.8176L18.1082 15.3911C18.5994 15.7807 18.9168 16.3788 18.9168 17.0575ZM8.55881 13.5563L8.2116 14.92H15.7887L15.4415 13.5563C15.3185 13.0733 14.8705 12.72 14.3403 12.72H9.66001C9.12979 12.72 8.68181 13.0733 8.55881 13.5563Z" fill="black"/>
<path d="M2.00065 6.78098C1.99923 6.74688 2.00013 6.71267 2.00336 6.67862C2.09933 4.07846 4.23749 2 6.86111 2H17.1389C19.7624 2 21.9005 4.07832 21.9966 6.67835C21.9999 6.71258 22.0008 6.74697 21.9994 6.78124C21.9998 6.80782 22 6.83444 22 6.86111V17.1389C22 19.8236 19.8236 22 17.1389 22H6.86111C4.17639 22 2 19.8236 2 17.1389V6.86111C2 6.83435 2.00022 6.80764 2.00065 6.78098ZM6.86111 3.5C5.14855 3.5 3.73514 4.78081 3.52653 6.43678L4.19514 7.03111C4.6898 7.4708 5.43521 7.4708 5.92987 7.03111L6.87674 6.18945C7.1609 5.93686 7.58912 5.93686 7.87328 6.18945L8.82014 7.03111C9.3148 7.4708 10.0602 7.4708 10.5549 7.03111L11.5017 6.18945C11.7859 5.93686 12.2141 5.93686 12.4983 6.18945L13.4451 7.03111C13.9398 7.4708 14.6852 7.4708 15.1799 7.03111L16.1267 6.18945C16.4109 5.93686 16.8391 5.93686 17.1233 6.18945L18.0701 7.03111C18.5648 7.4708 19.3102 7.4708 19.8049 7.03111L20.4735 6.4368C20.2649 4.78082 18.8515 3.5 17.1389 3.5H6.86111ZM20.5 17.1389V8.38579C19.4526 9.08934 18.0403 9.01148 17.0736 8.15222L16.625 7.75347L16.1764 8.15222C15.1134 9.0971 13.5116 9.0971 12.4486 8.15222L12 7.75347L11.5514 8.15222C10.4884 9.0971 8.88658 9.0971 7.8236 8.15222L7.37501 7.75347L6.92642 8.15222C5.95974 9.01149 4.54743 9.08934 3.5 8.38578V17.1389C3.5 18.9952 5.00482 20.5 6.86111 20.5H17.1389C18.9952 20.5 20.5 18.9952 20.5 17.1389Z" fill="black"/>
</svg>
