<svg width="24" height="24" viewBox="0 0 24 24" fill="none" xmlns="http://www.w3.org/2000/svg">
<path d="M14.9087 2.54078C14.1877 1.81974 13.0187 1.81974 12.2976 2.54078L2.54077 12.2976C2.19451 12.6439 1.99999 13.1135 1.99999 13.6032V16.25C1.99999 16.6642 2.33577 17 2.74999 17H5.39678C5.88646 17 6.35609 16.8055 6.70234 16.4592L16.4592 6.70236C17.1802 5.98132 17.1802 4.81228 16.4592 4.09124L14.9087 2.54078ZM13.8481 3.60144L15.3985 5.1519C15.5338 5.28715 15.5338 5.50644 15.3985 5.6417L5.64168 15.3986C5.57673 15.4635 5.48864 15.5 5.39678 15.5H3.49999V13.6032C3.49999 13.5114 3.53647 13.4233 3.60143 13.3583L13.3583 3.60144C13.4935 3.46619 13.7128 3.46619 13.8481 3.60144Z" fill="black"/>
<path d="M17.9768 16.5138C17.9984 16.5034 18.1115 16.4508 18.4333 16.6775C18.7452 16.8972 19.0902 17.2757 19.4268 17.7301C19.756 18.1746 20.0447 18.6468 20.2529 19.0126C20.3564 19.1944 20.4385 19.3472 20.4943 19.4537C20.5222 19.5069 20.5434 19.5484 20.5574 19.576L20.5728 19.6066L20.5769 19.6148C20.7596 19.9864 21.2089 20.1397 21.5806 19.9571C21.9524 19.7745 22.1054 19.3244 21.9228 18.9526L21.9223 18.9516L21.9207 18.9483L21.9152 18.9373L21.8956 18.8983C21.8787 18.8649 21.8543 18.8172 21.8229 18.7574C21.7603 18.6379 21.6698 18.4696 21.5565 18.2705C21.3311 17.8746 21.0095 17.3468 20.6322 16.8373C20.2622 16.3378 19.8042 15.8084 19.2971 15.4512C18.7999 15.1009 18.0779 14.8021 17.3287 15.161C16.9457 15.3445 16.6806 15.6373 16.5311 15.9939C16.3913 16.3275 16.3673 16.6804 16.3817 16.9901C16.4047 17.4889 16.5435 18.0629 16.6617 18.5522C16.6845 18.6465 16.7065 18.7376 16.7268 18.8245C16.8701 19.438 16.9374 19.8704 16.8859 20.1589C16.8647 20.2779 16.8296 20.3283 16.8023 20.3557C16.7737 20.3844 16.6943 20.4469 16.4838 20.4872C16.3295 20.5168 16.2311 20.492 16.1456 20.4452C16.0428 20.3888 15.9151 20.2743 15.7689 20.0606C15.4642 19.6152 15.2182 18.9561 14.9387 18.1791L14.9041 18.0828C14.6546 17.3882 14.3672 16.5878 13.9773 16.0107C13.7668 15.6993 13.4849 15.3868 13.0986 15.1986C12.6869 14.9981 12.2328 14.9757 11.7718 15.123C11.3855 15.2463 11.0506 15.4644 10.8332 15.807C10.6207 16.1418 10.5773 16.5064 10.5954 16.8179C10.6278 17.3769 10.88 17.9901 11.0664 18.4432L11.0889 18.4978C11.1918 18.7484 11.281 18.9655 11.3479 19.1645C11.3714 19.2344 11.5004 19.5114 11.3953 19.5242C11.1079 19.5592 10.9049 19.4821 10.5791 19.2849C10.5293 19.2547 10.4743 19.2198 10.4143 19.1817C10.1031 18.9839 9.65749 18.7007 9.10426 18.5578C7.82102 18.2262 6.17977 18.2342 4.91644 18.31C4.27321 18.3486 3.70554 18.4065 3.29838 18.4547C3.09455 18.4788 2.93031 18.5006 2.81619 18.5165C2.75912 18.5244 2.71453 18.5309 2.68376 18.5354L2.6481 18.5408L2.63833 18.5423L2.63411 18.5429C2.22487 18.6069 1.94499 18.9906 2.00899 19.3998C2.07298 19.809 2.45668 20.0889 2.86585 20.0249L2.86722 20.0247L2.87405 20.0237L2.90363 20.0192C2.93026 20.0153 2.97048 20.0094 3.02299 20.0021C3.12804 19.9875 3.28208 19.9671 3.47472 19.9443C3.86049 19.8986 4.39852 19.8438 5.00631 19.8073C6.24501 19.733 7.6871 19.7409 8.72903 20.0101C9.03426 20.089 9.24982 20.224 9.55061 20.4123C9.62786 20.4607 9.71072 20.5126 9.80217 20.568C10.2322 20.8284 10.7922 21.1088 11.5769 21.0132C11.9496 20.9677 12.3309 20.8381 12.6076 20.5317C12.8919 20.2169 12.9557 19.8385 12.9453 19.5322C12.9352 19.2355 12.8547 18.9393 12.7698 18.6866C12.6868 18.4399 12.5811 18.1826 12.4853 17.9497L12.4726 17.9187C12.2533 17.3849 12.1088 17.0048 12.0929 16.7309C12.0886 16.6584 12.0962 16.6236 12.1 16.6117C12.1124 16.6011 12.1475 16.5776 12.2281 16.5518C12.3565 16.5109 12.4086 16.531 12.4417 16.5471C12.5001 16.5756 12.6015 16.6538 12.7344 16.8505C13.0131 17.2629 13.2444 17.9005 13.5272 18.6868L13.5328 18.7023C13.7925 19.4242 14.0989 20.2761 14.5308 20.9075C14.7545 21.2345 15.0431 21.5515 15.4248 21.7606C15.8239 21.9793 16.278 22.054 16.7661 21.9604C17.1951 21.8782 17.5739 21.7062 17.8644 21.4148C18.1563 21.1222 18.3011 20.7672 18.3626 20.4222C18.4766 19.7828 18.3205 19.0527 18.1875 18.4832C18.1607 18.3687 18.1344 18.2587 18.109 18.1529C17.9916 17.6624 17.8959 17.2624 17.8801 16.9209C17.871 16.7256 17.8944 16.6217 17.9145 16.5737C17.925 16.5487 17.9325 16.535 17.9768 16.5138Z" fill="black"/>
</svg>
