<svg width="24" height="24" viewBox="0 0 24 24" fill="none" xmlns="http://www.w3.org/2000/svg">
<path fill-rule="evenodd" clip-rule="evenodd" d="M15.001 11.0284C15.9675 11.0284 16.751 11.8119 16.751 12.7784V17.0031C16.7507 17.9693 15.9673 18.7531 15.001 18.7531H8.99805C8.03184 18.7529 7.24832 17.9692 7.24805 17.0031V12.7784C7.24805 11.812 8.03167 11.0286 8.99805 11.0284H15.001ZM8.74805 17.0031C8.74832 17.1408 8.86027 17.2529 8.99805 17.2531H9.92578V15.1935H8.74805V17.0031ZM14.083 17.2531H15.001C15.1389 17.2531 15.2507 17.1409 15.251 17.0031V12.7784C15.251 12.6404 15.139 12.5284 15.001 12.5284H14.083V17.2531ZM8.99805 12.5284C8.8601 12.5286 8.74805 12.6405 8.74805 12.7784V13.6935H10.6758C10.7017 13.6935 10.7277 13.6948 10.7529 13.6974L10.8271 13.7091C10.876 13.7191 10.9229 13.7341 10.9678 13.7531C11.237 13.8669 11.4257 14.1338 11.4258 14.4445V17.2531H12.583V12.5284H8.99805Z" fill="black"/>
<path fill-rule="evenodd" clip-rule="evenodd" d="M13.1729 2.24622C13.9023 2.24632 14.6016 2.53633 15.1172 3.05188L18.9473 6.88196C19.4628 7.39752 19.7528 8.09685 19.7529 8.82629V19.0031C19.7528 20.5222 18.5211 21.754 17.002 21.754H6.99805C5.47886 21.754 4.24716 20.5222 4.24707 19.0031V4.99719C4.24707 3.47795 5.4788 2.24622 6.99805 2.24622H13.1729ZM6.99805 3.74622C6.30723 3.74622 5.74707 4.30638 5.74707 4.99719V19.0031C5.74716 19.6938 6.30729 20.254 6.99805 20.254H17.002C17.6927 20.254 18.2528 19.6938 18.2529 19.0031V8.82629C18.2528 8.49501 18.1212 8.17701 17.8867 7.9425L14.0566 4.11243C13.8221 3.87793 13.5041 3.74632 13.1729 3.74622H6.99805Z" fill="black"/>
</svg>
