<svg width="24" height="24" viewBox="0 0 24 24" fill="none" xmlns="http://www.w3.org/2000/svg">
<path d="M9.01858 2C9.43279 2 9.76858 2.33579 9.76858 2.75V3.80157C9.76858 4.21578 9.43279 4.55157 9.01858 4.55157C8.60436 4.55157 8.26858 4.21578 8.26858 3.80157V2.75C8.26858 2.33579 8.60436 2 9.01858 2ZM4.56372 3.30968C4.88322 3.04606 5.35592 3.09137 5.61954 3.41086L6.32148 4.2616C6.58509 4.5811 6.53979 5.05381 6.22029 5.31742C5.9008 5.58104 5.42809 5.53574 5.16447 5.21624L4.46253 4.3655C4.19892 4.046 4.24422 3.5733 4.56372 3.30968ZM13.4732 3.30968C13.7927 3.5733 13.838 4.04601 13.5744 4.3655L12.8725 5.21624C12.6089 5.53574 12.1361 5.58104 11.8166 5.31742C11.4971 5.0538 11.4518 4.5811 11.7155 4.2616L12.4174 3.41086C12.681 3.09136 13.1537 3.04606 13.4732 3.30968Z" fill="black"/>
<path d="M15.1824 5.60982C15.9538 4.83839 17.2045 4.83839 17.976 5.60982C18.7474 6.38125 18.7474 7.63199 17.976 8.40342L16.4438 9.93555C16.5781 10.0166 16.7048 10.1151 16.8207 10.231C17.3312 10.7415 17.5038 11.4618 17.3387 12.1143C17.5704 12.2107 17.7875 12.3531 17.976 12.5416C18.4865 13.052 18.6591 13.7724 18.494 14.4249C18.7257 14.5212 18.9428 14.6637 19.1313 14.8521C19.9027 15.6236 19.9027 16.8743 19.1313 17.6457L17.1095 19.6675L17.0956 19.681L16.616 20.1364C13.9501 22.6678 9.75252 22.6135 7.15303 20.014C5.4245 18.2854 4.76026 15.7603 5.41451 13.405L7.1021 7.32965C7.35201 6.42999 8.24056 5.86396 9.16154 6.01776C10.0415 6.16469 10.6863 6.92611 10.6863 7.81821V10.1059L15.1824 5.60982ZM17.3983 15.9128L16.243 17.0681C15.9501 17.361 15.4753 17.361 15.1824 17.0681C14.8895 16.7752 14.8895 16.3003 15.1824 16.0074L16.9153 14.2745C17.101 14.0888 17.101 13.7879 16.9153 13.6022C16.7298 13.4167 16.4291 13.4166 16.2434 13.6018L14.7989 15.0463C14.506 15.3392 14.0312 15.3392 13.7383 15.0463C13.4454 14.7534 13.4454 14.2786 13.7383 13.9857L15.76 11.9639C15.9457 11.7783 15.9457 11.4773 15.76 11.2916C15.5744 11.106 15.2734 11.106 15.0878 11.2916L13.6436 12.7358C13.3507 13.0286 12.8759 13.0286 12.583 12.7358C12.2901 12.4429 12.2901 11.968 12.583 11.6751L16.9153 7.34276C17.101 7.15711 17.101 6.85613 16.9153 6.67048C16.7297 6.48484 16.4287 6.48484 16.243 6.67048L10.4666 12.4469C10.2521 12.6614 9.92951 12.7256 9.64926 12.6095C9.369 12.4934 9.18627 12.2199 9.18627 11.9166V7.81821C9.18627 7.65919 9.07133 7.52346 8.91448 7.49727C8.75031 7.46986 8.59192 7.57075 8.54738 7.73112L6.85979 13.8064C6.35028 15.6407 6.86757 17.6072 8.21369 18.9533C10.2381 20.9777 13.507 21.02 15.5831 19.0487L16.0557 18.6L18.0706 16.5851C18.2562 16.3994 18.2562 16.0984 18.0706 15.9128C17.8852 15.7273 17.584 15.7277 17.3983 15.9128Z" fill="black"/>
</svg>
