<svg width="24" height="24" viewBox="0 0 24 24" fill="none" xmlns="http://www.w3.org/2000/svg">
<path d="M14.4316 4.40574L14.4324 4.40718L21.6216 16.7822C22.6985 18.6535 21.3549 21 19.1913 21H4.80882C2.64519 21 1.30167 18.6535 2.37848 16.7822L2.38012 16.7793L9.57173 4.40718L9.57259 4.40569C10.6526 2.53142 13.3516 2.53144 14.4316 4.40574ZM13.1323 5.15532C12.6295 4.28156 11.3746 4.28156 10.8718 5.15532L10.8702 5.15816L3.67859 17.5303L3.67784 17.5316C3.17357 18.4101 3.808 19.5 4.80882 19.5H19.1913C20.1922 19.5 20.8266 18.41 20.3222 17.5315L20.3215 17.5303L13.1338 5.158L13.1323 5.15532Z" fill="black"/>
</svg>
