<svg width="24" height="24" viewBox="0 0 24 24" fill="none" xmlns="http://www.w3.org/2000/svg">
<path d="M12 3.5C7.30558 3.5 3.5 7.30558 3.5 12C3.5 16.6944 7.30558 20.5 12 20.5C16.6944 20.5 20.5 16.6944 20.5 12C20.5 7.30558 16.6944 3.5 12 3.5ZM2 12C2 6.47715 6.47715 2 12 2C17.5228 2 22 6.47715 22 12C22 17.5228 17.5228 22 12 22C6.47715 22 2 17.5228 2 12ZM10.9269 6.60568C11.9938 6.39346 13.0996 6.50238 14.1046 6.91866C15.1096 7.33495 15.9686 8.03989 16.573 8.94436C17.1773 9.84883 17.4999 10.9122 17.4999 12C17.4999 12.4142 17.1641 12.75 16.7499 12.75C16.3357 12.75 15.9999 12.4142 15.9999 12C15.9999 11.2089 15.7653 10.4355 15.3258 9.77772C14.8862 9.11992 14.2615 8.60723 13.5306 8.30448C12.7997 8.00173 11.9954 7.92252 11.2195 8.07686C10.7397 8.17229 10.2841 8.35437 9.87398 8.6117C10.2727 8.62913 10.5907 8.95792 10.5907 9.36098C10.5907 9.77519 10.2549 10.111 9.84068 10.111H7.92139C7.50717 10.111 7.17139 9.77519 7.17139 9.36098V7.44169C7.17139 7.02747 7.50717 6.69169 7.92139 6.69169C8.3356 6.69169 8.67139 7.02747 8.67139 7.44169V7.62151C9.33376 7.11799 10.1045 6.76926 10.9269 6.60568ZM7.25 11.25C7.66421 11.25 8 11.5858 8 12C8 12.7911 8.2346 13.5645 8.67412 14.2223C9.11365 14.8801 9.73836 15.3928 10.4693 15.6955C11.2002 15.9983 12.0044 16.0775 12.7804 15.9231C13.2601 15.8277 13.7157 15.6456 14.1259 15.3883C13.7271 15.3709 13.4092 15.0421 13.4092 14.639C13.4092 14.2248 13.745 13.889 14.1592 13.889H16.0785C16.4927 13.889 16.8285 14.2248 16.8285 14.639V16.5583C16.8285 16.9725 16.4927 17.3083 16.0785 17.3083C15.6643 17.3083 15.3285 16.9725 15.3285 16.5583V16.3785C14.6661 16.882 13.8954 17.2307 13.073 17.3943C12.0061 17.6065 10.9002 17.4976 9.89524 17.0813C8.89025 16.6651 8.03126 15.9601 7.42692 15.0556C6.82257 14.1512 6.5 13.0878 6.5 12C6.5 11.5858 6.83579 11.25 7.25 11.25Z" fill="black"/>
</svg>
