<svg width="24" height="24" viewBox="0 0 24 24" fill="none" xmlns="http://www.w3.org/2000/svg">
<path d="M16.5228 2.21776C16.8174 1.92661 17.2923 1.92942 17.5835 2.22404L21.7835 6.47404C22.0722 6.7662 22.0722 7.23624 21.7835 7.5284L17.5835 11.7784C17.2923 12.073 16.8174 12.0758 16.5228 11.7847C16.2282 11.4935 16.2254 11.0187 16.5165 10.724L19.4544 7.75122L2.75 7.75122C2.33579 7.75122 2 7.41543 2 7.00122C2 6.58701 2.33579 6.25122 2.75 6.25122L19.4544 6.25122L16.5165 3.2784C16.2254 2.98378 16.2282 2.50892 16.5228 2.21776ZM7.47718 12.2153C7.7718 12.5065 7.77461 12.9813 7.48346 13.276L4.54562 16.2488H21.25C21.6642 16.2488 22 16.5846 22 16.9988C22 17.413 21.6642 17.7488 21.25 17.7488H4.54562L7.48346 20.7216C7.77461 21.0162 7.7718 21.4911 7.47718 21.7822C7.18256 22.0734 6.7077 22.0706 6.41654 21.776L2.21654 17.526C1.92782 17.2338 1.92782 16.7638 2.21654 16.4716L6.41654 12.2216C6.7077 11.927 7.18256 11.9242 7.47718 12.2153Z" fill="black"/>
</svg>
