<svg width="24" height="24" viewBox="0 0 24 24" fill="none" xmlns="http://www.w3.org/2000/svg">
<path d="M6.47379 2.21654C6.76595 1.92782 7.236 1.92782 7.52816 2.21654L11.7782 6.41654C12.0728 6.7077 12.0756 7.18256 11.7844 7.47718C11.4933 7.7718 11.0184 7.77461 10.7238 7.48346L7.75098 4.54562V21.25C7.75098 21.6642 7.41519 22 7.00098 22C6.58676 22 6.25098 21.6642 6.25098 21.25V4.54562L3.27816 7.48346C2.98354 7.77461 2.50867 7.7718 2.21752 7.47718C1.92636 7.18256 1.92917 6.7077 2.22379 6.41654L6.47379 2.21654ZM16.999 2C17.4132 2 17.749 2.33579 17.749 2.75L17.749 19.4544L20.7218 16.5165C21.0165 16.2254 21.4913 16.2282 21.7825 16.5228C22.0736 16.8174 22.0708 17.2923 21.7762 17.5835L17.5262 21.7835C17.234 22.0722 16.764 22.0722 16.4718 21.7835L12.2218 17.5835C11.9272 17.2923 11.9244 16.8174 12.2156 16.5228C12.5067 16.2282 12.9816 16.2254 13.2762 16.5165L16.249 19.4544L16.249 2.75C16.249 2.33579 16.5848 2 16.999 2Z" fill="black"/>
</svg>
