<svg width="24" height="24" viewBox="0 0 24 24" fill="none" xmlns="http://www.w3.org/2000/svg">
<path d="M13.5425 3.92835L14.6119 4.52594C13.537 4.66751 12.4947 5.02801 11.5525 5.59369L8.37327 7.50251L6.26146 6.32248L10.1614 3.98098C11.1972 3.35904 12.4876 3.33894 13.5425 3.92835ZM17.5294 6.15618L17.5696 6.17861L15.5232 7.40727L13.5547 6.30733C14.5075 5.98062 15.53 5.87893 16.5404 6.01903L17.5294 6.15618ZM11.929 7.11723L15.1708 8.92868C15.4054 9.05979 15.6923 9.05532 15.9227 8.91697L19.4515 6.79831C19.6808 6.6606 19.8195 6.41113 19.8153 6.14363C19.8111 5.87612 19.6648 5.63109 19.4312 5.50059L14.2742 2.61892C12.7501 1.76731 10.886 1.79631 9.38924 2.69496L4.37956 5.70277C4.15019 5.84049 4.01155 6.08996 4.01572 6.35746C4.01988 6.62497 4.16623 6.87 4.39978 7.0005L8.02092 9.02392C8.25555 9.15503 8.5424 9.15056 8.77283 9.01221L11.929 7.11723ZM21.1265 8.26795C21.3576 8.40217 21.4998 8.64924 21.4998 8.9165V14.753C21.4998 16.498 20.5633 18.1086 19.0468 18.9738L13.9156 21.9013C13.6835 22.0337 13.3984 22.0326 13.1673 21.8984C12.9362 21.7642 12.7939 21.5171 12.7939 21.2498V17.1387C12.7939 16.8694 12.9384 16.6208 13.1723 16.4873L16.3969 14.6476V10.9721C16.3969 10.7027 16.5413 10.4541 16.7752 10.3206L20.3782 8.26507C20.6103 8.13263 20.8954 8.13373 21.1265 8.26795ZM16.2546 16.4557L14.2939 17.5743V19.9585L14.3364 19.9342L14.9637 19.1589C15.6046 18.3666 16.0442 17.4393 16.2546 16.4557ZM17.2362 18.2799L18.3034 17.671C19.3528 17.0723 19.9998 15.9585 19.9998 14.753V10.2079L17.8969 11.4076V15.11C17.8969 16.2084 17.669 17.2866 17.2362 18.2799ZM2.87022 8.27221C3.10069 8.13687 3.38576 8.13441 3.61853 8.26573L7.20341 10.2883C7.43798 10.4206 7.58358 10.6685 7.58487 10.9379L7.6027 14.6453L10.8082 16.4538C11.0428 16.5862 11.1884 16.8341 11.1897 17.1034L11.2096 21.2465C11.2109 21.5138 11.0698 21.7615 10.8394 21.8969C10.6089 22.0322 10.3238 22.0347 10.0911 21.9033L5.00169 19.032C3.48102 18.1741 2.53676 16.5679 2.52837 14.8229L2.50001 8.92255C2.49872 8.65529 2.63976 8.40754 2.87022 8.27221ZM6.09782 13.6336L6.08699 11.3807L4.0062 10.2067L4.00643 10.2536L4.37384 11.18C4.74964 12.1275 5.3426 12.9664 6.09782 13.6336ZM4.02246 13.5887L4.02836 14.8157C4.03415 16.0213 4.68651 17.1319 5.73875 17.7256L9.7034 19.9623L9.69179 17.5462L6.46282 15.7245C5.50449 15.1838 4.67589 14.4546 4.02246 13.5887Z" fill="black"/>
</svg>
