<svg width="24" height="24" viewBox="0 0 24 24" fill="none" xmlns="http://www.w3.org/2000/svg">
<path d="M16.25 15C16.25 13.7574 15.2426 12.75 14 12.75H7.75V17.25H14C15.2426 17.25 16.25 16.2426 16.25 15ZM15.125 9C15.125 7.75736 14.1176 6.75 12.875 6.75H7.75V11.25H12.875C14.1176 11.25 15.125 10.2426 15.125 9ZM16.625 9C16.625 10.0089 16.2253 10.9236 15.5771 11.5977C16.8601 12.1933 17.75 13.4924 17.75 15C17.75 17.0711 16.0711 18.75 14 18.75H7C6.58579 18.75 6.25 18.4142 6.25 18V6C6.25 5.58579 6.58579 5.25 7 5.25H12.875C14.9461 5.25 16.625 6.92893 16.625 9Z" fill="black"/>
</svg>
