<svg width="24" height="24" viewBox="0 0 24 24" fill="none" xmlns="http://www.w3.org/2000/svg">
<path d="M3.21967 3.21967C3.51256 2.92678 3.98744 2.92678 4.28033 3.21967L20.7803 19.7197C21.0732 20.0126 21.0732 20.4874 20.7803 20.7803C20.4874 21.0732 20.0126 21.0732 19.7197 20.7803L3.21967 4.28033C2.92678 3.98744 2.92678 3.51256 3.21967 3.21967ZM3.21967 13.2197C3.51256 12.9268 3.98744 12.9268 4.28033 13.2197L10.7803 19.7197C11.0732 20.0126 11.0732 20.4874 10.7803 20.7803C10.4874 21.0732 10.0126 21.0732 9.71967 20.7803L3.21967 14.2803C2.92678 13.9874 2.92678 13.5126 3.21967 13.2197Z" fill="black"/>
</svg>
