<svg width="24" height="24" viewBox="0 0 24 24" fill="none" xmlns="http://www.w3.org/2000/svg">
<path d="M16.25 15C16.25 14.5858 16.5858 14.25 17 14.25C17.4142 14.25 17.75 14.5858 17.75 15C17.75 17.0711 16.0711 18.75 14 18.75H8C7.58579 18.75 7.25 18.4142 7.25 18C7.25 17.5858 7.58579 17.25 8 17.25H14C15.2426 17.25 16.25 16.2426 16.25 15ZM19 11.25C19.4142 11.25 19.75 11.5858 19.75 12C19.75 12.4142 19.4142 12.75 19 12.75H5C4.58579 12.75 4.25 12.4142 4.25 12C4.25 11.5858 4.58579 11.25 5 11.25H19ZM7.25 9C7.25 6.92893 8.92893 5.25 11 5.25H16C16.4142 5.25 16.75 5.58579 16.75 6C16.75 6.41421 16.4142 6.75 16 6.75H11C9.75736 6.75 8.75 7.75736 8.75 9C8.75 9.41421 8.41421 9.75 8 9.75C7.58579 9.75 7.25 9.41421 7.25 9Z" fill="black"/>
</svg>
