<svg width="24" height="24" viewBox="0 0 24 24" fill="none" xmlns="http://www.w3.org/2000/svg">
<path d="M2 7.75C2 5.12665 4.12665 3 6.75 3H17.25C19.8734 3 22 5.12665 22 7.75V14.25C22 15.7688 20.7688 17 19.25 17H15.5V19.25C15.5 20.2165 14.7165 21 13.75 21H12.25C11.2835 21 10.5 20.2165 10.5 19.25V17H4.75C3.23122 17 2 15.7688 2 14.25V7.75ZM4.75 15.5H10.5V7.75C10.5 5.95507 9.04493 4.5 7.25 4.5H6.75C4.95507 4.5 3.5 5.95507 3.5 7.75V14.25C3.5 14.9404 4.05964 15.5 4.75 15.5ZM10.7141 4.5C11.5116 5.34965 12 6.49279 12 7.75V15.5H19.25C19.9404 15.5 20.5 14.9404 20.5 14.25V7.75C20.5 5.95507 19.0449 4.5 17.25 4.5H10.7141ZM12 17V19.25C12 19.3881 12.1119 19.5 12.25 19.5H13.75C13.8881 19.5 14 19.3881 14 19.25V17H12ZM5 7.75C5 7.33579 5.33579 7 5.75 7H8.25C8.66421 7 9 7.33579 9 7.75C9 8.16421 8.66421 8.5 8.25 8.5H5.75C5.33579 8.5 5 8.16421 5 7.75ZM14 7.75C14 7.33579 14.3358 7 14.75 7H17.75C18.1642 7 18.5 7.33579 18.5 7.75V9.75C18.5 10.1642 18.1642 10.5 17.75 10.5C17.3358 10.5 17 10.1642 17 9.75V8.5H14.75C14.3358 8.5 14 8.16421 14 7.75Z" fill="black"/>
</svg>
