<svg width="24" height="24" viewBox="0 0 24 24" fill="none" xmlns="http://www.w3.org/2000/svg">
<path d="M7.14366 4.08303C7.44971 2.85882 8.54967 2 9.81155 2H14.1884C15.4503 2 16.5503 2.85882 16.8563 4.08303L17.3356 6H20.25C20.6642 6 21 6.33579 21 6.75C21 7.16421 20.6642 7.5 20.25 7.5H19V18.25C19 20.3211 17.3211 22 15.25 22H8.75C6.67893 22 5 20.3211 5 18.25V7.5H3.75C3.33579 7.5 3 7.16421 3 6.75C3 6.33579 3.33579 6 3.75 6H6.66442L7.14366 4.08303ZM7.23432 7.5H6.5V18.25C6.5 19.4926 7.50736 20.5 8.75 20.5H15.25C16.4926 20.5 17.5 19.4926 17.5 18.25V7.5H16.7657C16.7548 7.50024 16.744 7.50024 16.7332 7.5H7.26681C7.25601 7.50024 7.24518 7.50024 7.23432 7.5ZM15.7894 6L15.4011 4.44683C15.262 3.89037 14.762 3.5 14.1884 3.5H9.81155C9.23797 3.5 8.73799 3.89037 8.59888 4.44683L8.21058 6H15.7894ZM12 10C12.4142 10 12.75 10.3358 12.75 10.75V17.25C12.75 17.6642 12.4142 18 12 18C11.5858 18 11.25 17.6642 11.25 17.25V10.75C11.25 10.3358 11.5858 10 12 10ZM8.99744 11C9.41165 11 9.74744 11.3358 9.74744 11.75V16.25C9.74744 16.6642 9.41165 17 8.99744 17C8.58322 17 8.24744 16.6642 8.24744 16.25V11.75C8.24744 11.3358 8.58322 11 8.99744 11ZM15.0029 11C14.5887 11 14.2529 11.3358 14.2529 11.75V16.25C14.2529 16.6642 14.5887 17 15.0029 17C15.4171 17 15.7529 16.6642 15.7529 16.25V11.75C15.7529 11.3358 15.4171 11 15.0029 11Z" fill="black"/>
</svg>
