<svg width="24" height="24" viewBox="0 0 24 24" fill="none" xmlns="http://www.w3.org/2000/svg">
<path d="M7.14366 4.08303C7.44971 2.85882 8.54967 2 9.81155 2H14.1884C15.4503 2 16.5503 2.85882 16.8563 4.08303L17.3356 6H20.25C20.6642 6 21 6.33579 21 6.75C21 7.16421 20.6642 7.5 20.25 7.5H19V18.25C19 20.3211 17.3211 22 15.25 22H8.75C6.67893 22 5 20.3211 5 18.25V7.5H3.75C3.33579 7.5 3 7.16421 3 6.75C3 6.33579 3.33579 6 3.75 6H6.66442L7.14366 4.08303ZM7.23432 7.5H6.5V18.25C6.5 19.4926 7.50736 20.5 8.75 20.5H15.25C16.4926 20.5 17.5 19.4926 17.5 18.25V7.5H16.7657C16.7548 7.50024 16.744 7.50024 16.7332 7.5H7.26681C7.25601 7.50024 7.24518 7.50024 7.23432 7.5ZM15.7894 6L15.4011 4.44683C15.262 3.89037 14.762 3.5 14.1884 3.5H9.81155C9.23797 3.5 8.73799 3.89037 8.59888 4.44683L8.21058 6H15.7894Z" fill="black"/>
</svg>
