<svg width="24" height="24" viewBox="0 0 24 24" fill="none" xmlns="http://www.w3.org/2000/svg">
<path d="M6.52664 3.29624C7.07266 2.52163 7.87973 2 8.80456 2H12.925C13.3392 2 13.675 2.33579 13.675 2.75C13.675 3.16421 13.3392 3.5 12.925 3.5H8.80456C8.48047 3.5 8.08978 3.68221 7.75267 4.16045C7.41359 4.64148 7.20002 5.33419 7.20002 6.09028V14.0347L9.57312 11.1781C9.83781 10.8595 10.3107 10.8158 10.6293 11.0805C10.9479 11.3452 10.9916 11.8181 10.7269 12.1367L7.02691 16.5904C6.88442 16.7619 6.673 16.8611 6.45002 16.8611C6.22704 16.8611 6.01561 16.7619 5.87312 16.5904L2.17313 12.1367C1.90844 11.8181 1.95215 11.3452 2.27075 11.0805C2.58936 10.8158 3.06222 10.8595 3.32691 11.1781L5.70002 14.0347V6.09028C5.70002 5.07457 5.98259 4.06806 6.52664 3.29624ZM17.5499 7.13892C17.7729 7.13892 17.9843 7.23814 18.1268 7.40965L21.8268 11.8634C22.0915 12.182 22.0478 12.6548 21.7292 12.9195C21.4106 13.1842 20.9377 13.1405 20.673 12.8219L18.2999 9.96537V17.9097C18.2999 18.9484 17.9689 19.9688 17.3458 20.7422C16.7193 21.5199 15.8304 22 14.859 22H10.1499C9.73571 22 9.39992 21.6642 9.39992 21.25C9.39992 20.8358 9.73571 20.5 10.1499 20.5H14.859C15.315 20.5 15.795 20.2763 16.1777 19.8012C16.5639 19.3217 16.7999 18.6429 16.7999 17.9097V9.96537L14.4268 12.8219C14.1621 13.1405 13.6893 13.1842 13.3707 12.9195C13.0521 12.6548 13.0083 12.182 13.273 11.8634L16.973 7.40965C17.1155 7.23814 17.3269 7.13892 17.5499 7.13892Z" fill="black"/>
</svg>
