<svg width="24" height="24" viewBox="0 0 24 24" fill="none" xmlns="http://www.w3.org/2000/svg">
<path d="M1.99998 6.86111C1.99998 4.17639 4.17637 2 6.86109 2H17.1389C19.8236 2 22 4.17639 22 6.86111V17.1389C22 19.8236 19.8236 22 17.1389 22H6.86109C4.17637 22 1.99998 19.8236 1.99998 17.1389V6.86111ZM6.86109 3.5C5.0048 3.5 3.49998 5.00482 3.49998 6.86111V17.1389C3.49998 18.9952 5.0048 20.5 6.86109 20.5H17.1389C18.9952 20.5 20.5 18.9952 20.5 17.1389V6.86111C20.5 5.00482 18.9952 3.5 17.1389 3.5H6.86109ZM7.23501 9.70474C7.53615 9.42033 8.01083 9.43389 8.29524 9.73503L12 13.6577L15.7047 9.73503C15.9891 9.43389 16.4638 9.42033 16.7649 9.70474C17.0661 9.98915 17.0796 10.4638 16.7952 10.765L12.5452 15.265C12.4036 15.415 12.2063 15.5 12 15.5C11.7936 15.5 11.5964 15.415 11.4547 15.265L7.20472 10.765C6.92031 10.4638 6.93387 9.98915 7.23501 9.70474Z" fill="black"/>
</svg>
