<svg width="24" height="24" viewBox="0 0 24 24" fill="none" xmlns="http://www.w3.org/2000/svg">
<path d="M2 6.86111C2 4.17639 4.17639 2 6.86111 2H17.1389C19.8236 2 22 4.17639 22 6.86111V17.1389C22 19.8236 19.8236 22 17.1389 22H6.86111C4.17639 22 2 19.8236 2 17.1389V6.86111ZM6.86111 3.5C5.00482 3.5 3.5 5.00482 3.5 6.86111V17.1389C3.5 18.9952 5.00482 20.5 6.86111 20.5H17.1389C18.9952 20.5 20.5 18.9952 20.5 17.1389V6.86111C20.5 5.00482 18.9952 3.5 17.1389 3.5H6.86111ZM9.32078 6.53617C9.82584 6.15605 10.4242 6 11.1338 6H15.0828C15.497 6 15.8328 6.33579 15.8328 6.75C15.8328 7.16421 15.497 7.5 15.0828 7.5H11.1338C10.6539 7.5 10.4005 7.6009 10.2228 7.73466C10.0228 7.88522 9.8291 8.14352 9.58732 8.62708C9.40208 8.99756 8.95158 9.14773 8.58109 8.96249C8.21061 8.77725 8.06044 8.32674 8.24568 7.95626C8.5178 7.41203 8.83803 6.89951 9.32078 6.53617ZM12 9C12.4142 9 12.75 9.33579 12.75 9.75V17.25C12.75 17.6642 12.4142 18 12 18C11.5858 18 11.25 17.6642 11.25 17.25V9.75C11.25 9.33579 11.5858 9 12 9Z" fill="black"/>
</svg>
