<svg width="24" height="24" viewBox="0 0 24 24" fill="none" xmlns="http://www.w3.org/2000/svg">
<path d="M2 6.86111C2 4.17639 4.17639 2 6.86111 2H17.1389C19.8236 2 22 4.17639 22 6.86111V17.1389C22 19.8236 19.8236 22 17.1389 22H6.86111C4.17639 22 2 19.8236 2 17.1389V6.86111ZM6.86111 3.5C5.00482 3.5 3.5 5.00482 3.5 6.86111V17.1389C3.5 18.9952 5.00482 20.5 6.86111 20.5H17.1389C18.9952 20.5 20.5 18.9952 20.5 17.1389V6.86111C20.5 5.00482 18.9952 3.5 17.1389 3.5H6.86111ZM11.013 6.00381C11.4251 6.04551 11.7254 6.4134 11.6837 6.82551L11.4131 9.5H13.0929L13.3788 6.67449C13.4205 6.26238 13.7884 5.96211 14.2005 6.00381C14.6126 6.04551 14.9129 6.4134 14.8712 6.82551L14.6006 9.5H16.25C16.6642 9.5 17 9.83579 17 10.25C17 10.6642 16.6642 11 16.25 11H14.4488L14.2464 13H16.25C16.6642 13 17 13.3358 17 13.75C17 14.1642 16.6642 14.5 16.25 14.5H14.0946L13.8087 17.3255C13.767 17.7376 13.3991 18.0379 12.987 17.9962C12.5749 17.9545 12.2746 17.5866 12.3163 17.1745L12.5869 14.5H10.9071L10.6212 17.3255C10.5795 17.7376 10.2116 18.0379 9.79949 17.9962C9.38738 17.9545 9.08711 17.5866 9.12881 17.1745L9.39944 14.5H7.75C7.33579 14.5 7 14.1642 7 13.75C7 13.3358 7.33579 13 7.75 13H9.55123L9.75361 11H7.75C7.33579 11 7 10.6642 7 10.25C7 9.83579 7.33579 9.5 7.75 9.5H9.9054L10.1913 6.67449C10.233 6.26238 10.6009 5.96211 11.013 6.00381ZM11.2613 11L11.0589 13H12.7387L12.9411 11H11.2613Z" fill="black"/>
</svg>
