<svg width="24" height="24" viewBox="0 0 24 24" fill="none" xmlns="http://www.w3.org/2000/svg">
<path d="M9.85714 3.5C10.3735 3.5 10.9156 3.75729 11.5376 4.29042C12.0314 4.71373 12.5148 5.25672 13.0219 5.85714C12.5148 6.45757 12.0314 7.00056 11.5376 7.42386C10.9156 7.95699 10.3735 8.21429 9.85714 8.21429C8.55533 8.21429 7.5 7.15896 7.5 5.85714C7.5 4.55533 8.55533 3.5 9.85714 3.5ZM14 4.69139C13.5294 4.1412 13.0335 3.59706 12.5138 3.15154C11.7764 2.51949 10.8944 2 9.85714 2C7.7269 2 6 3.7269 6 5.85714C6 7.98738 7.7269 9.71429 9.85714 9.71429C10.8944 9.71429 11.7764 9.19479 12.5138 8.56275C13.0335 8.11723 13.5294 7.57309 14 7.02289C14.4706 7.57309 14.9665 8.11723 15.4862 8.56275C16.2236 9.19479 17.1056 9.71429 18.1429 9.71429C20.2731 9.71429 22 7.98738 22 5.85714C22 3.7269 20.2731 2 18.1429 2C17.1056 2 16.2236 2.51949 15.4862 3.15154C14.9665 3.59706 14.4706 4.1412 14 4.69139ZM14.9781 5.85714C15.4852 5.25672 15.9686 4.71373 16.4624 4.29042C17.0844 3.75729 17.6265 3.5 18.1429 3.5C19.4447 3.5 20.5 4.55533 20.5 5.85714C20.5 7.15896 19.4447 8.21429 18.1429 8.21429C17.6265 8.21429 17.0844 7.95699 16.4624 7.42386C15.9686 7.00056 15.4852 6.45757 14.9781 5.85714ZM2.00146 14.25C2.00146 13.2837 2.78465 12.5 3.75119 12.5H5.80711C6.65876 12.5 7.36806 13.1085 7.52464 13.9142C7.76962 13.8654 8.04103 13.7971 8.32784 13.7126C8.92634 13.5365 9.53323 13.308 10.0015 13.1043C10.8818 12.7211 11.8833 12.5769 12.8634 12.7948L14.5495 13.1696C15.6971 13.4247 16.4825 14.4519 16.4632 15.5944C17.0612 15.2698 17.6401 14.9074 18.1196 14.5889C19.096 13.9404 20.4352 14.0148 21.2974 14.8773C22.179 15.759 22.269 17.2102 21.3507 18.1472C20.4738 19.0419 19.097 20.314 17.7696 20.9304C17.7248 20.9511 17.6807 20.9717 17.6371 20.9919C16.9065 21.3317 16.3388 21.5956 15.6739 21.7619C14.9624 21.9399 14.172 22.0001 12.955 22.0001C11.9483 22.0001 11.1238 21.7702 10.3305 21.5491C10.2392 21.5236 10.1482 21.4983 10.0575 21.4734C9.30099 21.2661 8.48434 21.0663 7.38182 21.0136C7.09836 21.5974 6.49991 22 5.80711 22H3.75119C2.78465 22 2.00146 21.2163 2.00146 20.25V14.25ZM7.55667 19.5207C8.76273 19.5882 9.66699 19.8111 10.454 20.0268C10.5461 20.052 10.6356 20.0768 10.7231 20.101C11.5337 20.3256 12.1635 20.5001 12.955 20.5001C14.1373 20.5001 14.7801 20.4393 15.31 20.3068C15.8327 20.176 16.2771 19.9696 17.0722 19.6004L17.1379 19.5699C18.1962 19.0785 19.4089 17.9854 20.2794 17.0973C20.577 16.7936 20.5833 16.2845 20.2366 15.9378C19.9124 15.6135 19.3709 15.5585 18.9495 15.8384C18.3596 16.2302 17.607 16.6985 16.8308 17.0965C16.0734 17.4849 15.2364 17.8367 14.4819 17.9561C14.1858 18.0134 13.8956 18.0206 13.6457 18.0174C13.495 18.0154 13.3892 18.0115 13.2923 18.0078C13.1851 18.0037 13.0889 18.0001 12.955 18.0001C12.5408 18.0001 12.205 17.6643 12.205 17.2501C12.205 16.8359 12.5408 16.5001 12.955 16.5001C13.0753 16.5001 13.2506 16.5056 13.405 16.5105C13.5088 16.5138 13.6031 16.5167 13.6651 16.5175C13.8823 16.5203 14.0562 16.5116 14.2049 16.4819C14.5829 16.4064 14.885 16.1036 14.9504 15.711C15.0329 15.2157 14.7137 14.7427 14.2241 14.6338L12.5379 14.259C11.909 14.1192 11.2311 14.205 10.6 14.4797C10.0811 14.7055 9.41573 14.9561 8.75133 15.1516C8.36165 15.2663 7.95 15.3688 7.55664 15.4325L7.55667 19.5207ZM6.05683 14.2497C6.05668 14.1116 5.94474 14 5.80711 14H3.75119C3.61346 14 3.50146 14.1117 3.50146 14.25V20.25C3.50146 20.3883 3.61346 20.5 3.75119 20.5H5.80711C5.94477 20.5 6.05668 20.3884 6.05668 20.2501L6.05683 14.2497Z" fill="black"/>
</svg>
