<svg width="24" height="24" viewBox="0 0 24 24" fill="none" xmlns="http://www.w3.org/2000/svg">
<path d="M7 6.75C7 4.67893 8.67893 3 10.75 3H13.25C15.3211 3 17 4.67893 17 6.75C17 7.16421 16.6642 7.5 16.25 7.5C15.8358 7.5 15.5 7.16421 15.5 6.75C15.5 5.50736 14.4926 4.5 13.25 4.5H10.75C9.50736 4.5 8.5 5.50736 8.5 6.75V9.99854H17.6964C18.9656 9.99854 20 11.0238 20 12.2954V18.1873C20 19.7436 18.7337 20.9998 17.1786 20.9998H6.82143C5.26625 20.9998 4 19.7436 4 18.1873V12.2954C4 11.0238 5.0344 9.99854 6.30357 9.99854H7V6.75ZM7.70274 11.4985H6.30357C5.85671 11.4985 5.5 11.8584 5.5 12.2954V18.1873C5.5 18.9091 6.08857 19.4998 6.82143 19.4998H17.1786C17.9114 19.4998 18.5 18.9091 18.5 18.1873V12.2954C18.5 11.8584 18.1433 11.4985 17.6964 11.4985H7.79726C7.78163 11.4995 7.76587 11.5 7.75 11.5C7.73413 11.5 7.71837 11.4995 7.70274 11.4985Z" fill="black"/>
</svg>
