<svg width="24" height="24" viewBox="0 0 24 24" fill="none" xmlns="http://www.w3.org/2000/svg">
<path d="M12 3.5C7.30558 3.5 3.5 7.30558 3.5 12C3.5 14.0461 4.22298 15.9234 5.42743 17.3903C7.20474 15.899 9.498 15 12 15C14.502 15 16.7953 15.899 18.5726 17.3903C19.777 15.9234 20.5 14.0461 20.5 12C20.5 7.30558 16.6944 3.5 12 3.5ZM17.5187 18.4651C16.0143 17.2362 14.0937 16.5 12 16.5C9.90632 16.5 7.98574 17.2362 6.48134 18.4651C7.96631 19.7339 9.89369 20.5 12 20.5C14.1063 20.5 16.0337 19.7339 17.5187 18.4651ZM2 12C2 6.47715 6.47715 2 12 2C17.5228 2 22 6.47715 22 12C22 17.5228 17.5228 22 12 22C6.47715 22 2 17.5228 2 12ZM12 7.25C10.6193 7.25 9.5 8.36929 9.5 9.75C9.5 11.1307 10.6193 12.25 12 12.25C13.3807 12.25 14.5 11.1307 14.5 9.75C14.5 8.36929 13.3807 7.25 12 7.25ZM8 9.75C8 7.54086 9.79086 5.75 12 5.75C14.2091 5.75 16 7.54086 16 9.75C16 11.9591 14.2091 13.75 12 13.75C9.79086 13.75 8 11.9591 8 9.75Z" fill="black"/>
</svg>
