<svg width="24" height="24" viewBox="0 0 24 24" fill="none" xmlns="http://www.w3.org/2000/svg">
<path d="M12 3.5C10.3431 3.5 9 4.84315 9 6.5C9 8.15685 10.3431 9.5 12 9.5C13.6569 9.5 15 8.15685 15 6.5C15 4.84315 13.6569 3.5 12 3.5ZM7.5 6.5C7.5 4.01472 9.51472 2 12 2C14.4853 2 16.5 4.01472 16.5 6.5C16.5 8.98528 14.4853 11 12 11C9.51472 11 7.5 8.98528 7.5 6.5ZM9.25003 15.0001C6.92755 15.0002 5.50003 16.5164 5.50003 18.229V19.4374C5.50003 19.8715 5.65396 20.0828 5.86013 20.2205C6.11359 20.3899 6.53459 20.4999 7.11738 20.4999H16.8827C17.4655 20.4999 17.8865 20.3899 18.1399 20.2205C18.3461 20.0828 18.5 19.8715 18.5 19.4374V18.229C18.5 16.5164 17.0725 15.0002 14.75 15.0001M9.25003 15.0001C9.25002 15.0001 9.25004 15.0001 9.25003 15.0001V15.0001ZM4.00003 18.229C4.00003 15.5592 6.23402 13.5002 9.25 13.5001H14.75C17.766 13.5002 20 15.5592 20 18.229V19.4374C20 20.3379 19.624 21.0329 18.9734 21.4677C18.37 21.8709 17.6073 21.9999 16.8827 21.9999H7.11738C6.39272 21.9999 5.63004 21.8709 5.02669 21.4677C4.37605 21.0329 4.00003 20.3379 4.00003 19.4374V18.229Z" fill="black"/>
</svg>
