<svg width="24" height="24" viewBox="0 0 24 24" fill="none" xmlns="http://www.w3.org/2000/svg">
<path d="M2 6.86111C2 4.17639 4.17639 2 6.86111 2H17.1389C19.8236 2 22 4.17639 22 6.86111V11.25C22 11.6642 21.6642 12 21.25 12C20.8358 12 20.5 11.6642 20.5 11.25V6.86111C20.5 5.00482 18.9952 3.5 17.1389 3.5H6.86111C5.00482 3.5 3.5 5.00482 3.5 6.86111V17.1389C3.5 18.9952 5.00482 20.5 6.86111 20.5H9.25C9.66421 20.5 10 20.8358 10 21.25C10 21.6642 9.66421 22 9.25 22H6.86111C4.17639 22 2 19.8236 2 17.1389V6.86111ZM11.5 7.5C10.6716 7.5 10 8.17157 10 9C10 9.82843 10.6716 10.5 11.5 10.5C12.3284 10.5 13 9.82843 13 9C13 8.17157 12.3284 7.5 11.5 7.5ZM8.5 9C8.5 7.34315 9.84315 6 11.5 6C13.1569 6 14.5 7.34315 14.5 9C14.5 10.6569 13.1569 12 11.5 12C9.84315 12 8.5 10.6569 8.5 9ZM13.8056 14.5C13.6414 14.5 13.5 14.6353 13.5 14.8125V21.1875C13.5 21.3647 13.6414 21.5 13.8056 21.5H21.1944C21.3586 21.5 21.5 21.3647 21.5 21.1875V16.4062C21.5 16.229 21.3586 16.0938 21.1944 16.0938H16.9722C16.7207 16.0938 16.4858 15.9676 16.3469 15.7579L15.6047 14.6373C15.5471 14.5503 15.4517 14.5 15.3518 14.5H13.8056ZM12 14.8125C12 13.8161 12.8037 13 13.8056 13H15.3518C15.9576 13 16.5214 13.3048 16.8553 13.809L17.3751 14.5938H21.1944C22.1963 14.5938 23 15.4099 23 16.4062V21.1875C23 22.1839 22.1963 23 21.1944 23H13.8056C12.8037 23 12 22.1839 12 21.1875V14.8125ZM10.5127 14.2453C10.5277 14.6592 10.2042 15.0069 9.79027 15.0218C9.08442 15.0473 8.49082 15.1472 8.02642 15.4117C7.59648 15.6566 7.20296 16.0854 6.97478 16.9429C6.86827 17.3432 6.45744 17.5814 6.05715 17.4749C5.65686 17.3684 5.41871 16.9575 5.52522 16.5572C5.84433 15.3579 6.46525 14.5747 7.28401 14.1083C8.06829 13.6616 8.95765 13.551 9.73611 13.5228C10.1501 13.5079 10.4977 13.8313 10.5127 14.2453Z" fill="black"/>
</svg>
