<svg width="24" height="24" viewBox="0 0 24 24" fill="none" xmlns="http://www.w3.org/2000/svg">
<path d="M2 6.86111C2 4.17639 4.17639 2 6.86111 2H17.1389C19.8236 2 22 4.17639 22 6.86111V11.25C22 11.6642 21.6642 12 21.25 12C20.8358 12 20.5 11.6642 20.5 11.25V6.86111C20.5 5.00482 18.9952 3.5 17.1389 3.5H6.86111C5.00482 3.5 3.5 5.00482 3.5 6.86111V17.1389C3.5 18.9952 5.00482 20.5 6.86111 20.5H10.25C10.6642 20.5 11 20.8358 11 21.25C11 21.6642 10.6642 22 10.25 22H6.86111C4.17639 22 2 19.8236 2 17.1389V6.86111ZM11.5 7.5C10.6716 7.5 10 8.17157 10 9C10 9.82843 10.6716 10.5 11.5 10.5C12.3284 10.5 13 9.82843 13 9C13 8.17157 12.3284 7.5 11.5 7.5ZM8.5 9C8.5 7.34315 9.84315 6 11.5 6C13.1569 6 14.5 7.34315 14.5 9C14.5 10.6569 13.1569 12 11.5 12C9.84315 12 8.5 10.6569 8.5 9ZM18.1491 14.5499C18.0688 14.4834 17.9312 14.4834 17.8509 14.5499L14.5453 17.2868C14.5075 17.3181 14.5 17.3493 14.5 17.3667V21.3703C14.5 21.3881 14.5064 21.4142 14.5378 21.4435C14.5702 21.4737 14.6237 21.5 14.6944 21.5H21.3056C21.3763 21.5 21.4298 21.4737 21.4622 21.4435C21.4936 21.4142 21.5 21.3881 21.5 21.3703V17.3667C21.5 17.3493 21.4925 17.3181 21.4547 17.2868L18.1491 14.5499ZM16.8942 13.3945C17.5296 12.8685 18.4704 12.8685 19.1058 13.3945L22.4113 16.1315C22.7768 16.434 23 16.8815 23 17.3667V21.3703C23 22.3196 22.1903 23 21.3056 23H14.6944C13.8097 23 13 22.3196 13 21.3703V17.3667C13 16.8815 13.2232 16.4341 13.5887 16.1315L16.8942 13.3945ZM10.8195 13.5181C10.9712 13.5203 11.1154 13.5223 11.2499 13.5223C11.6641 13.5223 11.9999 13.8581 11.9999 14.2723C11.9999 14.6865 11.6641 15.0223 11.2499 15.0223C11.0736 15.0223 10.9004 15.0204 10.7303 15.0186C9.92965 15.0099 9.19834 15.0019 8.54512 15.1952C8.17563 15.3046 7.86581 15.4724 7.61364 15.7266C7.36189 15.9804 7.13051 16.3576 6.97478 16.9429C6.86827 17.3432 6.45744 17.5813 6.05715 17.4748C5.65686 17.3683 5.41871 16.9575 5.52522 16.5572C5.73673 15.7623 6.08292 15.1398 6.54872 14.6702C7.0141 14.2011 7.5618 13.9219 8.11944 13.7569C9.01217 13.4927 10.0205 13.5069 10.8195 13.5181Z" fill="black"/>
</svg>
