<svg width="24" height="24" viewBox="0 0 24 24" fill="none" xmlns="http://www.w3.org/2000/svg">
<path d="M2.21967 2.21967C2.51256 1.92678 2.98744 1.92678 3.28033 2.21967L21.7803 20.7197C22.0732 21.0126 22.0732 21.4874 21.7803 21.7803C21.4874 22.0732 21.0126 22.0732 20.7197 21.7803L19.608 20.6687C19.1276 21.4664 18.2531 22 17.2541 22H6.75C5.23122 22 4 20.7688 4 19.25V6.74595C4 6.27925 4.18311 5.85531 4.48142 5.54208L2.21967 3.28033C1.92678 2.98744 1.92678 2.51256 2.21967 2.21967ZM5.54436 6.60502C5.5164 6.64493 5.5 6.69352 5.5 6.74595V19.25C5.5 19.9404 6.05964 20.5 6.75 20.5H17.2541C17.8473 20.5 18.3438 20.0853 18.4693 19.53L13.7371 14.7977C13.2876 15.2322 12.6755 15.5 12 15.5C10.6193 15.5 9.5 14.3807 9.5 13C9.5 12.3245 9.76776 11.7123 10.2022 11.2629L5.54436 6.60502ZM11.2631 12.3238C11.0995 12.5021 11 12.7398 11 13C11 13.5523 11.4477 14 12 14C12.2602 14 12.4979 13.9005 12.6762 13.7369L11.2631 12.3238ZM9 3.75C9 2.7835 9.7835 2 10.75 2H13.25C14.2165 2 15 2.7835 15 3.75V5H17.25C18.7688 5 20 6.23122 20 7.75V14.5833C20 14.9975 19.6642 15.3333 19.25 15.3333C18.8358 15.3333 18.5 14.9975 18.5 14.5833V7.75C18.5 7.05964 17.9404 6.5 17.25 6.5H15V7.25C15 8.2165 14.2165 9 13.25 9H12.8483C12.4341 9 12.0983 8.66421 12.0983 8.25C12.0983 7.83579 12.4341 7.5 12.8483 7.5H13.25C13.3881 7.5 13.5 7.38807 13.5 7.25V3.75C13.5 3.61193 13.3881 3.5 13.25 3.5H10.75C10.6119 3.5 10.5 3.61193 10.5 3.75V5.15168C10.5 5.56589 10.1642 5.90168 9.75 5.90168C9.33579 5.90168 9 5.56589 9 5.15168V3.75ZM12 18C11.1114 18 10.2569 18.4354 9.56964 19.2379C9.3002 19.5525 8.82674 19.5891 8.51214 19.3196C8.19753 19.0502 8.16092 18.5767 8.43036 18.2621C9.34211 17.1976 10.5881 16.5 12 16.5C13.4119 16.5 14.6579 17.1976 15.5696 18.2621C15.8391 18.5767 15.8025 19.0502 15.4879 19.3196C15.1733 19.5891 14.6998 19.5525 14.4304 19.2379C13.7431 18.4354 12.8886 18 12 18Z" fill="black"/>
</svg>
