<svg width="24" height="24" viewBox="0 0 24 24" fill="none" xmlns="http://www.w3.org/2000/svg">
<path d="M2 6.86111C2 4.17639 4.17639 2 6.86111 2H17.1389C19.8236 2 22 4.17639 22 6.86111V11.25C22 11.6642 21.6642 12 21.25 12C20.8358 12 20.5 11.6642 20.5 11.25V6.86111C20.5 5.00482 18.9952 3.5 17.1389 3.5H6.86111C5.00482 3.5 3.5 5.00482 3.5 6.86111V17.1389C3.5 18.9952 5.00482 20.5 6.86111 20.5H12.25C12.6642 20.5 13 20.8358 13 21.25C13 21.6642 12.6642 22 12.25 22H6.86111C4.17639 22 2 19.8236 2 17.1389V6.86111ZM11.5 7.5C10.6716 7.5 10 8.17157 10 9C10 9.82843 10.6716 10.5 11.5 10.5C12.3284 10.5 13 9.82843 13 9C13 8.17157 12.3284 7.5 11.5 7.5ZM8.5 9C8.5 7.34315 9.84315 6 11.5 6C13.1569 6 14.5 7.34315 14.5 9C14.5 10.6569 13.1569 12 11.5 12C9.84315 12 8.5 10.6569 8.5 9ZM16.5 17.0415V17.9931C16.4999 17.9931 16.5 17.9927 16.5 17.9931C16.5033 17.9923 16.5452 18.1643 17.0162 18.3816C17.4852 18.5981 18.1858 18.752 19 18.752C19.8142 18.752 20.5148 18.5981 20.9838 18.3816C21.4548 18.1643 21.4965 17.9917 21.4998 17.9925C21.4997 17.9921 21.4999 17.9925 21.4998 17.9925L21.5 17.0415C20.8086 17.3365 19.9296 17.5 19 17.5C18.0704 17.5 17.1914 17.3365 16.5 17.0415ZM23 15.25V20.7539C23 21.637 22.256 22.1985 21.6124 22.4955C20.9051 22.822 19.9807 23.0039 19 23.0039C18.0193 23.0039 17.0949 22.822 16.3876 22.4955C15.744 22.1985 15 21.637 15 20.7539V15.25C15 14.3669 15.744 13.8054 16.3876 13.5084C17.0949 13.1819 18.0193 13 19 13C19.9807 13 20.9051 13.1819 21.6124 13.5084C22.256 13.8054 23 14.3669 23 15.25ZM16.5 19.7935V20.745C16.4999 20.745 16.5 20.7446 16.5 20.745C16.5033 20.7443 16.5452 20.9162 17.0162 21.1336C17.4852 21.3501 18.1858 21.5039 19 21.5039C19.8142 21.5039 20.5148 21.3501 20.9838 21.1336C21.4548 20.9162 21.4965 20.7437 21.4998 20.7444C21.4997 20.744 21.4999 20.7444 21.4998 20.7444L21.5 19.7935C20.8086 20.0885 19.9296 20.252 19 20.252C18.0704 20.252 17.1914 20.0885 16.5 19.7935ZM21.4951 15.25C21.4764 15.2111 21.389 15.0573 20.9838 14.8703C20.5148 14.6539 19.8142 14.5 19 14.5C18.1858 14.5 17.4852 14.6539 17.0162 14.8703C16.611 15.0573 16.5236 15.2111 16.5049 15.25C16.5236 15.2889 16.611 15.4427 17.0162 15.6297C17.4852 15.8461 18.1858 16 19 16C19.8142 16 20.5148 15.8461 20.9838 15.6297C21.389 15.4427 21.4764 15.2889 21.4951 15.25ZM10.8195 13.5181C10.9712 13.5203 11.1154 13.5223 11.2499 13.5223C11.6641 13.5223 11.9999 13.8581 11.9999 14.2723C11.9999 14.6865 11.6641 15.0223 11.2499 15.0223C11.0736 15.0223 10.9004 15.0204 10.7303 15.0186C9.92965 15.0099 9.19834 15.0019 8.54512 15.1952C8.17563 15.3046 7.86581 15.4724 7.61364 15.7266C7.36189 15.9804 7.13051 16.3576 6.97478 16.9429C6.86827 17.3432 6.45744 17.5813 6.05715 17.4748C5.65686 17.3683 5.41871 16.9575 5.52522 16.5572C5.73673 15.7623 6.08292 15.1398 6.54872 14.6702C7.0141 14.2011 7.5618 13.9219 8.11944 13.7569C9.01217 13.4927 10.0205 13.5069 10.8195 13.5181Z" fill="black"/>
</svg>
