<svg width="24" height="24" viewBox="0 0 24 24" fill="none" xmlns="http://www.w3.org/2000/svg">
<path d="M2 6.86111C2 4.17639 4.17639 2 6.86111 2H17.1389C19.8236 2 22 4.17639 22 6.86111V11.25C22 11.6642 21.6642 12 21.25 12C20.8358 12 20.5 11.6642 20.5 11.25V6.86111C20.5 5.00482 18.9952 3.5 17.1389 3.5H6.86111C5.00482 3.5 3.5 5.00482 3.5 6.86111V17.1389C3.5 18.9952 5.00482 20.5 6.86111 20.5H11.25C11.6642 20.5 12 20.8358 12 21.25C12 21.6642 11.6642 22 11.25 22H6.86111C4.17639 22 2 19.8236 2 17.1389V6.86111ZM11.5 7.5C10.6716 7.5 10 8.17157 10 9C10 9.82843 10.6716 10.5 11.5 10.5C12.3284 10.5 13 9.82843 13 9C13 8.17157 12.3284 7.5 11.5 7.5ZM8.5 9C8.5 7.34315 9.84315 6 11.5 6C13.1569 6 14.5 7.34315 14.5 9C14.5 10.6569 13.1569 12 11.5 12C9.84315 12 8.5 10.6569 8.5 9ZM18 14.5C16.067 14.5 14.5 16.067 14.5 18C14.5 19.933 16.067 21.5 18 21.5C19.933 21.5 21.5 19.933 21.5 18C21.5 16.067 19.933 14.5 18 14.5ZM13 18C13 15.2386 15.2386 13 18 13C20.7614 13 23 15.2386 23 18C23 20.7614 20.7614 23 18 23C15.2386 23 13 20.7614 13 18ZM10.8195 13.5181C10.9712 13.5203 11.1154 13.5223 11.2499 13.5223C11.6641 13.5223 11.9999 13.8581 11.9999 14.2723C11.9999 14.6865 11.6641 15.0223 11.2499 15.0223C11.0736 15.0223 10.9004 15.0204 10.7303 15.0186C9.92965 15.0099 9.19834 15.0019 8.54512 15.1952C8.17563 15.3046 7.86581 15.4724 7.61364 15.7266C7.36189 15.9804 7.13051 16.3576 6.97478 16.9429C6.86827 17.3432 6.45744 17.5813 6.05715 17.4748C5.65686 17.3683 5.41871 16.9575 5.52522 16.5572C5.73673 15.7623 6.08292 15.1398 6.54872 14.6702C7.0141 14.2011 7.5618 13.9219 8.11944 13.7569C9.01217 13.4927 10.0205 13.5069 10.8195 13.5181ZM20.2536 16.644C20.533 16.9497 20.5117 17.4241 20.206 17.7036L17.8812 19.8286C17.5864 20.0981 17.1321 20.0892 16.8481 19.8085L15.7728 18.746C15.4782 18.4548 15.4754 17.98 15.7665 17.6853C16.0577 17.3907 16.5325 17.3879 16.8272 17.679L17.3953 18.2405L19.194 16.5964C19.4997 16.317 19.9741 16.3383 20.2536 16.644Z" fill="black"/>
</svg>
