<svg width="24" height="24" viewBox="0 0 24 24" fill="none" xmlns="http://www.w3.org/2000/svg">
<path d="M2 6.86111C2 4.17639 4.17639 2 6.86111 2H17.1389C19.8236 2 22 4.17639 22 6.86111V11.25C22 11.6642 21.6642 12 21.25 12C20.8358 12 20.5 11.6642 20.5 11.25V6.86111C20.5 5.00482 18.9952 3.5 17.1389 3.5H6.86111C5.00482 3.5 3.5 5.00482 3.5 6.86111V17.1389C3.5 18.9952 5.00482 20.5 6.86111 20.5H11.25C11.6642 20.5 12 20.8358 12 21.25C12 21.6642 11.6642 22 11.25 22H6.86111C4.17639 22 2 19.8236 2 17.1389V6.86111ZM11.5 7.5C10.6716 7.5 10 8.17157 10 9C10 9.82843 10.6716 10.5 11.5 10.5C12.3284 10.5 13 9.82843 13 9C13 8.17157 12.3284 7.5 11.5 7.5ZM8.5 9C8.5 7.34315 9.84315 6 11.5 6C13.1569 6 14.5 7.34315 14.5 9C14.5 10.6569 13.1569 12 11.5 12C9.84315 12 8.5 10.6569 8.5 9ZM18.0003 14.4999C19.9333 14.4999 21.5003 16.0669 21.5003 17.9999C21.5003 19.9329 19.9333 21.4999 18.0003 21.4999C16.0673 21.4999 14.5003 19.9329 14.5003 17.9999C14.5003 16.0669 16.0673 14.4999 18.0003 14.4999ZM13.0003 17.9999C13.0003 20.7613 15.2389 22.9999 18.0003 22.9999C20.7617 22.9999 23.0003 20.7613 23.0003 17.9999C23.0003 15.2385 20.7617 12.9999 18.0003 12.9999C15.2389 12.9999 13.0003 15.2385 13.0003 17.9999ZM10.8195 13.5181C10.9712 13.5203 11.1154 13.5223 11.2499 13.5223C11.6641 13.5223 11.9999 13.8581 11.9999 14.2723C11.9999 14.6865 11.6641 15.0223 11.2499 15.0223C11.0736 15.0223 10.9004 15.0204 10.7303 15.0186C9.92965 15.0099 9.19834 15.0019 8.54512 15.1952C8.17563 15.3046 7.86581 15.4724 7.61364 15.7266C7.36189 15.9804 7.13051 16.3576 6.97478 16.9429C6.86827 17.3432 6.45744 17.5813 6.05715 17.4748C5.65686 17.3683 5.41871 16.9575 5.52522 16.5572C5.73673 15.7623 6.08292 15.1398 6.54872 14.6702C7.0141 14.2011 7.5618 13.9219 8.11944 13.7569C9.01217 13.4927 10.0205 13.5069 10.8195 13.5181ZM18.3473 15.6917C18.6536 15.9705 18.6759 16.4449 18.3971 16.7512L17.9437 17.2494H19.7535C20.1677 17.2494 20.5035 17.5852 20.5035 17.9994C20.5035 18.4136 20.1677 18.7494 19.7535 18.7494H17.9431L18.3973 19.2488C18.676 19.5553 18.6535 20.0296 18.3471 20.3083C18.0407 20.587 17.5663 20.5645 17.2876 20.2581L15.6922 18.504C15.432 18.2179 15.432 17.7807 15.6924 17.4946L17.2878 15.7416C17.5666 15.4352 18.0409 15.4129 18.3473 15.6917Z" fill="black"/>
</svg>
