<svg width="24" height="24" viewBox="0 0 24 24" fill="none" xmlns="http://www.w3.org/2000/svg">
<path d="M12 4.5C7.29677 4.5 3.5 8.26321 3.5 12.8858C3.5 14.4595 3.93869 15.9303 4.7022 17.1879C4.91716 17.542 4.80439 18.0033 4.45032 18.2183C4.09624 18.4332 3.63496 18.3204 3.42 17.9664C2.51851 16.4815 2 14.7426 2 12.8858C2 7.41727 6.48596 3 12 3C17.514 3 22 7.41727 22 12.8858C22 14.7426 21.4815 16.4815 20.58 17.9664C20.365 18.3204 19.9038 18.4332 19.5497 18.2183C19.1956 18.0033 19.0828 17.542 19.2978 17.1879C20.0613 15.9303 20.5 14.4595 20.5 12.8858C20.5 8.26321 16.7032 4.5 12 4.5ZM12 9.52466C10.8954 9.52466 10 10.4201 10 11.5247C10 12.6292 10.8954 13.5247 12 13.5247C13.1046 13.5247 14 12.6292 14 11.5247C14 10.4201 13.1046 9.52466 12 9.52466ZM8.5 11.5247C8.5 9.59166 10.067 8.02466 12 8.02466C13.933 8.02466 15.5 9.59166 15.5 11.5247C15.5 13.4577 13.933 15.0247 12 15.0247C10.067 15.0247 8.5 13.4577 8.5 11.5247ZM12.0003 18.5C9.86209 18.5 7.90184 19.3592 6.39959 20.7926C6.09991 21.0786 5.62517 21.0674 5.33922 20.7678C5.05327 20.4681 5.0644 19.9933 5.36408 19.7074C7.12307 18.029 9.44671 17 12.0003 17C14.5539 17 16.8775 18.029 18.6365 19.7074C18.9362 19.9933 18.9473 20.4681 18.6614 20.7678C18.3754 21.0674 17.9007 21.0786 17.601 20.7926C16.0988 19.3592 14.1385 18.5 12.0003 18.5Z" fill="black"/>
</svg>
