<svg width="24" height="24" viewBox="0 0 24 24" fill="none" xmlns="http://www.w3.org/2000/svg">
<path d="M9 4.5C7.61929 4.5 6.5 5.61929 6.5 7C6.5 8.38071 7.61929 9.5 9 9.5C10.3807 9.5 11.5 8.38071 11.5 7C11.5 5.61929 10.3807 4.5 9 4.5ZM5 7C5 4.79086 6.79086 3 9 3C11.2091 3 13 4.79086 13 7C13 9.20914 11.2091 11 9 11C6.79086 11 5 9.20914 5 7ZM17.5 6.19995C16.6716 6.19995 16 6.87152 16 7.69995C16 8.52838 16.6716 9.19995 17.5 9.19995C18.3284 9.19995 19 8.52838 19 7.69995C19 6.87152 18.3284 6.19995 17.5 6.19995ZM14.5 7.69995C14.5 6.0431 15.8431 4.69995 17.5 4.69995C19.1569 4.69995 20.5 6.0431 20.5 7.69995C20.5 9.35681 19.1569 10.7 17.5 10.7C15.8431 10.7 14.5 9.35681 14.5 7.69995ZM17.9523 14.2L17.3096 14.2C16.8954 14.2 16.5596 13.8642 16.5596 13.45C16.5596 13.0358 16.8953 12.7 17.3095 12.7L17.9523 12.7C20.2507 12.7 21.9997 14.2701 21.9997 16.349V17.2294C21.9997 17.9507 21.6929 18.5227 21.1567 18.879C20.6682 19.2037 20.0644 19.3 19.515 19.3H18.4966C18.0824 19.3 17.7466 18.9642 17.7466 18.55C17.7466 18.1358 18.0824 17.8 18.4966 17.8H19.515C19.9237 17.8 20.1872 17.7223 20.3266 17.6297C20.4182 17.5688 20.4997 17.4806 20.4997 17.2294V16.349C20.4997 15.2349 19.5656 14.2 17.9523 14.2C17.9523 14.2 17.9523 14.2 17.9523 14.2ZM6.62931 15C4.67081 15.0001 3.5 16.2648 3.5 17.6606V18.6964C3.5 19.0334 3.61579 19.1798 3.76282 19.2775C3.95754 19.4069 4.2976 19.5 4.79082 19.5H13.2092C13.7024 19.5 14.0425 19.4069 14.2372 19.2775C14.3842 19.1798 14.5 19.0334 14.5 18.6964V17.6606C14.5 16.2648 13.3292 15.0001 11.3707 15M6.62931 15C6.6293 15 6.62932 15 6.62931 15V15ZM2 17.6606C2 15.3 3.98567 13.5001 6.62928 13.5H11.3707C14.0143 13.5001 16 15.3 16 17.6606V18.6964C16 19.5034 15.6589 20.1338 15.0673 20.5269C14.5234 20.8883 13.8431 21 13.2092 21H4.79082C4.15692 21 3.47658 20.8883 2.93267 20.5269C2.34106 20.1338 2 19.5034 2 18.6964V17.6606Z" fill="black"/>
</svg>
