<svg width="24" height="24" viewBox="0 0 24 24" fill="none" xmlns="http://www.w3.org/2000/svg">
<path fill-rule="evenodd" clip-rule="evenodd" d="M2 4.75C2 3.23122 3.23122 2 4.75 2H13.25C14.7688 2 16 3.23122 16 4.75V10C16 10.4142 15.6642 10.75 15.25 10.75C14.8358 10.75 14.5 10.4142 14.5 10V4.75C14.5 4.05964 13.9404 3.5 13.25 3.5H4.75C4.05964 3.5 3.5 4.05964 3.5 4.75V19.25C3.5 19.9404 4.05964 20.5 4.75 20.5H6V15.7485C6 14.7807 6.78453 14 7.74977 14H10.2506C11.2177 14 12 14.7841 12 15.75V21.25C12 21.6642 11.6642 22 11.25 22H4.75C3.23122 22 2 20.7688 2 19.25V4.75ZM7.5 20.5H10.5V15.75C10.5 15.6113 10.3881 15.5 10.2506 15.5H7.74977C7.61044 15.5 7.5 15.6117 7.5 15.7485V20.5ZM5 7C5 6.58579 5.33579 6.25 5.75 6.25H7.25C7.66421 6.25 8 6.58579 8 7C8 7.41421 7.66421 7.75 7.25 7.75H5.75C5.33579 7.75 5 7.41421 5 7ZM10 7C10 6.58579 10.3358 6.25 10.75 6.25H12.25C12.6642 6.25 13 6.58579 13 7C13 7.41421 12.6642 7.75 12.25 7.75H10.75C10.3358 7.75 10 7.41421 10 7ZM5 11C5 10.5858 5.33579 10.25 5.75 10.25H7.25C7.66421 10.25 8 10.5858 8 11C8 11.4142 7.66421 11.75 7.25 11.75H5.75C5.33579 11.75 5 11.4142 5 11ZM10 11C10 10.5858 10.3358 10.25 10.75 10.25H12.25C12.6642 10.25 13 10.5858 13 11C13 11.4142 12.6642 11.75 12.25 11.75H10.75C10.3358 11.75 10 11.4142 10 11Z" fill="black"/>
<path fill-rule="evenodd" clip-rule="evenodd" d="M18.125 13.75C17.6418 13.75 17.25 14.1418 17.25 14.625C17.25 15.1082 17.6418 15.5 18.125 15.5C18.6082 15.5 19 15.1082 19 14.625C19 14.1418 18.6082 13.75 18.125 13.75ZM15.75 14.625C15.75 13.3133 16.8133 12.25 18.125 12.25C19.4367 12.25 20.5 13.3133 20.5 14.625C20.5 15.9367 19.4367 17 18.125 17C16.8133 17 15.75 15.9367 15.75 14.625ZM16.9397 19C16.1317 19 15.75 19.4986 15.75 19.9553V20.4667C15.7612 20.4704 15.775 20.4744 15.7917 20.4782C15.8469 20.491 15.923 20.5 16.0204 20.5H20.2296C20.327 20.5 20.4031 20.491 20.4583 20.4782C20.475 20.4744 20.4888 20.4704 20.5 20.4667V19.9553C20.5 19.4986 20.1183 19 19.3103 19M19.3103 19H16.9397H19.3103ZM14.25 19.9553C14.25 18.5338 15.4465 17.5001 16.9396 17.5H19.3103C20.8034 17.5001 22 18.5338 22 19.9553V20.4732C22 20.9942 21.7732 21.4304 21.3662 21.7008C21.007 21.9395 20.5817 22 20.2296 22H16.0204C15.6683 22 15.243 21.9395 14.8838 21.7008C14.4768 21.4304 14.25 20.9942 14.25 20.4732V19.9553Z" fill="black"/>
</svg>
