<svg width="24" height="24" viewBox="0 0 24 24" fill="none" xmlns="http://www.w3.org/2000/svg">
<path d="M2.21967 2.21967C2.51256 1.92678 2.98744 1.92678 3.28033 2.21967L14.7484 13.6878C14.7717 13.7083 14.7937 13.7304 14.8143 13.7536L19.7477 18.687C19.7701 18.7069 19.7912 18.7281 19.8111 18.7504L21.7803 20.7197C22.0732 21.0126 22.0732 21.4874 21.7803 21.7803C21.4874 22.0732 21.0126 22.0732 20.7197 21.7803L19.6724 20.7331C19.5003 21.0267 19.2643 21.2731 18.9733 21.4676C18.37 21.8708 17.6073 21.9997 16.8827 21.9997H7.11735C6.39269 21.9997 5.63001 21.8708 5.02666 21.4676C4.37602 21.0328 4 20.3378 4 19.4372V18.2289C4 15.5591 6.23399 13.5001 9.24997 13.5L12.4394 13.5L2.21967 3.28033C1.92678 2.98744 1.92678 2.51256 2.21967 2.21967ZM13.9394 15L9.25003 15C9.25002 15 9.25004 15 9.25003 15C6.92755 15.0001 5.5 16.5163 5.5 18.2289V19.4372C5.5 19.8714 5.65393 20.0826 5.8601 20.2204C6.11356 20.3898 6.53456 20.4997 7.11735 20.4997H16.8827C17.4654 20.4997 17.8864 20.3898 18.1399 20.2204C18.3262 20.0959 18.4699 19.9114 18.4958 19.5565L13.9394 15ZM12 3.5C10.9879 3.5 10.0926 4.00049 9.54809 4.77083C9.309 5.10908 8.84098 5.18946 8.50273 4.95037C8.16449 4.71128 8.0841 4.24326 8.32319 3.90502C9.13676 2.75403 10.4803 2 12 2C14.4853 2 16.5 4.01472 16.5 6.5C16.5 8.04102 15.7247 9.40078 14.5463 10.2107C14.205 10.4453 13.7381 10.3588 13.5034 10.0174C13.2688 9.67607 13.3553 9.20915 13.6967 8.97452C14.4854 8.43246 15 7.52624 15 6.5C15 4.84315 13.6568 3.5 12 3.5Z" fill="black"/>
</svg>
