<svg width="24" height="24" viewBox="0 0 24 24" fill="none" xmlns="http://www.w3.org/2000/svg">
<path d="M2 6.86111C2 4.17639 4.17639 2 6.86111 2H17.1389C19.8236 2 22 4.17639 22 6.86111V10.25C22 10.6642 21.6642 11 21.25 11C20.8358 11 20.5 10.6642 20.5 10.25V6.86111C20.5 5.00482 18.9952 3.5 17.1389 3.5H6.86111C5.00482 3.5 3.5 5.00482 3.5 6.86111V17.1389C3.5 18.9952 5.00482 20.5 6.86111 20.5H11.25C11.6642 20.5 12 20.8358 12 21.25C12 21.6642 11.6642 22 11.25 22H6.86111C4.17639 22 2 19.8236 2 17.1389V6.86111ZM11.5 7.5C10.6716 7.5 10 8.17157 10 9C10 9.82843 10.6716 10.5 11.5 10.5C12.3284 10.5 13 9.82843 13 9C13 8.17157 12.3284 7.5 11.5 7.5ZM8.5 9C8.5 7.34315 9.84315 6 11.5 6C13.1569 6 14.5 7.34315 14.5 9C14.5 10.6569 13.1569 12 11.5 12C9.84315 12 8.5 10.6569 8.5 9ZM17.6957 13.5337L14.8025 14.5459C14.7805 14.5536 14.7582 14.5602 14.7356 14.5658C14.5933 14.6012 14.5 14.7251 14.5 14.8611L14.5 16.9349C14.5 17.546 14.589 18.1269 14.8009 18.6447C15.1875 19.5895 15.5754 20.1216 15.982 20.4859C16.399 20.8597 16.8821 21.1014 17.5683 21.4082C17.7046 21.4692 17.8519 21.5 18 21.5C18.1481 21.5 18.2954 21.4692 18.4318 21.4082C19.1179 21.1013 19.601 20.8596 20.0181 20.4859C20.4247 20.1216 20.8125 19.5894 21.1991 18.6447C21.411 18.1269 21.5 17.546 21.5 16.9349V14.8611C21.5 14.7251 21.4067 14.6012 21.2644 14.5658C21.2418 14.5602 21.2195 14.5536 21.1975 14.5459L18.3043 13.5337C18.2041 13.5113 18.1021 13.5 18 13.5C17.8979 13.5 17.7959 13.5113 17.6957 13.5337ZM17.3038 12.0851C17.5324 12.0284 17.7662 12 18 12C18.2338 12 18.4676 12.0284 18.6962 12.0851C18.7188 12.0908 18.7411 12.0974 18.763 12.1051L21.6642 13.12C22.4477 13.3326 23 14.0416 23 14.8611V16.9349C23 17.6852 22.8915 18.4695 22.5873 19.2128C22.1399 20.3063 21.6378 21.0486 21.0191 21.603C20.4109 22.148 19.7334 22.4693 19.0442 22.7775C18.7121 22.926 18.3557 23 18 23C17.6443 23 17.288 22.9261 16.9559 22.7775C16.2667 22.4693 15.5892 22.1481 14.981 21.6031C14.3623 21.0487 13.8601 20.3063 13.4127 19.2128C13.1085 18.4695 13 17.6852 13 16.9348L13 14.8611C13 14.0416 13.5523 13.3326 14.3358 13.12L17.237 12.1051C17.2589 12.0974 17.2812 12.0908 17.3038 12.0851ZM10.7205 13.5176L10.7605 13.5181C11.1747 13.5232 11.5063 13.8632 11.5011 14.2773C11.496 14.6915 11.1561 15.0231 10.7419 15.018C9.83159 15.0067 9.02114 15.0086 8.35508 15.2588C7.76604 15.48 7.24891 15.9126 6.97478 16.9429C6.86827 17.3432 6.45744 17.5813 6.05715 17.4748C5.65686 17.3683 5.41871 16.9575 5.52522 16.5572C5.92105 15.0696 6.77391 14.2503 7.82768 13.8545C8.78919 13.4934 9.87514 13.507 10.7205 13.5176Z" fill="black"/>
</svg>
