<svg width="24" height="24" viewBox="0 0 24 24" fill="none" xmlns="http://www.w3.org/2000/svg">
<path d="M9 3.75C9 2.7835 9.7835 2 10.75 2H13.25C14.2165 2 15 2.7835 15 3.75V5H17.25C18.7688 5 20 6.23122 20 7.75V19.25C20 20.7688 18.7688 22 17.25 22H6.75C5.23122 22 4 20.7688 4 19.25V7.75C4 6.23122 5.23122 5 6.75 5H9V3.75ZM9 6.5H6.75C6.05964 6.5 5.5 7.05964 5.5 7.75V19.25C5.5 19.9404 6.05964 20.5 6.75 20.5H17.25C17.9404 20.5 18.5 19.9404 18.5 19.25V7.75C18.5 7.05964 17.9404 6.5 17.25 6.5H15V7.25C15 8.2165 14.2165 9 13.25 9H10.75C9.7835 9 9 8.2165 9 7.25V6.5ZM13.5 7.25V3.75C13.5 3.61193 13.3881 3.5 13.25 3.5H10.75C10.6119 3.5 10.5 3.61193 10.5 3.75V7.25C10.5 7.38807 10.6119 7.5 10.75 7.5H13.25C13.3881 7.5 13.5 7.38807 13.5 7.25ZM12 12C11.4477 12 11 12.4477 11 13C11 13.5523 11.4477 14 12 14C12.5523 14 13 13.5523 13 13C13 12.4477 12.5523 12 12 12ZM9.5 13C9.5 11.6193 10.6193 10.5 12 10.5C13.3807 10.5 14.5 11.6193 14.5 13C14.5 14.3807 13.3807 15.5 12 15.5C10.6193 15.5 9.5 14.3807 9.5 13ZM12 18C11.1114 18 10.2569 18.4354 9.56964 19.2379C9.3002 19.5525 8.82674 19.5891 8.51214 19.3196C8.19753 19.0502 8.16092 18.5767 8.43036 18.2621C9.34211 17.1976 10.5881 16.5 12 16.5C13.4119 16.5 14.6579 17.1976 15.5696 18.2621C15.8391 18.5767 15.8025 19.0502 15.4879 19.3196C15.1733 19.5891 14.6998 19.5525 14.4304 19.2379C13.7431 18.4354 12.8886 18 12 18Z" fill="black"/>
</svg>
