<svg width="24" height="24" viewBox="0 0 24 24" fill="none" xmlns="http://www.w3.org/2000/svg">
<path d="M11.6778 2.09384C11.9046 1.96823 12.1803 1.96875 12.4067 2.09522L21.6157 7.23887C21.851 7.37025 21.9976 7.61771 22 7.88712C22.0023 8.15653 21.86 8.40651 21.6271 8.54197L12.4181 13.8983C12.1859 14.0334 11.8992 14.0339 11.6664 13.8998L2.37541 8.54341C2.14112 8.40834 1.99769 8.15759 2.00003 7.88715C2.00238 7.61672 2.15014 7.36849 2.38674 7.2375L11.6778 2.09384ZM4.27459 7.90688L12.0394 12.3833L19.7356 7.90686L12.0394 3.60816L4.27459 7.90688ZM2.10025 11.5155C2.30713 11.1567 2.76574 11.0335 3.12459 11.2404L12.0394 16.3798L20.8729 11.2418C21.231 11.0336 21.6901 11.155 21.8983 11.5131C22.1066 11.8711 21.9851 12.3302 21.6271 12.5384L12.4181 17.8948C12.1859 18.0299 11.8992 18.0304 11.6664 17.8962L2.37541 12.5399C2.01656 12.333 1.89337 11.8744 2.10025 11.5155ZM2.10025 15.5153C2.30713 15.1565 2.76574 15.0333 3.12459 15.2401L12.0394 20.3796L20.8729 15.2416C21.231 15.0333 21.6901 15.1548 21.8983 15.5128C22.1066 15.8709 21.9851 16.3299 21.6271 16.5382L12.4181 21.8945C12.1859 22.0296 11.8992 22.0302 11.6664 21.896L2.37541 16.5396C2.01656 16.3328 1.89337 15.8742 2.10025 15.5153Z" fill="black"/>
</svg>
